<svg height="280" width="314" xmlns="http://www.w3.org/2000/svg"><mask id="a" fill="#fff"><path d="M.478.036h121.306v64.59H.478z" fill-rule="evenodd"/></mask><g fill="#555" fill-rule="evenodd"><path d="M98.326 7.327c1.038.038 2.438-.598 2.002 1.326-.184.818-1.303 1.088-2.19 1.243-4.588.8-9.06 2.117-13.608 3.104-9.45 2.052-18.716 4.929-28.14 7.125-4.713 1.099-9.283 2.681-14.016 3.728-2.057.455-4.722.781-6.093 3.112-2.387 4.057-3.734 8.578-5.247 12.935-1.552 4.47-3.067 9.006-4.299 13.593-.538 2.004-2.06 3.678-1.86 5.913.117 1.296.305 1.787 1.722.914 5.38-3.312 10.817-6.533 16.265-9.734 5.268-3.096 10.587-6.105 15.861-9.19 7.62-4.456 15.221-8.944 22.828-13.423 6.097-3.59 12.266-7.066 18.263-10.812 5.558-3.47 10.932-7.231 16.383-10.868.495-.33 1.405-.437 1.312-1.132-.094-.706-.92-.897-1.599-1.06-.592-.141-1.201-.514-1.76-.445-3.844.473-7.659-.453-11.508-.106-5.699.514-11.375-.654-17.132-.228-2.704.2-5.538.763-8.332.24-5.786-1.084-11.625.077-17.442-.328-2.035-.142-4.11.533-6.228-.041-.743-.202-1.702.006-2.574.115-3.225.404-6.44 1.038-9.737.775-2.973-.237-6.027-.741-8.928-.324-3.968.571-7.951.488-11.909.746-4.807.315-9.633.32-14.406 1.121-.429.073-1.053-.549-1.225.366-.119.641.292.91.777 1.206 1.197.734 2.327 1.578 3.539 2.285 6.53 3.81 13.309 7.143 20.159 10.347 1.479.692 2.85 1.804 1.566 3.72-1.209 1.801-2.293 3.675-3.607 5.424-2.801 3.73-5.387 7.62-8.028 11.466-.218.317-.389.97-.22 1.182.363.453.93.274 1.435-.006 2.74-1.52 5.486-3.028 8.24-4.52 1.026-.556 1.574-1.272 2.083-2.441 1.354-3.107 2.29-6.354 3.578-9.475.326-.79.763-1.403 1.557-1.663 3.892-1.274 7.754-2.663 11.702-3.737 7.595-2.065 15.256-3.889 22.86-5.92 5.498-1.468 11.107-2.405 16.647-3.658 3.793-.858 7.541-1.91 11.31-2.875zM84.708.036c.51.986 1.411 1.266 2.414 1.176 6.267-.565 12.532-.247 18.807-.168 4.23.053 8.385.847 12.605.753 1.352-.03 2.468.803 3.056 1.78.718 1.191-.744 1.796-1.422 2.486-3.34 3.402-7.668 5.475-11.54 8.144-5.221 3.596-10.765 6.744-16.26 9.93-6.195 3.59-12.307 7.326-18.423 11.031-6.868 4.16-13.792 8.244-20.718 12.293-9.511 5.562-18.94 11.264-28.497 16.751-.817.47-1.613.607-2.456.062-1.141-.738-.963-1.902-.7-2.855.735-2.663 1.654-5.277 2.51-7.907 1.119-3.442 2.216-6.89 3.394-10.312.268-.78.694-1.66.087-2.219-.932-.857-1.517.443-2.239.748-2.894 1.22-5.434 3.194-8.49 4.069-.748.214-1.619 1.108-2.416.119-.785-.974-.472-2.026.13-2.934 1.687-2.543 3.276-5.178 5.207-7.53 2.998-3.653 5.15-7.862 8.07-11.557 1.01-1.279.194-1.994-1.02-2.58-6.37-3.07-12.789-6.064-18.847-9.703C5.476 10.12 2.558 9.099.957 6.335c-.804-1.39-.643-2.107.84-2.831C4.37 2.246 7.193 2.672 9.82 2.52c2.532-.146 5.03-.855 7.592-.608 4.273.411 8.493-.6 12.809-.332 4.462.277 8.994-.195 13.47-.61C45.664.789 47.68.9 49.557.987c3.86.178 7.707-.189 11.576.093 4.185.304 8.424-.632 12.656-.342 2.602.179 5.19.741 7.793-.01.552-.16 1.29.141 1.527-.691z" mask="url(#a)" transform="translate(290 -1)"/><path d="M34.722 55.096c.64.778.807 1.104 1.073 1.283 3.101 2.09 6.44 3.776 9.692 5.615 9.524 5.384 18.932 10.968 29.057 15.214.59.247 1.063 1.263 1.785.56.695-.673.944-1.55.546-2.639-.597-1.632-.982-3.368-.867-5.12.136-2.074-1.26-3.22-2.772-3.666-2.65-.783-5.364-1.35-8.017-2.203-5.518-1.77-11.107-3.324-16.669-4.958-4.385-1.287-8.56-3.29-13.828-4.086zM0 42.102c2.273-1.738 4.674-3.067 7.596-3.613 3.227-.604 6.357-1.714 9.542-2.558 6.582-1.743 13.168-3.47 19.76-5.177 7.734-2.002 15.454-4.068 23.222-5.936 8.963-2.157 17.921-4.326 26.857-6.597 2.725-.693 5.466-1.556 8.281-1.812.798-.074 1.94-.986 2.62.18.57.979-.113 1.873-.616 2.671-2.568 4.075-5.81 7.646-8.792 11.407-1.937 2.444-3.731 5.053-6.329 6.912-.457.326-.882 1.157-1.527.527-.567-.55-.333-1.28.169-1.88 3.46-4.143 6.891-8.308 10.386-12.42 1.078-1.27 3.04-2.845 2.43-4.035-.728-1.415-2.582.404-3.925.698-9.72 2.118-19.49 4.122-29.039 6.866-8.051 2.312-16.269 3.871-24.344 6.053-4.709 1.273-9.548 2.35-14.264 3.565-4.806 1.236-9.73 2.299-14.452 3.954-.544.19-1.042.42-1.171.94-.229.919.693.77 1.147 1.082 2.438 1.68 5.44 1.925 8.129 2.707 4.766 1.387 9.253 3.454 13.99 4.873 7.994 2.394 15.904 5.066 23.89 7.494 7.306 2.22 14.616 4.467 22.017 6.338 5.994 1.516 11.785 3.73 18.008 4.567 2.726.367 5.519 1.353 8.334 1.798 1.901.3 2.703-.305 1.556-2.273-4.557-7.826-10.071-14.99-15.545-22.179-.386-.506-1.183-1.01-1.78-1-2.785.05-5.543-.15-8.32-.298-4.396-.235-8.884-1.067-13.156-.657-6.117.587-12.058-1.654-18.143-.321-2.385.522-4.717-1.322-7.266-.81-4.95.997-9.86-1.141-14.828-.267-1.04.183-1.728-.583-1.849-1.482-.139-1.033.737-1.29 1.601-1.253 4.519.187 9.07.132 13.54.703 2.616.334 5.185.04 7.772.269 2.816.25 5.662.284 8.494.258 4.939-.045 9.795 1.37 14.801.575 1.956-.311 3.98.556 6.089.456 3.434-.165 6.911.097 10.342.457 1.828.192 3.421.469 4.92 2.467 4.12 5.498 8.21 11.026 12.083 16.688 1.829 2.674 4.055 5.255 4.677 8.672.287 1.577-.037 2.344-1.696 2.446-5.746.355-11.058-1.58-16.522-2.857-2.872-.67-5.773-1.274-8.655-1.94-1.063-.247-1.528.333-1.631 1.466-.2 2.194.767 4.178 1.003 6.3.197 1.78-.271 3.117-1.324 4.305-1.213 1.371-2.194-.12-3.253-.487-4.705-1.634-8.857-4.371-13.287-6.534-8.768-4.283-17.098-9.294-25.525-14.15-6.555-3.778-12.852-8.042-19.897-10.899-4.084-1.655-8.313-2.996-12.557-4.202C2.26 43.79 1.38 42.666 0 42.63z"/><path d="M309.615 138.25c.146.937.89.84 1.437.74 4.197-.772 8.482-.872 12.65-2.024 1.825-.505 1.788-1.34 1.17-2.303-1.438-2.233-3.078-4.346-4.762-6.404-.74-.905-1.863-1.148-2.604.072-1.324 2.178-3.182 3.868-4.867 5.728-1.154 1.274-2.034 2.795-3.024 4.192m50.084-22.732c-.007-4.138-2.58-7.113-6.21-7.578-6.3-.809-11.727 1.594-16.845 4.662-5.189 3.11-9.805 7.063-14.347 11.066-.945.832-1.76 1.943-.765 2.923 2.45 2.417 4.272 5.309 6.41 7.955.645.797 1.32.885 2.058.743 2.272-.439 4.727-.942 6.617-1.953 3.853-2.062 8.03-3.344 11.844-5.51 2.932-1.666 5.621-3.494 7.85-5.938 1.638-1.795 3.169-3.767 3.388-6.37m-55.946 24.124c.348-.35 1.614.233 2.493-.922a238.483 238.483 0 0 1 9.618-11.84c1.276-1.47.774-2.938-.079-3.747-.967-.917-1.591-2.101-2.602-2.916-5.441-4.383-9.718-10.003-15.28-14.262-3.897-2.984-7.56-6.292-11.585-9.086-7.432-5.162-14.943-10.194-23.005-14.404-6.644-3.47-13.237-6.99-20.267-9.633-1.322-.498-2.103-.22-2.674 1.108-1.788 4.156-3.69 8.22-4.731 12.7-1.499 6.442-1.23 12.7.029 19.139 1.406 7.19 4.999 13.214 9.746 18.379 2.804 3.052 6.459 5.537 10.28 7.578 6.014 3.213 12.442 5.524 19.033 6.61 9.385 1.547 18.925 2.535 29.024 1.296m60.217 127.632c.411-4.827-.142-9.54-.341-14.274-.157-3.697-.232-7.447-.45-11.15-.304-5.135-.982-10.248-1.81-15.349-1.242-7.665-2.466-15.335-4.272-22.879-2.804-11.704-6.51-23.176-11.62-34.057-3.551-7.563-7.214-15.127-11.79-22.205-1.608-2.488-3.15-5.01-4.99-7.331-.663-.838-1.223-1.846-2.77-1.353-5.416 1.723-11.056 2.39-16.653 3.246-1.969.302-3.223 1.134-4.43 3.053-2.494 3.961-4.7 8.073-6.875 12.186-1.936 3.66-3.409 7.584-4.889 11.466-2.416 6.337-3.945 12.939-5.366 19.552-1.072 4.989-1.32 10.09-1.466 15.176-.13 4.449-.246 8.915.014 13.351.169 2.892.898 5.75 1.155 8.67.65 7.388 3.452 14.3 5.374 21.374 1.173 4.318 3.417 8.518 5.187 12.757 2.708 6.485 5.875 12.655 10.002 18.337.507.698.822 1.5-.127 1.964-.72.352-1.623.252-2.096-.596-2.887-5.174-5.912-10.28-8.573-15.569-2.063-4.102-3.705-8.42-5.46-12.672-2.467-5.988-3.474-12.403-5.365-18.553-1.367-4.443-1.75-9.09-2.263-13.554-.595-5.184-1.679-10.592-.763-15.834 1.461-8.357 1.552-16.946 4.141-25.101 1.973-6.214 4.153-12.336 6.8-18.327 2.37-5.361 5.386-10.293 8.366-15.28.346-.579 1.054-1.054.375-1.834-.63-.726-1.184-.412-1.84.024-.409.273-.993.475-1.47.425-7.245-.746-14.535-.64-21.795-1.597-4.95-.653-9.656-1.927-14.276-3.463-4.84-1.61-9.183-4.366-13.572-7.076-4.792-2.96-8.191-7.045-11.142-11.407-2.771-4.095-5.284-8.52-5.819-13.813-.323-3.193-1.236-6.302-1.159-9.609.054-2.315.376-4.607.68-6.843.737-5.423 2.263-10.676 5.4-15.315 1.369-2.025 1.05-2.867-1.255-3.879-2.395-1.051-4.905-1.848-7.358-2.676-7.295-2.46-14.558-5.018-22.072-6.876-4.882-1.207-9.75-2.57-14.639-3.814-6.452-1.641-13.062-2.474-19.567-3.826-7.526-1.565-15.204-2.041-22.762-3.43-3.25-.598-6.79-.747-10.146-1.07-3.117-.299-6.363.237-9.479-.897-2.54-.926-5.342-.279-8.02-.35-3.615-.092-7.163-.458-10.738-.978-2.692-.391-5.495.032-8.245-.04-.617-.015-1.738.29-1.741-1.053-.003-1.088.64-1.682 1.548-1.814a8.565 8.565 0 0 1 2.881.102c3.23.653 6.55.061 9.717.532 4.3.638 8.612.473 12.898.935 2.813.303 5.626.623 8.469.759 3.033.144 6.252-.154 9.216.828 2.399.796 4.876.532 7.299.865 7.458 1.026 14.853 2.344 22.238 3.773 5.108.988 10.294 1.622 15.357 2.795 3.987.923 7.942 2.046 11.867 3.293 3.591 1.142 7.421 1.65 11.052 2.799 7.874 2.49 15.75 4.979 23.396 8.13 2.629 1.083 3.84.698 5.263-1.887 2.562-4.658 6.571-8.045 10.331-11.593 5.936-5.605 12.876-9.923 19.877-14.036 4.866-2.859 10.05-5.193 15.386-7.136 4.097-1.49 7.972-3.56 12.197-4.732 1.526-.423 3.793-1.108 4.253.332.458 1.436-2.047 1.715-3.28 2.112-8.1 2.612-15.954 5.755-23.571 9.579-7.773 3.901-14.889 8.716-21.645 14.143-4.655 3.74-8.376 8.332-12.16 12.872-1.468 1.76-.86 2.955 1.658 4.026 5.522 2.346 11.059 4.652 16.207 7.804 2.89 1.77 6.14 2.97 8.947 4.848 4.499 3.01 9.166 5.739 13.55 8.978 4.92 3.637 9.916 7.17 14.601 11.115 4.097 3.451 8.16 6.909 11.737 10.967 1.948 2.21 4.248 4.112 6.02 6.552.923 1.272 2.726 1.767 3.756.122 1.857-2.971 4.884-4.585 7.483-6.566 2.946-2.244 5.896-4.575 9.362-6.214 3.177-1.503 6.491-2.551 9.715-3.871 6.268-2.567 14.325 2.68 14.463 9.413.056 2.696-.884 5.307-2.67 7.188-4.703 4.954-10.098 8.799-16.72 11.208-3.623 1.319-7.361 2.506-10.906 4.101-1.257.566-1.296 1.45-.48 2.56 7.714 10.471 13.62 21.95 18.575 33.916 2.422 5.852 4.68 11.799 6.53 17.85 1.965 6.436 3.444 13.015 4.707 19.652.847 4.447 2.022 8.874 2.552 13.353.652 5.516 1.393 11.034 1.817 16.593.289 3.785.192 7.657 1.014 11.528.68 3.2.624 6.945.03 10.472-.313 1.869.164 3.867.24 5.809.031.787.049 1.602-.118 2.364-.19.868-.025 2.195-1.477 2.094-1.417-.098-.787-1.371-.907-2.107-.224-1.358-.22-2.752-.305-4.057"/></g></svg>