<svg width="753" height="264" xmlns="http://www.w3.org/2000/svg"><g fill-rule="nonzero" stroke="#000" fill="none"><path d="M5.399 0C-9.37 85.162 19.173 171.137 2.693 256M8.5 8.5h744v255H8.5z"/><path d="M749 4c-8.218 15.864-1.941 1.04-.953 33.647 2.319 76.517-2.19 55.142-4.376 146.905-.583 24.493.537 48.99.631 73.487.01 2.493.271 2.06-2.302 1.631"/><path d="M1 257.828c201.757-.574 403.018 5.83 604.739 1.874 33.003-.648 108.17.007 140.261-4.702M7 1c222.084 7.61 1.944 2.25 234.615 1.012C411.655 1.107 581.945.883 752 1.432"/></g></svg>