<svg width="210" height="140" xmlns="http://www.w3.org/2000/svg"><g transform="translate(1 12)" fill="none" fill-rule="evenodd"><ellipse fill="#EAF6F9" fill-rule="nonzero" cx="106.01" cy="65" rx="50.01" ry="50"/><g fill="#1A1919"><path d="M9.23 52.941c-.748-.048-1.47.051-2.212-.135-3.294-.826-5.155-3.238-5.59-6.985-.346-2.975.297-5.773 1.779-8.26.844-1.418 2.127-2.763 4.058-3.006 1.108-.14 2.207-.349 3.31-.52.399-.063.794-.048 1.16.15.2.107.446.353.59.304 1.73-.593 2.62.785 3.587 1.643 1.256 1.113 2.294 2.481 3.108 3.982.2.366.24.753.263 1.14.158 2.521-.349 4.916-1.618 7.098-1.866 3.207-4.7 4.748-8.435 4.589zm54.848 16.35c.45.113.536.47.668.75 2.373 5.008 6.346 8.417 11.165 10.95 2.553 1.342 5.225 2.44 7.867 3.6 1.633.717 3.375.962 5.064 1.413 2.126.568 4.278 1.057 6.48 1.338 2.207.281 4.415.332 6.61.153 1.527-.125 3.066-.14 4.582-.328 4.695-.583 9.412-.997 13.998-2.311 2.112-.605 4.223-1.205 6.33-1.827 3.46-1.02 6.603-2.67 9.755-4.318 1.852-.967 3.696-1.999 5.381-3.221 2.311-1.676 4.727-3.278 6.44-5.957.33 2.44.684 4.64.632 6.875-.04 1.686-.137 3.381.096 5.049.204 1.453-.454 2.441-1.511 3.168-1.583 1.088-3.16 2.196-4.936 2.994-4.708 2.114-9.468 4.115-14.336 5.816a74.335 74.335 0 0 1-9.641 2.671c-3.049.621-6.071 1.345-9.16 1.787-2.52.359-5.065.48-7.592.781a12.008 12.008 0 0 1-5.534-.664c-1.95-.72-4.021-.642-6.03-.962-2.206-.352-4.284-1.076-6.321-1.876-1.467-.577-2.856-1.336-4.403-1.749-3.168-.844-5.792-2.776-8.608-4.329-2.228-1.228-3.901-3.073-5.713-4.77-.604-.567-.847-1.333-.954-2.118-.405-2.968-.646-5.956-.296-8.934.158-1.337-.303-2.645-.033-3.981zm1.734-12.217c.74-1.515 1.692-2.926 2.51-4.404.846-1.531 1.618-3.11 3.277-3.976 2.12-3.06 5.3-4.99 8.11-7.278 2.294-1.869 4.828-3.465 7.612-4.69 2.836-1.246 5.666-2.525 8.58-3.541 2.053-.716 4.236-1.128 6.384-1.595 3.819-.831 7.782-.686 11.521-1.875a3.983 3.983 0 0 1 1.843-.163c.167.025.356.072.507.022 1.891-.619 3.836-.623 5.798-.606.42.004.916-.188 1.33-.091 2.477.582 4.94 1.216 7.339 2.067.731.26.814.792.156 1.232-1.006.672-1.767 1.58-2.57 2.443-2.169 2.325-4.83 4.096-7.1 6.31a304.521 304.521 0 0 1-8.29 7.75c-2.513 2.274-5.016 4.561-7.685 6.661-.927.73-1.79 1.536-2.458 2.541-.402.604-.968 1.102-1.477 1.633-.263.274-.737.46-.469.947.198.36.568.54.99.564 1.245.07 2.482.08 3.733.235 3.535.44 7.026 1.17 10.61 1.333 2.414.11 4.826.694 7.193 1.251 2.493.588 5.044.606 7.554 1.004 2.06.327 4.171.318 6.244.585 3.033.389 6.1.26 9.126.68.672.094 1.505-.333 1.897.666.359.916-.402 1.247-.77 1.845-1.836 2.994-4.764 4.765-7.547 6.652-2.462 1.67-5.155 2.975-7.837 4.302-4.004 1.98-8.243 3.098-12.53 4.167-4.736 1.182-9.557 1.745-14.4 2.206-1.867.178-3.73.406-5.613.294-2.718-.121-5.432-.295-8.05-1.13-2.046-.654-4.217-.793-6.24-1.585-3.796-1.486-7.557-3.002-10.962-5.302-1.795-1.21-3.517-2.479-4.936-4.104-2.106-2.413-3.765-5.072-4.32-8.29-.048-.277-.169-.552-.161-.826.071-2.685-.123-5.428 1.101-7.934zm57.63 4.022c.114-1.007.253-1.226 1.38-1.294 1.292-.077 2.59-.117 3.88.142.55.11 1.13.126 1.692.11 3.35-.095 6.686.254 10.017.449 2.454.143 4.93.225 7.393.66 2.141.376 4.291.909 6.486.96.645.015.796.382.86.814.142.945.256 1.898.293 2.85.083 2.12.11 4.24.37 6.351.066.538-.282.85-.867.68-.597-.174-1.21-.331-1.766-.6-.525-.253-1.07-.38-1.628-.467-1.36-.21-1.41-.194-1.447-1.445-.036-1.285-.21-2.57.105-3.86.294-1.204-.074-1.74-1.313-1.736-2.032.007-4.035-.577-6.037-.183-4.217-.328-8.385-.671-12.528-1.289-1.344-.2-2.723-.036-4.063-.34-.55-.124-1.1-.26-1.659-.324-.911-.109-1.27-.57-1.167-1.478zm7.674-3.045a109.32 109.32 0 0 1 8.554-2.05c2.213-.443 4.394-1.039 6.635-1.358.278-.04.566-.092.82-.205 3.531-1.573 7.396-2.02 11.036-3.226.888-.294 1.892.064 2.773-.578-.194 1.43-.842 2.553-1.393 3.683-.662 1.357-1.593 2.581-2.305 3.917-.619 1.16-1.712 1.714-2.713 2.409-.259.18-.53.173-.812.11-4.534-1.026-9.187-1.161-13.783-1.618-2.837-.283-5.737-.566-8.625-.391-.263.015-.533-.075-.802-.117.062-.41.354-.501.615-.576zm30.95-5.911c.719 1.606 1.281 2.754 1.22 4.185-.054 1.289-.035 2.557-.318 3.836-.172.78-.466.981-1.228.975-.542-.004-1.444-.29-1.525.61-.068.74.683 1.013 1.3 1.073.904.086.78.57.646 1.176-.538 2.413-1.828 4.434-3.337 6.336-.45.566-1 1.054-1.52 1.597-.584-.403-.24-.956-.259-1.4-.103-2.309-.249-4.613-.54-6.906-.17-1.344.127-2.486 1.075-3.53 1.188-1.308 1.834-2.976 2.711-4.487.586-1.011 1.07-2.078 1.775-3.465zM135.28 38.458c.407 1.033-.05 1.758-.216 2.44-.666 2.717-1.476 5.4-2.182 8.108-.168.643-.106 1.342-.22 2.003-.127.72-.289 1.465-1.58 1.57.457-.8.492-1.548.965-2.128.182-.223.331-.513.085-.758-.558-.558-.296-1.177-.118-1.74.791-2.519 1.575-5.038 2.107-7.624.15-.723.75-1.076 1.16-1.871zm3.576-2.667c-.53 1.863-1.059 3.57-1.497 5.3-.661 2.618-1.204 5.265-2.111 7.82-.164.461-.375.932-.254 1.471.105.467-.089.904-.433 1.217-.246.224-.606.387-.93.17-.318-.212-.131-.557.014-.753 1.135-1.52.635-3.378 1.051-5.054.639-2.572 1.47-5.094 2.007-7.69.236-1.137.799-1.972 2.153-2.48zm1.792-1.608c.068-.252.29-.48.486-.677.286-.285.679-.517 1.057-.355.4.17.47.608.396 1.03-.244 1.386-.432 2.812-.837 4.133-.874 2.846-1.456 5.757-2.197 8.63-.287 1.117-1.204 2.087-.86 3.364.06.223-.148.273-.299.289-.615.064-1.178.443-1.928.285.052-2.52.975-4.777 1.565-7.109.607-2.396 1.252-4.784 1.794-7.193.19-.839.6-1.58.823-2.397zm3.174.37c.141-.527.434-.73 1.002-.587.525.132.589.454.502.889-.242 1.215-.442 2.44-.74 3.642-.688 2.78-1.59 5.507-2.074 8.34-.16.94-.825 1.713-1.014 2.677-.12.615-.817.42-1.208.657-.399-.65-.21-1.214-.053-1.733 1.215-4.042 2.148-8.155 3.139-12.253.132-.548.301-1.087.446-1.631zm2.381 1.272c.114-.605.406-1.07 1.162-.834.59.185 1.174.281 1.062 1.2-.3 2.466-.779 4.883-1.677 7.204-.565 1.461-.924 2.986-1.568 4.434-.307.692-.45 1.112-1.218 1.126-.167.003-.332.055-.678.116-.049-1.759.613-3.218.939-4.73.472-2.191.906-4.398 1.7-6.516.23-.615.153-1.338.278-2zm4.663 2.007c-.91 2.065-1.366 4.27-2.014 6.416-.324 1.074-.737 2.122-1.137 3.172-.21.55-.236.541-1.332 1.039l3.44-12.351c.896.31 1.492.707 1.043 1.724zm2.102.696c.523.492.706.98.671 1.763-.083 1.883-1.093 3.421-1.646 5.123-.21.643-.548 1.244-.226 2.07-.942.087-1.68.441-2.493.324-.333-.415-.2-.906-.084-1.298a279.587 279.587 0 0 1 2.401-7.734c.34-1.034.548-1.028 1.377-.248zm2.376 4.586c-.412 1.046-.762 2.116-1.173 3.162-.118.302-.246.657-.595.786-.257.095-.55.2-.802-.015-.22-.186-.07-.41-.014-.616.482-1.772 1.57-3.3 1.912-5.357.735.768.96 1.311.672 2.04zm-.07 3.619c-.247-1.023.53-1.557.905-2.384 1.411 1.827 1.342 1.982-.905 2.384zm-25.37 5.562c-.19.402-.405.994-.906.833-.577-.186-.195-.72-.11-1.13.411-1.964.821-3.925 1.302-5.875.334-1.36.957-2.626 1.153-4.034.088-.632.793-1.007 1.4-1.365-.204 1.788-.553 3.484-1.154 5.115-.714 1.94-1.134 3.956-1.588 5.965-.037.163-.027.345-.097.491zm-2.394.934c-.196.877-.873.583-1.402.78.099-2.124 2.306-8.938 3.526-10.795.09 1.274-.272 2.31-.53 3.364-.542 2.214-1.094 4.428-1.594 6.651zm-4.153 1.356c.465-2.895 1.618-5.536 2.588-8.222.16-.44.574-.808 1.144-.82.198.365.066.688-.06.996-.915 2.245-1.411 4.62-2.204 6.903-.21.606-.395 1.199-1.468 1.143zm-3.038.58c1.166-2.223 1.195-4.876 3.626-6.755-.598 2.27-1.064 4.202-1.849 6.04-.286.67-.764 1.106-1.777.714zm-2.258.61c.623-1.27.836-2.539 1.897-3.517.047 1.873-.52 2.995-1.897 3.516zm50.042-38.624c-1.092-.035-2.144-.515-2.944-1.184-2.766-2.312-3.752-5.192-1.702-8.65.625-1.056 1.094-2.187 2.156-2.978 2.783-2.073 5.814-3.234 9.309-2.552 2.625.514 4.451 2.095 5.47 4.59.363.888.05 1.788.205 2.552.266 5.104-3.081 7.716-6.3 8.885-1.041.377-2.005-.222-2.985.089-.772-1.538-2.07-.715-3.21-.752zm20.876 38.352c1.472-2.786 3.318-5.074 6.362-6.218.262-.1.513-.306.775-.317 3.834-.168 8.003.876 10.136 4.803 1.716 3.164 1.203 7.066-1.13 9.84-1.024 1.218-2.06 2.34-3.373 3.28-1.41 1.013-2.85 1.552-4.298 1.334-3.146.254-5.434-.936-7.401-2.896-.829-.825-1.243-1.874-1.56-2.96-.17-.59-.224-1.214-.33-1.824-.306-1.773-.055-3.388.819-5.042zM10.763 62.26c1.893-1.004 4-1.16 6.057-1.382 2.366-.256 4.776.005 7.128-.558.416-.1.949-.062 1.33.118.636.3 1.208.143 1.817.033.503-.09 1.029-.25 1.518-.185 2.648.354 5.298-.09 7.953.076 2.02.125 4.062.144 6.087.201 2.264.063 4.492.308 6.779.027 1.314-.162 2.674-.335 4.015-.3 1.927.051 3.804-.27 5.704-.472 1.468-.156 2.885-.802 4.415-.61.12.934-.603 1.548-.612 2.338-.007.676-.108 1.163-.94 1.34-.522.112-.465.687-.3 1.149.829 2.32.668 4.754.834 7.153.166 2.394-.408 4.783.028 7.182.23 1.271.274 2.604.234 3.867-.044 1.346.275 2.25 1.357 2.97.277.185.48.48.72.719 2.92 2.892 6.352 5.067 9.947 7.02 1.806.982 3.805 1.479 5.663 2.302 2.341 1.038 4.816 1.694 7.166 2.694 2.327.988 4.904.754 7.326 1.394 3.09.816 6.291.649 9.462.424 3.161-.224 6.271-.85 9.404-1.25 4.014-.512 7.838-1.69 11.686-2.743 3.63-.995 7.104-2.54 10.67-3.78 1.346-.467 2.594-1.12 3.886-1.691 2.574-1.14 5.234-2.093 7.562-3.74.785-.556 1.367-1.394 2.307-1.719.937-.322 1.17-.925.931-1.82-.102-.381-.138-.778-.199-1.169-.45-2.894-.172-5.793-.201-8.726 1.718.067 3.1.76 4.521 1.29 1.693.632 1.68.654 2.858-.843.173-.22.415-.386.603-.596 2.308-2.575 4.352-5.298 5.253-8.72.446-1.695.506-1.667 2.212-1.783 2.386-.163 4.756.122 7.13.194 3.177.095 6.368-.142 9.555-.034 1.178.04 2.364.058 3.529.21.543.07 1.052.24 1.344.988.668 1.71 1.932 2.947 3.505 4 2.147 1.438 4.42 1.879 6.938 1.828 2.647-.053 4.782-.885 6.618-2.875 2.325-2.52 4.229-5.106 4.118-8.738-.077-2.558-.819-4.806-2.478-6.793-2.328-2.791-5.606-3.38-8.91-3.969-.424-.076-.778.114-1.167.168-2.37.326-3.962 2.038-5.836 3.247-.132.085-.183.285-.294.41-1.254 1.414-1.801 3.233-2.762 4.818-.432.711-1.058 1.602-.779 2.523.274.908-.02 1.733.127 2.65-7.42.48-14.672-.218-22.055-.047.085-1.009-.04-2.031.298-2.87.401-1 .222-1.86-.032-2.767-.512-1.833-1.399-3.55-1.425-5.534-.011-.943-.677-1.135-1.681-.856-1.3.361-2.58.904-3.873 1.135-3.472.621-6.787 1.796-10.194 2.632-3.473.853-6.951 1.677-10.45 2.412-3.817.802-7.613 1.689-11.38 2.691-.857.228-1.603.263-2.44-.11-1.202-.536-1.494-.257-1.26 1.064.146.828.383 1.65.057 2.485-.202.516-.42.827-1.132.573-1.67-.598-3.468-.502-5.206-.742-2.468-.34-4.96-.526-7.412-.948-1.114-.19-2.262-.329-3.546-.62 1.175-1.047 2.296-1.852 3.167-2.867 1.473-1.717 3.243-3.115 4.8-4.732 1.458-1.515 3.412-2.468 4.724-4.12 1.624-2.045 3.81-3.51 5.528-5.469 1.75-1.992 3.881-3.62 5.93-5.307.963-.793 1.816-1.696 2.78-2.482.385-.314.768-.517 1.229-.243.498.296.993 2.968.58 3.382-.508.512-.85 1.141-1.454 1.601-2.839 2.16-5.474 4.559-8.063 7.006-1.142 1.08-2.24 2.205-3.346 3.322-1.79 1.808-3.793 3.374-5.801 4.923-1.166.898-1.931 2.234-3.297 2.893-.429.207-.87.413-.647.994.228.595.69.63 1.263.478 1.093-.29 2.03-1.024 3.112-1.233 4.163-.804 8.304-1.646 12.416-2.723 3.773-.988 7.484-2.173 11.253-3.16 1.806-.473 3.578-1.098 5.384-1.535 3.84-.929 7.752-1.54 11.662-2.127.667-.1 1.343-.22 2.012-.206 1.219.024 1.427-.162 1.002-1.262-.527-1.367-1.132-2.704-1.693-4.059-.546-1.317-1.34-2.512-2-3.668.237-.365.476-.345.694-.35 2.657-.057 5.315-.102 7.972-.165 1.466-.035 2.911-.258 4.39.15.938.258 1.807-.624 1.857-1.705.1-2.226.534-4.416.393-6.677-.184-2.955.241-5.926-.004-8.892-.018-.222.018-.45.043-.674.14-1.27.195-1.317 1.447-1.304 5.134.052 9.478-3.94 9.818-9.024.022-.338-.037-.685.017-1.015.427-2.63-.62-4.783-2.394-6.552-2.96-2.952-6.74-3.35-10.45-2.19-2.38.744-4.683 2.046-6.19 4.44-1.45 2.304-2.282 4.609-1.898 7.301.063.44-.057.914.217 1.321 1.177 1.753 2.507 3.347 4.485 4.269.615.288 1.238.56 1.857.84.314.143.591.276.59.718-.004 1.177.1 2.356.051 3.53-.093 2.252-.068 4.5-.066 6.751.002 2.074.15 4.171-.235 6.244-.104.559-.169.965-.864.992-1.188.048-2.387.306-3.556.202-2.93-.263-5.862.257-8.8-.18-.816-.12-1.472-.298-2.084-.764a20.706 20.706 0 0 0-4.845-2.77c-1.825-.737-3.776-1.175-5.491-2.197-.6-.359-1.191-.294-1.556.446-.2.401-.555.678-.888.99-1.38 1.289-2.748 2.577-4.583 3.59-.218-.655-.486-1.177-.555-1.724-.18-1.42-.85-2.623-1.555-3.82-.29-.492-.699-.776-1.288-.995-1.49-.554-3.064-.808-4.554-1.348-.737-.268-1.449-.57-2.265-.681-3.207-.435-6.375-.12-9.533.337-3.973.574-7.925 1.29-11.9 1.858-4.164.595-8.11 1.922-12.042 3.324-1.031.368-1.814 1.24-2.838 1.511-2.245.596-4.1 1.934-6.12 2.95-1.924.967-3.694 2.241-5.289 3.658-1.091.968-2.105 2.09-3.288 2.91-2.166 1.505-3.73 3.54-5.406 5.473-1.556 1.796-2.663 3.91-3.652 6.057-.418.905-.962 1.218-1.937 1.233-3.236.046-6.434.707-9.685.61-.674-.02-1.352.167-2.031.205-1.304.073-2.542.57-3.87.502-4.467-.23-8.933.104-13.403.047-3.785-.048-7.572.065-11.359.214-2.833.11-5.669-.011-8.426.814-.542.163-1.087.323-1.64.438-1.023.214-1.255.07-1.29-.937-.035-1.067.03-2.137.056-3.206.047-1.858.044-1.902 1.833-2.106.542-.063 1.04-.226 1.419-.5 2.22-1.597 4.244-3.3 5.063-6.134.873-3.02 1.317-5.903-.273-8.834-.454-.835-1.2-1.33-1.749-2.04-1.237-1.597-2.956-2.6-4.818-3.342-1.07-.427-2.147-.684-3.272-.038-.367.211-.89.14-1.333.235-1.44.311-2.98.548-4.093 1.525-1.855 1.625-3.138 3.685-3.83 6.074-.575 1.988-.398 4.02-.245 6.026.326 4.293 3.507 7.174 7.188 7.572.853.092 1.16.422 1.367 1.178.319 1.152-.096 2.331.242 3.471.163.553.11 1.082-.169 1.635-.236.467-.532 1.047.087 1.525.587.452 1.208.621 1.897.257z"/><path d="M194.742 63.448c3.035.603 6.039-.963 7.21-3.76.094-.225.128-.456-.125-.572-.135-.062-.338-.05-.485 0-.279.096-.42.35-.587.584-1.224 1.716-2.89 2.57-5.022 2.588-1.11.009-1.66-.37-1.874-1.454-.283-1.437.448-2.488 1.425-3.347 1.44-1.266 1.994-1.141 3.013.504.188.302.358.647.736.576.46-.086.653-.563.558-.916-.276-1.005-.073-2.03-.227-3.026-.102-.657-.494-1.077-1.231-1.001-.057.215-.114.321-.107.422.039.55.093 1.101.154 1.788-1.709-.764-3.055-.16-4.325.891-.841.697-1.039 1.71-1.41 2.622-.727 1.789.396 3.723 2.297 4.1M7.464 44.134l1.6-3.746c.615 1.32.782 2.49 1.102 3.746H7.464zm5.04 2.045c.715-1.416-.755-1.804-.956-2.778-.416-2.015-1.196-3.957-1.597-5.993-.136-.69-.693-.864-1.213-.41-.511.448-.646 1.106-.669 1.692-.044 1.116-.428 2.073-.934 3.038-.989 1.884-1.926 3.795-2.866 5.704-.198.402-.314.842-.409 1.1-.042.578-.123 1.042.383 1.169.429.107.779-.17.932-.557a8.94 8.94 0 0 0 .416-1.457c.294-1.409 1.117-2.117 2.478-2.119.393-.001.785-.065 1.18-.077 1.182-.033 1.501.18 1.82 1.327.149.538.211 1.104.272 1.662.063.571.248 1.1.496 1.608.133.272.377.463.68.408.378-.069.547-.362.539-.74a6.141 6.141 0 0 0-.043-.676c-.133-.99-.917-2.09-.508-2.9zM172.85 13.093c-.734.91-1.815 1.245-2.907 1.399-.424-.546-.224-1.082-.279-1.567-.18-1.61.279-2.084 1.94-2.202.747-.053 1.56-.088 1.97.626.435.756-.337 1.266-.724 1.744zm-3.33-5.083c.347-.868 1.396-1.23 2.176-.73.508.327.521.928-.001 1.412-.597.555-1.387.676-2.217 1.021-.186-.741-.15-1.218.043-1.703zm4.63 5.462c1.436-2.474 1.34-2.796-1.218-4.077.747-1.383.673-1.82-.453-2.864a2.917 2.917 0 0 0-1.65-.78c-.945-.133-1.704.557-2.638.48-.267-.023-.334.42-.263.704.38 1.53.079 3.13.55 4.658.3.977.211 2.005-.139 2.968-.285.786-.122 1.234.628 1.38 1.235.244 4.516-1.32 5.184-2.47z"/></g></g></svg>