<svg height="390" width="562" xmlns="http://www.w3.org/2000/svg"><g fill="none" fill-rule="evenodd"><path d="M371.149 259.229c-.09.103-.079.18.032.234.013-.038.049-.085.038-.113-.017-.042-.066-.071-.106-.106a.381.381 0 0 1 .036-.015" fill="#000"/><ellipse cx="281.919" cy="203.419" fill="#fff" fill-rule="nonzero" rx="184.919" ry="179.419"/><path d="M224.228 260.01c.66-1.193.976-2.733.407-4.014-1.407 2.916-3.31 5.298-3.998 5.65-.01.004 0-6.153-.648-4.785-.648 1.367-1.295 4.101-2.924 5.46-.575.075-1.157.124-1.718.131.285-.36.547-.74.761-1.155.38-.737.417-2.635.35-2.535-.17.258-2.299 2.883-3.77 3.199-.616-.337-1.02-.871-1.075-1.677-.059-.834-1.206-1.082-1.432-.205-1.732 6.742-6.276 12.18-11.95 15.425.773-1.403.873-3.098 1.223-4.642-.573.886-1.106 2.075-1.783 3.034-.699.992-2.438 2.897-2.404 3.057-.895.37-1.807.692-2.733.954.316-.491.591-1.004.835-1.45.704-1.286.949-2.506.974-3.975-.848 1.566-3.503 4.884-4.632 5.977-.846.195-1.695.281-2.546.32 1.246-1.239 1.97-3.19 2.207-4.904-1.383.882-1.961 2.292-3.486 3.132-1.006.554-2.17 1.043-3.395 1.492a20.966 20.966 0 0 1-5.079-1.538c-.375-.169-.761-.11-.997.276a20.722 20.722 0 0 1-6.372 6.565c1.43-1.347 2.469-3.16 2.363-5.173-.008-.148-.279-1.021-.483-.607-.834 1.69-1.424 3.16-2.894 4.396-.859.722-1.811 1.292-2.792 1.805-.156.082-.31.155-.46.226.661-1.179.986-2.533 1.224-4.024-.817 1.54-2.71 3.248-4.22 4.188a9.189 9.189 0 0 1-2.476 1.079c-.229.061-.44.103-.642.143 2.426-2.333 4.405-9.72 4.09-9.49-.803.583-1.203 1.647-1.724 2.504a22.132 22.132 0 0 1-2.148 2.96c-1.486 1.72-5.216 4.138-5.238 4.324a17.52 17.52 0 0 1-2.281-.905c3.529-1.753 7.28-5.252 7.725-9.199.016-.143-3.366 3.7-4.124 4.407-1.761 1.644-6.37 2.955-6.42 3.13a19.578 19.578 0 0 1-1.089-.838c4.817-2.627 6.103-7.423 5.843-7.217-1.33 1.052-2.135 2.778-3.502 3.854-1.355 1.066-3.086.505-4.472 1.313a20.98 20.98 0 0 1-.98-1.173c.52-.235.992-.63 1.407-1.074.809-.867 1.3-2.138 1.324-3.342-.81-.15-1.334.824-1.861 1.275-.798.683-1.606.807-2.58.588-1.065-1.86-2.906-1.502-3.013-.938-.683 3.608-3.183 7.789-5.47 9.38.138-.46-.37-2.078-.588-3.033-.464 1.494-2.83 7.361-7.615 8.804 1.367-4.329 1.34-7.944 1.153-7.141-1.153 4.977-5.731 7.797-5.94 7.862.358-.485 2.735-3.607 2.3-7.846-.543.192-2.3 7.846-7.769 7.125 1.978-1.682 2.754-4.075 2.654-6.6-.005-.126-.236-.958-.455-.686-.397.491-.525 1.186-.799 1.762a8.519 8.519 0 0 1-1.636 2.306 7.582 7.582 0 0 1-2.104 1.503c-.188.093-.628-.174-1.193-.628.132-.096.265-.192.4-.283.817-.547 1.53-1.194 2.112-2.013.996-1.399 1.615-5.585 1.537-5.604-.948 1.606-1.599 3.02-2.74 4.188-.509.52-1.067.995-1.705 1.327-.63.328-1.242.193-1.865.308-.16-.156-.319-.312-.478-.47 2.17-1.603 3.047-4.023 2.966-4.053-.819.663-1.796 1.05-2.643 1.342-.749.259-.888.386-2.41.625-.589-.53-1.033-.916-1.212-.96 1.367 0 5.086-3.607 4.102-3.607-1.368 0-4.062 3.071-6.153 1.443-.238-.088-.608-.906-.778-.72-3.108 3.385-6.472 7.064-10.539 9.21.29-.867.407-1.856.282-2.686-.033-.223-.48-1.328-.725-.739-.115.276-.102.578-.213.854-.114.284-.314.512-.5.748-.341.431-.705.847-1.13 1.187-.544.434-.955 1.743-.92 1.931-.238.067-.474.138-.717.193a9.578 9.578 0 0 1-1.647.224c.739-1.204.992-2.783 1.294-4.199-.743 1.554-3.996 3.957-3.998 3.997a12.226 12.226 0 0 1-2.711-.861c.671-.432 1.29-1 1.641-1.556.831-1.31 1.088-2.76 1.082-4.293-.359 1.108-1.107 2.094-2.024 2.883-.976.84-3.168 1.312-3.217 1.41a9.492 9.492 0 0 1-1.4-1.412c.362-.348.727-.736.985-1.163.317-.523.571-2.394.462-2.212-.483.809-1.387 1.472-2.244 1.752-.656-.892-.943-2.03-.946-3.27.08-.493.126-1 .126-1.526.002-.838-1.296-1.084-1.431-.205a4.555 4.555 0 0 0-.03.298c-.043.349-.07.693-.077 1.033-.485 3.446-3.145 5.89-6.269 6.883.897-1.05 1.767-2.687 1.102-4.066-.168.81-.389.833-.579 1.2-.48.928-1.322 1.355-2.24 1.698-.833.312-1.66.366-2.53.318 1.63-1.142 2.193-3.209 2.316-5.176-1.047 1.16-1.487 2.447-3.16 2.908-1.194.329-3.007.555-4.31.254 3.857-1.76 3.23-6.431 3.21-5.861-.097 2.636-3.525 3.12-4.18 3.238-.436.08-1.552.13-1.873-.222.592-.957 1.23-1.623 1.755-2.73.544-1.15.652-2.163.653-3.419-.219.13-.523.383-.689.61-.258.354-.514.707-.828 1.008-.622.597-1.48 1.237-2.28 1.517-.184.064-.982-1.303-1.254-2.22.923-.517 2.318-3.322 1.788-3.317-.246.002-.37.19-.551.352a4.587 4.587 0 0 1-.654.49c-.35.216-.708.408-1.08.572a33.08 33.08 0 0 1-.641-3.938c-.073-.724-.959-1.09-1.358-.388a14.78 14.78 0 0 1-6.285 5.939c1.418-1.413 2.347-3.486 2.277-5.464-.994 1.82-4.216 4.54-5.628 4.902.937-1.228 1.718-2.832 1.307-4.302-.524-.107-.666.704-.812 1.016-.316.674-.753 1.323-1.281 1.829-.83.792-1.99 1.325-3.127 1.57a10.244 10.244 0 0 1-1.863-.61c2.138-1.951 3.376-4.778 4.339-7.543-.988 1.907-2.487 3.555-4.103 4.946-1.448 1.246-2.783 1.808-4.156 1.264 2.006-.959 3.69-3.034 4.184-5.17.017-.07-.075-.536-.19-.397-.88 1.05-1.593 2.093-2.841 2.731-.796.407-1.728.602-2.645.68 2.697-1.536 4.399-4.796 5.126-7.857-1.544 2.205-4.716 6.63-7.805 6.128-.49-.576-.758-1.209-.985-1.86 2.055-.58 3.128-2.08 3.804-3.99-1.182.853-2.894 1.4-4.326 1.61-.306-1.049-.41-2.18-.378-3.318.02-.714-.789-.95-1.244-.543a14.274 14.274 0 0 1-3.45 2.278c.986-1.056 1.614-2.538 1.76-3.978-.572 1.937-2.314 3.035-4.153 3.687-.797.283-1.726.316-2.637.376 1.084-1.022 1.92-2.371 2.263-3.823.032-.135-.006-1.477-.006-1.477 0 1.874-2.91 3.313-4.526 4.195-1.477.805-3.127.922-4.566.205.29-.257.573-.52.838-.771a14.11 14.11 0 0 0 1.93-2.25c.65-.946.813-1.773 1.238-2.833-.468.358-1.172.761-1.641 1.216-.357.346-.704.702-1.091 1.009-.826.651-1.741 1.323-2.75 1.687-.76.274-1.413.01-2.028.502.863-1.16 1.988-1.976 2.907-3.247 1.086-1.502 1.84-3.113 2.54-4.838-.908 1.087-2.048 2.22-3.238 3.125-1.25.95-2.83 2.168-4.369 2.478-.118-.144-.214-.301-.312-.458 1.45-1.252 2.93-2.13 4.084-3.725 1.085-1.501 1.84-3.112 2.54-4.838-.909 1.087-2.05 2.22-3.24 3.125-1.248.951-2.828 2.168-4.367 2.478-.153.031-.251.145-.314.302a15.1 15.1 0 0 1-.515-1.713c1.792-1.177 3.3-1.915 4.573-3.407 1.18-1.38 1.344-3.243 1.295-3.178-1.69 2.24-3.505 2.99-6.29 3.493-.013-.428-.001-.846.032-1.259.695-.367 1.26-1 1.692-1.402 1.143-1.063 2.12-2.541 2.89-3.925.158-.284-.23-1.352-.431-1.056-.88 1.297-1.901 2.065-3.235 2.744.597-1.398 1.298-2.66 1.24-3.931a5.677 5.677 0 0 0-.25-1.329c.329-.421.643-.854.921-1.319.368-.615.78-1.201.748-1.946-.006-.17-.1-.64-.32-.678-.761.867-1.305 1.65-1.903 2.389-.238-.612-.471-1.22-.61-1.81-.399-1.697-.633-3.465-.472-5.215.469-5.103 4.31-8.32 8.67-9.8 2.05-.695 3.845-.328 4.988-2.297 2.415-4.163 5.12-7.641 9.63-9.27 5.251-1.897 11.1 2.137 15.31 6.13.73.224.98.126 1.145-.156 3.713-6.351 7.857-13.113 14.284-16.716 5.885-3.299 13.775-3.248 18.457 2.232.27.316.754.272 1.03 0 8.173-8.045 18.676-10.462 28.35-3.824 3.333 2.286 6.274 5.33 8.537 8.779 1.455 2.219 3.256 5.172 3.024 8.002-.056.68.826.992 1.244.544 7.884-8.457 20.742-10.04 30.267-3.752.275.182.658.114.883-.12 4.945-5.123 10.44-10.892 17.526-12.304 6.324-1.26 14.014 2.074 15.256 9.282.056.324.404.568.703.564 6.985-.086 12.205 7.78 9.843 14.682-.214.625.556 1.226 1.07.868 6.506-4.517 16.358-.99 14.704 7.13-.141.691.491 1.15 1.07.87 6.2-3.01 14.037 1.866 14.573 9.034.033.43.31.747.73.769 3.277.163 6.034 1.558 5.908 5.39-.084 2.547-1.217 5.131-2.568 7.201-.767 1.175-1.61 2.018-2.593 2.673zm-.096-16.756c-1.005-7.512-8.678-12.443-15.438-10.15.583-8.168-8.414-14.955-15.521-11.74.983-5.432-1.837-7.832-6.587-10.34-1.12-.591-2.3-.688-3.45-1.11-1.15-.421-.704-.03-1.298-1.148-.345-.65-.512-1.405-.869-2.064-1.357-2.5-3.593-4.325-6.066-5.476-6.858-3.193-14.019-.607-19.755 3.863-1.424 1.11-2.778 2.314-4.092 3.567a101.49 101.49 0 0 0-2.251 2.225c-1.075 1.09-1.154 1.323-2.48.794-3.12-1.246-5.855-2.593-9.252-2.966-7.28-.802-14.633 1.63-20.068 6.745-.37-2.543-1.864-5.075-3.159-7.055-2.534-3.874-5.845-7.251-9.646-9.723-9.94-6.462-20.644-3.939-28.986 3.939-4.692-4.959-12.014-5.434-17.996-2.818-7.318 3.201-12.06 10.507-16.105 17.38-6.303-5.258-16.49-8.145-22.235-2.05-1.402 1.488-2.585 3.237-3.65 5-.363.6-.677 1.24-1.046 1.834-1.265.377-2.624.47-3.893.915-4.675 1.64-8.746 5.093-9.48 10.498-.197 1.458-.142 2.931.065 4.385.438 3.08 2.268 5.7.996 8.72-1.804 4.284-1.926 8.228-.047 12.641 4.07 9.563 15.652 11.828 23.405 6.155.415 6.754 4.778 13.044 11.159 14.775 5.92 1.606 12.152-1.012 15.824-5.97 1.143 7.074 4.676 15.038 11.894 16.553 4.602.966 9.87-1.262 12.072-5.483 1.228 3.707 4.628 6.451 8.445 7.377.502.121 1 .205 1.494.26 6.666.55 12.352-4.188 16.679-8.654 2.048-2.114 19.366 27.233 39.193-5.954 10.939 17.315 29.42 10.124 35.33.374a22.885 22.885 0 0 0 6.385 1.608c11.831.907 23.28-6.251 27.244-17.596.512.663 1.245 1.09 2.117 1.337 4.819 1.068 12.522-2.353 14.433-4.947 2.005-2.72 3.72-6.588 3.309-10.118-.444-3.814-3.43-5.273-6.674-5.583z" fill="#404040"/><g fill="#000"><path d="M382.07 1.431c-.965.624-1.744 1.011-2.749.813-.749-.148-1.522-.18-2.349-.456.615-.655 1.255-1.003 2.09-.894.915.12 1.844.165 3.007.537M373.854 7.818c1.498-1.5 2.222-1.437 3.52.184-.465.184-.924.086-1.367.068-.667-.027-1.345.007-2.153-.252M368.165 7.831c-1.143-.06-2.287-.167-3.431-.168-1.545 0-2.49-2.006-1.484-3.25 2.04-2.52 4.586-4.211 7.946-4.399 1.575-.088 3.106.267 4.655.448.124.015.3.16.325.272.024.105-.105.262-.197.37-.365.43-.818.609-1.388.494-.407-.082-.824-.116-1.236-.181-3.647-.578-6.506.83-8.852 3.517-.13.148-.21.356-.264.548-.107.376.127.768.494.827.307.049.62.065.932.077 1.925.076 3.85.145 5.776.22.31.013.622.03.929.08.196.033.205.232.13.358-.307.51-.692.871-1.366.845-.988-.038-1.978-.01-2.968-.01v-.048M353.673 182.364c-.133.79-.113 1.458-.044 2.124.025.24.215.393.422.366.562-.071 1.128-.156 1.672-.308.863-.24.91-.318.919-1.173.011-1.01.052-1.443-1.156-1.051-.561.183-1.13.033-1.813.042zm-.073 3.304c0 .702-.01 1.268.004 1.833.009.352.196.566.56.632 2.14.386 2.634-.044 2.474-2.171-.04-.523-.214-.704-.674-.558-.71.223-1.435.229-2.364.264zm.157-26.568c-.234.462-.167.831-.17 1.189-.02 1.623.013 1.494 1.55 1.514 1.456.019 1.527.117 1.509-1.559-.012-1.036-.015-1.02-1.15-1.023-.564-.001-1.129-.076-1.739-.12zm1.49-3.394c-1.748.025-1.678-.151-1.658 1.711.008.82.095.898.858.964.257.023.517.038.775.04 1.326.006 1.421-.089 1.425-1.386.003-1.34-.002-1.344-1.4-1.329zm-1.634 6.9c-.011.878-.036 1.595-.026 2.311.015 1.083.146 1.246 1.265 1.274 1.818.045 1.803.28 1.795-1.697-.001-.363.007-.726-.014-1.087-.029-.523-.164-.673-.654-.6-.733.108-1.445.057-2.366-.2zm-.03 15.187c0 .77-.002 1.393 0 2.015.004 1.542-.093 1.543 1.566 1.46a7.85 7.85 0 0 0 .933-.104.598.598 0 0 0 .524-.502c.114-.565.018-2.462-.179-3.298-.433.144-.854.343-1.296.414-.45.071-.921.015-1.549.015zm.14-10.792c-.26.803-.128 1.634-.133 2.45-.008 1.26.288 1.525 1.55 1.449.307-.018.61-.1.911-.168.334-.075.562-.269.568-.632.018-1.021.111-2.047-.082-3.123-.514.075-.96.19-1.406.191-.458.003-.916-.104-1.409-.167zm57.259-116.877c.156.083.244.172.328.169 2.292-.076 4.089-1.04 5.318-3 .136-.217.402-.467.263-.691-.217-.353-.546-.034-.82.018-1.02.193-2.035.407-3.053.607-.258.051-.52.098-.682.324-.15.21-.284.435-.4.667-.315.638-.766 1.215-.954 1.906zm-54.334 123.772c0-.104.008-.209-.002-.31-.059-.659.268-1.456-.235-1.936-.397-.378-1.09.082-1.655-.012-.051-.008-.104-.004-.154-.014-.911-.176-1.023-.063-1.019.983.005 1.036.009 2.072.008 3.108 0 .413.183.706.58.812.797.216 1.571.028 2.23-.389.427-.272.212-.859.242-1.31.02-.31.004-.621.005-.932zm8.005-33.263c.039-.674-.095-.792-.64-.745-.26.023-.52.05-.777.089-.714.106-.786.17-.845.868-.234 2.805-.41 5.615-.846 8.4-.062.39.17.543.582.426.695-.197 1.194-.495 1.266-1.352.086-1.034.344-2.054.514-3.082.264-1.593.517-3.189.746-4.604zm-17.083 50.222c-.23.328-.182.65-.172.956.02.65.142.842.794.947 1.078.175 2.163.36 3.25.403 1.82.073 3.646.017 5.468.053 1.996.038 3.937-.34 5.878-.724.663-.131.807-.366.76-1.118-.026-.416-.208-.571-.607-.446a20.17 20.17 0 0 1-3.97.816c-3.602.37-7.173.296-10.68-.738-.242-.07-.495-.103-.721-.149zm.463-49.945c-.823-.012-1.03-.005-1.163.22-.468.79-1.077 1.492-.834 2.575.329 1.472.51 2.978.71 4.476.238 1.766.34 1.454 1.738 1.997.144.057.301.082.454.113.395.079.603-.09.583-.487-.012-.26-.052-.518-.078-.777-.243-2.437-.604-4.864-.554-7.323.003-.104-.004-.209-.01-.312-.012-.234-.13-.392-.363-.433-.203-.035-.413-.042-.483-.049zm7.77 49.411c1.049.06 2.55-.14 4.043-.351 1.078-.153 2.16-.365 3.13-.913.121-.069.255-.223.264-.346.007-.107-.127-.273-.242-.333-1.314-.699-2.763-.885-4.21-1.061-.32-.04-.483.202-.466.487.038.64-.293.923-.872 1.06-.3.07-.567.262-.863.356-1.53.482-2.974.243-4.354-.53-.206-.115-.25-.306-.316-.503-.263-.79-.273-.817-1.024-.684a17.4 17.4 0 0 0-2.12.504c-.412.128-1.04.188-1.034.734.006.457.6.504.972.65.384.152.792.255 1.198.345 1.785.396 3.597.563 5.893.585zm6.101 38.82c.195-.135.308-.175.359-.255 1.368-2.14 2.737-4.277 4.087-6.428a4.089 4.089 0 0 0 .614-2.374c-.011-.275.02-.628-.442-.765-1.013.908-2.076 1.818-3.089 2.779-1.067 1.011-1.845 2.222-2.391 3.597-.35.882-.423 1.67.259 2.434.236.263.371.615.603 1.012zm-11.05-88.209c-.312 0-.626-.013-.938.004-.53.027-.66.169-.61.663.068.673.176 1.343.226 2.018.144 1.922.265 3.846.4 5.769.019.259.054.518.106.772.044.216.185.4.406.422.775.08 1.554.14 2.332.186.159.01.294-.115.295-.293 0-.206-.034-.412-.05-.618-.188-2.441-.428-4.88-.547-7.324-.084-1.742.06-1.614-1.62-1.599zm7.488 4.72h-.072c-.061 1.457-.123 2.912-.183 4.369-.017.429.127.59.534.539.464-.058.926-.14 1.382-.246.707-.165.75-.222.825-.924.218-2.018.427-4.037.65-6.055.085-.776.215-1.547.292-2.323.064-.646-.057-.779-.663-.73-.675.053-1.347.137-2.016.237-.701.104-.739.15-.746.916-.011 1.406-.003 2.812-.003 4.218zm-11.18 4.83c.36 1.978.668 2.317 2.323 2.696 2.456.561 4.945.689 7.444.464 1.501-.135 2.998-.363 4.434-.848 1.255-.425 1.725-1.338 1.479-2.825-.955.427-1.881.91-2.914 1.085-3.249.555-6.51.682-9.786.275-.778-.097-1.53-.286-2.244-.623-.177-.084-.377-.117-.736-.224zm10.158.085c.007-2.53.017-4.92.364-7.291.09-.617.201-1.232.297-1.848.106-.675-.026-.827-.752-.785-1.144.066-2.286.153-3.429.239-.681.051-.744.153-.668.908.085.827.158 1.656.231 2.486.174 1.97.348 3.94.512 5.91.03.37.194.591.57.586.933-.013 1.872.03 2.875-.205zm33.188-5.72c-.197-.316-.325-.543-.474-.754-2.015-2.85-4.033-5.696-6.051-8.543-.12-.17-.246-.336-.37-.504-.216-.294-.475-.328-.817-.205-1.616.583-3.24 1.145-4.86 1.715-.049.017-.096.04-.143.061-.215.097-.27.363-.092.494.21.154.428.297.648.436 3.708 2.322 7.416 4.646 11.128 6.96.253.159.482.402 1.03.34zm-29.35 89.216c-.046-.223-.037-.397-.113-.515-.425-.65-.59-1.32-.312-2.08a.997.997 0 0 0 .001-.606c-.293-.898-.694-1.746-1.317-2.467a1.388 1.388 0 0 0-.946-.496 8.606 8.606 0 0 0-4.982 1.035c-.828.45-1.003 1.353-.506 2.143.11.176.26.328.373.502.538.84.684 1.712.334 2.682-.323.895-.216 1.031.638 1.315.678.226 1.33.164 1.993-.06.682-.232.77-.3.79-.97.025-.888.008-1.773-.213-2.644-.151-.596-.277-1.198-.48-2.082 1.488 1.413 2.239 2.873 2.378 4.638.873.053 1.594-.218 2.362-.395zM226.37 69.95c-.194.014-.397.01-.595.043-3.105.503-6.217.643-9.34.203-.928-.131-1.852-.285-2.778-.43-.201-.032-.431-.105-.554.107-.114.198.022.397.113.584.655 1.344 1.597 2.442 2.878 3.215 1.622.977 3.351 1.406 5.237.894 2.359-.641 4.01-2.127 5.099-4.276.035-.068-.03-.187-.06-.34zM359.81 205.145l-.22.073c0 .518-.019 1.037.004 1.553.188 4.375.266 8.751.244 13.129-.006 1.147-.009 2.293.002 3.44.002.18-.063.435.29.507.1-.146.227-.298.315-.47.531-1.042 1.296-1.874 2.216-2.591.985-.769 1.938-1.582 2.897-2.385.633-.53.642-.544.272-1.292a5346.089 5346.089 0 0 0-5.698-11.477c-.086-.174-.213-.325-.322-.487zm141.297-58.218c2.04.024 3.914-.513 5.595-1.674 1.05-.726 1.88-1.646 2.336-2.858.126-.336.213-.695.26-1.05.027-.214-.11-.402-.375-.372-.206.024-.408.08-.612.116-3.347.595-6.707.873-10.109.542a65.85 65.85 0 0 1-4.025-.528c-.613-.1-.758.058-.57.668.704 2.286 2.151 3.886 4.425 4.697.994.354 2.027.466 3.075.459zm-116.23-87.083c1.338 0 2.328.003 3.316-.007.078 0 .193-.084.22-.156a.32.32 0 0 0-.052-.275c-.987-1.063-2.228-1.7-3.612-2.059-8.413-2.181-16.827-4.357-25.244-6.524-1.627-.419-3.29-.51-4.963-.372-.156.013-.311.082-.314.265 0 .09.06.204.13.266.713.641 1.57 1.021 2.473 1.29 1.252.37 2.543.535 3.84.67 4.062.425 8.012 1.307 11.757 2.979 1.663.742 3.311 1.52 4.948 2.318 2.483 1.21 5.06 1.922 7.502 1.605zm-31.458 160.125c.407-.343.29-.67.286-.96-.053-3.589-.108-7.177-.179-10.766a81.306 81.306 0 0 1 .152-6.394c.021-.363.068-.725.077-1.089.004-.151-.064-.315-.256-.317-.088 0-.216.049-.26.118a7.698 7.698 0 0 0-.451.815c-1.892 3.993-3.78 7.989-5.667 11.985-.111.235-.222.47-.311.714-.08.22 0 .416.197.53.223.128.463.231.703.33 1.828.751 3.281 1.985 4.514 3.501.393.483.767.982 1.195 1.533zm-5.972-26.835c-.118.816-.048 1.688-.052 2.552-.007 1.716.022 1.743 1.698 2.27.248.077.498.157.752.21 3.774.788 7.549.784 11.32-.016.662-.141 1.31-.348 1.9-.692.286-.166.476-.41.476-.753 0-1.145.005-2.29-.019-3.435-.006-.312-.245-.447-.545-.388-1.276.249-2.548.517-3.825.765-2.412.469-4.842.683-7.303.547-1.473-.081-2.907-.246-4.15-1.14-.025-.018-.095.029-.252.08zm10.902 20.55c-.158-3.906-.456-7.806-.367-11.72.007-.304-.06-.618-.138-.916-.163-.61-.25-.672-.851-.685-.417-.01-.835.004-1.252.014-1.24.026-1.243.027-1.156 1.2.1 1.35.283 2.7.298 4.05.058 5.056.125 10.113.049 15.167-.026 1.698.35 3.297.601 4.934.03.189.166.308.297.309a46.57 46.57 0 0 0 2.499-.03c.106-.005.283-.182.295-.293.04-.412.034-.83.03-1.247-.033-3.596-.101-7.192-.305-10.783zM325.911 53.24l-.002-.019c-.933.101-1.865.238-2.8.298-2.535.161-4.768 1.066-6.707 2.686-3.883 3.244-7.755 6.5-11.628 9.756a7.457 7.457 0 0 0-1.97 2.596c-.448.962-.654 1.975-.668 3.03-.001.127.095.29.196.38.147.128.281-.027.41-.1.633-.362 1.232-.806 1.903-1.072 2.324-.922 4.089-2.464 5.359-4.598.08-.134.175-.259.263-.388 3.124-4.565 7.327-7.633 12.657-9.16.848-.244 1.675-.576 2.492-.913a3.451 3.451 0 0 0 1.477-1.127c.277-.375.648-.801.359-1.265-.206-.33-.675-.119-1.029-.123-.104-.002-.208.013-.312.02zm33.566 146.984c-.01.486.233.836.414 1.203.783 1.588 1.572 3.173 2.359 4.76 1.9 3.824 3.78 7.657 5.706 11.468.982 1.944.861 3.81-.193 5.662-.181.317-.381.622-.576.93-1.254 1.98-2.51 3.96-3.763 5.94-.195.309-.405.61-.572.932-.228.44-.132 1.063.148 1.1.39.048.514-.287.694-.525.157-.207.292-.43.437-.648 2.043-3.083 4.087-6.165 6.127-9.25.258-.391.516-.785.737-1.196.378-.701.547-1.453.522-2.256-.018-.592-.228-1.119-.462-1.642-2.45-5.463-4.902-10.926-7.355-16.388-.085-.19-.178-.377-.269-.564-.129-.264-.344-.396-.63-.329-1.103.258-2.202.53-3.324.803zm-28.11 8.878c-.19.309-.028.483.046.654.841 1.926 1.348 3.94 1.612 6.02.196 1.55.384 3.104.591 4.653.25 1.862.567 3.71 1.233 5.48 1.484 3.94 4.26 6.484 8.314 7.6 1.154.318 2.341.52 3.52.74.314.06.731.41.956-.06.152-.317-.23-.54-.41-.777-.254-.33-.536-.64-.806-.957-2.567-3.023-5.11-6.064-7.706-9.06-1.97-2.276-2.286-4.705-.899-7.37a161.698 161.698 0 0 0 1.624-3.208c.156-.318.415-.618.282-1.065-1.403-.287-2.833-.551-4.227-.987-1.426-.446-2.743-1.173-4.13-1.663zm20.003-8.91c-.825-.184-1.64-.314-2.421-.554-.914-.281-.947-.058-1.303.626-.073.139-.147.276-.218.416l-8.033 15.895c-.164.325-.33.65-.467.988-.57 1.417-.384 2.756.46 4.01.202.302.453.572.688.85 3.1 3.656 6.202 7.312 9.305 10.965.236.277.47.563.745.798a1.24 1.24 0 0 0 1.582.051c.454-.355.635-1.012.353-1.548-.191-.363-.467-.686-.732-1.005-2.101-2.522-4.209-5.04-6.313-7.559-.267-.32-.543-.634-.79-.97-1.343-1.826-1.598-3.799-.753-5.905.174-.434.386-.854.586-1.278 2.227-4.706 4.459-9.411 6.68-14.121.24-.51.565-.994.631-1.66zm20.477-61.65c.265.39.698.592 1.082.847 7.597 5.056 15.194 10.11 22.796 15.158.432.288.88.568 1.355.77 1.164.496 2.348.467 3.487-.076 1.258-.6 1.686-1.94 1.027-3.16-.222-.41-.508-.788-.777-1.172-4.216-6.022-8.433-12.043-12.651-18.064-.209-.299-.415-.6-.637-.89-.265-.344-.475-.362-.706.018-.487.799-1.277 1.334-1.865 2.058.384.557.702 1.03 1.031 1.496 3.467 4.892 6.937 9.782 10.402 14.675.269.38.533.772.746 1.186.173.334.001.752-.322.945-.3.18-.61.162-.87-.055-.198-.163-.36-.375-.512-.584-.4-.547-.806-1.092-1.173-1.66-.462-.715-1.053-1.258-1.782-1.71-5.404-3.357-10.79-6.74-16.184-10.114-.265-.165-.538-.318-.799-.491-.327-.219-.66-.255-1.039-.134-.545.175-1.103.31-1.655.464-.34.093-.737.07-.954.493zm-25.52-7.945c-2.714-.017-5.427-.047-8.13-.3-.718-.067-1.299.115-1.866.574-1.946 1.575-3.924 3.11-5.89 4.66a6.51 6.51 0 0 0-.472.41c-.15.145-.095.445.095.505.347.11.695.224 1.05.31a78.57 78.57 0 0 0 11.88 1.9c6.262.523 12.504.315 18.734-.51 7.013-.927 13.808-2.682 20.411-5.197.438-.167.883-.329 1.298-.543 1.182-.61 1.99-1.552 2.169-2.883.263-1.962.447-3.936.64-5.907.052-.537-.18-.69-.648-.446a51.872 51.872 0 0 1-6.15 2.707c-6.966 2.527-14.198 3.745-21.55 4.364-3.851.324-7.71.384-11.572.356zM305.78 92.38c.349-.114.501-.147.64-.21 1.874-.875 3.803-.931 5.811-.535 8.146 1.604 15.826 4.527 23.28 8.11 1.506.724 2.45 1.871 2.908 3.478.747 2.618 1.25 5.278 1.435 7.99.365 5.347-.07 10.63-1.367 15.836-.075.3-.137.607-.167.915a.301.301 0 0 0 .259.331c.308.044.62.072.93.09 6.472.395 12.935.316 19.395-.268 4.685-.423 9.32-1.135 13.88-2.287 4.007-1.012 7.895-2.358 11.564-4.287a31.558 31.558 0 0 0 4.239-2.657c.418-.313.652-.653.486-1.194-.091-.298-.134-.611-.197-.917-.425-2.048-.703-4.116-.734-6.206-.063-4.434-.085-8.869-.116-13.303-.006-.887.039-1.77.234-2.643.405-1.814 1.202-3.43 2.319-4.91 3.173-4.207 6.329-8.428 9.49-12.643.25-.334.501-.667.738-1.011.164-.238.15-.488-.028-.72-.795-1.035-1.59-2.069-2.389-3.1-.128-.166-.29-.305-.518-.309-1.83-.031-3.425.424-4.364 2.17a70.97 70.97 0 0 0-1.424 2.785c-1.098 2.273-2.527 4.318-4.23 6.175-.739.809-1.504 1.593-2.257 2.39-.753.798-1.477 1.62-2.057 2.556-.584.943-1.067 1.947-1.071 3.067-.009 1.927-.086 3.875.154 5.777.53 4.204.78 8.412.697 12.643-.03 1.463-.293 2.887-.744 4.297-.37 1.157-1.112 1.876-2.163 2.283-2.819 1.09-5.643 2.166-8.54 3.042-5.32 1.609-10.73 2.664-16.303 2.756-1.052.017-2.074.219-3.102.392a6.922 6.922 0 0 1-3.098-.19c-1.112-.32-1.928-1.01-2.43-2.06a5.281 5.281 0 0 1-.535-1.948c-.068-1.04-.185-2.081-.187-3.123-.005-2.66.026-5.32.078-7.981a32.287 32.287 0 0 0-.13-3.75c-.26-2.695-1.56-4.703-3.918-6.035a17.624 17.624 0 0 0-3.004-1.322c-2.072-.707-4.158-1.376-6.237-2.064L314.885 87.8c-1.239-.41-2.485-.8-3.796-.908-.954-.08-1.872.073-2.732.51-.824.418-1.395 1.087-1.807 1.893-.471.926-.91 1.865-.77 3.087zm104.096 193.303l-1.125 1.046c-1.18 1.094-2.524 1.833-4.154 1.995-.622.062-1.247.136-1.86.263-2.816.582-4.75 2.237-5.895 4.863-.307.703-.201 1.254.257 1.864 1.502 2.003 2.93 4.06 4.431 6.065 4.35 5.809 8.93 11.428 13.835 16.78 2.512 2.743 5.296 5.177 8.31 7.353.466.336.933.628 1.527.741 2.462.467 4.919.896 7.445.857 5.026-.075 9.528-1.622 13.51-4.673 8.48-6.498 11.853-17.14 9.48-27.403-.136-.589-.436-.84-1.06-.89-1.077-.085-2.029-.54-2.712-1.393-.604-.752-1.027-1.584-.4-2.56.551.173.657.684.93 1.046.485.642 1.057 1.148 1.856 1.356.387.1.664-.106.553-.459-.201-.646-.407-1.294-.667-1.918-.642-1.534-.461-1.426-2.008-1.38-.744.023-1.46-.163-2.075-.592-.608-.424-1.022-.966-.768-1.858.344.23.593.416.86.572.656.381 1.373.484 2.115.41.246-.024.362-.206.28-.442-.18-.515-.469-.903-1.067-1.017-.849-.162-1.574-.563-2.039-1.325-.315-.517-.486-1.076 0-1.575.25-.258.178-.447.015-.66-.19-.25-.392-.49-.604-.72-6.014-6.524-13.418-8.95-22.102-7.307-5.77 1.092-10.585 3.989-14.622 8.236-.684.72-.913 1.473-.778 2.4.165 1.128.596 2.1 1.591 2.754.261.171.51.365.75.564.236.198.518.38.512.74-.004.224-.5.445-.921.445-.545 0-1.021-.203-1.458-.5-.756-.516-1.296-1.208-1.564-2.087-.136-.445-.218-.906-.378-1.591zM397.413 70.965c-2.507-3.247-4.932-6.38-7.348-9.52a1.99 1.99 0 0 0-1.15-.746 7.376 7.376 0 0 0-1.855-.25c-.99.005-1.984-.009-2.974.032-1.751.072-3.43-.251-5.042-.907a51.609 51.609 0 0 1-3.431-1.518c-4.678-2.315-9.589-3.782-14.803-4.233-1.242-.107-2.482-.33-3.703-.592-1.4-.3-2.703-.867-3.606-2.037-.387-.5-.82-.558-1.366-.506-1.714.166-3.43.306-5.143.472-3.998.388-7.994.782-11.991 1.177-1.973.195-3.945.4-5.918.594-.391.039-.7.135-.782.595-.255 1.416-1.225 2.247-2.412 2.894-.922.503-1.918.817-2.915 1.12-5.03 1.525-9.047 4.42-12.003 8.778a43.76 43.76 0 0 1-1.947 2.645c-.956 1.203-2.135 2.134-3.563 2.736a14.82 14.82 0 0 0-1.267.61c-1.392.75-2.127 1.786-2.092 3.503.117 5.683.09 11.37.141 17.054.008.817-.167 1.652.143 2.454.936-.216 1.226-1.172 1.915-1.67.44-.317.513-.73.373-1.24a4.378 4.378 0 0 1 .388-3.339c1.07-1.96 2.693-3.153 4.978-3.296.938-.059 1.878-.022 2.794.24.952.271 1.917.504 2.857.812a9102.308 9102.308 0 0 1 21.85 7.156c1.634.538 3.254 1.117 4.803 1.88 3.075 1.516 4.727 4 5.032 7.388.117 1.297.207 2.6.239 3.903.075 3.076.102 6.153.166 9.23a15.5 15.5 0 0 0 .154 2.024c.31 2.046 1.34 2.891 3.42 2.756 3.85-.253 7.692-.582 11.51-1.199 6.003-.97 11.795-2.64 17.42-4.927.48-.194.783-.478.965-.94a8.163 8.163 0 0 0 .587-2.74c.046-1.458.1-2.919.09-4.378-.038-4.746-.172-9.49-.407-14.231-.133-2.679.656-5.039 2.42-7.063.582-.668 1.167-1.338 1.797-1.96 2.47-2.447 4.448-5.243 6.007-8.343.328-.652.673-1.296 1.03-1.932.954-1.693 2.306-2.666 4.35-2.364.04.006.088-.035.29-.122zm-.608 261.877c.488.054.47.514.594.811 1.904 4.563 3.812 9.125 5.659 13.711a77.085 77.085 0 0 1 2.095 5.88c1.245 4.007 1.93 8.084 1.458 12.314-.332 2.993-1.437 5.624-3.31 7.954-.39.487-.809.953-1.22 1.423a.473.473 0 0 0-.077.556c-.037-.028-.07-.067-.111-.082-.03-.01-.072.009-.109.014l.203.047c.394-.254.787-.51 1.18-.766 4.376-2.843 8.739-5.705 12.902-8.855 2.668-2.019 5.184-4.213 7.424-6.705.52-.58.993-1.209 1.447-1.844.52-.729.602-1.49.23-2.357-.782-1.82-1.49-3.67-2.224-5.51-.7-1.749-1.583-3.402-2.564-5.007-1.773-2.903-3.846-5.581-6.068-8.15-2.733-3.158-5.665-6.132-8.56-9.138-2.209-2.293-4.39-4.61-6.424-7.061-2.373-2.86-4.469-5.906-6.186-9.203-.116-.223-.456-.466-.125-.82.133.17.275.323.385.496 1.888 2.96 4.137 5.63 6.519 8.195 2.167 2.334 4.449 4.553 6.749 6.754 2.224 2.129 4.454 4.251 6.637 6.422 2.891 2.876 5.517 5.981 7.818 9.353 1.772 2.594 3.285 5.324 4.419 8.258.223.578.458 1.151.687 1.727.705.172 1.297-.256 1.947-.377 1.634-.304 2.817-1.279 3.697-2.665a8.963 8.963 0 0 0 1.224-3.028c.25-1.225.454-2.46.716-3.683.132-.615-.032-1.117-.376-1.613a7.121 7.121 0 0 0-2.151-2.025c-2.71-1.666-5.303-3.521-8.111-5.03-.261-.14-.567-.228-.686-.55.105-.016.214-.065.303-.04 1.91.528 3.821 1.053 5.67 1.774 2.156.841 4.169 1.918 5.836 3.563.1.098.247.15.348.208.334-.105.391-.38.506-.607.545-1.08 1.264-2.036 2.073-2.929.385-.426.775-.847 1.169-1.264 1.198-1.272 2.062-2.747 2.665-4.381.072-.196.147-.39.206-.59.064-.217-.115-.44-.313-.39-.354.088-.705.191-1.056.29-3.787 1.053-7.596 1.292-11.439.304-.194-.05-.414-.09-.604-.049-.226.049.164.554-.305.49-.205-.027-.405-.093-.606-.145-.252-.065-.507-.123-.756-.199-2.684-.821-5.07-2.178-7.195-4.002a65.566 65.566 0 0 1-5.198-4.978c-5.064-5.415-9.887-11.034-14.403-16.917-10.851-14.14-19.735-29.44-27.003-45.692-2.853-6.381-5.47-12.856-7.527-19.545-.168-.546-.301-1.103-.47-1.649-.084-.276-.299-.425-.591-.41-.26.014-.584-.03-.764.106-.74.554-1.595.404-2.414.485-.208.02-.417.04-.62.077-.662.124-.79.33-.622.961.375 1.41.812 2.807 1.11 4.233 1.495 7.143 2.932 14.298 4.43 21.44 1.692 8.062 3.607 16.07 5.96 23.97a143.501 143.501 0 0 0 7.831 20.422c.216.453.293 1.015.808 1.292l.001-.003c-.2.002-.425.076-.566-.139-.284-.435-.572-.87-.837-1.317-3.034-5.135-5.38-10.595-7.58-16.12-4.499-11.29-7.236-23.058-9.364-34.982-.595-3.334-1.05-6.695-1.502-10.052-.362-2.686-.777-5.37-.844-8.088a5.973 5.973 0 0 0-.029-.468c-.06-.584-.231-.676-.835-.47-.689.237-1.37.512-2.074.69-.893.226-1.773.123-2.541-.427-.332-.238-.564-.694-.915-.795-.357-.105-.802.125-1.213.174a3.148 3.148 0 0 1-1.387-.164c-.246-.083-.492-.175-.746-.224-.721-.138-.934.023-1.048.747-.253 1.596-.449 3.203-.77 4.785-3.055 15.065-8.545 29.183-16.585 42.295-3.577 5.834-7.594 11.36-11.772 16.77-3.475 4.501-6.99 8.973-10.2 13.67-2.565 3.751-4.924 7.623-6.867 11.736-2.787 5.9-4.66 12.043-5.009 18.604-.23 4.319.256 8.535 1.622 12.644 1.88 5.653 5.062 10.497 9.223 14.717 5.798 5.881 12.744 9.878 20.567 12.407 4.633 1.498 9.382 2.431 14.23 2.885 3.642.34 7.288.504 10.944.458.57-.007 1.163-.009 1.703-.164.56-.16 1.118-.234 1.687-.292a13.6 13.6 0 0 0 6.006-2.077 18.452 18.452 0 0 0 5.804-5.828c1.254-2.002 2.178-4.152 2.882-6.4.937-2.994 1.523-6.061 1.96-9.164.649-4.617.796-9.241.315-13.883-.044-.432-.13-.875.053-1.454.146.706.28 1.257.37 1.817.089.566.124 1.14.2 1.71.762 5.66.878 11.332.2 17.005-.41 3.44-1.323 6.749-2.959 9.829-1.841 3.466-4.414 6.179-8.053 7.79-.224.098-.485.176-.492.53.212 0 .421.022.624-.004 3.26-.415 6.525-.79 9.775-1.272 2.526-.374 5.047-.807 7.534-1.406.405-.097.822-.145 1.178-.391 1.844-1.275 3.828-2.349 5.575-3.763 5.046-4.086 8.18-9.25 8.883-15.785.064-.594.06-1.215.402-2.102.192 2.527.165 4.703-.213 6.878-.9 5.176-3.424 9.341-7.644 12.474.005.05.005.1.017.149.005.018.04.029.06.042l-.126-.226c.46.327.882.082 1.314-.081 2.564-.974 5-2.216 7.41-3.517.96-.518 1.88-1.079 2.597-1.921.132-.156.277-.306.492-.134-.04-.127.051-.143.049-.053-.006.204.116-.023-.088.024-.168-.608.324-.955.58-1.374a15.584 15.584 0 0 0 1.815-4.302c.233-.908.436-1.824.611-2.745.508-2.681.603-5.372.232-8.086a45.305 45.305 0 0 0-1.54-7.012c-1.768-5.83-3.572-11.65-5.345-17.48-.195-.64-.51-1.263-.456-1.967zm-27.24-106.868c.099.01.228.067.293.026 1.949-1.25 3.686-2.719 4.897-4.734.184-.307.248-.718.672-.915-.81 3.038-1.925 4.642-4.445 6.424-.894.632-1.787 1.265-2.688 1.886a7.208 7.208 0 0 0-2.03 2.131c-.713 1.13-1.371 2.308-2.709 3.427.8-.218 1.259-.296 1.681-.465 1.498-.6 3.005-1.187 4.47-1.863 1.469-.676 2.831-1.55 4.108-2.551 1.88-1.474 3.359-3.265 4.31-5.466.413-.956.81-1.919 1.169-2.896 1.47-4.012 3.023-7.987 5.039-11.767.081-.153.282-.345.042-.549-.388 0-.661.266-.976.429-3.38 1.742-6.69 3.622-10.156 5.197-1.366.62-1.22.538-.65 1.807.912 2.024.702 3.958-.443 5.812-.601.975-1.265 1.911-1.882 2.877-.249.39-.602.728-.657 1.225l-.038.087zm-22.518-5.41c2.414 2.646 3.163 3.557 4.357 7.416.574-.349 1.114-.758 1.716-1.026 1.43-.637 1.14-.49.72-1.808-.094-.297-.208-.588-.314-.882-1.018-2.804-2.654-5.169-4.99-7.043-.527-.423-1.029-.877-1.551-1.308-.225-.185-.379-.507-.853-.422-.31.65-.64 1.353-.981 2.05-.871 1.786-.628 3.423.64 4.933.97 1.155 1.931 2.32 2.901 3.476.167.199.35.386.536.565.192.186.382.048.57-.024.024-.008-.107.074.008.014-.091-.121-.213-.23-.268-.366-.658-1.647-1.344-3.278-2.24-4.815-.124-.212-.124-.496-.182-.747zM450.37 284.43c-.06-.133.036-.169.047-.077.025.2.087-.038-.1.055-.119.03-.19-.022-.15-.13.015-.04.157-.075.21-.05.097.047.085.138-.007.202zM310.726 129.307c-.26.462-.648.81-1.033 1.162-1.232 1.128-2.464 2.256-3.686 3.392-.26.242-.598.425-.696.808.058.307.307.231.49.225.416-.015.832-.055 1.247-.097 4.803-.487 9.08.846 12.9 3.739.328.248.588.585.895.864.54.489.776.497 1.352.08.126-.092.246-.192.37-.29 4.137-3.263 8.265-6.54 12.424-9.775.7-.545 1.125-1.17 1.344-2.014 1.555-6.022 2.107-12.114 1.293-18.3-.237-1.81-.645-3.588-1.143-5.348-.291-1.027-.886-1.743-1.837-2.202-7.5-3.61-15.232-6.547-23.452-8.069-2.166-.401-4.02.224-5.601 1.715-.379.357-.718.756-1.07 1.142a410949.87 410949.87 0 0 0-20.052 21.965c-.688 1.2-1.687 1.229-2.82.747-.046-.02-.084-.06-.194-.144.026-.477.444-.743.735-1.062 3.861-4.247 7.732-8.484 11.601-12.724 1.83-2.004 3.628-4.037 5.504-5.996.71-.742 1.031-1.514.93-2.518-.056-.568-.022-1.146-.037-1.72-.009-.341-.16-.59-.497-.714-.39-.144-.774-.31-1.165-.455L232.238 69.1c-.246-.09-.5-.16-.733-.273-.452-.215-.883-.248-1.349-.02-.325.161-.676.312-1.03.361-.971.134-1.487.64-1.498 1.631-.983 2.777-2.968 4.485-5.758 5.266-4.776 1.336-9.257-2.452-9.947-5.922-.152-.766-.536-1.03-1.159-1.244a13.041 13.041 0 0 1-3.076-1.524c-.828-.561-1.562-1.223-2.094-2.08-.42-.677-.624-1.419-.69-2.216-.28-3.378-.581-6.755-.871-10.132a6.686 6.686 0 0 1-.028-.78c.01-.312.208-.454.505-.47.104-.007.208-.005.312.002 1 .06 1.163.2 1.248 1.198.242 2.805.47 5.613.703 8.419.044.52.104 1.038.133 1.558.057 1.012.562 1.765 1.317 2.391.771.64 1.646 1.097 2.56 1.492 1.739.752 3.57 1.177 5.434 1.418 3.334.43 6.665.352 9.973-.29.355-.068.7-.19 1.039-.284.024-.38-.24-.453-.467-.54-1.024-.389-2.046-.781-3.079-1.146-.466-.165-.63-.462-.628-.94.011-2.296.002-4.592.002-6.886 0-1.566.006-3.13-.001-4.696-.005-1.11.104-1.196 1.286-1.187.052 0 .104.004.156.008.295.029.486.182.506.484.026.416.04.832.04 1.25.004 2.869.002 5.738.003 8.607 0 .365.01.73.008 1.095-.003.409.162.698.558.842.294.106.584.224.878.333l72.151 26.81c.196.072.394.14.591.206.814.274.934.211.94-.601.01-1.46-.001-2.921-.013-4.382-.035-4.642-.096-9.283-.094-13.925 0-.982.006-1.974.201-2.958.446-2.238 1.513-4.094 3.243-5.567 1.588-1.353 3.194-2.687 4.793-4.03l5.274-4.43c.12-.1.24-.2.357-.304.152-.136.35-.267.319-.495-.035-.26-.286-.266-.483-.3-1.233-.219-2.466-.43-3.7-.643-5.807-1.008-11.613-2.017-17.42-3.022-5.704-.988-11.41-1.97-17.114-2.957-4.213-.729-8.427-1.462-12.64-2.194-.103-.017-.214-.024-.304-.07-.08-.04-.176-.117-.194-.195-.018-.079.026-.236.084-.26.866-.356 1.729-.725 2.615-1.023.272-.093.62-.01.924.042 6.166 1.068 12.332 2.144 18.497 3.216 5.807 1.01 11.614 2.014 17.42 3.02 4.42.767 8.844 1.508 13.255 2.318 1.07.197 2.003.183 3.001-.348 1.684-.896 3.568-1.12 5.445-1.304 5.296-.516 10.591-1.042 15.888-1.552 4.986-.48 9.973-.947 14.959-1.418.416-.038.844-.13 1.247-.07 1.128.172 1.982-.306 2.868-.926 10.6-7.421 21.218-14.816 31.831-22.218 1.131-1.133 2.41-.975 3.783-.463-.216.593-.743.772-1.152 1.058-3.887 2.726-7.784 5.44-11.677 8.155-6.548 4.566-13.098 9.13-19.641 13.702-.462.323-.996.569-1.316 1.057.161.372.5.367.797.444l20.597 5.323c1.111.287 2.22.582 3.33.873.392.102.716.014.955-.334.147-.215.305-.423.464-.63a224.352 224.352 0 0 1 23.973-26.597c.413-.391.864-.744 1.302-1.11.026-.02.093.009.266.028-.652 1.04-1.397 1.941-2.11 2.865a140.64 140.64 0 0 1-2.142 2.696c-.757.931-1.524 1.854-2.295 2.773a218.057 218.057 0 0 1-4.615 5.321 266.473 266.473 0 0 1-4.76 5.192 229.643 229.643 0 0 1-4.914 5.047c-.813.81-1.651 1.596-2.46 2.411-.837.844-1.812 1.555-2.555 2.499.126.111.19.203.279.24 2.033.864 3.548 2.316 4.851 4.072 1.866 2.513 3.814 4.964 5.73 7.439.316.408.652.8.975 1.193.487-.112.56-.503.724-.798 4.586-8.25 9.163-16.506 13.759-24.75.369-.662.54-1.32.536-2.077-.022-4.225-.01-8.45-.01-12.676 0-.418-.007-.835.004-1.252.026-1.014.152-1.12 1.223-1.064.568.03.697.158.726.769.017.364.01.73.01 1.095 0 4.435-.02 8.869.016 13.303.008 1.025-.136 1.954-.716 2.815-.188.278-.484.561-.299 1.077 2.224-.347 4.318-1.026 6.112-2.46.723-.578 1.094-1.324 1.17-2.286.355-4.418.766-8.832 1.155-13.247.023-.26.045-.52.06-.78.02-.378.241-.55.593-.592.052-.006.104-.012.155-.02 1.082-.15 1.309-.087 1.204 1.09-.4 4.467-.794 8.936-1.106 13.41-.143 2.065-1.112 3.542-2.801 4.606-.66.415-1.368.757-2.072 1.096-.408.196-.63.425-.684.92-.293 2.684-2.19 4.572-4.854 4.899-.745.091-1.465 0-2.144-.303-.38-.17-.589-.023-.764.275-.16.269-.305.546-.458.82l-9.343 16.823c-.152.273-.294.552-.452.822-.18.305-.163.587.054.867.829 1.073 1.663 2.142 2.48 3.226.344.457.852.573 1.346.727 3.684 1.15 7.368 2.298 11.052 3.445 9.51 2.96 19.02 5.917 28.527 8.89.538.168 1.135.222 1.625.667-.285.578-.858.863-1.325 1.25-.282.232-.587.09-.888-.004-2.686-.842-5.375-1.678-8.064-2.517-10.105-3.15-20.207-6.313-30.32-9.442-1.55-.48-1.222-.764-2.397.803-3.194 4.256-6.36 8.535-9.59 12.762-1.623 2.121-2.412 4.452-2.355 7.117.086 4.016.109 8.033.164 12.05.033 2.352.273 4.681.772 6.985.143.656.453.983 1.123 1.074 2.48.337 4.957.706 7.435 1.065 4.027.583 8.052 1.17 12.079 1.752 3.923.567 7.847 1.13 11.77 1.694 3.925.565 7.849 1.126 11.773 1.692 4.078.588 8.156 1.179 12.233 1.772 3.975.578 7.948 1.162 11.923 1.74 3.716.54 7.433 1.083 11.15 1.617 4.13.594 8.262 1.179 12.393 1.766.204.029.412.038.595.054.319-.333.225-.712.195-1.064-.137-1.664-.292-3.325-.44-4.987-.051-.571-.11-1.142-.152-1.714-.098-1.328-.01-1.374 1.416-1.155.295.045.452.248.494.525.077.515.154 1.032.198 1.552.25 2.91.547 5.817.713 8.731.088 1.55.743 2.67 1.97 3.536.944.667 1.971 1.17 3.048 1.58a24.169 24.169 0 0 0 6.077 1.423c4.607.483 9.171.334 13.637-1.054 1.1-.342 2.16-.773 3.165-1.337.684-.383 1.327-.828 1.87-1.404.554-.586.896-1.249.96-2.08.158-2.027.37-4.05.55-6.076.126-1.402.232-2.806.358-4.21.071-.8.176-.9.916-.976.156-.016.312-.026.469-.028.5-.006.693.167.655.63-.2 2.39-.41 4.78-.617 7.17-.089 1.039-.223 2.077-.253 3.118-.062 2.111-1.087 3.647-2.744 4.845-1.066.77-2.231 1.347-3.452 1.818-.534.206-1.084.373-1.626.562-.735.258-.756.26-.746 1.098.03 2.485-1.15 4.28-3.191 5.556-1.831 1.145-3.878 1.501-6.002 1.431-1.799-.059-3.522-.448-5.05-1.454-1.73-1.137-2.927-2.653-3.267-4.751-.008-.051-.014-.105-.031-.154-.171-.488.258-1.132-.22-1.477-.401-.292-.972-.344-1.463-.519-1.182-.418-2.337-.9-3.411-1.554-.761-.464-1.465-.999-2.076-1.652a5.64 5.64 0 0 1-1.35-2.437c-.117-.438.121-1.04-.362-1.29-.396-.206-.9-.213-1.36-.28-4.904-.715-9.809-1.423-14.712-2.137-4.697-.684-9.392-1.38-14.09-2.058-4.697-.679-9.398-1.338-14.096-2.017-4.697-.679-9.392-1.38-14.09-2.058-4.697-.68-9.398-1.336-14.096-2.016-5.42-.784-10.838-1.586-16.258-2.374-1.187-.173-2.379-.314-3.566-.484-.44-.063-.828-.006-1.158.313-.111.108-.24.199-.365.294-1.531 1.16-1.306.75-1.486 2.663-.147 1.557-.3 3.116-.536 4.66-.161 1.054.108 1.892.72 2.757 4.574 6.476 9.11 12.98 13.657 19.476.299.427.62.844.867 1.3 1.068 1.967.352 4.35-1.652 5.35-1.791.895-3.627.874-5.423-.018-.557-.277-1.07-.647-1.592-.992-7.821-5.198-15.642-10.398-23.462-15.598-.217-.144-.465-.258-.648-.437-.96-.944-2.021-.568-3.077-.255-.291.086-.355.351-.401.614-.196 1.13-.397 2.259-.587 3.39-.43 2.57-.882 5.138-1.277 7.714-.313 2.044-1.457 3.284-3.442 3.778a43.4 43.4 0 0 1-1.984.441c-1.2.238-1.202.231-1.219 1.514-.002.157 0 .313 0 .47 0 8.868-.002 17.737.005 26.605 0 .513-.171 1.092.15 1.523.342.46.969.245 1.461.367.81.202 1.635.34 2.44.55a5.78 5.78 0 0 1 1.846.833c.643.447 1.019 1.033.995 1.838-.002.104.003.208.003.313 0 2.4.004 4.799-.004 7.198-.001.362.047.786-.117 1.073-.39.676-.249 1.243.05 1.9 2.027 4.463 4.02 8.94 6.025 13.412.107.238.211.477.335.706.201.376.377.432.762.178 3.486-2.316 7.31-4.02 10.96-6.039 1.19-.658 2.38-1.306 3.289-2.355.094-.108.256-.164.394-.225.144-.061.472.203.436.354-.048.197-.092.406-.193.578-2.133 3.614-3.56 7.535-4.973 11.46a163.875 163.875 0 0 0-1.59 4.58c-2.092 6.39-6.558 10.231-12.907 12.068-.648.187-1.295.373-1.942.566-.04.012-.064.079-.142.18.407.564.656 1.236.915 1.907 2.758 7.15 5.507 14.304 8.73 21.263a233.502 233.502 0 0 0 19.343 33.944c.263.384.54.76.794 1.114.484-.034.462-.403.566-.667.384-.97.743-1.944 1.465-2.74 1.312-1.445 2.905-2.355 4.84-2.653.722-.112 1.444-.22 2.165-.333a5.516 5.516 0 0 0 3.367-1.832c.693-.78 1.353-1.588 2.042-2.372 3.367-3.834 7.373-6.772 12.198-8.493 6.507-2.32 12.992-2.342 19.37.486 4.048 1.794 7.306 4.6 9.994 8.09.318.413.623.837.916 1.268.811 1.192.629 1.163 2.16.93 1.685-.256 3.216-.866 4.4-2.16l-.04-.04c.168.32.049.607-.11.882-.626 1.082-1.56 1.81-2.707 2.256-.48.187-1.002.27-1.502.409-.248.069-.547.143-.45.49.082.289.18.613.55.689.1.02.213.033.307.007 1.877-.523 3.459-1.472 4.377-3.253.513-.996.78-2.054.032-3.097.006-.009-.016.01-.016.01.415-.109.592.184.675.479.469 1.65.31 3.2-.835 4.56-.716.852-1.599 1.492-2.578 2.007-.456.24-.913.478-1.417.742.469 1.32.914 2.592 1.378 3.856.132.36.46.4.785.328 1.377-.3 2.584-.828 3.018-2.667.184 1.238-.266 1.919-.855 2.534-.44.46-.98.787-1.565 1.019-.838.332-.942.446-.739 1.385.542 2.505.818 5.046.735 7.613-.216 6.692-2.348 12.667-6.736 17.78a23.002 23.002 0 0 1-7.789 5.926c-.236.11-.475.216-.712.323-.364.165-.56.41-.549.846a8.17 8.17 0 0 1-.542 3.218c-.399 1.026-.92 1.988-1.546 2.891-.356.514-.715 1.03-1.105 1.518-1.533 1.92-2.45 4.114-2.883 6.513-.365 2.018-1.023 3.93-1.918 5.769-.436.894-.936 1.747-1.584 2.506-1.012 1.186-2.245 2.013-3.794 2.328-.307.063-.61.14-.91.229-.887.263-1.033.457-.768 1.344.509 1.704.018 3.195-.926 4.575a15.995 15.995 0 0 1-1.69 2.049c-1.814 1.877-3.695 3.686-5.72 5.337-6.284 5.123-12.99 9.63-20.042 13.622-6.516 3.69-13.533 5.956-20.888 7.243a182 182 0 0 1-16.29 2.115c-5.99.496-11.99.596-17.986.06-7.96-.711-15.655-2.453-22.9-5.928-6.877-3.299-12.825-7.792-17.591-13.78-3.555-4.466-6.142-9.422-7.452-15.008-1.01-4.316-1.13-8.678-.623-13.062.846-7.31 3.414-14.05 6.886-20.48 2.31-4.278 4.986-8.324 7.897-12.21 3.628-4.844 7.368-9.604 10.974-14.464 10.154-13.684 17.974-28.577 23.064-44.866 1.308-4.18 2.389-8.424 3.478-12.665a5.85 5.85 0 0 0 .124-.612c.042-.293-.061-.52-.377-.562-.828-.113-1.655-.217-2.485-.31-5.655-.637-9.394-3.669-11.27-9.016-.68-1.932-.95-3.95-1.195-5.969-.214-1.76-.402-3.523-.645-5.278-.224-1.605-.617-3.172-1.23-4.678-.535-1.316-1.164-2.568-2.343-3.449a1.615 1.615 0 0 1-.324-.335c-.17-.23-.186-.484-.026-.725.195-.295.49-.41.813-.282.286.114.551.292.81.464 3.067 2.036 6.404 3.49 9.904 4.595.15.046.292.115.441.16.923.275.952.275 1.427-.658 1.772-3.486 3.527-6.981 5.307-10.464.259-.507.379-.941-.064-1.41-.346-.367-.345-.856-.345-1.33 0-2.556.027-5.113-.014-7.669-.016-1.026.456-1.677 1.292-2.138.97-.536 2.027-.807 3.108-1.02 1.895-.375 1.744-.06 1.745-2.018.007-8.869.005-17.737.002-26.606 0-1.991.076-1.597-1.618-1.958-.56-.119-1.128-.205-1.687-.333-1.957-.451-3.036-1.727-3.368-3.663-.256-1.49-.467-2.987-.7-4.481-.04-.252-.05-.525-.41-.638-.437.361-.626.917-.898 1.41-4.065 7.347-8.12 14.698-12.18 22.049-.253.456-.5.917-.778 1.357-2.405 3.806-7.17 5.204-11.256 3.305-.378-.176-.744-.38-1.11-.577-6.11-3.288-12.221-6.574-18.325-9.872-.44-.238-.975-.372-1.295-.916.448-.355.936-.504 1.431-.609.189-.04.42-.002.601.073.335.14.649.333.97.506 5.88 3.166 11.762 6.322 17.634 9.502 1.316.713 2.681 1.137 4.188 1.058 2.343-.124 4.193-1.147 5.558-3.044.272-.38.498-.796.725-1.206 4.993-9.039 9.984-18.078 14.97-27.12.198-.36.483-.688.485-1.211-1.072-.41-2.216-.332-3.343-.363-.22-.006-.36.185-.47.366-.217.357-.433.714-.646 1.073-4.776 8.082-9.552 16.165-14.33 24.247-.265.448-.517.91-.824 1.329-1.06 1.444-2.795 1.924-4.455 1.25-.29-.117-.566-.267-.844-.41-4.68-2.422-9.36-4.841-14.034-7.271-.361-.188-.79-.296-1.048-.738.286-.468.821-.552 1.275-.751.256-.112.504.006.741.13.786.413 1.576.815 2.363 1.224 3.705 1.92 7.408 3.844 11.113 5.765.37.192.735.403 1.123.55.909.345 1.783.104 2.382-.655.225-.285.402-.61.587-.924 4.75-8.037 9.499-16.075 14.24-24.118.23-.39.616-.732.508-1.283-.987-.354-2.039-.368-3.059-.55-2.568-.46-5.13-.947-7.625-1.721-.651-.202-1.172-.17-1.722.303-1.028.884-2.124 1.688-3.18 2.54-.392.317-.419.426-.113.913.377.6.554 1.23.5 1.93-.113 1.439-1.11 2.4-2.557 2.416a65.737 65.737 0 0 1-3.444-.05c-.657-.027-1.19.127-1.723.55-4.33 3.443-8.682 6.857-13.03 10.276-.164.129-.356.221-.404.25-.01.63.377.658.615.808.65.41 1.426.614 1.99 1.19-.346.522-.888.594-1.367.77-.26.094-.506-.026-.741-.153-.505-.271-1.03-.51-1.524-.802-.453-.267-.84-.311-1.273.062-.632.545-1.309 1.036-1.956 1.563-.41.332-.4.342.047.971.028.038.035.09.069.18-.17.1-.332.248-.522.302-1.947.55-3.898 1.088-5.852 1.616-.134.037-.297-.029-.454-.049.062-.514.5-.67.812-.917 4.379-3.463 8.765-6.917 13.149-10.375 2.336-1.842 4.67-3.685 7.004-5.53.163-.128.328-.26.467-.413a.314.314 0 0 0 .046-.274c-.03-.076-.14-.165-.22-.17-.52-.037-1.041-.059-1.563-.073-5.215-.146-10.43-.285-15.646-.437-.61-.018-1.24.04-1.93-.244.541-.752 1.101-1.11 1.99-1.081 8.135.272 16.27.51 24.405.76.261.008.522.032.782.039.627.017 1.144-.2 1.399-.797.269-.628.172-1.22-.31-1.734-.32-.341-.603-.72-.942-1.04-2.543-2.397-5.37-4.302-8.865-5.017-1.59-.326-3.186-.498-4.82-.333-1.816.183-3.64.284-5.462.416a15.3 15.3 0 0 1-.939.033c-.28.002-.533-.074-.544-.407-.01-.3-.076-.712.318-.78.732-.128 1.174-.643 1.67-1.094 1.85-1.687 3.712-3.363 5.533-5.083.544-.513 1.033-.642 1.653-.213.081.056.195.068.294.1l-.056-.043a.915.915 0 0 0 .7.353z"/><path d="M254.396 152.583c1.187-.033 2.596-.07 4.004-.115.416-.013.834-.032 1.248-.077.975-.106 1.072-.2 1.088-1.134.018-.939.009-1.877.006-2.815-.007-2.138.057-4.279-.044-6.412-.145-3.042-2.254-5.507-5.223-6.289-2.825-.744-5.883.427-7.536 2.89-.809 1.205-1.18 2.536-1.173 3.986.012 2.554.002 5.109 0 7.664 0 .26-.004.52.003.781.028 1.036.03 1.03 1.005 1.177 2.123.318 4.265.277 6.622.344m16.808-7.504c-.011.202-.06.403.133.569.355.304.732.595 1.037.946.847.98.862 2.1.069 3.135-.485.631-1.126 1.08-1.809 1.47-1.23.703-2.556 1.175-3.914 1.55-2.57.71-5.194 1.102-7.85 1.314a55.88 55.88 0 0 1-9.219-.023c-2.862-.243-5.69-.687-8.438-1.554-1.096-.345-2.162-.764-3.159-1.34-.634-.368-1.227-.794-1.69-1.374-.847-1.06-.816-2.26.11-3.252.318-.34.7-.62 1.057-.922.223-.19.011-.38.013-.566.67.22.67.22 1.273-.286-.446.022-.795.446-1.275.295-.14.395-.536.46-.835.648-.62.386-1.233.785-1.744 1.316-1.258 1.31-1.274 2.532-.044 3.843.467.499 1.014.899 1.595 1.254.983.6 2.035 1.053 3.109 1.464.478.183 1.014.258 1.497.781-1.505-.222-2.891-.413-4.271-.638-1.132-.184-2.257-.4-3.383-.617-1.085-.208-1.148-.278-1.259-1.429-.07-.727-.087-1.458-.161-2.184-.135-1.326.28-2.465 1.125-3.468.201-.239.42-.464.611-.71.05-.063.06-.2.024-.27a.33.33 0 0 0-.235-.152 11.719 11.719 0 0 0-.938-.005c-1.982.044-3.965.076-5.947.138-5.007.157-10.014.308-15.02.512-.901.037-1.63-.203-2.3-.745a.387.387 0 0 1-.131-.253c-.01-.211.18-.23.32-.236 1.407-.07 2.814-.149 4.222-.19 8.972-.262 17.943-.51 26.916-.771 1.25-.036 2.503-.094 3.753-.165.597-.034.697-.153.77-.755.07-.569.065-1.155.208-1.704.367-1.402.141-1.312-1.155-1.407-5.047-.366-10.093-.759-15.14-1.129-3.538-.259-7.077-.497-10.617-.745-1.717-.12-3.434-.242-5.151-.367-.306-.023-.621-.025-.895-.222.67-.777 1.246-1.055 2.233-.992 2.29.146 4.58.313 6.87.48 3.59.264 7.18.537 10.769.803l11.394.843c.104.008.21.009.312.028 1.161.22 2.188.122 2.724-1.145 3.607-4.42 10.32-4.436 13.948-.031.066.08.14.158.194.246.74 1.176.662 1.01 2.2.96.588-.02.958-.338 1.317-.734 1.156-1.276 2.407-2.477 3.451-3.838.81-1.055 1.71-.964 2.743-.665.255.074.27.32.124.494-.468.56-.96 1.1-1.448 1.64-.594.66-1.2 1.308-1.788 1.971-.166.186-.405.35-.326.66.154.198.368.138.56.124 4.734-.355 9.468-.715 14.202-1.071 1.093-.082 2.186-.16 3.28-.22.912-.051 1.858.271 3.006 1.036-4.486.422-8.847.661-13.2 1-4.357.34-8.722.602-13.123.997l.413 3.203c.038.294.209.473.495.514.258.037.52.045.78.056 1.043.047 2.085.103 3.129.134 8.241.241 16.482.476 24.724.716.312.009.624.029.932.072.066.009.127.136.167.22.016.03-.02.105-.053.14-.407.41-.885.722-1.406.961a.613.613 0 0 1-.443.01c-.605-.25-1.237-.151-1.857-.17-4.172-.13-8.345-.247-12.518-.36-.448-.013-.913-.1-1.482.14.343.427.628.772.906 1.124.742.939 1.101 1.996.995 3.202a52.64 52.64 0 0 0-.154 2.185c-.026.544-.29.845-.805 1.007-1.194.375-2.365.824-3.567 1.17-2.604.748-5.225 1.444-7.835 2.177a9.928 9.928 0 0 1-3.404.339c-1.137-.078-2.277-.112-3.392-.452.674-.194 1.37-.17 2.053-.245a80.5 80.5 0 0 0 2.174-.268c2.642-.362 5.237-.927 7.735-1.881 1.124-.43 2.207-.943 3.2-1.627.649-.446 1.24-.957 1.658-1.637.483-.785.49-1.574.015-2.365-.47-.78-1.173-1.314-1.903-1.827-.421-.297-.97-.403-1.285-.86-.308-.033-.608-.072-.908-.112-.02-.042-.034-.089-.064-.123-.02-.023-.061-.027-.093-.039.066.04.133.079.2.117.242.402.567.262.889.137M501.123 103.469c1.494-.056 3.108-.1 4.718-.185.907-.048 1.02-.163 1.024-1.001.011-2.705 0-5.411-.006-8.116-.002-.739-.175-1.444-.463-2.12-1.095-2.57-3.77-4.078-6.58-3.718-2.6.334-4.896 2.515-5.228 5.083-.26 2.012-.079 2.116 1.511 2.966.502.268 1.054.443 1.585.656.24.097.493.164.725.276a.59.59 0 0 1 .341.49c.024.289-.115.525-.368.626-.578.231-1.179.405-1.757.635-.668.264-1.553.245-1.957.843-.438.647-.122 1.519-.17 2.29-.007.104.009.208.013.312.011.373.223.559.575.605.515.067 1.03.158 1.548.183 1.456.072 2.913.116 4.489.175zm15.87-5.73c.072-.125.138-.06.068-.015-.173.108.08.07-.083-.059 1.462 1.371 1.476 2.657.008 3.922-.39.336-.833.633-1.294.864-.695.348-1.415.66-2.148.922-2.42.86-4.937 1.26-7.482 1.511a47.832 47.832 0 0 1-9.517.004c-3.17-.32-6.306-.82-9.222-2.188-.72-.337-1.272-.177-1.87.19.135.518.596.592.95.76 2.47 1.175 5.105 1.777 7.79 2.175 3.884.575 7.786.637 11.69.289 2.964-.265 5.881-.793 8.687-1.829 1.127-.416 2.212-.916 3.198-1.611.513-.363.984-.77 1.328-1.306.361-.565.49-1.187.196-1.785-.47-.956-1.123-1.748-2.298-1.844zm.346 7.537c-1.21.62-2.494 1.05-3.782 1.47-.6.194-.594.204-.585.879.008.625.009 1.25.006 1.877-.001.154-.013.315-.051.464-.058.224-.236.335-.455.35-.274.02-.338-.18-.349-.397-.035-.736.102-1.451.243-2.17.1-.512-.069-.648-.603-.55-1.333.247-2.666.487-3.998.74-.72.136-.719.145-.623.928.038.309.09.618.109.928.014.248-.162.378-.384.404-.212.026-.458-.03-.508-.255-.078-.35-.085-.716-.113-1.076-.051-.662-.144-.786-.717-.721-1.508.17-3.02.169-4.533.186-.69.007-.69.022-.855.755-.023.1-.026.216-.082.292-.05.068-.158.098-.247.127-.032.01-.087-.027-.12-.054-.04-.033-.1-.081-.097-.12.068-.948-.509-1.05-1.277-1.085-1.248-.055-2.493-.213-3.74-.337-.633-.063-.63-.07-.996.707a.361.361 0 0 1-.216.183c-.175.035-.296-.084-.334-.24a1.756 1.756 0 0 1-.03-.465c.006-.242-.106-.393-.334-.447-1.61-.39-3.24-.702-4.765-1.22-.416.46-.064.903-.218 1.284-.03.072-.138.156-.21.156-.085.001-.192-.065-.25-.134-.063-.074-.121-.192-.11-.281.144-1.078-.41-1.588-1.375-1.922-.771-.268-1.475-.729-2.27-1.135-.185.787.076 1.444.08 2.107.002.501-.169.682-.64.624a4.6 4.6 0 0 1-.615-.11c-.617-.166-.75-.318-.82-.966-.04-.362-.043-.73-.081-1.091-.066-.62-.21-.725-.803-.537-.944.299-1.9.574-2.816.946-.905.37-1.686.217-2.492-.309.343-.548.927-.545 1.393-.702 5.087-1.719 10.185-3.408 15.28-5.104.99-.33 1.983-.647 2.967-.99.271-.096.604-.12.796-.522-.656-.47-1.5-.768-1.96-1.463-.442-.669-.956-.627-1.612-.488-3.774.803-7.553 1.578-11.33 2.363-4.9 1.018-9.806 2.014-14.696 3.075-.772.167-1.314-.09-1.88-.473-.062-.042-.092-.19-.073-.276.017-.08.11-.186.185-.202 1.631-.35 3.265-.685 4.897-1.032 1.015-.215 2.026-.443 3.077-.674-.312-.462-.75-.488-1.14-.611-2.885-.905-5.77-1.812-8.655-2.715-.345-.108-.721-.145-.985-.52.439-.542 1.08-.778 1.664-1.084.408-.214.816-.025 1.212.1 2.389.744 4.776 1.492 7.165 2.239 1.493.466 2.989.922 4.478 1.4.557.178 1.09.25 1.68.09.854-.228 1.733-.364 2.602-.538 1.737-.346 3.418-.763 4.98-1.717 1.65-1.008 3.561-1.455 5.444-1.898.304-.072.606-.18.915-.204.665-.052.956-.392 1.16-1.033.886-2.78 2.775-4.589 5.542-5.504.455-.152.904-.253 1.378-.213 1.143.097 2.29.168 3.427.319.903.12 1.636.668 2.342 1.196.538.403 1.04.877 1.47 1.394.55.66.689.719 1.599.36 1.31-.514 2.636-.987 3.957-1.473.978-.359 1.52-.302 2.639.269-.391.389-.923.469-1.4.651-1.558.596-3.127 1.164-4.686 1.76-.475.18-.545.35-.34.84.282.679.485 1.37.603 2.097.109.668.228.712.97.55.255-.057.51-.11.763-.175 4.643-1.2 9.29-2.39 13.927-3.613 1.115-.295 2.128-.193 3.344.488l-12.448 3.228c-.006.49.365.504.611.619.997.463 1.958.985 2.817 1.675.698.561 1.298 1.208 1.703 2.016.387.771.468 1.584.384 2.435-.203 2.076-.38 4.154-.57 6.23-.081.879-.117.92-.957 1.187-.15.047-.298.097-.45.136-.491.125-.716-.034-.68-.514.061-.832.153-1.661.217-2.493.024-.308.004-.62.004-1.013-.707-.007-1.133.514-1.677.743zM227.706 28.409l.016-.079-.107.025zm7.41 2.896c.53 1.821-.442 2.824-1.787 3.607-.494.287-1.018.533-1.547.748a18.437 18.437 0 0 1-3.297.973c-4.964 1.005-9.952 1.024-14.943.25-1.752-.273-3.475-.706-5.106-1.438-1.01-.453-1.962-.976-2.638-1.893-.09-.122-.198-.252-.328-.323-.247-.138-.516-.086-.74.056-.302.191-.167.46-.033.675.423.687 1.07 1.131 1.744 1.535 1.4.839 2.927 1.378 4.502 1.756 5.93 1.423 11.887 1.43 17.85.228 1.586-.32 3.13-.811 4.592-1.525.847-.414 1.66-.89 2.296-1.604.938-1.054.782-2.017-.566-3.045zm-14.557 4.481c1.007-.041 2.464-.083 3.919-.171.573-.035.73-.222.733-.793.011-2.445.049-4.893-.017-7.337-.042-1.578-.725-2.922-1.954-3.938-3.225-2.667-7.687-.837-8.613 2.96-.136.554-.043 1.028.424 1.395.409.32.836.623 1.218.973.36.327 1.163.368 1.015.984-.093.382-.81.308-1.234.471-.192.075-.408.085-.608.142-.863.246-.921.303-.936 1.163a79.79 79.79 0 0 0 0 2.811c.016.943.037.967.925 1.1 1.55.234 3.117.18 5.128.24zM234.5 21.23l-8.82 2.682c.028.229 0 .4.07.512.38.604.23 1.564.973 1.862.627.25 1.325-.145 1.984-.275 5.114-1.009 10.226-2.03 15.334-3.072 1.044-.214 1.879.285 2.8.6-2.502.791-5.047 1.186-7.564 1.71-2.539.53-5.088 1.015-7.57 1.508-.148.414.094.455.27.53.908.394 1.831.755 2.725 1.18a8.013 8.013 0 0 1 2.282 1.628c1.006 1.026 1.497 2.222 1.304 3.687-.136 1.033-.178 2.078-.275 3.115-.103 1.109-.145 1.15-1.265 1.452-.101.027-.2.055-.302.08-.312.078-.503-.032-.529-.362-.017-.207-.012-.416-.015-.624-.003-.157-.048-.343-.201-.35-.24-.012-.356.192-.387.408-.044.309-.047.624-.09.932-.022.154-.122.326-.295.265-.106-.038-.19-.215-.227-.345-.055-.194.01-.42-.224-.632-.828.321-1.692.649-2.549.994a.85.85 0 0 0-.347.288c-.163.23.023.67-.416.736-.35.052-.287-.383-.523-.485-.26-.114-.514-.062-.759.018-1.536.51-3.21.394-4.713 1.05-.873-.288-1.745.064-2.616.001-3.85-.277-7.699-.555-11.532-1.026-.787-.096-1.578-.224-2.246-.61-.515-.298-.943.375-1.309.005-.28-.284-.428-.672-.856-.848-.57-.236-1.105-.557-1.645-.836-.096.13-.183.201-.208.289-.091.329.22.814-.215.982-.49.187-1.03.05-1.515-.156-.276-.117-.29-.408-.314-.667-.084-.882-.16-1.765-.247-2.647-.026-.254-.079-.506-.11-.702-.358-.297-.646-.1-.93-.03-2.325.583-4.668 1.112-6.966 1.788-.988.29-1.838.154-2.725-.197-.128-.051-.172-.132-.102-.247.051-.084.11-.203.187-.224.905-.249 1.813-.486 2.722-.718 6.213-1.584 12.428-3.166 18.64-4.752.396-.102.782-.241 1.263-.391-.493-.82-1.234-1.369-1.587-2.191-.11-.26-.43-.261-.695-.225-1.086.146-2.171.289-3.254.45-5.415.81-10.83 1.625-16.243 2.437-3.61.54-7.224 1.053-10.826 1.643-.68.112-1.223.033-1.77-.322-.173-.112-.38-.207-.383-.444-.003-.312.277-.258.455-.286 2.731-.421 5.464-.834 8.196-1.245 4.59-.69 9.179-1.38 13.768-2.068 3.094-.464 6.188-.923 9.282-1.385.31-.045.622-.078.928-.143.32-.067.564-.24.694-.563.117-.29.25-.575.4-.848 2.208-3.99 7.269-5.063 10.897-2.313.124.094.257.185.357.302.4.469.86.47 1.413.294 1.789-.568 3.594-1.081 5.383-1.65 1.036-.33 2.017-.263 3.037.45zM446.418 4.888c.278-.38.537-.754 1.114-.703.517.046 1.042.003 1.564.014.153.004.331.07.342.245a.71.71 0 0 1-.128.42c-.179.252-.409.616-.72.504-.903-.324-1.696.28-2.572.205-.88-.075-1.772.011-2.66.024-.886.014-1.773.024-2.66.037-8.295.121-16.59.242-24.885.366-.414.007-.828.043-1.239.065l-1.09 2.358c.824.105 1.537.222 2.255.286 4 .36 8.001.706 12.002 1.062 3.533.315 7.065.638 10.597.96.103.009.216.019.302.067.075.042.166.136.17.211.002.082-.068.21-.14.245-.946.457-1.887.735-2.998.6-2.846-.349-5.708-.568-8.564-.834a9.843 9.843 0 0 0-.938-.04c-.299 0-.475.143-.479.467-.007.73.002 1.46-.04 2.187-.115 1.99-.14 1.604-1.709 2.032-1.318.36-2.663.495-4.028.352-.146-.015-.306-.006-.381-.19.038-.315.326-.343.547-.453.655-.32 1.32-.622 1.958-.975.502-.279.95-.647 1.295-1.117.249-.34.47-.71.402-1.151-.072-.469-.248-.893-.758-1.16-.046.184-.116.321-.108.453.063.935-.412 1.603-1.1 2.129-.452.346-.955.633-1.46.897-1.117.584-2.338.891-3.544 1.213-.49.131-1.037.104-1.553.074-2.86-.165-5.718-.352-8.556-.896 1.362-.026 2.724-.027 4.084-.083 2.99-.124 2.562.217 2.601-2.643.006-.365.006-.73 0-1.095-.02-1.116-.022-1.116-1.167-1.336-.972-.186-1.145-.629-.539-1.37.363-.444.733-.882 1.073-1.342.445-.604.43-1.22.1-1.9-1.408-2.889-5.157-3.798-7.531-1.689-1.13 1.005-1.88 2.348-1.883 3.965l-.006 5.163c0 .418.008.835-.004 1.252-.021.745-.115.86-.804.782a106.698 106.698 0 0 1-3.721-.49 38.522 38.522 0 0 1-2.307-.424c-1.138-.242-1.664-.853-1.798-2.012-.027-.229.206-.488-.12-.727-.704.504-.85 1.226-.716 2.06-.614.092-1.115-.028-1.607-.195-.34-.116-.467-.377-.448-.73.042-.759.346-1.413.793-2.006.219-.29.483-.546.73-.815.106-.117.197-.248.107-.396a.385.385 0 0 0-.255-.15 13.583 13.583 0 0 0-1.09-.087c-.887-.032-1.774-.049-2.66-.076-3.18-.1-6.362-.224-9.543-.286-.928-.018-1.5-.56-2.165-.985.16-.46.46-.362.688-.357 1.878.035 3.757.074 5.633.137 5.267.176 10.533.363 15.8.545.156.006.313.008.47.01 1.749.029 1.565.21 1.87-1.672.068-.426-.163-.559-.508-.609-1.29-.186-2.58-.374-3.872-.55-4.702-.637-9.405-1.27-14.107-1.905-.052-.008-.101-.025-.153-.032-.135-.017-.202-.09-.163-.206.032-.091.078-.216.152-.248.807-.361 1.58-.653 2.541-.511 4.54.67 9.092 1.253 13.64 1.867.31.041.63.035.931.112.955.244 1.572 0 2.218-.859 2.88-3.835 8.81-3.6 11.35.707.502.852 1.03 1.094 1.968 1.075 9.338-.183 18.677-.316 28.015-.483.815-.014 1.54.125 2.173.651l.368-.045zM246.342 194.184c.93 3.646 4.508 6.22 8.408 6.207 3.038-.01 7.066-2.107 7.876-6.212-1.826.156-3.598.55-5.406.632-1.82.082-3.634.114-5.455.015-1.814-.097-3.6-.406-5.423-.642zm47.024-29.34c-.339.24-.69.464-1.016.72-5.697 4.485-11.393 8.974-17.087 13.464-1.253.988-1.257.991-1.401 2.58-.136 1.506-.287 3.012-.372 4.522-.075 1.313-.587 2.415-1.436 3.385-.765.873-1.69 1.546-2.69 2.125-1.361.788-2.803 1.415-4.321 1.794-.924.23-1.34.656-1.593 1.595-.803 2.978-2.61 5.19-5.48 6.434-4.037 1.75-8.902.374-11.43-3.226-.788-1.122-1.393-2.334-1.34-3.763.018-.455-.229-.627-.62-.755-1.138-.374-2.283-.739-3.394-1.183-1.412-.564-2.72-1.324-3.853-2.354-1.29-1.171-1.998-2.575-2.127-4.366-.297-4.16-.725-8.31-1.098-12.464-.112-1.246-.22-2.493-.317-3.741-.037-.476.153-.664.64-.646.31.011.625.042.93.1.214.04.362.198.413.417.037.151.059.307.072.463.222 2.544.444 5.09.662 7.636.236 2.753.48 5.505.695 8.26.087 1.103.554 1.99 1.345 2.737.963.908 2.099 1.54 3.296 2.07 2.113.938 4.338 1.503 6.615 1.833 4.422.64 8.841.597 13.238-.256 2.003-.389 3.95-.965 5.793-1.859.99-.48 1.918-1.052 2.721-1.817.79-.752 1.23-1.649 1.32-2.748.328-4.054.682-8.105 1.026-12.158.111-1.298.22-2.597.337-3.895.098-1.084.259-1.24 1.318-1.322.65-.051.822.11.763.82-.129 1.56-.293 3.115-.424 4.674-.073.882-.115 1.766-.158 2.65-.011.213.258.33.446.2.257-.176.509-.361.754-.555 4.22-3.326 8.444-6.647 12.65-9.991.462-.368.928-.641 1.501-.78.861-.208 1.71-.464 2.566-.696.358-.097.717-.165 1.03.127zM298.63 72.506c-2.586-.174-25.177-7.065-43.211-13.161-13.668-4.621-20.011-6.914-21.186-7.69.875-.309 1.638-.397 2.481-.134 6.566 2.05 13.155 4.026 19.707 6.118 13.354 4.264 26.614 8.806 39.722 13.782.82.312 1.686.534 2.487 1.085"/><path d="M276.08 159.56c-.584 1.532-.475 3.165-.69 4.75-.078.567-.068 1.146-.134 1.715-.077.655-.23.795-.886.868-.256.028-.52.033-.777.01-.228-.021-.378-.175-.372-.415.009-.365.032-.729.062-1.091.061-.727.185-1.455.182-2.181-.003-.798.39-1.592.03-2.393-.768.233-1.265.877-1.931 1.27-2.18 1.284-4.522 2.134-6.976 2.691-7.358 1.673-14.69 1.597-21.98-.398-1.817-.497-3.56-1.19-5.184-2.156a4.983 4.983 0 0 1-.735-.564c-.052-.046-.026-.19-.013-.287.004-.029.085-.052.134-.069.442-.157.807.057 1.187.233 1.761.812 3.62 1.319 5.514 1.709.197.04.397.124.648-.076.113-.416-.171-.85-.155-1.307.007-.208-.04-.416-.033-.624.01-.277.106-.513.429-.548.311-.036.5.124.53.424.06.622.099 1.246.144 1.87.026.357.219.601.56.651 1.549.226 3.096.473 4.666.478.475.001.61-.154.589-.69-.026-.677-.083-1.352-.12-2.03-.02-.363-.04-.728-.035-1.092.004-.277.28-.485.519-.46.292.033.31.264.327.452.101 1.09.18 2.181.27 3.271.044.527.16.681.645.7 1.773.072 3.547.1 5.314-.099.573-.064.657-.186.648-.833-.017-1.251-.058-2.502-.065-3.753-.001-.304.08-.613.152-.912.016-.065.158-.134.245-.139.088-.004.218.045.264.114.212.315.239.687.245 1.051.02 1.147.028 2.294.035 3.44.004.877.054.964.847.88 1.815-.19 3.626-.418 5.403-.855.697-.171.733-.212.722-.957-.019-1.148-.038-2.295.144-3.434.04-.249.13-.495.23-.728.025-.06.177-.1.265-.091.086.009.222.078.237.144.059.248.11.505.105.757-.016.938-.058 1.876-.084 2.814-.008.31-.073.627.134.98 1.381-.185 2.653-.748 3.912-1.353.273-.131.344-.365.326-.644-.042-.623-.093-1.246-.118-1.87a1.898 1.898 0 0 1 .092-.614c.042-.135.116-.273.317-.282a.292.292 0 0 1 .321.263c.047.359.04.726.063 1.088.027.408-.099.824.108 1.31.748-.296 1.414-.617 1.479-1.56.018-.26.055-.52.103-.775.052-.28.214-.47.515-.497.311-.026.623-.054.936-.057.402-.003.514.15.551.575.04.443-.265.928.162 1.331.01.004-.024-.005-.024-.005M441.513 106.156c-.44.268-.844.044-1.225-.026-9.827-1.818-44.199-9.017-48.13-10.602 1.769.255 3.262.449 4.748.687 13.848 2.225 27.636 4.785 41.397 7.492 1.955.384 1.956.386 3.058 2.029.08.12.1.276.152.42M394.972 21.755c-.036-.027-.076-.078-.108-.075-.115.016-.156.093-.11.2.017.037.064.06.097.09.041-.072.081-.143.12-.215m12.294 1.583c-.123-.751-.266-1.518-.366-2.29-.047-.358-.017-.727 0-1.091.007-.152.074-.297.255-.34.28-.068.393.145.429.332.109.56.18 1.13.253 1.697.053.413.072.832.132 1.244.075.506.201.627.708.638a23.218 23.218 0 0 0 4.52-.325c.403-.07.517-.226.417-.658-.264-1.134-.267-2.276-.13-3.421a.342.342 0 0 1 .31-.3c.238-.026.405.065.484.278.053.143.071.303.08.457.016.26.018.522.018.782 0 .521-.005 1.043-.007 1.564-.004.976.314 1.338 1.27 1.273.67-.046 1.346-.182 1.996-.362 1.62-.448 1.452-.17 1.448-1.827-.003-.888.044-1.775.288-2.636.04-.14.144-.266.23-.39.021-.03.096-.048.135-.036.085.029.225.07.233.124.04.253.07.512.054.766-.048.729-.143 1.454-.18 2.183-.053 1.072.13 1.178 1.164.723.287-.126.558-.284.844-.41.905-.396 1.398-1.039 1.317-2.07-.025-.308.023-.625.06-.935.07-.575.229-.73.789-.747 1.12-.034 1.335.055 1.2 1.182-.168 1.398-.248 2.805-.399 4.204-.088.815-.186.881-.957.916a5.082 5.082 0 0 1-.623-.02c-.246-.02-.37-.183-.381-.41-.013-.311.014-.624.01-.936-.004-.24-.031-.478-.046-.69-.459-.05-.67.21-.915.38-1.039.717-2.196 1.194-3.347 1.684-.493.21-1.003.26-1.53.262-3.339.005-6.678.059-10.014-.17-2.342-.161-4.69-.23-7.03-.408-2.132-.163-4.257-.41-6.382-.637-.732-.08-.777-.148-.889-.845-.04-.258-.085-.516-.097-.776-.018-.398-.248-.87.172-1.16.382-.264 1.465-.135 1.748.219.565.706 1.275 1.048 2.207 1.038.369-.291-.05-.767.17-1.118a.372.372 0 0 1 .245-.149c.088-.01.217.026.275.09.308.335.256.775.3 1.182.037.356.208.586.543.677a84.29 84.29 0 0 0 2.569.67c.261.063.381-.149.355-.372-.078-.67-.343-1.317-.235-2.005.022-.143.067-.296.277-.316.185-.017.306.066.372.204.255.534.205 1.12.257 1.688.098 1.054.121 1.105 1.209 1.232 1.138.134 2.267.374 3.422.344.259-.006.523.027.763-.183M209.169 44.842c1.189-.33 2.235-.534 3.329-.278 1.271.297 2.56.475 3.862.54.608.03.607.013.764-.668.035-.148.081-.295.134-.437.013-.033.082-.072.117-.066.087.014.205.027.249.086.224.306-.113.777.218 1.016.443.32 1.004.189 1.514.225.468.035.941-.02 1.406.027 1.172.118 2.229-.303 3.3-.657a.48.48 0 0 0 .352-.459c.023-.461-.103-.938.148-1.377.091-.16.236-.199.391-.162.083.019.175.096.218.173.048.086.053.199.062.301.12 1.48.12 1.492 1.623 1.208.972-.184 1.932-.425 2.904-.61.647-.124 1.045-.409 1.016-1.134-.01-.22.162-.384.41-.354.17.022.26.172.271.33.028.41.216.553.608.406.195-.073.409-.113.584-.219 1.426-.856 3.014-.676 4.566-.723.156-.005.314.073.317.256a.349.349 0 0 1-.14.257c-.527.335-1.05.683-1.6.976-2.836 1.512-5.874 2.402-9.043 2.86-1.728.248-1.81.24-1.64 1.876.057.559-.047 1.135-.094 1.701-.023.284-.173.487-.483.508a7.49 7.49 0 0 1-.78.026c-.48-.017-.664-.182-.68-.65-.026-.78-.019-1.563-.032-2.344-.006-.375-.214-.57-.584-.57-.417-.002-.833.019-1.25.026-3.354.052-6.663-.281-9.896-1.204-.687-.197-1.413-.328-2.141-.886M198.985 144.724c-.278 1.083-.31 1.143-1.102 1.168-3.803.12-7.605.225-11.408.334a5.21 5.21 0 0 1-.625-.008c-1.151-.105-1.524-.465-1.69-1.647-.05-.361-.058-.727-.101-1.09-.13-1.101.106-2.024 1.058-2.744.744-.563 1.348-1.307 2.076-1.894 3.913-3.152 8.361-4.56 13.392-4.035.932.098 1.871.127 2.805.205.396.033.502.303.309.658-.186.342-.417.594-.844.57-.885-.05-1.773-.066-2.654-.152-4.6-.447-8.649.893-12.202 3.779-.927.753-1.745 1.639-2.616 2.462-.402.379-.624.822-.555 1.39.082.684.525 1.156 1.21 1.208.467.034.938.01 1.406-.003 3.334-.098 6.668-.207 10-.297.513-.013 1.04-.13 1.541.096M335.006 106.33c-.447.098-.664.487-.95.776-7.129 7.18-14.457 14.153-21.867 21.043-.456.423-.865.911-1.464 1.158l.051.029c-.15-.283-.423-.32-.699-.354l.056.043-.682-.8c.14-.458.516-.677.818-.951 7.532-6.806 15.142-13.522 22.938-20.024.36-.3.726-.591 1.091-.885.239-.191.483-.13.723-.01l-.015-.025M440.657 12.078c.948-.813 1.374-.987 2.317-.901 4.723.43 9.445.867 14.168 1.295.623.057 1.25.082 1.873.12.461.028.823-.133 1.005-.575.155-.379.03-.715-.22-1.012-1.988-2.362-4.33-4.21-7.371-5.032-.551-.149-1.105-.284-1.659-.426.364-1.125.465-1.203 1.352-.996a14.834 14.834 0 0 1 5.494 2.548c1.181.875 2.168 1.95 3.151 3.03.44.484.668 1.045.62 1.712-.08 1.117-.873 1.95-1.993 2.037-.361.028-.73 0-1.092-.034-2.179-.21-4.352-.502-6.536-.62-1.457-.08-2.902-.244-4.353-.36-2.079-.167-4.153-.381-6.23-.58-.188-.018-.41.015-.526-.206M397.464 17.566c-.045.429-.06.684-.102.936-.03.177-.183.239-.346.242-.157.004-.307-.032-.37-.208-.016-.049-.05-.101-.042-.148.225-1.54-1.07-1.664-1.992-2.121-.148-.073-.325.085-.325.236 0 .573.049 1.145.056 1.718.004.374-.188.55-.578.577a4.313 4.313 0 0 1-.469.01c-.695-.022-.86-.12-.93-.778-.156-1.45-.268-2.905-.386-4.359-.024-.293.211-.487.507-.419 1.11.256 2.214.449 3.184 1.178 1.09.818 2.414 1.223 3.728 1.57 4.277 1.129 8.613 1.537 13.018.977.469-.06.936-.097 1.399.02.066.016.157.14.147.2-.014.085-.101.214-.174.226-.873.144-1.745.306-2.625.393-2.698.264-5.399.508-8.1.739-1.04.089-2.065.09-3.079-.31-.765-.303-1.597-.438-2.521-.68M553.056 83.374c1.855-.48 3.519-.908 5.18-1.342.656-.172 1.314-.337 1.957-.547.439-.143.592-.581.417-1.02-.183-.456-.5-.79-.937-1.008-3.2-1.599-6.482-2.876-10.154-2.784-1.583.04-3.112.295-4.594.841-1.125.416-2.256.818-3.366 1.271-.731.299-1.304-.089-1.915-.338-.025-.01.004-.18.027-.27a.19.19 0 0 1 .104-.114c2.154-.786 4.246-1.754 6.485-2.288 2.64-.63 5.283-.49 7.909.134 2.146.51 4.136 1.43 6.104 2.396.889.436 1.486 1.145 1.664 2.142.206 1.163-.24 1.897-1.36 2.297-.196.07-.396.132-.598.185-1.565.405-3.13.81-4.696 1.208-1.022.26-1.044.247-2.227-.763M240.787 42.175c.313-.528.713-.45 1.056-.488 1.088-.123 2.18-.203 3.266-.342 1.151-.145 2.27-.067 3.414.144 3.948.728 7.912 1.37 11.862 2.082 1.012.183 2.066.218 3.086.644-1.422.951-3.3 1.368-4.706 1.12-5.238-.92-10.477-1.827-15.716-2.742-.715-.125-1.429-.264-2.262-.418M475.725 105.987c-3.28 1.233-6.52 2.144-10.012 3.452 4.918 1.245 9.512 2.129 13.997 3.46-.999.178-1.955-.12-2.909-.27a523.748 523.748 0 0 1-12.177-2.041c-1.283-.231-2.489-.178-3.644.381-.722.35-1.306.137-1.897-.237-.073-.046-.132-.172-.13-.259.001-.077.082-.184.156-.219.235-.11.48-.204.727-.286 4.497-1.5 9-2.979 13.489-4.504.9-.307 1.583-.074 2.4.523M452.03 113.863c-.394.168-.672.31-.963.407-3.506 1.171-7.013 2.336-10.52 3.504-.197.065-.39.15-.591.202-1.039.27-1.97.101-2.711-.724-.719-.801-.904-1.734-.618-2.765.027-.1.056-.203.104-.294 1.29-2.45 2.677-4.833 4.775-6.708a2.76 2.76 0 0 1 .493-.38c.347-.191.59.018.8.265.197.232.186.47-.024.691a5.258 5.258 0 0 1-.335.327c-1.862 1.657-3.141 3.737-4.29 5.91-.144.271-.274.572-.313.87-.128.966.693 1.885 1.757 1.561.398-.121.792-.258 1.187-.39 3.012-1.005 6.036-1.978 9.03-3.036.848-.299 1.496-.259 2.219.56M516.32 112.208c-.819.688-1.776 1.071-2.737 1.435-2.796 1.06-5.709 1.622-8.677 1.846-3.172.239-6.349.23-9.508-.248-.206-.03-.416-.045-.616-.098-.073-.019-.17-.13-.17-.197.001-.079.09-.216.154-.225 1.132-.161 2.268-.288 3.398-.46 1.651-.25 3.306-.361 4.978-.306.778.026 1.562-.04 2.34-.107.548-.048 1.154-.023 1.308-.8.043-.211.512-.187.62.075.14.34.3.526.679.46 1.127-.198 2.254-.397 3.383-.591.407-.07.621-.292.72-.705.047-.197.34-.305.505-.136.41.414.86.345 1.295.143.753-.349 1.519-.246 2.329-.086M487.587 111.915c.137-.698-.029-1.199-.098-1.71-.048-.36-.073-.723-.081-1.087-.002-.062.123-.167.203-.182.086-.015.254.031.27.086.15.491.307.985.397 1.49.381 2.14.075 1.794 2.24 2.356.75.194 1.517.327 2.256.483.361-.484.14-.955.134-1.405-.008-.57-.148-1.144.012-1.707.033-.117.205-.26.326-.271.123-.013.348.093.38.193.302.958.308 1.944.183 2.93-.037.29-.29.426-.564.455-.777.082-1.564.102-2.333.228-1.076.177-2.053-.038-3.02-.51-1.079-.526-2.15-1.057-3.106-1.793-.197-.151-.368-.388-.758-.306-.145.69.059 1.389.114 2.091.055.686-.075.836-.75.869a6.27 6.27 0 0 1-.625-.002c-.353-.018-.62-.19-.648-.549-.15-1.868-.283-3.738-.407-5.608-.021-.333.209-.438.514-.39.206.033.41.074.616.108.526.087.845.35.861.926.01.31.082.62.126.928.047.328.217.576.484.769.974.705 1.995 1.31 3.274 1.608M457.27 91.626c-.48 2.116-.564 1.808-2.042 1.352-3.283-1.01-6.56-2.044-9.837-3.072a7.018 7.018 0 0 1-.87-.334c-.166-.078-.175-.27-.064-.384.29-.295.608-.564.92-.838.342-.303.694-.337 1.149-.19 2.774.892 5.561 1.746 8.342 2.618.79.248 1.608.418 2.403.848M189.956 35.65c.18.023.362-.002.485.071.415.248 1.075.018 1.287.655-.32.42-.84.37-1.267.482-4.589 1.197-9.186 2.358-13.782 3.532-.556.143-1.11.322-1.66-.024-.215-.136-.578-.201-.581-.464-.005-.408.413-.382.699-.455 4.743-1.223 9.487-2.445 14.231-3.665.201-.053.405-.092.588-.132M237.802 154.676c3.31.615 6.372 1.222 9.468 1.612 2.375.3 4.751.578 7.127.87.357.045.715.108 1.066.188.065.015.141.155.14.235-.003.067-.108.182-.175.188-.413.034-.829.06-1.243.057-.729-.007-1.457-.044-2.186-.056-.314-.004-.607.019-.749.403-.086.235-.341.261-.45.017-.172-.385-.455-.532-.845-.573-1.5-.161-2.998-.339-4.5-.491-.576-.058-.695.084-.712.71-.01.415.011.833-.05 1.24-.03.21-.257.293-.492.254a.372.372 0 0 1-.318-.291c-.124-.525.074-1.03.12-1.545.047-.525-.002-.612-.538-.76a559.183 559.183 0 0 0-3.91-1.072c-.501-.136-.696.009-.666.501.05.83.111 1.662.171 2.492.015.207.045.414.068.62.034.3-.079.54-.385.56-.326.023-.408-.258-.448-.524-.054-.36-.115-.72-.14-1.083-.048-.675-.08-1.35-.105-2.026-.016-.458.016-.918-.248-1.526M528.695 89.72c.574-.206.81-.313 1.06-.377 3.926-1.007 7.857-1.994 11.776-3.026.506-.133.913-.155 1.301.187.15.131.37.303.371.46.003.314-.316.347-.566.412-3.775.968-7.555 1.919-11.32 2.924-.912.244-1.59-.145-2.622-.58M236.43 19.738c.103-.571.464-.557.749-.643 3.043-.92 6.087-1.838 9.13-2.757.6-.18 1.206-.339 1.792-.552 1.001-.363 1.932-.211 2.856.247-.152.397-.496.42-.769.503-3.788 1.154-7.586 2.28-11.37 3.448-.888.274-1.58-.228-2.387-.246M518.6 87.22c-.418-.087-.877-.173-1.329-.284-.08-.02-.17-.131-.192-.217-.019-.067.04-.206.1-.234.33-.149.67-.278 1.01-.406 3.116-1.16 6.248-2.274 9.338-3.501.986-.393 1.91-.367 2.886-.185.074.014.174.122.18.194.008.085-.048.227-.118.26-.326.155-.664.29-1.003.416-3.261 1.214-6.524 2.426-9.787 3.637-.194.073-.386.156-.584.217-.146.045-.302.063-.502.102M520.291 113.87c-.153 1.81-.286 3.624-.464 5.432-.131 1.336-.226 1.4-1.491 1.429-.404.009-.584-.143-.58-.54.004-.414.029-.83.066-1.243.177-1.965.36-3.93.544-5.894.09-.96.165-1.024 1.149-1.02.155 0 .312.006.465.031.223.038.383.163.384.406 0 .259-.02.518-.036.777-.012.207-.029.414-.044.621h.007M270.403 131.04c-.014-.42.318-.634.553-.894 1.323-1.462 2.684-2.891 3.973-4.383.537-.621 1.093-.909 1.895-.692.248.068.515.065.765.13.163.042.25.213.169.356a3.625 3.625 0 0 1-.47.614c-1.431 1.574-2.892 3.122-4.292 4.724-.517.593-1.05.792-1.766.508-.279-.11-.622-.076-.827-.363M247.337 22.467c1.023-.463 2.01-.524 2.959-.724 2.65-.56 5.312-1.065 7.97-1.59.256-.05.515-.075.772-.125.488-.094.787.158 1.024.538.13.207.122.406-.108.51a3.472 3.472 0 0 1-.74.225c-3.063.618-6.13 1.218-9.192 1.85-.99.203-1.81-.085-2.685-.684M269.868 17.158c-.835-.788-1.771-1.445-2.755-2.027-1.22-.721-2.522-1.252-3.957-1.364-1.058-.083-2.022-.484-2.999-.848-.148-.055-.3-.163-.233-.31.052-.115.23-.222.366-.243 1.47-.224 2.913-.022 4.339.329 1.963.484 3.64 1.533 5.248 2.708.428.313.744.722.818 1.281.043.32-.11.468-.563.474-.103 0-.207-.016-.311-.025zM442.364 104.552c.467.093.976.187 1.481.298.684.151 1.31.092 1.96-.235 1.687-.853 3.52-1.259 5.37-1.59.246-.044.542-.081.641.25.1.333-.096.87-.346.95-.396.125-.8.236-1.208.31-1.917.347-3.701 1.036-5.38 2.02-.845.497-.866.491-1.58-.227-.403-.404-.767-.847-1.136-1.283a.351.351 0 0 1-.055-.283c.02-.07.13-.114.253-.21M207.546 43.138c.175-.729-.2-1.374-.122-2.03.047-.408-.344-1.077.29-1.154.456-.056.36.633.467 1.003.085.297.128.614.137.924.017.5.352 1.173-.145 1.459-.666.383-1.475.473-2.19-.075-.16-.122-.347-.209-.49-.293-.365.144-.225.616-.604.702-.41.094-.816.165-1.234.088-.23-.043-.354-.222-.386-.432-.081-.513-.153-1.03-.196-1.547-.07-.873-.14-1.748-.133-2.559.416-.365.777-.175 1.111-.118.742.127.89.186.848.865-.117 1.91 1.048 2.656 2.647 3.167M463.996 101.453c.01.232-.178.242-.316.272-1.32.282-2.64.559-3.961.831-1.93.4-3.863.796-5.794 1.191-.244.05-.523.174-.675-.14-.142-.295.003-.826.268-.984.172-.103.373-.174.57-.216 2.692-.563 5.39-1.096 8.075-1.689.77-.17 1.295.132 1.805.603.029.027.02.093.028.132M290.888 147.55c-.384.083-.605.395-.877.63-2.884 2.484-5.765 4.974-8.648 7.46-.235.203-.47.416-.737.57a.552.552 0 0 1-.701-.089c.017-.292.23-.46.411-.642 1.851-1.836 3.7-3.674 5.564-5.498.256-.25.568-.457.883-.632.958-.529 1.933-1.028 2.896-1.548.376-.204.746-.382 1.183-.201zM288.32 136.23c.72-.082 1.436-.187 2.158-.24 2.697-.2 5.395-.384 8.091-.574l.156-.01c.285-.015.523.063.585.374.077.394-.133.82-.446.886a7.015 7.015 0 0 1-.927.11c-2.334.165-4.671.293-7.001.502-1.016.091-1.773-.424-2.616-1.049M234.99 160.014c-.26.042-.461.093-.664.105-1.334.08-1.368.06-1.493-1.304-.14-1.543-.264-3.09-.378-4.635-.032-.44.13-.589.527-.535.306.042.612.102.91.182.325.087.536.303.576.65.053.462.1.925.142 1.388.124 1.331.244 2.663.38 4.149"/><path d="M269.82 17.133c.166.127.34.244.493.385.372.344.381.552.14.932-.333.524-.83.79-1.404.907-2.195.446-4.394.871-6.592 1.307-.448.088-.813.025-1.05-.433-.183-.354-.123-.648.234-.722 1.58-.33 3.165-.644 4.748-.965.46-.092.916-.23 1.38-.266.876-.066 1.587-.4 2.106-1.116l-.054-.029M167.052 42.826c-1.31.336-2.602.73-3.92.988-1.312.258-2.39-.453-2.814-1.664-.226-.644-.114-1.236.19-1.801.195-.365.446-.702.697-1.032.227-.298.47-.29.802-.03.279.218.412.468.208.8-.163.266-.36.512-.51.783-.216.39-.242.8.017 1.182.291.431.719.603 1.221.49.71-.16 1.417-.333 2.114-.543.725-.219 1.328-.032 1.861.459.065.06.07.185.134.368M235.527 166.488c0-.074.011.134-.003.34-.017.234-.167.39-.392.393-.36.006-.723-.02-1.08-.06-.22-.025-.373-.177-.447-.382a1.879 1.879 0 0 1-.102-.455c-.127-1.393-.256-2.786-.365-4.181-.037-.475.135-.637.622-.688a4.3 4.3 0 0 1 .31-.02c.878-.032 1.029.072 1.11.9.124 1.29.218 2.583.347 4.153M169.379 32.916c-.12.506-.195 1.033-.82 1.342-1.93.95-3.566 2.287-4.954 3.933-.38.45-.613.442-1.035.088-.233-.196-.287-.412-.13-.673.053-.088.122-.168.188-.247 1.72-2.068 3.807-3.645 6.284-4.698.22-.094.483.036.467.255M553.538 84.348c-.321.195-.476.342-.656.389-2.404.63-4.813 1.238-7.216 1.873-.405.107-.704.014-.983-.262-.144-.144-.324-.276-.31-.503.014-.256.236-.302.435-.354 2.253-.59 4.508-1.176 6.76-1.771.762-.202 1.246.301 1.97.628M170.857 33.056c.182-.817.55-1.358 1.484-1.482a119.65 119.65 0 0 0 5.227-.834c.703-.125 1.194.224 1.7.587.067.048.122.179.106.255a.346.346 0 0 1-.195.214 3.494 3.494 0 0 1-.602.14c-2.458.39-4.939.644-7.368 1.213-.086.02-.193-.048-.352-.093M209.049 145.373c-.228.115-.271.154-.315.156-2.603.098-5.206.195-7.809.285-.201.007-.448 0-.477-.269-.016-.137.057-.301.134-.427.227-.37.53-.63 1.001-.643 1.876-.049 3.75-.133 5.627-.147.708-.005 1.213.491 1.839 1.045M203.566 47.057c-.023-.21-.04-.47-.082-.727-.21-1.289.038-1.33 1.387-1.287.292.01.505.179.533.468.128 1.348.246 2.698.343 4.049.022.308-.215.451-.51.459a3.29 3.29 0 0 1-.468-.029c-.93-.106-1.002-.177-1.088-1.165-.05-.572-.075-1.145-.115-1.768M282.13 120.664c-.274.696-.899 1.118-1.347 1.674-.26.323-.581.6-.828.93-.448.601-1.005.857-1.748.687-.348-.08-.847.024-.994-.308-.2-.45.326-.684.573-.974.57-.672 1.207-1.289 1.768-1.97.385-.469.832-.572 1.38-.451.401.088.826.106 1.196.412M484.58 118.526c.014.206.047.413.04.619-.015.392.295.917-.147 1.144-.458.234-1.017.077-1.504-.108-.113-.043-.23-.225-.243-.354a180.26 180.26 0 0 1-.336-3.86c-.023-.3.17-.481.462-.507.308-.026.62-.024.928-.013.29.01.493.168.53.458.114.87.209 1.744.31 2.616zM531.892 81.258c.171-.416.45-.438.684-.527 1.31-.494 2.64-.942 3.922-1.497.801-.345 1.508-.169 2.24.107.066.026.098.162.128.253.01.031-.027.102-.061.12-.228.118-.454.245-.694.336-1.019.382-2.066.702-3.058 1.144-1.052.47-2.069.56-3.16.064M259.7 13.653c-2.008.622-3.685 1.133-5.357 1.666-.663.21-1.205-.166-1.796-.308-.075-.018-.151-.132-.183-.218-.077-.207.103-.278.237-.32 1.481-.458 2.964-.913 4.45-1.355.858-.255 1.604.087 2.65.535M210.76 135.564c-.745.912-1.548 1.3-2.63 1.107-1.013-.181-2.059-.163-3.089-.246-.14-.01-.341-.03-.346-.235a.779.779 0 0 1 .105-.416c.272-.425.656-.608 1.18-.564 1.592.132 3.186.238 4.78.354M171.91 40.262c.56.044.882.3 1.192.577.158.14.081.404-.143.476-.197.064-.399.113-.599.166-.652.168-1.325.28-1.95.518-.777.294-1.417.06-2.05-.338-.068-.044-.131-.17-.12-.245.014-.086.101-.208.179-.23 1.197-.325 2.399-.637 3.492-.924M459.346 94.263c-.446-.173-1.033-.217-1.496-.577-.095-.075-.155-.288-.125-.412.07-.3.177-.597.314-.873.15-.301.409-.482.765-.373.795.24 1.586.492 2.374.752.191.062.197.272.101.374-.467.501-1.076.797-1.685 1.088-.044.02-.102.01-.248.021M457.965 111.94c-1.093.379-2.031.671-2.944 1.03-.661.262-1.216.083-1.766-.254a.335.335 0 0 1-.143-.235c-.003-.087.059-.228.126-.252 1.023-.368 2.044-.743 3.08-1.07.474-.149.566-.07 1.647.781M276.173 153.947c.194.71.042 1.415-.1 2.115-.057.279-.271.437-.559.444-.452.01-1.049.218-1.288-.242-.26-.498-.111-1.117.087-1.66.046-.124.198-.24.328-.298.469-.213.94-.441 1.532-.359M398.607 14.636l7.99 1.472c-.225.272-.49.202-.718.195a23.791 23.791 0 0 1-6.593-1.134c-.262-.083-.655-.078-.664-.518zM241.911 40.728h-4.915c-.128-.097-.16-.202-.073-.248.388-.206.326-.811.677-.915.297-.087.684.146 1.034.225 1.093.25 2.24.264 3.277.938M225.986 48.58c1.788.41 3.267.765 4.717 1.297-.087.412-.39.293-.597.318-.2.024-.433.029-.608-.052-1.068-.49-2.234-.763-3.512-1.562M519.332 110.774c-.354-.043-.61-.06-.862-.112a.33.33 0 0 1-.209-.19c-.02-.062.043-.21.1-.23.587-.194 1.178-.38 1.774-.546.228-.064.393.043.427.296.035.263.04.56-.258.645-.341.097-.709.103-.972.137M517.336 105.277c.059 1.086-.048 2.162-.18 3.235-.055.462-.263.776-.444.68-.356-.187-.227-.527-.206-.807.085-1.086.303-2.14.833-3.11l-.003.002M211.397 41.56c.028-.217.064-.52.107-.824.019-.129.105-.184.231-.145.093.027.237.052.26.116.258.683.352 1.392.222 2.113-.019.105-.213.227-.345.254-.24.049-.378-.114-.4-.345-.034-.358-.047-.719-.075-1.169M276.44 159.145c.668-.228.999-.85 1.493-1.28.189-.164.323-.408.62-.407.048 0 .102.006.145.027.122.058.158.157.075.244-.568.594-1.162 1.161-1.905 1.531-.098.05-.285-.081-.43-.128zM272.416 155.766c-.015.1-.027.201-.047.3-.043.211-.154.37-.38.408-.208.036-.366-.232-.334-.566.01-.101.025-.202.047-.3.049-.21.167-.365.383-.414.196-.045.357.24.33.572M499.532 111.81c.034-.215.048-.418.106-.607.021-.07.141-.142.223-.152.084-.01.223.03.259.092.262.458.323.938.053 1.415-.036.064-.169.105-.253.1-.083-.005-.213-.068-.234-.134-.072-.235-.107-.481-.154-.714M217.45 41.328c.323-.018.478.145.511.433.041.348-.165.628-.474.631-.227.002-.36-.119-.382-.361-.039-.433.076-.667.344-.703M234.849 40.336c.056.06.16.119.16.178.001.17-.133.214-.277.182-.113-.027-.156-.129-.09-.224.043-.063.136-.092.207-.136"/><path d="M398.622 14.652l-.156-.003.138-.012c.003 0 .018.015.018.015M459.395 280.072c.003.323.145.66-.098.966-.007.008.016-.01.008-.002.014-.318-.09-.66.112-.963zM458.849 282.694l.16-.26c.117.236-.043.227-.199.22l.039.04M290.862 147.6l-.059-.119c-.083.102-.056.126.082.072.003-.003-.023.046-.023.046M276.438 159.132c.036.264-.04.439-.35.431-.009-.002.025.006.015.002.22-.04.349-.166.34-.414-.003-.007-.005-.02-.005-.02M293.34 164.875l-.03-.079s.05.049.053.049c.003-.001-.023.03-.023.03M335.132 105.87a9.649 9.649 0 0 0-.132.453c.006.007.018.027.021.032-.023-.167-.173-.378.143-.445l-.032-.04"/><path d="M335.618 105.481l-.486.388s.032.04.031.041l.43-.37z"/><path d="M335.593 105.54c-.08-.193.164-.102-.04-.085-.077.007-.05.095.062.03a1.522 1.522 0 0 1-.022.054M458.502 279.538l-.068-.062s.023.091.026.09a.953.953 0 0 0 .042-.028M458.898 279.78a25.78 25.78 0 0 0-.393-.243l-.045.03c.133.085.269.17.405.255l.033-.042"/><path d="M459.417 280.073c-.217-.019-.427-.05-.52-.292 0-.001-.033.043-.033.041.172.085.343.171.523.253.008-.003.03-.002.03-.002M324.368 320.23c-.194-.317-.135-.577-.08-.823.373-1.678.812-3.337 1.377-4.966 1.453-4.195 3.261-8.235 5.275-12.184 2.178-4.273 4.415-8.516 6.534-12.816 3.185-6.462 5.868-13.129 7.849-20.065 1.075-3.76 1.86-7.589 2.67-11.411.863-4.078 1.704-8.16 2.565-12.238.101-.482.264-.95.577-1.39-.138 1.077-.26 2.157-.417 3.23-.589 4.022-1.168 8.045-1.79 12.062-.902 5.82-1.895 11.623-3.7 17.252-1.403 4.378-3.22 8.585-5.218 12.716-3.449 7.136-7.092 14.17-11.035 21.046-1.219 2.126-2.445 4.25-3.413 6.505-.427.996-.786 2.021-1.194 3.083M357.008 304.905c0 .539.01.738-.001.937-.34 5.71.3 11.333 1.422 16.926 1.036 5.16 1.905 10.357 2.291 15.609.379 5.155.373 10.312-.788 15.4-.094.408-.14.825-.563 1.192.07-.738.15-1.397.196-2.058.303-4.382.17-8.752-.502-13.095-.574-3.706-1.21-7.402-1.805-11.105a79.287 79.287 0 0 1-.8-7.142c-.22-3.172-.378-6.346-.326-9.529.036-2.293.232-4.567.876-7.135M354.513 338.951c.214 1.959.446 3.916.637 5.877.314 3.212.722 6.417.754 9.652.029 2.917.04 5.834-.381 8.73-.773 5.314-3.007 9.925-6.697 13.828-.13.138-.285.25-.62.54.166-.366.201-.51.285-.618 2.027-2.606 3.16-5.607 3.857-8.792.791-3.618 1.326-7.27 1.39-10.982.05-2.865.107-5.729.191-8.592.09-3.071.214-6.141.327-9.211.005-.151.053-.301.08-.451l.177.02M378.221 367.013c.366-.596.43-1.267.506-1.94.287-2.56.095-5.11-.174-7.652-.438-4.155-1.333-8.232-2.175-12.316a75.151 75.151 0 0 1-1.023-6.17c-.183-1.507-.142-3.021-.003-4.53.033-.357.05-.732.402-1.035.526 4.811 1.792 9.424 3.117 14.026.822 2.857 1.528 5.74 1.84 8.71.383 3.629-.343 7.054-1.802 10.354-.114.257-.225.613-.65.538zM321.755 315.317c-.885 2.775-1.703 5.57-2.364 8.408a62.154 62.154 0 0 0-1.478 9.714c-.18 2.544-.328 5.09-.465 7.638-.132 2.45.033 4.89.381 7.317.022.15.003.306.003.504-.27-.3-.388-.619-.478-.953-.899-3.323-1.616-6.683-1.838-10.122-.213-3.294.224-6.55.894-9.769.888-4.263 2.433-8.28 4.67-12.023.167-.28.21-.738.715-.684zM389.914 319.374c-.267-.245-.555-.473-.798-.74-6.281-6.896-10.499-14.861-12.418-24.012-.029-.139-.004-.289-.004-.447.317.124.365.386.466.626 3.432 8.192 7.484 16.059 12.333 23.509.21.324.622.608.386 1.1zM351.336 243.015l-.035.124c-.02-.038-.058-.08-.051-.113.009-.052.05-.097.077-.145l.009.134M324.08 321.31l-.029.104-.026-.088zM396.549 331.88c.335.253.37.586.257.96l.03-.024c-.357-.257-.264-.626-.244-.976zM379.595 309.043c-.267-.29-.187-.608-.072-.928h-.001l.04.892zM396.592 331.84c-.077-.046-.158-.088-.227-.144-.014-.01.019-.11.022-.11.184.024.114.19.162.294z"/><path d="M379.562 309.007l.059.061c.058-.076.05-.087-.027-.028 0 .003-.032-.033-.032-.033M321.795 315.347a3.28 3.28 0 0 0-.06-.082c.003.015.007.03.016.049l.044.033M389.88 319.41c.206-.125.383.025.572.062l-.032-.03c-.183.082-.36.121-.504-.07l-.037.038"/><path d="M390.452 319.472l-.066.06s.03-.09.032-.09l.034.03M349.213 81.32c3.473-.058 7.171-.275 10.831-.898 3.4-.578 6.736-1.417 9.927-2.758 1.737-.73 3.4-1.593 4.907-2.737.962-.73 1.83-1.554 2.497-2.569 1.285-1.954 1.27-3.91-.018-5.857-.493-.744-1.099-1.39-1.775-1.972-.994-.854-2.086-1.562-3.24-2.18a30.299 30.299 0 0 0-4.449-1.916c-5.125-1.767-10.428-2.547-15.819-2.777-4.283-.182-8.557-.018-12.804.618-3.672.55-7.273 1.382-10.73 2.771-1.895.762-3.708 1.676-5.342 2.912-.963.728-1.83 1.552-2.494 2.571-1.278 1.96-1.26 3.912.016 5.861.49.748 1.102 1.388 1.775 1.97.911.79 1.91 1.45 2.964 2.033 1.925 1.065 3.963 1.861 6.062 2.506 5.688 1.747 11.537 2.338 17.692 2.421m-1.78 1.633c-4.472-.055-10.469-.682-16.308-2.455-2.2-.668-4.335-1.5-6.357-2.599-1.564-.85-3.026-1.847-4.266-3.141-3.188-3.328-3.208-7.23-.051-10.57 1.194-1.263 2.605-2.242 4.116-3.083 2.893-1.61 5.998-2.66 9.198-3.442 6.907-1.688 13.925-1.99 20.982-1.495 4.324.304 8.585 1.057 12.727 2.389 2.09.67 4.12 1.48 6.04 2.55 1.324.74 2.572 1.589 3.672 2.641.644.616 1.228 1.283 1.69 2.044 1.46 2.406 1.482 4.828.035 7.245-.649 1.085-1.517 1.983-2.49 2.785-1.583 1.303-3.358 2.284-5.225 3.11-3.405 1.509-6.98 2.45-10.638 3.07-3.811.646-7.654.97-13.125.95M430.422 314.98c.245-.705.77-.89 1.33-.986 1.755-.301 3.53.65 4.18 2.307.743 1.889.461 3.68-.731 5.316-.659.902-1.539 1.555-2.546 2.015-2.347 1.074-4.813 1.26-7.334.874-.668-.102-1.32-.311-1.855-.765-.456-.385-.786-.836-.713-1.473.01-.093.069-.2.14-.262.098-.087.2-.054.251.05.656 1.323 1.827 1.602 3.153 1.524 1.401-.082 2.812-.096 4.174-.512 1.215-.37 2.3-.957 3.203-1.865a4.65 4.65 0 0 0 1.294-2.447c.394-2.045-.984-3.745-3.07-3.806-.259-.007-.519.022-.779.03-.202.005-.405 0-.697 0M406.53 300.372c-.924.016-1.539-.495-1.967-1.245-.713-1.25-.797-2.592-.32-3.926.573-1.606 1.863-2.257 3.488-1.657 1.711.632 3.366.548 5.06.05.381-.113.755-.382 1.23-.115-.306.87-1.022 1.293-1.804 1.584-1.193.444-2.426.61-3.682.24-.5-.147-.996-.317-1.505-.421-.831-.171-1.255.144-1.458.991-.178.742-.06 1.454.196 2.148.18.488.418.955.611 1.439.11.278.315.547.15.912M434.456 297.507c.07.92-.142 1.827-.455 2.712-.12.338-.297.66-.479.971-.13.225-.338.466-.604.426-.297-.044-.334-.363-.34-.621a92.795 92.795 0 0 1-.023-2.178c-.001-1.302-.138-2.585-.464-3.85a5.024 5.024 0 0 1-.146-1.073c-.014-.411.236-.74.573-.824.335-.086.61.035.833.283.389.436.615.958.775 1.51.247.853.358 1.725.33 2.644M425.725 302.896c-1.692.588-3.112.278-4.342-.9-1.297-1.244-2.064-2.724-1.971-4.567.015-.31.029-.624.235-.886.136-.173.308-.302.523-.285.21.018.404.134.471.352.123.397.236.797.33 1.2.361 1.538 1.141 2.771 2.535 3.58.404.235.791.5 1.172.77.326.232.77.305 1.047.736M418.957 278.942c.23.04.445.046.637.117 1.37.501 2.402 1.437 3.23 2.602.293.412.167.996-.178 1.28-.379.311-.87.314-1.293-.02-.203-.16-.378-.358-.559-.544-.764-.79-1.607-1.48-2.56-2.03-.235-.137-.456-.26-.425-.573.034-.351.266-.558.565-.682.189-.078.398-.104.583-.15"/><path d="M432.9 318.051c-.1.01-.223.062-.298.023-.995-.515-2.025-.777-3.148-.524-.158.036-.322-.036-.302-.241a.372.372 0 0 1 .161-.242 2.676 2.676 0 0 1 3.487.576c.08.1.047.29.067.439z"/><path d="M432.867 318.081c.107-.042.23.056.19.094-.174.155-.204.048-.157-.124l-.033.03M347.116 220.577c-.174.116-.127-.14-.08.06.016.068.1.027.014-.071-.003-.002.066.011.066.011M371.741 73.9c-.448.693-1.206.951-1.88 1.312-2.358 1.261-4.881 2.089-7.466 2.737-4.223 1.061-8.524 1.46-12.869 1.403-6.241-.082-12.357-.977-18.306-2.912-1.54-.5-3.029-1.12-4.44-1.915-.959-.541-1.858-1.163-2.617-1.967-1.884-1.997-1.938-4.194-.155-6.301.68-.804 1.503-1.443 2.385-2.007 1.502-.96 3.127-1.66 4.807-2.242 3.216-1.113 6.534-1.768 9.904-2.188 4.051-.506 8.116-.56 12.182-.3 4.918.316 9.717 1.222 14.305 3.085 1.161.471 2.29 1.004 3.361 1.658.305.185.426.435.317.782v-.003c-.228-.553-.795-.63-1.245-.841-2.33-1.087-4.802-1.719-7.32-2.174-6.655-1.202-13.36-1.452-20.091-.883-3.796.32-7.55.925-11.186 2.117-1.488.488-2.94 1.062-4.306 1.833-.912.515-1.774 1.1-2.483 1.878-1.47 1.615-1.508 3.368-.106 5.06.776.938 1.752 1.629 2.796 2.232 1.91 1.102 3.965 1.847 6.085 2.404 2.778.729 5.612 1.119 8.476 1.35 4.224.34 8.442.218 12.654-.093 3.794-.281 7.562-.779 11.26-1.738 2.08-.539 4.024-1.395 5.972-2.259z"/><path d="M372.268 64.914c-.315.186-.667.08-.998.128v.004c.315-.18.659-.13.994-.12-.004.008.004-.012.004-.012M371.776 73.928s-.031-.027-.033-.027c-.002 0 .033.027.033.027M372.57 73.237l.046.057s-.025-.086-.02-.084c.003.001-.025.027-.025.027"/><path d="M373.13 73.126l-.557.11c-.003 0 .026-.025.022-.026.18.109.372.286.502-.06-.001-.002.033-.024.033-.024"/><path d="M373.207 72.65c-.282.113-.195.289-.079.473.002.003-.032.026-.03.026.05-.174.098-.35.147-.526z"/><path d="M373.245 72.623c.19.109.395.131.576.01.044-.03-.002-.193-.007-.294l.028-.055c-.331-.09-.489.123-.632.365l.035-.026"/><path d="M373.814 72.339l-.042-.104c-.079.099-.056.118.068.054l-.026.05M372.758 65.841c.107.18-.163.052.045.072.017.002.038-.039.057-.06a3.036 3.036 0 0 1-.072-.036z"/><path d="M372.788 65.817l-.404-.263-.028.046c.056.206.177.307.4.243a.898.898 0 0 1 .032-.026"/><path d="M372.384 65.554c-.147-.189-.164-.403-.119-.634.003-.006-.005.014 0 .007.034.217.065.44.093.668-.002.005.026-.04.026-.04"/></g><ellipse cx="102.782" cy="139.855" fill="#f1dc9c" fill-rule="nonzero" rx="31.782" ry="30.855"/></g></svg>