<svg height="24" width="24" xmlns="http://www.w3.org/2000/svg"><g fill="none"><g fill="#0077b5"><path d="M20.76292 20.56726v-.0008h.00399V14.03c0-3.29579-.70915-5.83372-4.56156-5.83372-1.85193 0-3.09454 1.01661-3.60245 1.98051h-.0535V8.50373H8.89664v12.06273h3.8037v-5.87204c0-1.59878.30346-3.14406 2.28317-3.14406 1.95096 0 1.9797 1.82478 1.9797 3.24787v5.76983h3.7997zM2.8545 8.70418h3.80848v11.86308H2.85449zM4.75834 2.55103c-1.21706 0-2.20571.98866-2.20571 2.2057 0 1.21786.98785 2.22568 2.2057 2.22568 1.21706 0 2.20572-1.00862 2.20572-2.22567 0-1.21785-.98866-2.20571-2.20571-2.20571z"/></g><g fill="#000"><path d="M16.84582 21.1662c.08226 0 3.8029-.0008 3.72144-.0008.33062 0 .59895-.26832.59895-.59894-.27951-6.27453 1.471-12.89566-5.06148-12.89566-1.25618 0-2.25682.42884-2.97795.99585 0-1.16675-1.26098-.52149-4.17184-.69478-.33062 0-.59895.26833-.59895.59894.24118 11.31286-.53825 12.5946.59895 12.5946h3.72144c1.08049 0 .3929-1.52372.59894-6.53887 0-2.07155.59894-2.47724 1.63392-2.47724 1.14518 0 1.33764.7954 1.33764 2.57786.20524 4.92492-.47756 6.43905.59894 6.43905zm-1.93658-10.21478c-3.58648 0-2.8318 3.94344-2.8318 9.0161H9.55387V9.16976h2.37501v1.03657c0 .57499.87606.85769 1.18112.2795.3929-.74588 1.4135-1.61714 2.99472-1.61714 2.81663 0 3.86359 1.38396 3.86359 5.1078v5.99183h-2.52355c0-5.70514.60373-9.0169-2.53553-9.0169zM2.89602 7.97267c-1.134 0-.35777 1.26577-.59894 12.5946 0 .3306.26832.59894.59894.59894h3.72543c1.134 0 .35777-1.26577.59895-12.5946 0-1.03417-1.50216-.42405-4.32438-.59894zm3.12649 11.99565H3.49496V9.17056h2.52755zM4.75674 2c-3.65436 0-3.632 5.53344 0 5.53344 3.6296 0 3.65835-5.53344 0-5.53344zm0 4.33556c-2.05078 0-2.06995-3.13767 0-3.13767 2.07394 0 2.04759 3.13767 0 3.13767z"/></g></g></svg>