<svg height="42" width="117" xmlns="http://www.w3.org/2000/svg"><g fill="none" fill-rule="evenodd"><g fill="#002f4d"><path d="M48.376 14.768c-.491 0-.922.041-1.289.122-.368.082-.553.194-.901.337v12.951a4.401 4.401 0 0 0 1.852.368c1.657 0 2.62-.607 3.478-1.822.86-1.214 1.289-2.934 1.289-5.16 0-2.204-.369-3.888-1.104-5.051-.737-1.164-1.648-1.745-3.325-1.745m.218 15.432c-.43 0-.891-.042-1.383-.123-.491-.082-.718-.174-1.025-.276v6.736h-2.884v-22.23c.615-.345 1.345-.626 2.188-.84.841-.215 1.838-.322 2.989-.322 2.321 0 4.173.74 5.457 2.22 1.284 1.48 1.926 3.506 1.926 6.077 0 2.715-.65 4.854-1.95 6.415-1.302 1.561-3.107 2.343-5.318 2.343M66.978 20.585c-2.3.286-3.745.76-4.824 1.424-1.078.664-1.617 1.77-1.617 3.322 0 1.143.338 1.99 1.016 2.541.678.551 1.654.827 2.928.827 1.15 0 1.82-.184 2.497-.551zm-2.713 9.675c-2.116 0-3.698-.423-4.746-1.27-1.048-.847-1.571-2.046-1.571-3.598 0-2.02.811-3.48 2.434-4.378 1.623-.898 3.658-1.5 6.596-1.807l.056-1.01c0-1.204-.196-1.99-.843-2.48-.647-.489-1.484-.796-2.635-.796-.74 0-1.438.096-2.095.29-.658.195-1.295.444-1.91.75l-.648-1.591c.555-.306 1.283-.587 2.188-.842.904-.255 1.87-.383 2.897-.383 1.705 0 3.097.424 4.176 1.27 1.078.848 1.617 2.21 1.617 4.088v10.594c-.678.367-1.469.653-2.372.857-.905.204-1.953.306-3.144.306zM82.568 29.954V18.105c0-.918-.257-1.684-.77-2.296-.514-.612-1.418-.919-2.712-.919-.699 0-1.274.046-1.726.138-.452.091-.721.24-1.214.444v14.482h-2.915V14.308a11.127 11.127 0 0 1 2.65-.872c.965-.194 2.105-.291 3.42-.291 2.117 0 3.642.474 4.577 1.424.934.949 1.402 2.108 1.402 3.475v11.91zM97.847 15.457c-.285-.08-.468-.302-.845-.363a6.604 6.604 0 0 0-1.054-.092c-1.772 0-2.845.65-3.64 1.938-.795 1.289-1.147 2.91-1.147 4.936 0 2.086.393 3.764 1.147 4.97.754 1.208 1.674 1.811 3.304 1.811 1.12 0 1.767-.004 2.235-.31zm-2.349 14.976c-2.321 0-4.118-.746-5.392-2.238-1.274-1.494-1.91-3.518-1.91-6.074 0-2.7.654-4.82 1.965-6.365 1.31-1.543 3.051-2.316 5.222-2.316.84 0 1.577.122 2.478.367V6.092h2.976V29.27c-.555.347-1.42.628-2.334.842-.914.214-1.916.321-3.005.321zM116.998 16.104c-.128-1.058-.713-2.071-1.753-3.039-1.32-1.18-2.865-1.663-4.637-1.489a1.582 1.582 0 0 0-.924.408c-.128.211-.109.368.108.465 1.665-.202 2.873.036 3.562.642.517.466.82 1.268.967 2.483.195 1.606-.385 4.003-1.73 7.267-.283.622-.887 1.555-1.862 2.8-1.37 1.8-2.535 2.747-3.497 2.84-.355.036-.581-.14-.78-.517a2.482 2.482 0 0 1-.258-.847c-.182-1.925.371-4.12 1.61-6.582.282-.622.804-1.387 1.51-2.329.842-1.074 1.438-1.648 1.843-1.687 0 0 .779.082 1.432-.022-.005-.039.154-.411.121-.686-.038-.313-.49-.665-1.312-1.1-.82-.436-1.462-.65-1.866-.61-.557.054-.938.29-1.038.736-.027.201.002.436-.025.637-.676.344-1.543 1.222-2.605 2.595-.623.774-1.208 1.863-1.8 3.309-.749 1.857-1.018 3.43-.861 4.724.148 1.215.681 2.232 1.55 3.06.989.973 2.27 1.403 3.739 1.258 1.468-.144 2.979-1.204 4.637-3.15 1.485-1.693 2.51-3.38 3.079-5.021.76-2.176 1.023-4.225.79-6.145"/></g><g fill="#379f7a"><path d="M10.335 10.76L7.64 9.19V6.057l2.694-1.568 2.693 1.568V9.19zM10.335 19.736L7.64 18.168v-3.135l2.694-1.567 2.693 1.567v3.135zM10.335 28.393L7.64 26.825V23.69l2.694-1.568 2.693 1.568v3.135zM10.335 37.37L7.64 35.803v-3.135l2.694-1.568 2.693 1.568v3.135zM25.3 10.76L22.605 9.19V6.057l2.693-1.568 2.694 1.568V9.19zM25.3 19.736l-2.694-1.568v-3.135l2.693-1.567 2.694 1.567v3.135zM25.3 28.393l-2.694-1.568V23.69l2.693-1.568 2.694 1.568v3.135zM25.3 37.37l-2.694-1.568v-3.135l2.693-1.568 2.694 1.568v3.135z"/></g><path d="M32.94 15.248l-2.693-1.568v-3.135l2.693-1.568 2.694 1.568v3.135z" fill="#002f4d"/><path d="M32.94 24.225l-2.693-1.568v-3.135l2.693-1.568 2.694 1.568v3.135z" fill="#379f7a"/><path d="M32.94 32.882l-2.693-1.568v-3.135l2.693-1.568 2.694 1.568v3.135zM2.693 15.248L0 13.68v-3.135l2.693-1.568 2.694 1.568v3.135z" fill="#002f4d"/><path d="M2.693 24.225L0 22.657v-3.135l2.693-1.568 2.694 1.568v3.135z" fill="#379f7a"/><path d="M2.693 32.882L0 31.314v-3.135l2.693-1.568 2.694 1.568v3.135zM17.78 6.304l-2.692-1.568V1.6L17.78.033 20.474 1.6v3.135z" fill="#002f4d"/><path d="M17.657 15.247l-2.692-1.567v-3.135l2.692-1.568 2.694 1.568v3.135z" fill="#379f7a"/><path d="M17.657 23.904l-2.692-1.567v-3.135l2.692-1.568 2.694 1.568v3.135z" fill="#002f4d"/><path d="M17.657 32.882l-2.692-1.569v-3.135l2.692-1.567 2.694 1.567v3.135z" fill="#379f7a"/><path d="M17.657 41.859l-2.692-1.57v-3.133l2.692-1.568 2.694 1.568v3.134z" fill="#002f4d"/></g></svg>