<svg height="24" width="24" xmlns="http://www.w3.org/2000/svg"><g fill="none"><g fill="#cfd8dc"><path d="M.49371 3.47875h6.70255l4.78753 11.01133-1.91501 5.35437L3.36623 5.39377zM.49371 19.75636h5.74504l-2.87252-2.87252zM20.60135 5.39377l1.91501-1.91502h-6.70254v14.30898l-1.91501 1.96863h8.61755l-1.84511-1.91405z"/></g><path d="M.3386 4.36157L2.82524 5.997v10.40522L.22848 18.9645c-.45577.45098-.135 1.22943.50461 1.22943h5.6196c.63866 0 .96134-.7775.50461-1.22943l-2.59676-2.5623V8.82644c2.66283 5.6646 5.25863 11.17697 5.1964 11.05154.26235.53237 1.0925.54673 1.31752-.07182l.00096-.00191s.00096-.00096.00096-.00192c.62238-1.7168 1.95714-5.39842 1.87192-5.16479.04788-.13309 2.31812-6.61254 2.35355-6.71307v9.3577l-1.66702 1.69c-.44715.45386-.12447 1.22274.51131 1.22274H22.277c.63387 0 .9575-.76505.51322-1.21986l-1.6019-1.64021-.06416-11.42593 1.65744-1.63542c.45578-.45098.13501-1.22943-.5046-1.22943-.67217 0 2.43685-.00096-6.57807.00383-.9173.0268-.60706.85122-3.81662 9.35675L7.94694 3.47205c-.1149-.26044-.37342-.42896-.6578-.42896H.73309c-.71047.00096-.9891.92878-.3945 1.31848zm2.14386 14.39707L3.5424 17.7121l1.05996 1.04655zM16.4381 4.48031h4.08951c-.45864.51226-.84356.66163-.84165 1.13464l.06799 12.01766c.00191.45578.37438.61568.8177 1.12507h-5.00775c.49503-.56205.87516-.71621.87516-1.18156V4.48031zm-9.6172 0l4.3605 9.89582-1.17391 3.30053C4.09394 5.118 4.30172 4.92076 3.13164 4.4803z" fill="#000"/></g></svg>