<svg height="202" width="132" xmlns="http://www.w3.org/2000/svg"><g fill-rule="evenodd"><path d="M123.967 90.759c.635 0 1.272.012 1.907-.004.64-.015 1.277-.076 1.916-.086 2.21-.037 2.634-.458 2.674-2.641.09-4.918-.164-9.826-.471-14.73-.138-2.196-.505-2.465-2.652-2.77-5.01-.713-10.062-.146-15.097-.589-4.283-.376-8.634.042-12.953.002-5.824-.053-11.646.134-17.475-.252-4.378-.29-8.79-.087-13.186-.143-5.151-.064-10.3.092-15.452.014-2.652-.04-5.36-.326-7.98.124-2.052.352-4.144.434-6.132.343-4.115-.19-8.196-.093-12.292.162-1.187.074-1.547.56-1.685 1.676-.46 3.715-.168 7.437-.186 11.153-.01 1.969-.276 3.95.114 5.929.22 1.114.648 1.604 1.891 1.763 6.198.794 12.42-.11 18.645.486 5.132.49 10.367-.201 15.542-.003 6.374.243 12.74-.117 19.109.081 7.427.231 14.862-.41 22.276-.21 7.18.193 14.326-.122 21.487-.305m2.273 1.77c-5.246.701-10.524.148-15.789.355-4.316.17-8.67.18-13.013-.158-3.32-.26-6.68-.03-10.021-.024-4.998.01-9.996-.03-14.993.029-5.315.062-10.633.043-15.944.046-4.442.001-8.902-.125-13.341-.054-5.41.087-10.784-.857-16.211-.265-1.947.213-3.179-1.02-3.332-2.983-.315-4.047-.79-8.133-.512-12.156.165-2.372-.298-4.868.71-7.206.313-.726.638-1.057 1.41-1.26 2.291-.606 4.61-.207 6.91-.346 6.466-.393 12.94-.379 19.415-.347 8.487.041 16.975.105 25.46-.024 4.849-.073 9.698.139 14.55-.12 2.097-.11 4.219.372 6.334.434 3.166.092 6.338.095 9.505.053 3.816-.05 7.615-.329 11.437.279 2.192.349 4.479-.155 6.724.08.575.06 1.16.018 1.74.04 3.534.14 4.657 1.121 4.348 4.532-.17 1.877.322 3.627.314 5.444-.016 3.52.186 7.055-.08 10.556-.208 2.74-1.045 3.202-3.879 3.2-.58-.001-1.16-.068-1.742-.105M143.447 127.112l-.077-.003c0-1.368-.019-2.737.004-4.104.034-2.057-.515-2.692-2.619-2.744-6.839-.17-13.677-.02-20.523-.35-7.92-.381-15.87-.383-23.802-.248-7.602.13-15.201-.263-22.817.355-5.544.45-11.164.06-16.75-.03-1.37-.022-1.883.564-2.062 1.764-.275 1.86-.225 3.722-.263 5.593-.094 4.661.53 9.282.641 13.929.016.643.32 1.269.97 1.197 1.44-.158 2.724.546 4.127.502 6.96-.218 13.91.17 20.866.334 1.749.041 3.502-.097 5.253-.092 5.137.017 10.288.317 15.405.026 4.896-.278 9.774-.012 14.66-.119 8.178-.178 16.367.259 24.545-.363 1.174-.088 1.57-.59 1.628-1.534.288-4.704.546-9.409.814-14.113m-84.138-8.474c3.557.045 7.094-.464 10.625-.5 3.945-.041 7.912.221 11.862.104 6.634-.197 13.266.086 19.903-.127 6.13-.197 12.28.176 18.41-.02 3.28-.105 6.627-.194 9.796.142 4.226.448 8.393-.208 12.562.234 1.198.127 2.205.65 2.266 1.982.211 4.59.422 9.18.106 13.776-.112 1.632-.384 3.259-.163 4.908.188 1.41-.666 2.736-.342 4.203.126.566-.62.824-1.198 1.052-1.99.783-4.063.353-6.082.407-5.964.158-11.937.287-17.898.129-5.968-.16-11.935.038-17.903-.246-4.054-.192-8.13.042-12.196.085-4.712.052-9.424-.056-14.138-.038-5.63.02-11.263-.374-16.898-.533-4.172-.117-4.307-.508-4.579-4.604-.334-5.058-.568-10.119-.368-15.186.053-1.36.238-2.724.471-4.068.185-1.065.871-1.708 2.066-1.701 1.233.006 2.465 0 3.698 0M59.646 176.853c-3.49 0-6.991-.187-10.462.054-3.271.228-6.526-.05-9.794.089-2.906.123-5.842-.155-8.78-.033-3.293.138-6.599.007-9.9-.017-3.896-.028-7.794-.026-11.69-.116-2.008-.047-3.985.165-5.966.386-.743.083-1.192.594-1.149 1.297.117 1.868-.229 3.73-.336 5.567-.2 3.438.491 6.81.275 10.222-.077 1.235.185 2.494.333 3.738.117.977.678 1.41 1.728 1.592 3.208.553 6.432-.051 9.627.233 5.04.448 10.092.397 15.134.33 4.018-.054 8.055-.152 12.054-.073 7.966.155 15.927-.011 23.889.084 5.481.065 10.967.16 16.443-.003a115.74 115.74 0 0 1 6.84-.012c1.223.036 1.715-.473 1.759-1.763.094-2.77.204-5.557.481-8.306.224-2.215-.32-4.433.254-6.617.123-.466-.099-1.119.76-1.05.672.053.664.551.647 1.014-.104 2.885.528 5.778-.02 8.65-.3 1.584-.24 3.183-.123 4.734.1 1.332-.493 2.437-.646 3.665-.126 1.006-1.188 1.289-2.058 1.23-3.276-.22-6.549.063-9.81-.003-4.06-.082-8.123-.08-12.182-.116-4.064-.036-8.132.09-12.199.342-2.531.156-5.099-.363-7.652-.384-7.507-.062-15.014-.052-22.522-.023-5.175.02-10.349.24-15.517-.3-1.431-.15-2.91-.033-4.352.102-2.6.245-3.641-.847-3.978-3.362-.386-2.876-.486-5.76-.601-8.633-.156-3.854-.3-7.732.34-11.58.268-1.604 1.244-2.24 2.786-2.252 3.154-.026 6.313.08 9.46-.07 3.76-.18 7.525-.131 11.292-.369 3.74-.236 7.595.017 11.399.032 7.414.03 14.829.015 22.242-.081 5.895-.076 11.76.578 17.652.508.49-.005 1.01.029.975.683-.035.676-.648.59-1.074.595-3.25.036-6.498.256-9.755.052-1.927-.12-3.869-.022-5.804-.022v-.014"/><path d="M56.572 191.874c-1.373 1.89-1.45 2.233-.837 3.57.357-1.145.842-2.101.837-3.57m12.756 1.303c.137.478-.201 1.315.432 1.266.777-.06.723-.97.79-1.601.05-.456-.058-1.074-.565-1.046-.94.05-.518.896-.657 1.38m-26.46-.99c-.043-.513.043-1.018-.146-1.392-.313-.622.034-1.851-.77-1.823-.983.034-.286 1.066-.385 1.653-.035.211-.229.393-.283.605-.298 1.153-.241 2.275.302 3.369.126.253.145.569.5.57.348.003.459-.247.492-.56.088-.829.198-1.655.29-2.422m7.055-10.56c-2.023-.249-3.741.462-5.227 1.7-1.416 1.181-2.286 2.417-1.277 4.477 1.093 2.231 1.161 4.752.653 7.192-.224 1.073-.664 2.46-1.987 2.411-1.184-.042-1.758-1.239-2.125-2.374-.803-2.48-.034-4.898.216-7.335.078-.758.966-1.607-.047-2.221-1.213-.736-2.499-1.285-4.044-.645-1.96.812-2.98 2.362-3.797 4.12-.836 1.8-1.507 3.64-1.65 5.642-.04.564-.095 1.458-.931 1.372-1.007-.103-.673-.895-.574-1.587.552-3.84 1.624-7.383 4.955-9.936 1.766-1.355 4.127-1.841 6.062-.73 1.226.703 1.769.427 2.659-.608 2.285-2.657 5.38-3.613 8.836-2.85 2.825.624 4.78 2.485 5.656 5.157.397 1.212.846 1.063 1.496.456 1.548-1.443 3.602-1.708 5.506-2.18 1.902-.471 3.608.305 4.745 1.905.796 1.12 1.4 1.177 2.62.382 2.167-1.414 4.536-2.544 7.235-1.042.888.494 1.624 1.106 1.948 2.055.784 2.297 1.67 4.576.772 7.074-.197.55.061 1.24-.046 1.838-.085.472-.351 1.066-.996.956-.667-.114-.532-.646-.515-1.197.067-2.267.39-4.548-.19-6.8-1.015-3.937-3.909-3.537-6.536-2.311-1.625.758-2.316 1.928-1.716 3.837.51 1.62.835 3.418-.437 4.944-.504.604-.931 1.606-2.038 1.084-1.13-.533-1.793-1.443-1.52-2.717a34.287 34.287 0 0 1 1.062-3.888c.762-2.224-.513-4.24-2.914-4.393-1.185-.075-2.372-.152-3.557.23-3.176 1.02-4.442 3.178-4.21 6.34.105 1.423-.344 2.77-.776 4.11-.348 1.081-.846 2.14-2.233 1.86-1.45-.292-1.469-1.76-1.428-2.714.075-1.721.398-3.586 1.544-4.94 1.985-2.343.958-4.503-.314-6.458-1.022-1.57-2.714-2.613-4.88-2.216M64.462 39.624c.073-.958-.625-1.34-1.036-1.859-2.036-2.57-4.411-4.8-7.073-6.743-2.133-1.557-4.29-2.994-7.032-3.339-1.382-.173-2.634-.12-3.409 1.141-.801 1.304-.084 2.366.69 3.478 1.516 2.176 3.744 3.27 6.087 4.247 3.768 1.572 7.628 2.78 11.773 3.075m9.93 19.407c0 .95.02 1.53-.007 2.11-.019.412-.08.876-.645.859-.46-.015-.804-.325-.806-.777-.017-2.673-.567-5.25-1.208-7.838-.942-3.795-2.738-7.203-4.632-10.575-.66-1.176-1.904-1.414-3.158-1.629-5.34-.913-10.6-2.098-15.201-5.127-1.509-.993-3.006-2.002-3.956-3.627-.992-1.696-1.064-3.368-.058-4.726.99-1.336 3.18-2.061 4.868-1.638 4.946 1.239 8.8 4.136 12.257 7.696 1.667 1.717 3.157 3.575 4.551 5.49.982 1.346 2.413 1.021 3.532 1.078 3.942.198 7.877-.035 11.83-.501a60.79 60.79 0 0 0 10.08-2.087c4.776-1.407 9.38-3.265 13.707-5.78 3.607-2.097 6.975-4.495 10.214-7.086.813-.65 1.556-1.393 2.268-2.15.471-.503.96-1.026 1.613-.51.795.627.084 1.164-.36 1.563-4.078 3.659-8.458 6.915-13.261 9.607-5.234 2.931-10.757 5.166-16.6 6.584-3.36.816-6.743 1.405-10.23 1.698-3.112.263-6.208.218-9.304.29-1.642.04-1.18.706-.73 1.45 1.45 2.402 2.658 4.915 3.536 7.564.907 2.736 1.754 5.5 1.7 8.062M64.463 163.26c-1.033-1.32-2.715-1.216-4.007-1.889-.78-.407-2.326-.424-2.04-1.447.34-1.213 1.448-.125 2.21.05 2.696.622 5.241 1.791 8.003 2.201.54.08 1.224.358 1.352.98.14.681-.547.955-1.006 1.265-2.647 1.792-5.213 3.683-7.58 5.84-.422.384-.89 1.176-1.568.434-.603-.66-.034-1.196.46-1.61 1.013-.848 2.07-1.641 3.088-2.483.355-.294.766-.676.42-1.178-.308-.442-.727-.064-1.11.007-3.103.578-6.22 1.074-9.342 1.547-5.11.773-10.25 1.046-15.337.423-6.054-.742-11.927-2.271-15.79-7.662-1.133-1.583-1.596-3.498-1.918-5.37-.744-4.333-.13-8.48 2.249-12.264 1.626-2.588 3.933-4.478 6.375-6.26 5.457-3.984 11.87-5.302 18.28-6.586.902-.181 2.613-.733 2.788.688.117.945-1.59.772-2.476.896-7.058.985-13.772 3.041-19.445 7.409-4.786 3.686-6.84 8.79-6.359 14.965.51 6.518 5.674 10.06 10.555 11.45 4.864 1.386 9.737 1.223 14.683 1.122 5.813-.118 11.475-1.136 17.137-2.265.102-.02.187-.127.378-.263M129.736 19.408c5-.058 8.482-1.717 9.985-5.617 1.341-3.48.33-7.678-2.273-9.945-3.63-3.16-11.029-3.385-14.912.15-1.992 1.814-3.048 4.109-2.926 6.928.219 5.057 5.014 8.568 10.126 8.484M130.33 0c4.874.172 8.74 1.984 10.945 6.42 1.574 3.164.453 8.343-2.057 10.862-4.328 4.344-10.776 4.637-15.581 2.143-3.218-1.671-4.913-4.514-5.558-8.116-.634-3.538 2.72-8.794 5.747-9.987C125.86.52 127.45.126 130.329 0M80.91 108.228c.9-1.232 1.678-2.325 2.49-3.392.293-.385.609-.997 1.227-.558.61.433.382.966-.049 1.458-1.616 1.847-2.494 3.97-2.544 6.42-.015.749-.181 1.578-1.025 1.808-.841.23-.73-.693-1.03-1.103-1.528-2.078-3.611-3.643-5.337-5.536-.39-.428-.992-.826-.38-1.392.51-.472.92.046 1.317.38a96.408 96.408 0 0 0 2.402 1.943c.26.206.532.542.902.34.357-.195.281-.572.174-.905-.919-2.839-1.074-5.83-1.842-8.7-.059-.217-.152-.439-.148-.657.006-.49-.165-1.18.462-1.313.677-.143 1.006.465 1.124 1.042a302.93 302.93 0 0 1 1.193 6.15c.24 1.307.406 2.629 1.063 4.015M81.193 82.256c-.41 1.003-1.266 1.641-.596 2.673.137.21.304.39.517.13.63-.77.75-1.607.08-2.803m-5.474-7.758c-2.484-.14-4.585.62-6.31 2.478-.82.883-1.219 1.869-.96 3.009.276 1.22.139 2.445.17 3.658.031 1.156-.445 2.299-1.831 2.316-1.373.018-1.606-1.093-1.643-2.213-.034-1.053.176-2.035.548-3.047.36-.977.897-2.242-.153-3.097-1.143-.932-2.566-1.355-4.022-.791-3.39 1.313-3.947 2.12-3.986 5.811-.014 1.326-.462 2.521-.836 3.734-.365 1.19-1.353 1.949-2.51 1.526-1.037-.379-1.196-1.516-.985-2.65.26-1.4.924-2.62 1.572-3.831 1.478-2.765-.357-6.832-3.47-7.575-3.706-.885-6.602.644-8.373 3.748-.474.83-.419 1.621-.066 2.506.494 1.236.881 2.522 1.25 3.805.274.955.105 1.842-.628 2.582-.97.981-1.991.818-2.632-.435-.887-1.733-.911-3.56-.541-5.412.54-2.708-1.253-5.367-3.957-5.65-1.632-.17-2.559 1.187-3.223 2.287-1.697 2.807-2.91 5.862-3.166 9.208-.046.6-.352.975-.775 1.27-.306.214-.659.105-.95-.138-.542-.45-.02-.828.071-1.242.62-2.787 1.304-5.552 2.528-8.147.703-1.49 1.634-2.852 2.867-3.886 1.676-1.407 4.228-1.027 5.954.673 1.732 1.705 1.712 1.686 3.275-.04 3.472-3.833 9.856-4.403 13.103 1.088.72 1.22 1.04 1.958 2.596.645 2.685-2.266 4.686-2.154 7.64-.24.72.468 1.157.567 1.86-.234 2.002-2.277 4.7-3.55 7.627-3.476 2.571.065 4.879 1.433 6.144 3.876.547 1.057.976.976 1.859.613 3.689-1.515 8.47-.385 9.202 5.132.206 1.55-.66 2.666-1.099 3.959-.084.25-.401.421-.729.257-.307-.153-.384-.46-.336-.741.119-.686.298-1.361.453-2.04.46-2.01-.22-3.917-1.751-4.916-1.783-1.162-3.822-1.105-5.509.095-.724.514-.823 1.137-.704 1.974.265 1.878.026 3.659-1.062 5.306-.63.955-1.362 1.197-2.33.79-.991-.418-1.34-1.269-1.135-2.288.297-1.483.634-2.989 1.648-4.163 1.215-1.408.832-2.662-.23-3.87-1.188-1.352-2.615-2.262-4.465-2.224M114.76 131.337c-.094 1.504-.012 3.034-.724 4.443-.528 1.045-.953 2.549-2.429 2.112-1.468-.436-1.556-1.906-1.292-3.29.319-1.67.924-3.252 1.586-4.807 1.11-2.605-.643-5.58-3.484-5.97-3.778-.52-6.492.951-8.652 3.923-1.038 1.428-.623 2.83-.342 4.187.317 1.525-.133 2.908-.37 4.323-.168 1-1.093 1.93-2.049 1.71-1.245-.287-1.556-1.681-1.43-2.78.206-1.773.6-3.538 1.278-5.226.575-1.432-.061-3.178-1.548-4.036-1.475-.852-3.5-.845-4.5-.063-2.213 1.735-3.502 3.98-4.251 6.57-.18.62-.379 1.164-1.071 1.039-.758-.137-.401-.82-.379-1.277.181-3.771 4.216-8.113 8.04-8.476 1.533-.146 2.922.575 3.836 1.813.933 1.264 1.609 1.46 2.786.158 1.533-1.698 3.272-3.173 5.764-3.567 3.173-.503 5.641.55 7.503 2.959.903 1.168 1.412.993 2.369.06 3.255-3.171 7.935-2.918 10.72.59.676.853 1.332.982 2.174.645 2.076-.83 4.173-.578 6.292-.275.64.091 1.479.091 1.409.881-.08.895-.916.998-1.735.903-1.634-.188-3.25-.541-4.918-.097-1.178.314-1.685.813-1.607 2.128.088 1.466.517 3.022-.475 4.426-.51.722-.95 1.45-2.011 1.28-1.085-.171-1.498-.927-1.68-1.884-.346-1.82.055-3.506 1.236-4.904.72-.852.615-1.46-.002-2.225-1.605-1.991-4.517-2.459-7.035-1.1-2.353 1.271-2.847 2.23-3.009 5.827"/><path d="M130 16.516c-.04.269-.175.479-.444.484-.312.006-.545-.206-.556-.512a.474.474 0 0 1 .444-.487c.327-.02.484.215.556.515"/></g></svg>