<svg width="210" height="140" xmlns="http://www.w3.org/2000/svg"><g transform="translate(37 20)" fill="none" fill-rule="evenodd"><ellipse fill="#EAF6F9" fill-rule="nonzero" cx="50.01" cy="50" rx="50.01" ry="50"/><g fill="#1A1919"><path d="M49.558 39.364c-.407.022-.807.149-1.44.27.354 1.088.714 1.944.55 2.87-.453 2.56.114 5.08.225 7.62.099 2.294.013 4.6.029 6.897.03 4.43.83 8.74 1.373 13.092.144 1.158.058 2.307.195 3.452.042.349-.078.662-.435.8-.477.183-.766-.146-1.072-.427-.335-.307-.412-.701-.408-1.128.039-3.98-1.136-7.824-1.36-11.756-.18-3.204-.46-6.441-.096-9.652.169-1.493-.137-2.938-.286-4.37-.222-2.113-.507-4.203-.3-6.33.05-.511.107-1.03-.59-1.127-.68-.095-.87.393-.888.91-.06 1.57-.603 3.089-.45 4.686.252 2.625.214 5.265.385 7.898.148 2.277-.361 4.595-.395 6.92-.076 5.13.278 10.233.625 15.344.08 1.194.574 1.384 1.644 1.487 1.42.136 2.78.135 4.198-.074 1.42-.21 2.908-.203 4.343-.063 4.129.402 8.244-.084 12.358-.044 5.44.053 10.869-.483 16.305-.18 3.728.209 7.45-.037 11.176-.05 1.9-.006 3.787.07 5.69.233 3.096.264 6.053-.522 8.55-2.503 3.042-2.41 2.842-5.877-.448-7.327-1.352-.597-2.856-1.114-4.343-.584-1.101.393-1.874-.105-2.763-.493-.755-.33-.907-.946-.723-1.584.19-.662.775-.364 1.257-.287.816.13 1.643.194 2.463.302 2.398.313 4.387-.7 6.085-2.17 1.934-1.674 1.513-3.866-.842-4.904-3.038-1.337-6.014-1.22-8.911.709-.237-.34-.462-.676-.7-1.003-.513-.71-.868-1.502-.341-2.29.529-.785 1.279-.316 2.017-.19 1.823.31 3.625.22 5.284-.8 1.127-.692 2.307-1.298 3.456-1.957 1.538-.883 2.292-2.302 1.94-3.615-.36-1.338-1.73-2.384-3.392-2.487-2.223-.138-4.473-.446-6.668-.236-1.581.15-1.983-.833-2.581-1.71-.446-.652-.231-1.3.63-1.507 1.369-.331 2.74-.663 4.124-.921 3.804-.712 7.605-1.401 11.347-2.435 2.298-.635 4.703-.921 7.076-1.23 2.96-.386 5.85-.988 8.603-2.161a15.186 15.186 0 0 0 1.55-.792c.824-.467 1.606-1.064 1.507-2.1-.102-1.062-.857-1.744-1.8-2.217-1.64-.823-3.401-.723-5.131-.587-4.93.386-9.81 1.255-14.573 2.48-4.834 1.244-9.731 1.876-14.65 2.326-4.467.409-8.974.758-13.47.19-1.657-.208-3.252-.576-4.143-2.247-.246-.462-.392-.883-.214-1.41 1.164-3.453 1.195-7.113 1.9-10.656.534-2.677-.835-3.417-2.862-3.698-.87-.122-1.623.109-2.195.862-.45.593-1.046 1.074-1.48 1.677-1.916 2.668-4.281 5-5.67 8.07-1.418 3.14-3.746 5.489-6.657 7.423-4.467 2.966-9.311 4.494-14.608 4.784zm-10.326-4.195c-2.64-.355-5.302-.304-7.948-.124-.818.055-1.636.055-2.452.088-.662.027-1.054.298-1.348.887-.623 1.25-.371 1.836 1.059 1.873 3.292.084 6.586.075 9.879.088.575.002 1.165-.171 1.723-.091.737.107 1.24.716 1.19 1.394-.05.694-.905.838-1.381.717-2.525-.644-5.066.187-7.615-.212-1.59-.25-3.286.299-4.927.24-2.036-.07-2.084-.177-1.915 1.74.26 2.956.58 5.92.82 8.862.203 2.496.282 5.078.322 7.622.08 5.262-1.196 10.303-1.89 15.44-.175 1.296-.037 2.632-.056 3.949-.01.723.482.777.999.75 4.583-.238 9.164-.357 13.75-.018 1.417.104 2.729.622 4.329 1.03-.34-3.438-.833-6.55-.908-9.673-.101-4.276-.577-8.554-.15-12.84.277-2.772.51-5.535-.07-8.32-.286-1.365-.344-2.81-.056-4.202.37-1.8.326-3.572.082-5.39-.305-2.271-1.28-3.521-3.437-3.81zm22.043-1.183c3.004-1.726 5.875-3.61 7.52-6.895 2.015-4.024 4.864-7.466 7.855-10.8.99-1.104 2.198-1.944 3.58-1.995 2.323-.087 4.532 2.192 4.878 4.519.239 1.608-.094 3.1-.51 4.63-.454 1.675-.84 3.383-1.077 5.102-.371 2.664.715 3.67 3.435 3.893 4.887.399 9.726-.468 14.602-.375 2.734.053 5.373-.81 8.037-1.393 4.17-.913 8.367-1.707 12.559-2.521a31.333 31.333 0 0 1 10.35-.257c2.592.362 4.455 2.592 4.496 5.15.013.875-.231 1.788-.917 2.224-1.663 1.057-3.27 2.258-5.271 2.688-5.716 1.225-11.575 1.724-17.207 3.379-.39.114-.83.045-1.232.129-2.47.523-4.936 1.066-7.403 1.6 1.818.527 3.589.613 5.342.834 1.705.214 3.287.856 4.04 2.518 1.263 2.789.374 5.148-2.29 6.75-.743.446-1.813.503-2.146 1.686 2.577.669 3.586 2.507 4.063 5.016.638 3.36-2.655 3.545-4.032 5.269.578.385 1.166.605 1.497 1.026 1.272 1.62 2.794 3.333 1.954 5.55-1.432 3.78-6.357 7.635-11.478 7.01-2.82-.343-5.62-.254-8.42-.322-8.674-.212-17.351.367-26.03.047-1.403-.052-2.854-.052-4.214.24-2.492.536-4.984.475-7.422.049-2.413-.421-4.786.049-7.177-.1-.755-.047-1.608.404-2.303.817-.576.343-.134 1.08-.248 1.629-.216 1.046-.973 1.016-1.735.787-.943-.286-1.774-.832-2.78-1.031-3.275-.653-6.594-.638-9.886-.541-2.37.07-4.803-.223-7.133.606-.925.33-1.421-.345-1.627-1.108a15.243 15.243 0 0 1-.501-5.14c.145-1.898.666-3.728 1.01-5.588 1.023-5.525 1.269-11.122.832-16.73-.172-2.211-.44-4.418-.745-6.616-.457-3.285-1.112-6.57.939-9.607.132-.196.155-.47.217-.71.487-1.865.839-2.33 2.52-2.304 4.108.063 8.197-.514 12.318-.168 2.01.169 3.509.84 4.392 2.655.323.663.785.927 1.475 1.144 3.283 1.03 6.492.46 9.73-.222 2.216-.467 4.223-1.421 6.143-2.524z"/><path d="M34.407 69.467c-1.216.096-2.613 1.276-2.638 2.229-.025.886.738 1.454 1.923 1.434 1.496-.025 2.714-.871 2.78-1.93.053-.843-1.098-1.81-2.065-1.733zm4.668 1.404c.343 3.342-2.487 4.902-4.958 4.967-2.49.066-4.697-1.933-4.727-4.142-.032-2.377 2.505-4.63 5.22-4.64 2.8-.008 4.458 1.409 4.465 3.815z"/></g></g></svg>