<svg height="769" width="385" xmlns="http://www.w3.org/2000/svg"><mask id="a" fill="#fff"><path d="M0 .327h259.915v258.808H0z" fill-rule="evenodd"/></mask><g fill="none" fill-rule="evenodd"><path d="M278.556 2.687C648.776-30.327 691.801 241.785 435.65 769H122.464C-20.286 280.134 31.744 24.696 278.556 2.687z" fill="#fdf9f1" fill-rule="nonzero"/><circle cx="191" cy="511" fill="#fff" fill-rule="nonzero" r="166"/><g fill="#000"><path d="M81.923 53.32c-.38-.095-.677-.22-1.012.136.35.24.647.334 1.012-.137zM73.99 64.01c-.03-.092-.036-.219-.099-.266-.09-.067-.19.006-.18.13.008.093.044.21.11.265.085.073.161.005.169-.13zM49.96 27.807c.187-.018.287-.123.244-.292-.016-.064-.188-.157-.21-.14-.103.085-.18.204-.267.31l.233.122zM202.6 219.574c.04-.158.022-.3-.132-.387-.109-.062-.209-.029-.245.088-.048.15-.041.311.123.38.063.025.17-.05.255-.081zM64.959 12.354c.07-.066.168-.118.204-.198.048-.108-.032-.192-.145-.15a.392.392 0 0 0-.199.193c-.051.114.014.174.14.154zM38.674 24.02c-.013-.138-.043-.287-.238-.233-.069.02-.14.122-.161.2-.038.135-.02.299.148.318.163.018.227-.126.251-.285zm151.369 177.096c-.212.056-.331.196-.332.412 0 .168.117.279.267.301.222.033.38-.081.395-.31.016-.222-.115-.355-.33-.403zM52.367 24.18c-.071-.182-.204-.22-.343-.195-.206.037-.338.164-.245.38.066.156.23.134.364.086.137-.049.235-.14.224-.27zm67.5 16.419c-.056.112-.138.232-.177.364-.038.128.05.195.118.115.089-.103.152-.24.191-.371.039-.13-.021-.175-.131-.108zM61.04 60.958c-.113-.029-.216.02-.196.124.033.175.117.34.18.51.067-.054.168-.095.196-.165.078-.198.002-.36-.18-.47zM41.512 44.7c.011-.2-.03-.417-.254-.423-.302-.008-.381.261-.385.503-.002.114.102.315.188.333.3.062.4-.164.45-.413zm10.283-30.856c-.457.12-.766.083-.947.394.343.155.567-.026.947-.394zM72.46 61.928c-.033-.073-.059-.265-.146-.297-.176-.067-.218.115-.21.245.009.124.043.322.119.351.164.063.215-.097.237-.3zm-15.438-.144c-.049-.054-.08-.116-.105-.113-.236.029-.483.038-.702.117-.132.048-.196.24-.037.343.176.114.377.04.54-.067.114-.074.204-.185.304-.28zM76.574 77.27c.52.009.952-.117 1.3-.646-.666-.049-1.041.196-1.3.646zM53.43 35.073c.047-.416-.152-.58-.324-.753-.193-.193-.41-.283-.647-.078-.187.163-.419.346-.329.615.09.269.379.276.628.271.194-.003.386-.03.672-.055zm187.623 177.756c.074.445.54.528.94.68.226.088.491.193.6-.151a.539.539 0 0 0-.226-.646c-.299-.197-.648-.224-.994-.218-.14.001-.296.035-.32.335zM59.54 64.238c.034-.294-.238-.387-.379-.562-.213-.264-.416-.574-.832-.44-.067.021-.144.144-.145.22 0 .453.279.712.669.857.226.083.474.128.687-.075zm2.118-61.394c.008.068.015.136.024.203.433.028.866.065 1.3.08.39.015.826.196 1.271-.283zM38.438 18.169c-.306.52-.049.873.084 1.23.1.267.34.371.603.287.335-.108.25-.388.155-.61a1.744 1.744 0 0 0-.842-.907zm33.441 58.96c.966.74 1.642-.015 2.393-.487l-2.393.487zM55.144 22.773c-.719.003-1.393.107-1.97.554-.121.094-.223.222-.156.375.093.211.323.286.49.188.293-.172.57-.39.803-.639.233-.25.828.169.833-.478zm26.55 29.136c-.993-.132-1.984-.472-3.24-.07 1.254.68 2.246.538 3.24.07zM65.506 6.794c.882.382 1.509 1.306 2.606 1.23-.747-.67-1.54-1.24-2.606-1.23zm184.748 182.18c.162.782.635 1.115.858 1.585.08.169.283.309.487.19.243-.141.26-.404.18-.644-.206-.614-.705-.873-1.525-1.132zM38.718 21.666c.859.464.87.482 1.022.392.35-.208.575-.536.72-.902.102-.251-.017-.476-.237-.63-.23-.162-.422.01-.462.17-.138.56-.765.572-1.043.97zm4.22-13.497c-.516-.128-.853.101-1.18.322-.246.166-.497.396-.404.724.092.323.421.393.72.432.325.04.611-.062.696-.404.08-.325.312-.627.168-1.074zm27.21 70.109c-1.05-.363-2.11-.59-3.173 0zm123.486 128.603c-.315 1.5.306 2.902 1.738 3.148-1.315-.875-.756-2.32-1.738-3.148zm49.503 4.43c.755-.006 1.242-.377 1.188-.89-.059-.564-.497-.814-.95-1.024-.433-.2-.883-.233-1.22.15-.253.287-.527.633-.438 1.048.096.453.524.54.91.63.19.045.386.065.51.085zm-2.13 5.962c.386-.044 1.015-.011.8-.66-.256-.777-.653-1.538-1.377-2.036-.305-.208-.62-.314-.944-.053-.23.185-.471.381-.482.705-.025.794 1.182 2.043 2.004 2.044zM87.259 50.594c-.485-.328-.789-.07-1.099.041a25.505 25.505 0 0 0-3.245 1.422c-.258.135-.62.177-.474.589.109.307.166.673.66.66.6-.015 1.192.061 1.623-.51.66-.875 1.596-1.444 2.535-2.202zm106 153.06l-.29.218c.432 1.053 1.081 1.987 1.63 2.976.53.958 1.188 1.86 1.622 2.844.47 1.067 1.255 1.892 1.785 2.893.506.956.924 1.978 2.006 2.531l-6.753-11.461zM85.122 48.693c-2.662-.627-5.33-1.057-8.053-.456.718.647 1.536.861 2.442.825 1.868-.077 3.721-.427 5.61-.37zm120.19 178.263c.106-1.6-.505-2.93-1.38-4.148-.267-.371-.658-.566-.09-1.052.298-.253-.075-.634-.339-.867-.374-.33-.454.175-.682.262-.744.286-.475.904-.363 1.376.43 1.79 1.66 3.094 2.854 4.43zm2.187 1.11c-.394-.012-.522.122-.547.341-.05.446-.057.859.243 1.27 1.112 1.521 2.185 3.07 3.274 4.608.175.247.369.528.708.427.42-.124.409-.52.392-.869-.01-.193-.02-.471-.14-.56-.893-.647-1.064-1.801-1.801-2.53-.746-.739-1.491-1.46-1.963-2.415-.065-.13-.152-.25-.166-.273zM85.996 49.72c-1.574-.396-3.135-.412-4.697-.204-1.47.197-2.91.626-4.422.456-.336-.037-.757-.041-1.09.383.506.059.89.166 1.262.136 1.762-.145 3.532-.417 5.15.623a.371.371 0 0 0 .29.034c1.177-.434 2.431-.688 3.507-1.428zm-32.55 52.233c2.273 1.474 4.649 2.457 7.006 3.475.363.157.732.07.888-.294.16-.37-.269-.465-.46-.657-.244-.243-.523-.44-.812-.637-1.534-1.042-3.38-1.31-5.029-2.066-.38-.174-.937-.386-1.594.18zM196.467 211.89c-.157 1.195.099 2.092.747 2.895.25.308.5.63.671.982.814 1.684 1.93 3.164 2.98 4.708.38-1.405-.101-2.537-.917-3.524-.542-.657-.859-1.45-1.394-2.095-.74-.892-1.072-2.083-2.087-2.966zM80.654 71c.741.487 1.283-.09 1.91-.004-.283.954-.216 2.082-1.607 2.155-.078.004-.172.108-.22.189-.593.994-1.608 1.097-2.586 1.112-.968.015-.999.509-.918 1.344.665-.21 1.132-.662 1.748-.649 1.871.043 2.91-1.292 3.986-2.492.551-.615.696-1.434.365-2.248-.346-.85-.814-.98-1.6-.489-.42.261-.786.567-1.078 1.082zm-3.948-12.81c-.528-.037-1.068-.066-1.176.47-.091.456.481.53.774.758.658.512 1.624.509 2.138 1.257.557.81 1.492.637 2.262.887.22.072.369-.095.4-.315.057-.394-1.32-2.66-1.702-2.792a.887.887 0 0 0-.44-.037c-.704.14-1.39.185-2.036-.222-.071-.045-.194-.007-.22-.007zM42.371 34.855c2.386-1.652 4.459-3.631 6.443-5.708.144-.15.265-.293.164-.51-.089-.19-.254-.403-.446-.287-.837.507-1.9.309-2.668 1.227-1.365 1.634-2.059 3.685-3.493 5.278zm20.692 39.159c-1.412-1.158-7.067-2.851-8.704-2.72.5.561 1.085 1.235 1.688 1.892.27.293.58.504 1.019.541 1.517.13 3.029.32 4.547.437.458.036.964.127 1.45-.15zm14.474-2.425c-.017.561-.783.279-.59.824.113.321.43.39.723.438.263.042.537-.042.554-.338.08-1.37 1.055-2.136 1.935-2.977.784-.75.753-.868-.253-1.213-.187-.064-.373-.174-.562-.182-.572-.023-1.169.086-1.36-.721-.024-.102-.498-.271-.909-.004-.695.453-1.029 1.092-1.41 1.759-.2.35-.827.497-.5 1.066.22.385.521.727.966.881.46.16.923.307 1.406.467zm-8.464 8.492c2.327 1.243 4.092 2.777 6.073 4.298v-4.25c0-.47-.03-.981-.679-.89-1.701.236-3.471.022-5.394.842zM41.786 42.36c.102-.523.157-1.061.315-1.567.425-1.364.664-2.938 1.911-3.762 1.526-1.008 2.857-2.23 4.293-3.333.197-.152.465-.213.25-.554-.445-.231-.834.611-1.18.194-.615-.744-1.036-.232-1.478.114-.664.517-1.352 1.025-1.919 1.639-.575.623-1.11 1.251-1.455 2.122-.306.773-1.502 1.022-2.075 1.799-.336.455-.451.89-.064 1.344.515.606.832 1.325 1.402 2.004zm15.658 32.103c3.593 2.735 7.105 3.9 11.128 2.006-.459-1.064-1.405-1.222-2.438-1.253-1.98-.061-3.94-.3-5.898-.63-.77-.131-1.601-.365-2.792-.123zm-55.12 30.32c1.561-.47 3.076-.905 4.653-1.082.668-.075 1.018-.481 1.247-1.104.361-.98.779-1.945 1.825-2.433.281-.132.489-.348.355-.714a.873.873 0 0 0-.632-.573c-.35-.093-.689-.017-1.024.092-2.994.973-5.073 2.975-6.425 5.814zm252.214 114.922c1.608-2.08 1.557-4.553 1.69-6.939.09-1.612-.708-3.206-.312-4.869.03-.128-.037-.298-.1-.427-.601-1.222-.694-2.587-1.1-3.855-.303-.943-.344-1.92-.616-2.87-.485-1.7-1.369-3.3-1.424-5.121-.008-.289-.061-.615-.563-.5-.116 1.007.298 1.915.534 2.865 1.14 4.58 1.68 9.263 2.34 13.924.104.729.113 1.476.091 2.226a42.906 42.906 0 0 1-.54 5.566zM84.118 89.484c-.54-1.102-1.116-2.189-1.61-3.312-.987-2.239-2.302-4.278-3.706-6.267-.288-.408-.572-.829-1.001-1.089-.725-.439-1.401-.09-1.425.758-.036 1.24-.006 2.483 0 3.724.002.61.16 1.03.91 1.07 1.647.09 2.83.962 3.804 2.266.82 1.098 1.65 2.218 3.027 2.85zm25.99-14.63l5.976-4.92c.295-.242.45-.56.315-.921-.557-1.492-1.22-2.931-2.28-4.146-.387-.443-.669-.3-.848.206-.215.607-.423 1.217-.657 1.816a60.069 60.069 0 0 0-2.506 7.966zm134.488 160.938c-.282.444-.48.635-.535.861-.565 2.307-2.115 3.97-3.68 5.61-.788.825-1.598 1.649-2.502 2.337-.976.743-1.906 1.588-3.146 1.935-1.264.355-2.424.197-3.551-.477-.276-.166-.717-.227-.87.234-.119.352.164.554.44.67 1.454.609 2.918.915 4.48.333 1.675-.624 3.31-1.375 4.889-2.166 1.402-.704 2.689-1.805 3.433-3.358.405-.844 1.003-1.595 1.5-2.395.387-.619 1.334-1.016 1.234-1.746-.107-.775-1.173-.96-1.692-1.838zm13.031-21.184c.24-.388.157-.74.157-1.08-.001-2.93-.03-5.847-.369-8.778a57.302 57.302 0 0 0-2.066-9.894c-.367-1.225-1.247-2.135-1.89-3.19-.184-.301-.508-.503-.895-.307-.356.18-.495.499-.388.875.149.524.327 1.041.517 1.552.258.698.611 1.368.796 2.082.782 3.022 1.876 5.952 2.54 9.012.612 2.822 1.134 5.646 1.254 8.536.016.374-.147.799.344 1.192zm-71.984 21.416c.197.033.302-.12.308-.248.086-1.781.352-3.558.405-5.329.12-4.065.05-8.137-.009-12.206-.025-1.691.349-3.367.147-5.055a15.22 15.22 0 0 1-.071-2.518c.044-.983-.16-1.978-.268-2.966-.03-.272-.19-.463-.48-.47-.292-.005-.445.2-.508.453-.048.19-.046.393-.06.592-.355 4.915-.435 9.837-.32 14.762.097 4.22.706 8.417.654 12.647-.003.152.047.28.202.338zm17.514-10.559c-.357.148-.322.356-.295.547.643 4.577 1.129 9.17 1.383 13.786.04.742-.023 1.489.605 2.079.265.25.254.63.05.969-.173.288-.165.579.079.817.45.438.343 1.01.408 1.542.18 1.476.358 2.953.55 4.427.033.248.148.541.445.492.436-.072.278-.429.222-.7-.08-.384-.375-.72-.278-1.142.657-2.852-.037-5.716.033-8.578.07-2.9-.595-5.814-.611-8.724-.013-2.373-1.469-3.816-2.59-5.515zm-8.632-14.028c-.286.09-.38.213-.352.372.412 2.404.673 4.823.863 7.257.184 2.362.641 4.692.74 7.073.12 2.913.413 5.821.717 8.723.09.849.059 1.685.092 2.527.133 3.378.518 6.745.527 10.13.001.622.029 1.234.446 1.735.392-.182.712-.435.635-.7-.335-1.15.077-2.265.104-3.393.059-2.535.005-5.057-.225-7.582-.149-1.632-.112-3.288-.356-4.903-.22-1.459-.334-2.933-.571-4.394-.548-3.378-.54-6.839-1.077-10.23-.353-2.232-.241-4.584-1.543-6.615zM82.897 97.275c-1.175-3.458-2.784-6.435-4.253-9.474-.217-.45-.557-.82-.855-1.219-.463-.619-1.062-1.022-1.777-.823-.737.205-.715.984-.79 1.63-.195 1.646.044 3.288.013 4.93-.028 1.497.484 2.836 1.006 4.184.196.505.535.79 1.134.781 1.791-.025 3.582-.009 5.522-.009zM48.25 67.845c.434 4.48 2.324 7.315 6.052 8.953 2.782 1.222 5.592 2.373 8.284 3.794 1.876.99 3.542 2.27 4.884 3.863 2.117 2.513 4.04 5.188 5.914 7.892.17.244.17.702.77.596-.241-2.119.325-4.15.707-6.197.135-.722-.01-1.255-.46-1.774-1.183-1.367-2.497-2.527-4.177-3.307-1.94-.901-3.814-1.925-5.896-2.495-1.596-.437-2.945-1.463-4.477-2.038-2.068-.775-3.729-2.074-5.252-3.606-1.955-1.968-3.875-3.975-6.349-5.68zM86.948 34.49c.476-.675.543-1.246.59-1.845.177-2.298-.79-4.047-2.294-5.738-2.711-3.049-7.152-2.084-9.361.336-1.76 1.927-1.41 4.243-1.018 6.505.403 2.32 3.167 4.915 6.94 4.721 1.277-.066 2.255-.586 3.213-1.518-1.121-.361-1.854-.95-1.758-2.151.057-.716.449-1.222 1.098-1.47 1.125-.43 1.895.153 2.59 1.16zm160.855 195.938c-.312-.526-.684-.46-1.082-.303-.22.087-.458.278-.662-.015-.212-.303-.058-.575.133-.81.156-.191.337-.374.54-.512.55-.375.561-.786.347-1.409-.44-1.275-1.53-2.198-1.833-3.536-.035-.154-.257-.304-.426-.384-.379-.179-.644-.454-.855-.804-.506-.837-1.349-1.308-2.085-1.894-.145-.116-.313-.273-.531-.13-.192.125-.2.319-.186.523.188 2.713-.533 5.213-1.77 7.596a19.653 19.653 0 0 0-.808 1.764c-.702 1.753-1.494 3.413-2.74 4.902-1.46 1.745-3.155 2.992-5.301 3.67-1.137.36-2.226.852-3.384 1.162-1.171.313-1.209.616-.73 1.697.48 1.084 1.256 1.741 2.332 2.14.604.226 1.208.473 1.768.79 1.562.883 2.95.61 4.236-.545 1.406-1.262 2.824-2.51 4.211-3.793 1.062-.982 2-2.058 2.685-3.364.897-1.713.945-1.686.194-3.24.405-.242.881-.213 1.28-.149 1.192.191 2.105-.366 2.742-1.181.603-.77 1.216-1.525 1.925-2.175zM9.528 103.093c4.006-.635 7.732-.587 11.458-.348 3.925.252 7.86.428 11.767.845 4.77.509 9.305 2.116 13.929 3.302 2.794.716 5.184 2.269 7.616 3.73.985.592 1.056.568 1.465-.5a7.092 7.092 0 0 1 2.617-3.351c.971-.681.942-.893-.057-1.563-.25-.169-.483-.348-.79-.393-.965-.14-1.764-.596-2.543-1.175-.505-.376-1.168-.786-1.745-.764-1.169.042-2.113-.105-2.855-1.12-.173-.236-.751-.265-1.135-.243-1.85.103-3.606-.53-5.377-.841-1.428-.251-2.913-.353-4.324-.774-1.14-.34-2.365-.31-3.494-.614-1.865-.504-3.746-.335-5.608-.302-.916.016-1.904-.114-2.785.164-.957.303-1.878.188-2.802.067-.542-.07-1.069-.138-1.62-.145-1.54-.02-3.08.176-4.6.171-1.762-.004-3.437.178-5.104.666-1.637.48-2.909 1.434-4.013 3.188zM134.93 30.161c.034-.239.1-.504-.184-.646-.208-.105-.385.023-.551.126-.211.132-.409.285-.618.42-3.221 2.09-6.2 4.534-9.411 6.618-1.865 1.21-2.936 2.7-3.521 4.743-1.536 5.357-3.12 10.7-4.686 16.049-.068.233-.2.447-.053.708.325.58 1.76 1.244 2.442 1.058 2.589-.702 4.75-1.965 6.078-4.44 1.016-1.895 1.777-3.896 2.672-5.842.446-.97.977-1.869 1.922-2.415.742-.427 1.126-1.077 1.436-1.834 1.357-3.326 2.313-6.782 3.347-10.214.43-1.429.937-2.838 1.127-4.33zm114.974 195.965c.337.021.57-.195.733-.434.809-1.186 1.701-2.326 2.227-3.679 1.247-3.209 1.622-6.564 1.416-9.962-.247-4.063-.901-8.081-1.849-12.043-.804-3.36-1.35-6.813-3.234-9.817-.186-.296.061-.709-.3-.944-1.37.24-2.018 1.134-2.214 2.438-.052.344-.137.69-.14 1.035-.015 1.414-.367 2.749-.88 4.055-.365.931-.642 1.905-.678 2.899-.08 2.265-.67 4.43-1.279 6.58-.282.997-.14 1.698.573 2.408.49.486.93 1.05 1.277 1.646.566.97.126 1.71-.981 1.792-.475.034-.966.036-1.462.336.396.535.738 1.002 1.087 1.465.179.238.431.478.284.793-.168.359-.542.354-.896.41-.687.11-1.13-.53-1.796-.612-.05.843.733 1.097.94 1.698.192.557.654 1.097.244 1.678-.368.521-.987.604-1.605.533-.097-.011-.188-.067-.284-.09-.216-.05-.396.002-.481.225-.087.224.05.373.2.51.185.167.352.362.559.494 2.445 1.555 4.158 3.809 5.85 6.087.278.376.433.895.942 1.062.212-.24.208-.485.152-.732-.09-.393-.247-.848.28-1.005.428-.128.76.144.947.543.104.221.123.487.368.631zM131.99 49.973c-.538.7-.583 1.265-.767 1.773-.615 1.698-1.39 3.312-2.54 4.717-.317.388-.66 1.209-1.196.802-.541-.41.139-.984.441-1.386 1.655-2.206 2.391-4.798 3.174-7.374.042-.14.045-.295.046-.444.011-.934-.397-1.193-1.182-.71-.928.57-1.47 1.469-1.93 2.422-.89 1.838-1.572 3.768-2.568 5.563-1.614 2.91-4.103 4.519-7.288 5.217-.763.167-1.392.03-1.915-.512-.743-.77-1.8-1.067-2.584-1.77-.307-.276-.629-.28-.915.043-.167.188-.314.408-.584.108-.02-.53.308-.797.757-.96.279-.102.382-.316.352-.58-.044-.378-.387-.448-.664-.477-.669-.069-1.152.256-1.433.853-.29.615-.276 1.25-.1 1.9a5.337 5.337 0 0 0 1.86 2.83c.876.696 1.601 1.518 2.234 2.398 1.929 2.682 3.146 5.641 3.235 9.002.028 1.07-.353 2.059-.53 3.087-.1.572.015.939.484 1.27 1.51 1.068 2.814 2.383 4.231 3.56.547.455 1.002 1.106 1.738 1.229.264-.18.246-.391.264-.578.425-4.6 2.262-8.754 4.098-12.905.178-.405.442-.787.728-1.128 2.414-2.88 3.86-6.258 5.051-9.769.27-.791.507-1.586.232-2.462-.435.205-.396.59-.498.904-.381 1.186-.764 2.37-1.155 3.552-.126.378-.26.766-.626.989-.233.142-.482.09-.701-.056-.222-.149-.133-.345-.039-.52 1.013-1.88 1.017-4.052 1.757-6.012.207-.546.316-1.136-.186-1.668-.432.423-.45.94-.612 1.397-.48 1.36-.773 2.792-1.515 4.053-.176.299-.352.605-.577.865-.175.202-.443.208-.682.067-.267-.158-.268-.403-.156-.647.125-.27.272-.531.424-.789.898-1.52 1.446-3.178 1.814-4.886.19-.882.421-1.808.023-2.968zm-5.785 35.493c-1.185-.787-2.359-1.447-3.396-2.279-2.052-1.646-4.03-3.383-6.035-5.09-.884-.752-.868-.749-1.742.12-2.114 2.103-4.13 4.318-6.51 6.133-1.548 1.18-3.006 2.453-4.44 3.768-.803.736-1.484 1.75-2.757 1.874-.245.023-.489.334-.684.555-1.939 2.194-4.283 3.886-6.827 5.27-3.216 1.747-6.566 3.038-10.362 2.886-3.333-.133-6.676-.045-10.014-.02-1.57.01-3.057-.305-4.525-.84-2.191-.8-4.323-1.815-6.711-1.957-.342-.02-.677-.158-1.014-.248-2.736-.736-5.487-1.42-8.202-2.224-2.71-.803-5.44-1.578-7.836-3.18-1.038-.695-2.237-.719-3.443-.783-1.198-.063-2.165.301-2.93 1.18-1.71 1.966-3.232 4.04-3.836 6.656-.126.548.041.753.523.808 1.087.124 2.182.19 3.264.35 4.221.621 8.498.816 12.656 1.95 2.339.639 4.732 1.073 7 1.97 1.62.64 3.267 1.22 4.744 2.168.303.195.608.297.971.325 2.484.189 4.766 1.062 6.87 2.315 3.678 2.191 6.795 5.01 9.092 8.677 1.166 1.86 2.875 2.725 5.043 2.282 4.741-.969 9.392-2.19 13.566-4.818 2.075-1.307 3.955-2.852 5.9-4.32 2.186-1.65 4.629-2.938 6.678-4.777.667-.598 1.283-1.265 1.998-1.799 1.824-1.36 3.293-3.02 4.525-4.925 1.216-1.88 2.423-3.777 3.79-5.547 1.61-2.085 3.032-4.292 4.644-6.48zm-54.4-68.55c.345-.014.698.013 1.034-.049 1.51-.28 2.976-.087 4.408.397.2.067.686-.062.54.531-.428-.101-.844-.244-1.271-.295-1.632-.197-3.274-.432-4.675.784-.178.155-.472.212-.398.535.053.233.273.263.461.32.615.189 1.236.363 1.846.565.633.21 1.202.512 1.542 1.137-.406.276-.66.098-.93-.027-.724-.334-1.437-.703-2.186-.965-.499-.174-1.222-.462-1.544.007-.529.772-.725.494-1.148-.041-.601-.76-.758-.78-1.33-.056-.434.545-.725.42-1.05.01-1.775-2.24-4.477-1.832-6.836-2.393-.337-.08-.77.098-.816.488-.056.466.274.703.755.712.564.011 1.116.071 1.647.515-.517.283-.915.137-1.304.13-.375-.006-.748.09-.81.498-.082.55.388.65.778.695a29.44 29.44 0 0 0 2.532.196c.58.016 1.066.216 1.525.53.169.115.338.28.25.49-.125.291-.453.293-.622.134-1.008-.943-2.294-.402-3.425-.668-.656-.155-.849.374-.899.913-.06.65.465.511.815.547.574.06 1.17-.001 2.025.439-1.005.068-1.674.087-2.337.164-1.326.153-1.425.274-1.611 1.73 1.911.09 1.911.09 2.381.722-3.001-.276-4.483.377-4.89 2.158.965.368 2.062-.747 3.098.245-4.109.51-4.802.945-4.979 3.13 1.371-.238 2.736-.608 4.112-.156-1.049.325-2.112.496-3.16.729-1.057.234-2.103.522-2.507 1.93.975-.156 1.456.369 1.936.975a6.659 6.659 0 0 0 2.033 1.726c.624.341 1.137.822 1.42 1.486.182.43-.113.737-.608.647-.177-.032-.335-.173-.502-.264-.066.12-.133.198-.157.288-.089.312.092.801-.375.87-.558.082-.526-.49-.685-.818-.237-.492-.431-1.006-.65-1.506-.122-.277-.26-.553-.563-.668-.942-.36-1.924-.44-2.927-.494-.82-.045-.665.94-1.237 1.043-.431-.138-.38-.793-.921-.712-1.388.208-2.773.427-3.655 1.706-1.557 2.258-1.68 4.692-.967 7.273.697 2.525 2.3 3.918 4.938 4.282-.223-.902-.883-1.518-1.053-2.358-.076-.377-.387-.77.053-1.08.417-.294.897-.165 1.267.085.49.331 1.103.816 1.233 1.239.454 1.468 1.346 2.202 2.793 2.563.434.108.674.865 1.199 1.068 1.087.42 1.789 1.613 2.862 1.793 1.585.266 1.223 1.907 2.184 2.525.074.048.105.165.155.251.306.516.704.674 1.242.333.167-.104.34-.222.526-.266.449-.106.816.03.895.527.089.554-.325.492-.68.498-.155.001-.265.102-.28.291.77.48 1.613.521 2.589.258-.91 1.076-.904 1.067.17 1.716.376.227.766.414 1.15.609 1.021.519 1.784 1.536 3.09 1.518.133-.002.314.247.399.417.385.763 1.12.93 1.858 1.292.006-.966-.566-1.633-.461-2.46-.96.34-.957.338-1.47-.463-.343-.538-.719-1.057-1.04-1.608-.132-.224-.254-.372-.51-.479-1.87-.775-1.864-.784-1.832-2.712.003-.196-.09-.394-.086-.59.01-.452.396-.671.685-.908.363-.299.62.07.905.256.5.33.677.973 1.25 1.243.184.086.131.357.019.537-.135.217-.321.192-.506.066-.262-.18-.515-.158-.52.18-.01.6.013 1.343.734 1.458.755.12 1.5.499 2.355.313-.854-.702-1.78-1.294-1.292-2.582.198-.527-.018-.833-.525-1.038-.296-.12-.726-.078-.861-.635 1.767-.248 3.509-.41 5.267-.144.244.038.746-.042.557.436-.17.43.024.487.318.645 1.107.597 2.256 1.07 3.3 1.853.817.614 2.002 1.168 3.236.776.063-.02.158.06.27.108-.212.21-.778.096-.606.647.738.19 1.375-.086 1.994-.417 2.176-1.169 3.736-3.089 5.614-4.622.522-.426.553-.954.171-1.71-1.187 1.218-2.842 1.72-3.362 3.41-.11.354-.432.354-.708.451-1.249.441-2.495.888-3.739 1.345-.446.165-.836.107-.846-.41-.013-.614-.3-.637-.76-.549-1.599.306-1.64.304-1.656-1.301-.007-.602.056-1.183-.27-1.722-.217-.36-.741-.155-.972-.58-.19-.348-.635-.607-1.014-.532-.623.124-.465-.519-.726-.613-.4-.145-.688.335-1.08.406-.05.01-.099.024-.148.023-.298-.015-.65-.002-.714-.379-.05-.289.216-.388.454-.492.974-.43 1.963-.818 3.123-1.017-1.259-.68-2.475-.873-3.717-.63-2.104.411-4.28.152-6.366.738-.416.117-.89.042-1.338.03-.279-.007-.496-.168-.464-.46.025-.228.257-.26.465-.256 1.5.03 2.949-.41 4.45-.449.709-.017 1.495-.015 2.193-.445-.215-.548-1.023-.537-1.057-1.19l-.038.032c.925.333 1.736.995 2.734 1.09 1.534.144 3.063.115 4.611-.045 2.432-.253 4.924-.228 7.239.58 2.379.832 4.778.87 7.206.788 1.943-.066 3.17-1.015 3.48-2.68.269-1.434.175-2.881-.57-4.208-.616-1.095-1.328-2.036-2.527-2.636-1.55-.775-2.918-1.896-4.551-2.544-.621-.246-1.104-.247-1.555.368-.884 1.208-2.25 1.617-3.62 1.867-4.994.912-9.088-2.997-9.835-6.534-.711-3.37 1.33-6.61 4.308-7.546.757-.239 1.542-.4 2.323-.55 1.165-.223 1.129-.208 1.207-1.378.11-1.623-.18-3.306.684-4.827.225-.396-.012-.662-.349-.845-.61-.33-1.195-.706-1.933-.725-1.325-.034-2.604-.356-3.986-.193-.893.105-1.949-.099-2.93-.171-.836-.061-.593.39-.355.804-.844-.366-1.544-.71-2.502.098-.649.546-1.658 1.163-2.755.661-.167-.077-.483-.166-.604.17 1.837 1.412 2.949 1.386 4.678-.08.37-.314.78-.58 1.172-.869zm-8.948-6.007c.287.01.656.19.824-.13.286-.54-.112-1.406-.694-1.484-.776-.104-1.52-.372-2.346-.25-.929.135-1.886.07-2.83.1-.26.008-.57.003-.627-.264-.08-.374.255-.557.552-.547 2.066.066 4.133-.636 6.198.005.184.057.397.07.501-.198-.95-.543-2.102-.9-2.347-2.321h1.33c-.472-.635-1.083-.618-1.68-.696-.623-.083-1.58-.055-1.74-.536-.238-.716-.542-.5-.96-.443-1.44.2-2.807.641-4.14 1.21-.287.122-.617.353-.974-.133 1.262-.855 2.791-.992 4.262-1.849-1.546-.321-2.838-.685-4.153-.838-1.646-.192-3.233.223-4.39 1.43-.87.91-1.699 1.916-2.334 3.138 1.358.41 2.744.657 3.636 2.102-.765-.022-1.178-.403-1.637-.656a6.346 6.346 0 0 0-3.744-.783c-.788.074-1.288.46-1.526 1.213-.191.605-.027.91.61.784 1.48-.296 2.984.239 4.46-.207.35-.106.93-.237 1.084.523-3.069.636-6.148.366-9.424.169.75.605 1.33 1.025 2.015 1.341.763.352 1.46.846 2.182 1.287.233.142.38.388.253.63-.19.362-.495.234-.754.05-1.426-1.014-3.055-1.622-4.608-2.358-1.006 1.172-1.021 1.19.092 2.047.785.605 1.479 1.323 2.387 1.787.411.21.68.7 1.013 1.063.253.278.202.532-.063.769-.25.223-.518.298-.793.053-.186-.165-.391-.326-.524-.531-.76-1.172-2.103-1.592-3.083-2.543-.57 1.06-.39 1.91.378 2.649.463.446.935.908 1.332 1.388.46.557.77.564 1.36.289 1.72-.805 3.304-1.84 4.863-2.897 1.755-1.19 3.665-1.957 5.676-2.54.344-.1.726-.238 1.022-.1 1.047.49 2.028.13 3.025-.126.722-.185 1.438-.395 2.162-.57.276-.067.594-.143.765.335-.535.397-1.058.773-1.812.756-.44-.01-.925.053-1.315.239-2.254 1.076-4.766 1.435-7 2.56-1.849.931-3.969 1.374-5.365 3.096-.589.725-1.547 1.327-1.749 2.133-.156.628.597 1.483.947 2.237.042.09.098.175.134.267.108.276.279.598-.033.811-.346.236-.487-.103-.688-.325-.464-.514-.666-1.262-1.4-1.607.523.803-.43 1.495-.069 2.287.097.212-.378.348-.567.192-.63-.523-.675.098-.937.4-.37.427-.007 1.229-.643 1.425-.768.239-.775.855-.868 1.415-.412 2.476-.518 4.945.245 7.389.222.711.426 1.432.475 2.187.021.335.065.704.571.828.485-.47 1.278-.733.847-1.758-.2-.476.18-.984.463-1.371 1.405-1.926 2.163-4.223 3.717-6.086 2.273-2.725 4.553-5.37 7.866-6.892 1.202-.552 2.357-1.207 3.56-1.827-.341-.42-.744-.298-1.007-.153-.87.48-1.862.718-2.654 1.349a3.338 3.338 0 0 1-1.336.638c-.253.06-.497.13-.623-.185-.123-.305.096-.448.306-.593.326-.225.657-.446.972-.686.274-.208.69-.314.737-.882-3.16 1.364-5.546 3.534-7.785 5.875-.504.527-.772 1.271-1.425 1.698-.8.522-1.336 1.31-1.926 2.032-.393.48-.859.984-.267 1.709.305.373-.016.65-.449.651-.409 0-.847-.081-.966-.54-.147-.573-.193-1.113.251-1.674 1.325-1.67 2.63-3.346 4.026-4.967 2.35-2.734 5.277-4.468 8.471-5.898.268-.12.58-.198.87-.197.637.002 1.115-.286 1.624-.63 1.951-1.317 4.087-2.08 6.468-1.674 1.363.232 2.71.418 4.087.247.09-.029.184-.085.273-.08.367.019.71-.003.731-.477.006-.117-.108-.336-.182-.344-.373-.037-.424.326-.587.548-.086.116-.154.247-.229.372.003-1.18-.06-1.263-1.064-1.18-.34.029-.674.148-1.01.23-.24.06-.476.168-.718.182-.279.017-.475-.166-.485-.448-.009-.242.164-.36.398-.294.262.073.6.098.666-.145.265-.996 1.248-.858 1.991-1.203-.156-.089-.196-.119-.24-.135-1.138-.412-2.263-.137-3.39.064-.527.093-1.049.193-1.253-.646 1.161.063 2.095-.528 3.147-.588.187-.01.389-.12.372-.383-.013-.205-.06-.467-.303-.415-1.432.3-.45-.552-.455-.929zM73.112 7.1c.232.08.476.136.694.245 2.284 1.138 4.107 2.91 6.089 4.46.845.66 1.601 1.435 2.546 2.293.397-2.054.008-3.72-1.409-5.008-1.362-1.237-2.989-2.11-4.61-2.982-.906-.487-1.807-.824-2.834-.727-1.512.142-2.794-.326-4.032-1.207-1.19-.847-2.546-1.406-4.115-1.28.09.36.321.345.501.367 1.598.197 2.967.788 3.865 2.205.263.417.67.509 1.123.622.803.2 1.643.383 2.23 1.066-.519.151-.973-.057-1.434-.249-.603-.251-1.214-.406-1.885-.343-.54.05-1.2.263-1.076-.795.054-.464-.541-.774-.984-1.027-1.296-.741-2.704-.955-4.166-.924-.745.015-1.52-.132-2.229.366 3.95 1.278 7.7 3.108 11.9 3.66l-.174-.742zM197.97 210.361c.023.488.269.842.659 1.109-.093-.447-.254-.852-.687-1.083-.348-1.719-1.06-3.317-1.894-4.823-2.188-3.955-3.996-8.098-6.153-12.07-1.616-2.977-3.438-5.804-5.262-8.642-.325-.506-.678-.623-1.33-.311 1.169.858 1.487 2.132 1.979 3.307.114.275.204.547.374.803 1.255 1.898 2.12 4.012 3.198 6.006 1.507 2.785 3.159 5.48 4.706 8.236.75 1.337 1.45 2.703 2.246 4.011.705 1.161 1.129 2.502 2.164 3.457zM78.258 15.235c-.089-.107-.16-.24-.271-.313-.138-.092-.353-.29-.45.005-.07.21.135.339.338.35.136.009.275-.05.412-.078.05.45.456.515.754.61.987.31 1.949.682 2.918 1.173.495-1.062.51-1.98-.361-2.76-.88-.786-1.853-1.47-2.513-2.505-.862 1.112-.846 1.212.012 1.972.818.725 1.774 1.312 2.351 2.299-1.22-.53-1.993-1.789-3.465-2.128.357.644.396.887.275 1.375zM58.224 59.201c-.962 1 .11 2.156-.327 3.292.563-.137.599-.772 1.24-.794.813-.028.814-.209.41-1.144-.13-.298-.06-.581-.016-.871.174-1.15.176-1.189-.856-1.57-.33-.123-.662-.16-.818-.536-.064-.152-.234-.176-.365-.07-.177.142-.216.35-.058.512.346.353.744.664.75 1.222zm52.47 9.675c1.34-1.392 1.352-3.282 1.953-4.951-.828 1.585-1.096 3.38-1.952 4.961.082.937-.59 1.717-.608 3 .372-1.212.884-2.03.608-3.01zm-48.76.722c-.567-.192-.869-.57-1.024-1.168-.253-.969-.554-1.95-1.835-2.034-.256-.017-.567-.246-.475-.477.449-1.134-.69-.92-1.087-1.323-.085-.086-.286-.084-.432-.08-1.231.04-1.842-.529-2.14-1.755-.135-.561-1.022-.643-1.654-.807.127-.408.538-.604.648-1.092.11-.492.516-1.072 1.29-1.025.754.044.942-.414.778-1.078-.118-.476-.374-.982.231-1.319.4-.223.912-.54.842-.933-.098-.549-.385-1.254-.82-1.517-1.44-.875-1.988-2.473-3.131-3.568-.415-.397-.996-.776-1.432-.506-.525.322-1.06.122-1.623.325.287.57.553 1.092.813 1.617.119.241.153.489-.123.641a.513.513 0 0 1-.675-.123c-.516-.632-1.086-1.238-1.494-1.935-.703-1.202-1.987-1.604-3.015-2.35-.592-.43-.441.415-.724.623-1.044-1.03-2.226-1.749-3.423-2.474-1.126-.682-1.663-1.957-2.31-3.056-1.252-2.127-2.039-4.43-2.218-6.92a9.735 9.735 0 0 0-.354-1.91c-.727-2.6-.58-5.217-.275-7.854.275-2.384.11-4.784.098-7.175-.012-2.401.213-4.773.563-7.143.164-1.112.54-2.09 1.217-3.003.553-.745 1.272-1.413 1.44-2.411.062-.37.401-.554.731-.692 1.013-.424 2.023-.851 3.155-.839 1.818.02 3.2-.695 3.864-2.459.211-.562.545-.912 1.055-1.18.395-.206.755-.484 1.124-.739 2.71-1.87 5.57-1.965 8.498-.625.79.361 1.461.313 2.285.136 3.814-.822 7.534-.732 10.882 1.627.595.42 1.198.617 1.928.668 3.432.243 6.36 1.529 8.54 4.289.338.43.767.795 1.064 1.25.826 1.264 1.507 2.59 1.265 4.186-.023.147-.002.3-.003.449-.002.798-.06 1.6.006 2.392.075.895-.808 1.131-1.126 1.782-.473.97-.87 1.877-.784 2.97.031.392-.044.794-.087 1.19-.18 1.626-.181 1.622 1.388 2.152.281.095.583.188.818.361 1.585 1.16 3.027 2.493 3.825 4.308.736 1.673.732 3.496.519 5.295-.135 1.138-.138 1.088.868 1.654 1.648.93 3.355 1.798 4.858 2.93 1.512 1.14 2.352 2.854 2.555 4.74.13 1.213.2 2.468-.358 3.673-.858 1.855-2.34 2.622-4.28 2.723-.693.036-1.394-.09-2.068.093-.05.105-.142.204-.122.272.52 1.799-.176 3.084-1.654 4.084-1.156.782-2.31 1.57-3.324 2.54-.263.25-.587.327-.926.433-1.317.413-1.588 1.464-1.28 2.537 1.142 3.977 2.074 7.997 1.97 12.195-.027 1.128-.227 2.059-1.115 2.762-1.549 1.228-3.082 2.482-4.945 3.474.523.794 1.062 1.677 1.663 2.514 1.936 2.695 3.143 5.77 4.586 8.723.195.397.3.845.408 1.279.069.277.169.632-.17.79-.32.152-.56-.12-.77-.325-1.497-1.466-2.941-2.978-4.246-4.621a4.468 4.468 0 0 0-1.108-1.025c.773 1.236 1.192 2.625 1.889 3.88.873 1.572 1.576 3.22 2.271 4.875.251.595.523 1.185.826 1.754.626 1.176.805 1.307 2.11 1.038 2.895-.597 5.659-1.546 8.153-3.2 2.125-1.408 4.193-2.871 5.824-4.866.187-.227.414-.452.671-.584 1.623-.831 2.891-2.104 4.243-3.284.971-.85 2.06-1.564 3.065-2.377 2.128-1.722 4.016-3.702 5.95-5.632.21-.21.41-.442.563-.695.683-1.131.676-1.134 1.886-.561.077.037.175.03.345.054.585-1.783.622-3.582.194-5.455-.65-.046-.992.425-1.39.75-1.62 1.326-3.225 2.67-4.84 4.002-.23.19-.482.355-.73.521-.512.345-1.103.683-1.654.276-.536-.397-.193-1.018-.057-1.528 1.02-3.803 2.12-7.582 3.357-11.32.222-.672.137-1.113-.323-1.6-.736-.778-1.128-1.761-1.436-2.764-.316-1.031-.146-2.02.68-2.744.727-.635 1.609-.675 2.53-.355 1.001.348 1.03.324 1.347-.794 1.156-4.074 2.299-8.152 3.444-12.229.04-.144.069-.292.099-.438.495-2.4 1.677-4.148 3.883-5.51 4.278-2.645 8.244-5.779 12.472-8.517.208-.136.395-.311.615-.423.524-.266.87-.106.97.475.112.65-.021 1.295-.16 1.927-1.053 4.826-2.347 9.582-4.159 14.185-.291.74-.718 1.466.129 2.127.005 1.538 1.068 2.708 1.425 4.119.09.355.183.638.47.88.476.402.73.937.788 1.563.028.294.02.636.316.798 1.035.569.907 1.579.958 2.505.032.6-.142 1.178-.344 1.75-1.247 3.536-2.622 7.005-5.074 9.925-.584.696-.966 1.504-1.328 2.33-1.104 2.514-1.956 5.121-2.837 7.716-.5 1.474-.475 3.049-.823 4.553-.068.293.03.507.264.624.656.33.89 1.046 1.402 1.484.58.497.426.95.087 1.43-3.326 4.714-6.65 9.429-10 14.125a7.563 7.563 0 0 1-1.446 1.507c-2.416 1.917-4.539 4.177-7.194 5.82-2.368 1.467-4.528 3.25-6.731 4.963-1.6 1.245-3.467 2.144-5.215 3.198-.167.1-.332.203-.61.375 3.388 3.932 5.758 8.396 7.589 13.174-1.392-1.828-3.249-3.305-4.043-5.564-.345-.98-.889-1.87-1.246-2.857-.614-1.697-2.243-2.632-3.333-3.984-.299-.37-.747-.113-1.117.01-1.462.49-2.893 1.055-4.399 1.432-1.852.464-3.746.49-5.677.74-.23.988-.1 1.823.489 2.773 1.885 3.037 3.51 6.227 4.723 9.598.52 1.446.831 2.968 1.265 4.448 1.17 3.995 2.659 7.866 4.371 11.663.794 1.76 1.231 3.683 1.364 5.618.107 1.541.283 3.01.838 4.49.832 2.215 1.647 4.475 1.513 6.926-.02.387.106.788.2 1.174.883 3.678 1.286 7.444 2.04 11.14.408 2 .476 4.067 1.164 6.003.407 1.146.105 2.39.578 3.61 1.376-.384 2.578-1.078 3.693-1.858 2.167-1.518 4.55-2.669 6.746-4.135 2.826-1.886 5.527-3.946 7.672-6.576 1.073-1.315 1.786-2.924 1.03-4.83-.583-1.469-.904-3.046-1.284-4.588-.129-.523-.11-1.088-.113-1.634-.004-1.044-.253-2-1.09-2.673-.523-.42-.662-.879-.67-1.537-.015-1.055-.605-1.99-.923-2.978-.606-1.881-1.22-3.813-2.51-5.375-.413-.5-.497-1.073-.7-1.612-.534-1.406-1.232-2.684-2.08-3.94-1.693-2.506-2.908-5.288-4.305-8.163.538.047.675.298.808.516.879 1.454 1.948 2.767 2.968 4.12.534.707.97 1.509 1.346 2.317 1.383 2.984 3.317 5.685 4.557 8.73.897 2.207 1.567 4.505 2.323 6.767 1.043 3.117 1.71 6.345 2.793 9.453.41 1.174.826 2.348 1.19 3.536.208.674.467 1 1.248.87 4.47-.743 9.048-.468 13.498-1.392 3.318-.69 6.576-1.608 9.639-3.09 1.622-.784 3.318-1.385 5.01-1.946 1.85-.616 3.624-1.394 5.431-2.097 2.922-1.135 5.799-2.388 8.74-3.465 4.162-1.523 8.421-2.732 12.702-3.9 4.056-1.107 8.12-1.363 12.275-1.344 1.616.007 2.767.59 4.033 1.464 2.29 1.583 3.663 3.742 4.63 6.246.329.85.81 1.62 1.378 2.298 3.01 3.597 5.625 7.497 8.07 11.463 3.005 4.874 6.181 9.628 9.283 14.434.968 1.5 2.052 2.924 3.018 4.424 1.674 2.599 3.821 4.82 5.801 7.161 1.662 1.965 3.417 3.875 5.195 5.75 1.088 1.147 2.337 2.177 2.755 3.816.057.227.29.402.413.618.334.588.72.467 1.042.035.542-.725.857-1.57 1.094-2.435.318-1.153.577-2.321.891-3.474.144-.527.273-1.088.558-1.54.682-1.08 1.002-2.278 1.234-3.499.445-2.349.844-4.706 1.232-7.064.123-.745.312-1.46.575-2.162.47-1.256 1.026-2.47 1.465-3.745 1.039-3.012 4.602-3.57 6.852-2.444 1.134.568 2.015 1.472 2.803 2.439 1.59 1.952 2.676 4.132 3.356 6.596 1.743 6.326 2.11 12.76 1.928 19.265-.06 2.172-.765 4.208-1.203 6.3-.039.187-.173.354-.265.529-.787 1.493-1.738 2.897-2.615 4.33-1.287 2.102-2.905 4.015-5.164 5.231-1.149.619-2.118 1.469-3.009 2.422-.373.397-.508.769-.098 1.152 1.422 1.323.883 2.835.164 4.114-1.315 2.337-2.801 4.587-4.602 6.606-.552.619-1.254 1.043-1.956 1.341-1.729.736-3.488 1.552-5.361 1.72-1.803.16-3.715.198-5.099-1.406-.097-.112-.205-.24-.335-.294-2.582-1.085-3.818-3.47-5.363-5.551-.442-.596-.83-.974-1.72-.663-.816.287-1.75.3-2.597-.198-.335-.196-.748-.262-1.13-.37-1.48-.414-2.763-1.11-3.674-2.406-.244-.348-.526-.704-.984-.916-.234 1.249-.214 2.331.838 3.137.25.191.462.449.151.733-.3.276-.78.264-.919-.056-.45-1.037-1.648-1.431-2.034-2.521-.159-.45-.5-.86-.833-1.22-.988-1.067-1.821-2.217-2.399-3.57-.47-1.097-1.576-1.708-2.213-3.081-.35 1.113-.283 1.835-.232 2.56.365 5.127.359 10.264.383 15.399.009 1.937-.222 3.875-.368 5.811-.028.372-.029.861-.601.858-.528-.004-.81-.305-.867-.836-.067-.618-.157-1.234-.24-1.875-.69.188-.65.686-.745 1.1-.18.776-.304 1.568-.543 2.325-.225.717-.7.75-1.174.14-.653-.843-.649-1.863-.712-2.847-.032-.5-.066-.96-.265-1.44-.599-1.452-.456-3.018-.592-4.54-.2-2.225-.31-4.456-.32-6.69-.002-.495-.047-.997.182-1.54.692.271.742.89.78 1.45.147 2.18.241 4.366.377 6.547.111 1.788.24 3.576.393 5.36.037.44.183.874.317 1.299.033.104.203.206.327.232.179.037.306-.151.278-.272-.363-1.568.74-3.107.03-4.705-.368-.828-.083-1.773-.107-2.666-.083-3.175-.254-6.343-.576-9.504-.307-3.002-.47-6.018-.937-9.004-.245-1.562-.742-3.092-.61-4.708a1.486 1.486 0 0 0-.224-.858 429.896 429.896 0 0 0-3.628-5.568c-.102-.154-.262-.307-.6-.225-.097 1.501.3 2.994.363 4.507.023.544.183 1.082.215 1.626.265 4.476.876 8.914 1.381 13.363.411 3.616.487 7.258.294 10.885-.094 1.77-.647 3.517-.983 5.275-.074.385-.283.669-.653.72-.344.046-.488-.29-.644-.541-.314-.506-.59-1.032-.775-1.757-.6.527-.75 1.125-.941 1.702-.234.708-.485 1.412-.722 2.12-.131.39-.43.557-.803.536-.44-.025-.762-.27-.82-.727-.099-.79-.22-1.583-.23-2.376-.026-2.382-.454-4.75-.16-7.15.089-.714-.168-1.476-.288-2.212-.194-1.186-.202-1.185.3-2.607.556.506.44 1.19.475 1.81.156 2.829.24 5.663.453 8.487.047.63-.185 1.438.533 1.924.469-.195.435-.642.514-1.006.366-1.682.802-3.315.737-5.107-.101-2.785-.071-5.576-.223-8.365-.1-1.838-.304-3.661-.507-5.487-.138-1.227.002-2.459-.164-3.704-.386-2.903-.53-5.837-1.045-8.728-.174-.974-.35-1.98-.296-2.958.163-2.919-.74-5.688-1.083-8.533-.142-1.178-.673-2.244-1.677-3.312-.249 1.436-.131 2.651.001 3.838.541 4.856.625 9.74.982 14.607.233 3.18.519 6.357.498 9.547-.014 2.032-.246 4.064-.244 6.096.004 3.598-.803 7.114-1.005 10.689-.045.792.135 1.6-.169 2.372-.141.359-.197.86-.722.799-.537-.062-.499-.528-.46-.935.117-1.24-.012-2.484.03-3.718.033-.976.374-1.941.575-2.91.432-2.1.461-4.24.675-6.362.399-3.968.238-7.95.061-11.916-.152-3.418-.303-6.845-.758-10.25-.19-1.42-.089-2.875-.225-4.304-.21-2.178-.281-4.37-.658-6.532-.07-.402-.124-.884-.656-.818-.554.07-1.082.335-1.098 1.017-.016.697-.003 1.398.058 2.093.355 4.077.273 8.16.221 12.245-.044 3.434-.082 6.869-.203 10.301-.092 2.585-.381 5.163-.46 7.748-.13 4.227-.233 8.457.189 12.679.088.875.133 1.724-.31 2.614-.328.66-.257 1.549-.252 2.335.005.78-.338 1.447-.514 2.166-.117.48-.395.655-.875.552-.566-.122-.326-.512-.273-.822.217-1.268.427-2.537.679-3.799.279-1.4.026-2.782-.114-4.164-.085-.846-.236-1.676-.043-2.525.053-.232.06-.511-.02-.729-.49-1.338-.535-2.768-.55-4.133-.039-3.779-.566-7.523-.639-11.291-.068-3.532-.678-7.018-.79-10.539-.082-2.574-.235-5.148-.029-7.73.107-1.333.019-2.685-.039-4.026-.031-.73-.365-.983-1.092-.733-2.458.843-4.992.725-7.53.784-3.083.07-6.163.308-9.243.489-4.315.253-8.646.36-12.937.834-3.233.357-6.443.187-9.665.243-1.887.034-3.77.206-5.656.313-2.176.125-4.352.282-6.53.363-2.379.09-4.76.074-7.09.696-.564.15-1.19.084-1.786.094-.39.007-.658-.184-.76-.58-.088-.337.04-.579.308-.768.488-.345.951-.702 1.602-.729 3.129-.126 6.246-.465 9.381-.502.591-.006 1.18-.204 1.772-.23 3.63-.155 7.262-.303 10.895-.422 3.584-.117 7.155-.424 10.729-.701 1.488-.115 2.983-.161 4.477-.206 3.083-.092 6.135-.687 9.224-.623 2.997.063 5.97-.251 8.942-.5 1.92-.161 3.606-1.093 5.124-2.267.373-.289.267-.63-.17-.787-.46-.165-.898-.317-1.44-.222-3.29.576-6.621.802-9.945 1.1-3.167.284-6.314.817-9.484 1.033-2.279.154-4.56.307-6.84.467-3.036.215-6.074.362-9.11.268-3.3-.102-6.559.366-9.832.567-2.969.183-5.949.289-8.916.631-3.064.353-6.072 1-9.122 1.4-.506.066-.959.269-1.395.512-.28.157-.556.282-.78-.043-.245-.357-.065-.677.194-.93.132-.128.337-.198.52-.257.845-.273 1.687-.72 2.546-.76 1.742-.083 3.4-.691 5.139-.694.946-.002 1.844-.18 2.737-.454-.142-.59-.55-.492-.87-.486-2.484.046-4.969.19-7.45.14-1.637-.033-3.316.31-4.911-.242-.06-.487.214-.657.519-.657 2.078-.001 4.137-.307 6.233-.227 2.026.078 4.074.14 6.116-.107 2.026-.246 4.081-.018 6.123-.201 3.206-.287 6.429-.283 9.63-.765 2.55-.383 5.155-.404 7.738-.538 2.24-.118 4.46-.374 6.683-.665a69.215 69.215 0 0 1 6.402-.546c2.044-.075 4.081-.207 6.098-.503 3.158-.464 6.374-.273 9.512-.886 1.554-.304 3.167-.514 4.356-1.754.101-.105.229-.192.36-.261.229-.122.483-.163.71-.018.318.201.264.517.154.798-.468 1.19-1.513 1.835-2.62 2.006-2.355.363-4.674 1.022-7.088.984-1.643-.025-3.255.35-4.902.402-2.78.086-5.553.413-8.333.53-1.003.042-1.977.211-2.959.34-4.037.532-8.103.678-12.157.99-1.366.104-2.769.093-4.223.505.253.418.566.325.81.33 2.744.063 5.473-.176 8.209-.326 2.584-.142 5.162-.355 7.74-.542 2.825-.205 5.655-.373 8.468-.77 2.557-.36 5.137-.56 7.708-.826.695-.072 1.394-.101 2.084-.195 2.321-.315 4.645-.565 6.987-.67.97-.043.967-.107.784-1.194.14-.217.308-.164.496-.064.664.348.929-.017 1.001-.609.145-1.192.285-2.373-.55-3.432-.33-.42-.508-.958-.828-1.587.661.123 1.328.291.945-.695-.432-1.112-.712-2.29-1.216-3.366-.781-1.67-1.49-3.367-2.223-5.055-.545-1.257-1.432-1.916-2.92-1.774-2.771.263-5.58.032-8.333.65-.616.14-1.29.042-1.936.032-.846-.011-1.673.01-2.51.236-1.117.303-2.279.105-3.422.109-2.839.007-5.674.094-8.495.43-.587.07-1.158.193-1.624.66-.408.411-1.042.58-1.536.35-1.711-.794-3.437-.216-5.141-.13-2.481.123-4.984.356-7.416.718-2.778.413-5.572.038-8.32.608-1 .207-2.094.088-3.128-.029-1.484-.168-2.974-.163-4.454-.299-1.724-.157-3.435-.453-5.175-.421-.245.004-.647-.067-.71.047-.606 1.078-1.318.435-2.02.182-1.167-.42-2.355-.256-3.53-.058-1.215.204-2.42.462-3.668.55.99-.927 2.255-1.058 3.493-1.139 1.341-.086 2.694-.069 4.038-.009 1.26.057 2.48-.103 3.703-.364 2.393-.512 4.804-.848 7.267-.784 2.589.067 5.163-.295 7.76-.288 4.306.011 8.583-.586 12.876-.893 3.976-.284 7.96-.28 11.938-.43 2.176-.082 4.381-.044 6.545-.437.049-.01.1-.023.148-.02 3.134.196 6.208-.526 9.323-.61 1.712-.045 3.428-.456 5.136.034.22.063.383 0 .516-.18.27-.362.68-.417 1.075-.415.748.004 1.5-.35 2.222-.125.828.257.731 1.225 1.16 1.815 1.316 1.81 2.598 3.651 3.632 5.638 1.744 3.351 3.707 6.588 5.168 10.09.573 1.372 1.376 2.65 2.064 3.975.436.84.938 1.658 1.26 2.54 1.12 3.058 2.87 5.801 4.235 8.733.994 2.138 2.428 3.994 3.632 5.992.89 1.478 1.632 3.06 2.645 4.466 1.14 1.584 1.944 3.357 2.969 5.005.74 1.187 1.65 2.24 2.542 3.307.67.801 1.406 1.543 1.999 2.417a7.559 7.559 0 0 0 2.991 2.588c1.023.5 2.03.586 2.97-.09.964-.692 2.027-.992 3.18-1.152 3.566-.496 6.658-1.913 9.11-4.647 1.058-1.179 2.46-2.063 3.133-3.568 1.242-2.774 2.521-5.562 2.395-8.692-.064-1.58-.31-3.17-1.538-4.384-.503-.497-.655-1.212-1.052-1.793-.964-1.41-2.246-2.534-3.287-3.867-1.131-1.45-2.348-2.829-3.457-4.298-.651-.862-1.53-1.555-2.322-2.308-2.381-2.267-4.349-4.886-6.354-7.472-.731-.943-1.447-1.905-2.086-2.912-1.336-2.105-2.883-4.071-4.101-6.254-.578-1.034-1.431-1.873-2.07-2.884-.705-1.116-1.362-2.275-2.074-3.386-.499-.778-1.129-1.462-1.607-2.27-1.942-3.29-3.675-6.73-5.889-9.824-1.503-2.101-3.04-4.142-4.224-6.447-.267-.518-.574-1.01-.823-1.551-.618-1.34-1.855-2.156-2.922-3.11-1.144-1.026-2.498-1.09-3.967-1.148-4.427-.175-8.708.415-12.99 1.56-4.824 1.29-9.55 2.82-14.188 4.646-4.628 1.82-9.21 3.758-13.905 5.408-1.592.56-3.093 1.378-4.68 1.953-4.607 1.67-9.31 2.89-14.261 2.949-2.335.027-4.653.369-6.965.68-.743.1-1.348.097-1.865-.542-.36-.444-.73-.346-1.078.126-1.605 2.174-3.565 3.977-5.654 5.696-1.538 1.265-3.221 2.316-4.746 3.596-1.728 1.448-3.878 2.23-5.863 3.267-.53.277-1.05.57-1.576.853-.36.192-.738.38-.635.885.088.432.381.68.808.783.234.056.504-.03.781.25-.053.503-.303 1.065-.144 1.666.133.5-.117.98-.282 1.449-.132.377-.422.545-.823.46-.368-.08-.425-.377-.437-.686-.03-.73-.085-1.453-.374-2.094-.463.018-.399.285-.379.434.294 2.171.498 4.362 1.277 6.437.07.185.155.376.17.57.039.47-.235.651-.653.52-.444-.14-.858-.403-.769-.953.085-.527.001-1.004-.28-1.43-.688-1.042-.873-2.21-1.114-3.417-.408-2.041-.385-4.138-1.051-6.16-.425-1.29-.497-2.736-.69-4.116-.206-1.476-.407-2.947-.775-4.395a29.49 29.49 0 0 1-.743-4.4c-.19-1.956-.635-3.89-1.03-5.822-.239-1.173-.55-2.321-.463-3.54.076-1.059-.317-2.055-.535-3.074-.352-1.654-.708-3.298-1.218-4.923-.47-1.504-.73-3.084-1.287-4.57-.783-2.09-1.337-4.256-2.17-6.333-.57-1.42-1.185-2.84-1.443-4.37a2.647 2.647 0 0 0-.166-.572c-1.46-3.485-2.293-7.178-3.563-10.723-.55-1.534-1.354-2.978-2.067-4.45-.647-1.335-1.318-2.654-2.202-3.862-.397-.543-.586-1.238-.863-1.867-.77-1.736-1.757-3.318-3.128-4.653a4.173 4.173 0 0 1-.786-1.084c-.258-.509-.62-.984-1.07-1.213-1.563-.793-2.68-2.24-4.326-2.878-.524-.203-.726-.722-1.155-1.04-1.479-1.099-3.231-.838-4.826-1.275a14.105 14.105 0 0 0-2.944-.47c-1.719-.095-3.116.435-4.222 1.756-.288.343-.589.685-.931.971-1.746 1.463-2.154 3.474-1.594 5.44 1.23 4.314 2.206 8.688 3.35 13.021 1.067 4.045 2.36 8.03 3.445 12.07.866 3.222 1.492 6.508 2.369 9.726a429.876 429.876 0 0 1 1.911 7.22c.725 2.856 1.215 5.745 1.642 8.657.5 3.4 1.145 6.778 1.791 10.154 1.199 6.264 2.195 12.565 3.712 18.77 1.196 4.887 2.048 9.849 2.757 14.832.057.393.096.797.07 1.19-.03.432-.27.795-.74.777-.398-.016-.598-.362-.613-.736-.049-1.25-.283-2.471-.468-3.704-.613-4.093-1.308-8.174-2.314-12.186-1.502-6-2.464-12.104-3.718-18.15-.192-.926-.36-1.867-.414-2.809-.144-2.504-.728-4.922-1.278-7.353-.24-1.065-.337-2.161-.494-3.244-.583-4.005-1.698-7.889-2.738-11.786a357.622 357.622 0 0 1-2.348-9.273c-1.11-4.653-2.52-9.222-3.896-13.803a72.92 72.92 0 0 1-1.836-7.696c-.494-2.665-1.456-5.173-2.235-7.743-.109-.359-.366-.586-.624-.82a9.102 9.102 0 0 0-1.964-1.355c-2.753-1.417-5.577-2.62-8.628-3.281-2.092-.453-4.16-1.032-6.215-1.64-1.643-.484-3.328-.64-5.011-.77-4.271-.33-8.546-.626-12.823-.865-3.697-.205-7.37.036-10.985.9-1.26.302-2.524.578-3.779.894-.431.11-.856.274-1.256.469-1.09.532-1.69 1.177-1.535 2.637.254 2.41.805 4.7 1.652 6.948a121.709 121.709 0 0 1 2.84 8.5c1.323 4.489 2.777 8.94 4.022 13.45 1.392 5.048 3.203 9.96 4.695 14.966 1.522 5.107 3.188 10.168 4.685 15.281.31 1.058.773 2.05 1.135 3.084.611 1.743 1.024 3.54 1.352 5.359.495 2.743.951 5.5 1.506 8.225.915 4.497 1.317 9.07 2.238 13.56 1.08 5.271 1.935 10.58 2.677 15.908.096.69.242 1.372.339 2.062.052.374-.054.715-.46.832-.495.142-.765-.174-.886-.58-.214-.716-.476-1.44-.537-2.175-.5-6.073-1.82-12.013-2.845-18.002-.738-4.32-1.47-8.64-2.186-12.963-.391-2.357-.733-4.72-1.215-7.063-.605-2.937-1.745-5.71-2.604-8.567-1.42-4.72-3.105-9.357-4.347-14.136-.524-2.017-1.296-3.972-2.004-5.94-1.618-4.504-2.653-9.18-4.091-13.74-1.902-6.03-3.52-12.15-5.638-18.114-.805-2.265-1.222-4.627-1.623-6.982-.239-1.413.08-2.774.92-3.985.456-.654.85-1.35 1.298-2.01 1.51-2.224 3.612-3.668 6.109-4.583a4.462 4.462 0 0 1 1.61-.285c2.031.027 4.048-.278 6.099-.056 2.128.23 4.279-.003 6.417-.215 2.582-.256 5.168-.26 7.742.143.098.015.2.015.298.016.896.012 1.928.305 2.649-.045.757-.367.583-1.567.873-2.384.5-1.413.937-2.934 1.86-4.056 1.395-1.696 2.928-3.294 5.534-3.263 2.438.029 4.616.5 6.52 2.056.71.581 1.597.722 2.448 1.002 1.701.559 3.466.927 5.131 1.55 2.994 1.122 6.124 1.737 9.178 2.62 1.952.564 3.936 1.033 5.864 1.702 1.44.498 2.921.349 4.408.252 0-.176.038-.295-.005-.356-2.933-4.145-5.621-8.466-8.964-12.314-.464-.534-.928-1.036-1.568-1.354-1.13-.565-1.885-1.613-2.96-2.267-1.073-.652-2.17-1.237-3.352-1.633-2.28-.763-4.423-1.855-6.495-3.017-2.005-1.122-3.273-2.961-3.753-5.319-.274-1.346-.432-2.747-1.092-3.998-.093-.174-.216-.385-.19-.558.191-1.28-.096-2.547-.17-3.83.621-.052.654.326.65.66-.024 2.185 1.142 3.358 3.18 3.842.676.161 1.334.403 1.991.633.697.245 1.39.507 1.973 1.242-.983.415-1.457-.362-2.071-.595-.635-.242-1.214-.641-2.078-.672.735 1.017 1.504 1.667 2.571 2.112 2.557 1.066 5.246 1.502 7.933 2.014.713.136 1.242.004 1.794-.345-.184.75.233 1.19.793 1.56.201.134.433.343.6.041.136-.244-.159-.427-.266-.635l1.79-.513-1.523-.515c-.253.37-.22.723-.226 1.069-.438-.28-.68-.8-1.203-.973.196-.332.49-.62.006-1.009-.244-.196-.329-.592-.49-.905-.019-.359.607-.78-.133-1.09-.22.434.063.765.157 1.122z" mask="url(#a)" transform="matrix(-1 0 0 1 260 460.06)"/><path d="M215.028 524.95c.505 1.298 1.02 2.534 1.808 3.638a9.039 9.039 0 0 1 1.106 2.113c.622 1.676 1.65 3.056 3.039 4.18 2.662 2.155 4.648 4.768 5.49 8.155.084.332.26.646.43.95 1.025 1.835 1.131 3.902 1.493 5.903.39 2.152.777 4.306.965 6.488.013.149.034.298.07.442.054.21.21.372.409.38.208.01.367-.155.385-.376.028-.347.075-.702.03-1.042-.486-3.697-.95-7.405-1.923-11.007-.555-2.054-1.162-4.1-2.356-5.947-1.263-1.952-2.728-3.679-4.527-5.13-1.197-.969-1.97-2.2-2.56-3.613-.848-2.026-1.935-3.912-3.859-5.133M212.105 518.598c-1.256 1.196-2.451 2.304-3.93 3.057-.432.22-.71.688-.962 1.124-.354.608-.355.608.308 1.298-.854.516-1.746.964-2.474 1.648-.19.177-.345.39-.199.654.147.267.414.233.658.17.189-.048.417-.082.546-.207 1.78-1.725 4.155-2.484 6.174-3.817.124-.082.267-.135.393-.215.239-.15.628-.28.39-.64-.196-.296-.537-.152-.81-.009-.964.505-1.915 1.038-2.898 1.504-.332.158-.62.516-1.19.367.756-1.134 1.838-1.81 2.815-2.593a5.04 5.04 0 0 1 .866-.579c.764-.384.785-.932.313-1.762M209.934 517.182c.529-1.43 1.542-2.489 2.624-3.514.841-.797 1.095-1.976 1.737-2.91.07-.102.114-.286-.079-.377-.199-.094-.472-.077-.523.087-.605 1.958-2.343 2.926-3.683 4.233-.585.572-.696 1.242-.774 1.997-.086.824.464.354.742.442z"/><path d="M209.978 517.14c-.258.675-.82 1.068-1.437 1.416 1.02.885 1.556 1.04 2.242-.083.25-.413.68-.716 1.015-1.08.364-.391.358-.396.35-1.39-.913.095-1.235 1.3-2.216 1.18l.046-.044M207.447 520.926c.06-.442.336-.937-.17-1.488-.409.54-.027 1.03-.121 1.48-.018.086.134.118.291.008M202.197 525.425c-.14-.002-.242.085-.264.236-.024.153.04.288.213.28.066-.003.154-.103.184-.179.053-.128.073-.273-.133-.337M198.8 501.449c.085-.069.174-.169.285-.217.047-.02.182.052.205.11.059.15-.037.255-.179.293-.13.034-.255.013-.312-.186m-9.072 4.898c.96.107 1.763-.542 2.735-.508 1.634.057 3.255.086 4.782.772.223.1.477.133.696.24.247.121.495.187.654-.067.161-.26-.022-.458-.24-.61-.7-.487-1.436-.878-2.309-.97-.737-.077-1.47-.203-2.214-.309.061-.527.49-.477.772-.625.53-.277 1.126-.292 1.683-.652.556-.36 1.455-.122 2.068.415.185.162.314.385.492.558.245.24.526.238.813.058.355-.224.398-.518.249-.898-.216-.55-.588-.92-1.152-1.076-.285-.08-.584-.107-.876-.166-.265-.054-.495-.172-.382-.491.094-.27.405-.43.58-.23.517.593 1.11.213 1.67.22.14.001.315-.04.416-.13.642-.563 1.212-1.222 2.252-1.312-.488-.654-.925-.482-1.262-.427-1.176.193-2.33.497-3.42.994-.43.196-.908.316-.84 1.032.059.614-.571.594-.987.618-1.2.07-2.365.294-3.517.629-.488.141-.949.294-1.295.894.936-.177 1.713-.89 2.753-.45-.89.856-1.853 1.21-2.98 1.262-1.487.069-2.985.061-4.434.49-.236.07-.49.097-.749.426 1.384-.18 2.652-.48 3.949-.483.234 0 .574-.076.565.258-.005.196-.276.385-.43.574a3.512 3.512 0 0 0-.042-.036M203.088 504.152c.701.313.395-.68.834-.548.366.111.655.468 1.082.426.256-.025.506-.177.574-.419.328-1.166 1.314-1.834 1.998-2.73.207-.272.697-.634.293-.99-.38-.334-.748.077-.971.389-.5.697-1.222 1.158-1.793 1.774-.393.424-.756.63-1.244.153-.1-.099-.257-.204-.386-.2-.682.015-.567.587-.775 1-.195.388-.868-.556-1.287.096-.134.21-.122.383.087.504.514.299 1.043.568 1.588.545M197.372 513.35c-2.322-1.393-9.056-2.116-10.937-1.28.491.214 9.837 1.344 10.937 1.28M207.134 506.892c.071.127.113.307.22.361.103.053.307.024.406-.05.31-.235.653-.463.87-.774.55-.788.807-1.783 1.709-2.328.104-.063.148-.397.08-.536-.127-.253-.402-.217-.651-.142-.302.09-.498.303-.673.546-.6.834-1.032 1.787-1.797 2.506-.095.089-.108.265-.164.417M205.363 505.169c-.013.344.07.53.253.62.243.119.524.072.666-.14.354-.527.657-1.088.985-1.633.132-.222.239-.436-.033-.635-.221-.162-.485-.2-.684-.034-.613.512-.897 1.24-1.187 1.822M197.465 479.206c-1.145.022-2.222.221-3.002 1.196 1.023-.34 2.005-.786 3.002-1.196M186.842 509.297c.292.197.552.122.78-.089a.13.13 0 0 0-.071-.228c-.29-.043-.577-.037-.709.317M199.444 471.035c.32-.044.536-.188.475-.55-.026-.154-.188-.273-.299-.192-.18.13-.35.32-.439.52-.076.17.11.218.263.222M200.617 465.585c-.63-.14-.957.073-1.33.286.466.158.856.15 1.33-.286M212.043 480.064c.079-.04.207-.065.228-.125.072-.207.004-.398-.192-.503-.145-.076-.306-.036-.317.15-.013.204.07.387.281.478M197.117 470.935c.504-.584.504-.584-.107-.93-.126.342.084.637.13.958a3.784 3.784 0 0 1-.023-.028M216.233 475.06c.079.157-.046.447.279.394.05-.009.127-.174.104-.234-.065-.167-.151-.422-.272-.45-.185-.04-.087.186-.111.29M198.763 475.679c.076.038.16.116.226.103.11-.02.12-.122.039-.214-.03-.033-.077-.07-.116-.07-.113 0-.163.07-.15.18M7.88 675.267c-.022.393.7 1.12 1.086 1.075.355-.04.49-.335.488-.644-.004-.567-.32-.95-.873-1.027-.395-.055-.628.227-.7.596M7.692 664.522c-.004.379.186.506.45.532.504.05 1.445-.526 1.363-.835-.108-.403-.512-.49-.813-.494-.534-.005-.853.368-1 .797M10.172 679.936c-.663-.306-1.206-.462-1.756-.1-.252.165-.416.449-.259.758.137.27.415.225.642.127.433-.187.98-.153 1.373-.785M8.883 668.194c-.456.035-.726.232-.776.624-.051.41.145.695.582.65.361-.039.887.048.915-.51.024-.474-.427-.6-.72-.764M23.354 698.897c.73-.14.974-.416.767-.792a28.674 28.674 0 0 0-1.63-2.633c-.26-.371-.739-.183-.887.283-.096.3-.088.61.076.858a50.27 50.27 0 0 0 1.449 2.045c.12.164.324.215.225.239M18.28 692.937c.255-.052.518-.052.722-.16.351-.187.544-.544.153-.809-.604-.409-1.246-.785-1.97-.965-.556-.138-.834.2-.992.645-.167.47.116.77.52.903.51.167 1.044.26 1.567.386M192.86 536.382c.218-.02.387-.138.454-.333.067-.2-.111-.248-.26-.253-.206-.007-.409.037-.445.289-.025.172.068.28.25.297M201.816 519.301c-.18.036-.4.022-.536.121-.22.162-.225.434-.002.594.182.13.375-.029.442-.205.063-.166.041-.366.057-.55l.04.04"/></g><path d="M66.8 500.992c.336 0 .568.24.696.72-.096 1.616-.2 2.764-.312 3.444a78.08 78.08 0 0 0-.42 2.844c-.024.192-.092.584-.204 1.176s-.228 1.18-.348 1.764l-.216 1.044-.444 2.148c-.272 1.32-.476 2.128-.612 2.424s-.368.444-.696.444-.588-.096-.78-.288c-.736-1.008-1.432-2.256-2.088-3.744-.16-.384-.34-.8-.54-1.248s-.348-.784-.444-1.008l-.216-.504c-.336.576-.8 1.552-1.392 2.928s-1.112 2.48-1.56 3.312c-.288.368-.608.552-.96.552-.736 0-1.296-1.96-1.68-5.88a20.034 20.034 0 0 1-.132-1.104c-.04-.4-.088-.844-.144-1.332s-.26-2.508-.612-6.06c0-.32.12-.612.36-.876s.504-.396.792-.396c.352 0 .592.232.72.696.432 5.2.864 9.04 1.296 11.52.128-.224.456-.964.984-2.22s1.008-2.256 1.44-3 .848-1.116 1.248-1.116c.272 0 .504.144.696.432 1.008 2.864 1.872 4.88 2.592 6.048.016-.176.112-.656.288-1.44l.312-1.536c0-.096.02-.232.06-.408s.072-.348.096-.516.052-.324.084-.468l.264-1.512c.384-2.368.624-4.312.72-5.832.064-.272.212-.508.444-.708s.468-.3.708-.3zm8.928.048c1.12 0 2.072.36 2.856 1.08 1.536 1.376 2.304 3.548 2.304 6.516s-.848 5.3-2.544 6.996c-.88.848-1.896 1.312-3.048 1.392-1.52 0-2.704-.52-3.552-1.56s-1.452-2.204-1.812-3.492-.54-2.532-.54-3.732c0-2.048.488-3.736 1.464-5.064 1.024-1.424 2.648-2.136 4.872-2.136zm-.168 1.992c-2.144 0-3.48 1.016-4.008 3.048-.16.544-.24 1.24-.24 2.088s.16 1.832.48 2.952c.432 1.504 1.072 2.56 1.92 3.168.496.384 1.096.576 1.8.576s1.336-.316 1.896-.948.944-1.436 1.152-2.412.312-1.96.312-2.952c0-1.76-.252-3.12-.756-4.08s-1.356-1.44-2.556-1.44zm20.568-2.04c.336 0 .568.24.696.72-.096 1.616-.2 2.764-.312 3.444a78.08 78.08 0 0 0-.42 2.844c-.024.192-.092.584-.204 1.176s-.228 1.18-.348 1.764l-.216 1.044-.444 2.148c-.272 1.32-.476 2.128-.612 2.424s-.368.444-.696.444-.588-.096-.78-.288c-.736-1.008-1.432-2.256-2.088-3.744-.16-.384-.34-.8-.54-1.248s-.348-.784-.444-1.008l-.216-.504c-.336.576-.8 1.552-1.392 2.928s-1.112 2.48-1.56 3.312c-.288.368-.608.552-.96.552-.736 0-1.296-1.96-1.68-5.88a20.034 20.034 0 0 1-.132-1.104c-.04-.4-.088-.844-.144-1.332s-.26-2.508-.612-6.06c0-.32.12-.612.36-.876s.504-.396.792-.396c.352 0 .592.232.72.696.432 5.2.864 9.04 1.296 11.52.128-.224.456-.964.984-2.22s1.008-2.256 1.44-3 .848-1.116 1.248-1.116c.272 0 .504.144.696.432 1.008 2.864 1.872 4.88 2.592 6.048.016-.176.112-.656.288-1.44l.312-1.536c0-.096.02-.232.06-.408s.072-.348.096-.516.052-.324.084-.468l.264-1.512c.384-2.368.624-4.312.72-5.832.064-.272.212-.508.444-.708s.468-.3.708-.3zm5.52-.504l-.216 8.184c0 .88.008 1.456.024 1.728-.064.208-.188.392-.372.552s-.388.24-.612.24-.408-.176-.552-.528c-.24-4.032-.36-7.424-.36-10.176.144-.4.512-.6 1.104-.6s.92.2.984.6zm-2.016 14.496c0-.288.112-.552.336-.792.224-.24.524-.36.9-.36s.648.072.816.216.252.456.252.936c0 .848-.352 1.272-1.056 1.272-.352 0-.648-.14-.888-.42-.24-.28-.36-.564-.36-.852z" fill="#171c34"/></g></svg>