<svg height="834" width="453" xmlns="http://www.w3.org/2000/svg"><g fill="none" fill-rule="evenodd" transform="translate(-321 -32)"><text fill="#171c34" font-family="PatrickHand-Regular, Patrick Hand" font-size="24" letter-spacing=".6"><tspan x="557" y="528">WOW!</tspan></text><path d="M450.398 116.048C-18.805-255.706-118.396 339.033 137.511 866h312.887c312.803-252.132 312.803-502.116 0-749.952z" fill="#fdf9f1" fill-rule="nonzero"/><circle cx="559" cy="546" fill="#fff" fill-rule="nonzero" r="166"/><g fill="#000"><path d="M632.226 573.986c.1-.006.206-.024.3-.001.13.032.104.077-.066.077-.099 0-.199-.014-.297-.023.021-.018.04-.05.063-.053zm-38.596 22.761c.023-.003.104.179.108.277.006.152-.002.348-.23.319-.06-.008-.1-.163-.143-.237.01-.187.082-.33.265-.359zm34.78 166.25c.074.003.144.058.217.09-.103.02-.206.054-.308.052-.074-.001-.147-.05-.249-.09.135-.023.239-.057.34-.052zm35.466-.769c.15.002.318.026.443.1.069.042-.02.171-.16.17-.15 0-.3-.028-.49-.048.094-.104.15-.223.207-.222zm-4.53-1.537c.046-.086.07-.216.14-.25.142-.07.316-.063.332.148.005.063-.122.136-.188.203l-.283-.1zm2.918-.294c.074.007.14.1.21.157-.064.057-.136.167-.192.16-.077-.01-.142-.11-.213-.171.065-.053.135-.151.195-.146zM599.914 608.6c-.068.47-.251.723-.79.95.248-.512.259-.943.79-.95zm17.654-16.96c.159.553.084.916-.34 1.303-.123-.537-.06-.904.34-1.304zm-24.341-4.352c.478.194.683.488 1.015 1.091-.549-.359-.991-.465-1.015-1.091zm11.596-6.423c-.008-.209.04-.462.325-.392.272.066.402.325.42.595.012.169-.13.272-.307.32-.311-.025-.427-.243-.438-.523zm26.724-5.403c-.54.138-1.002.156-1.652-.135.676-.093 1.154-.345 1.652.135zm-114.287-6.446c.182-.016.291.07.314.243.027.201-.135.284-.28.313-.288.058-.601.148-.809-.185.144-.382.472-.347.775-.371zm25.687 121.075c-.564-.277-.929-.438-1.296-.982.686.114 1.059.276 1.296.982zm53.09-83.402c-.046.002-.146-.166-.14-.249.044-.524.45-.513 1.222-.582-.46.498-.647.823-1.081.831zm56.918 153.795c0-.022 0-.045.002-.067h1.585l-.003.067zm-26.441 2.565c-.68.138-1.364.402-2.23 0zm9.647-190.29c-.69.07-1.25.26-1.8-.396.716-.19 1.257-.285 1.8.395zm-19.115 22.155c-.079.291.022.688-.41.786-.09.021-.234-.01-.292-.074-.325-.357-.16-.695.073-1.02.094-.133.19-.264.307-.425.411.311.38.524.322.733zm-21.892-20.857c-.074.043-.39-.175-.475-.336-.33-.621.251-.648.732-.93-.06.55.19 1.007-.257 1.266zM506.222 731.48c.346-.297.695-.27.94.128.263.422-.089.555-.385.667-.24.091-.498.135-.846.226-.122-.54.045-.81.29-1.02zm-3.254-3.8c.216 1.006.907 1.264 1.128 2.102-1.357-.492-1.357-.492-1.128-2.102zm14.362-160.623c.935-.968 1.872-.805 2.747-.843-.738.486-1.526.816-2.747.843zm24.077 114.816c.737.171 1.195.957 1.505 1.898l-1.505-1.898zm-40.73-101.49c.36-.91.539-1.897 1.273-2.667.172 1.156-.55 1.91-1.273 2.668zm127.597 22.853c-.415-1.362.685-1.959 1.384-2.777zm-12.43-6.819c.48-.018.838.282.79.82-.038.41.002.984-.567 1.015-.446.024-.833-.254-.746-.887.081-.33-.122-.923.524-.948zm-10.77 166.127c1.281-.649 2.51-.324 3.729-.164-1.899.686-2.504.709-3.728.164zm-70.957-192.856l-4.263-1.598c2.104.084 3.096.496 4.263 1.598zm57.792 6.804c-.19-.496.186-.794.495-1.093.117-.113.284-.21.425-.1.312.242.497.585.447.976-.047.366-.128.75-.623 1.052a1.516 1.516 0 0 1-.744-.835zm23.936 22.605c.434.492.025 1.727-.633 1.899-.14.036-.358.003-.46-.088-.432-.384-.083-.813.006-1.206.08-.352.162-.77.703-.818.11.058.286.1.384.213zm-77.728 80.167c-.384-.227-.528-.596-.208-.97.303-.355.582-.055.856.114.662.408 1.254.885 1.767 1.801-.97-.237-1.717-.533-2.415-.945zm93.844-99.692c-.613-.678-.998-1.354-1.349-2.253 1.65.02 1.701.113 1.349 2.253zm25.887 183.776a19.821 19.821 0 0 1 5.587-.28 16.3 16.3 0 0 1-5.587.28zm-123.99-65.359c-.496-.267-.343-.803.112-1.2l3.304 2.656c-1.32-.155-2.342-.877-3.416-1.456zm79.299-90.92c.808.326 1.011.743.78 1.509-.202.664-.623.429-1.03.278-1.023-.379-1.235-.73-.957-1.508.106-.295.276-.447.663-.45.133.041.344.091.544.171zm-19.926-16.932c.102.121.227.2.228.281.013.649.035 1.3-.005 1.946-.085 1.371-.102 1.372-1.934.824 1.76-.584.657-2.316 1.71-3.05zm-92.938-1.151l1.67-3.876c1.147 2.029.16 2.742-1.67 3.876zm96.63 19.761c-.16.541-.707.095-1.02-.231-.276-.289-.59-.548-.094-.91.822-.6 1.712-1.065 2.906-1.636-.475 1.27-1.49 1.755-1.792 2.777zm-57.745 83.64c-1.555-.255-2.548-1.603-4.006-2.069-.322-.103-.083-.477.005-.714.136-.367.403-.32.638-.13 1.165.945 2.498 1.68 3.576 2.775-.124.083-.175.146-.213.139zm55.477-72.825a30.25 30.25 0 0 1-4.402-.795c-.706-.183-.85-.771-.556-1.521 1.719.639 3.387 1.346 4.958 2.316zm-60.085 75.91c-.775-.42-.62-.87-.138-1.545 1.692 1.717 3.73 2.817 5.499 4.244-2.003-.557-3.616-1.754-5.361-2.699zm-.87 5.203c-1.042-.589-1.071-.638-.289-1.849 1.343 1.614 3.257 2.492 4.743 3.921-1.436-.845-3.034-1.272-4.454-2.072zm99.256-117.316c.67.831 1.361 1.536 1.065 2.318-.306.811-.214 2.146-1.904 2.135.272-1.431.025-2.91.84-4.453zm-4.18 15.993c-.133.167-.342.323-.546.123-.097-.096-.172-.326-.125-.443.615-1.555 1.142-3.162 2.47-4.55.572 2.222-.707 3.511-1.799 4.87zm-128.57-13.888c.564-1.592 1.567-3.023 1.707-4.77.01-.128.212-.353.291-.339.2.035.44.135.556.29.31.413.072.865-.077 1.25-.28.722.121 1.791-.515 2.17-1.143.68-1.55 1.769-2.215 3.185-.212-.915.094-1.336.253-1.786zm112.712 26.511c-.88-.027-1.782-.124-2.31-.944-.189-.294.944-1.725 1.28-1.72.676.012 1.795.778 1.806 1.34-.256.377.388 1.36-.776 1.324zm1.59-6.227c-.124.463-.21 1.013-.97.742-.822-.293-1.011-.549-.764-1.304.137-.418.341-.814.459-1.236.106-.388.292-.504.7-.487.944.038.9-.337.32-.888-.16-.15-.306-.334-.184-.578.116-.23.325-.278.554-.224.264.062.556.106.636.434.025.103.004.216.004.438-.232.964-.474 2.039-.756 3.103zm-73.384 90.256c-.272.07-.407.153-.47.115-1.788-1.058-3.546-2.163-5.47-2.975-.918-.388-.722-1.072-.22-1.947 1.993 1.765 4.096 3.176 6.16 4.807zm148.671 65.933c-1.479-.133-3-.34-4.425.025-1.966.505-3.88.11-5.817.126 4.513-.306 9-1.116 13.705-.684-1.187.591-2.319.634-3.463.533zM519.528 568.94c2.354-1.471 8.101-1.071 10.943.653-3.69-.62-7.112-1.092-10.943-.653zM680.47 760.29c-4.915.072-9.813.777-14.75.289.445-.181.902-.23 1.359-.233 2.742-.017 5.474.034 8.212-.367 1.693-.248 3.452-.047 5.182-.047l-.003.358zm-90.194-162.584c-.3.267-.6.702-.274 1.176.3.436.686-.214 1.109.114-1.628 1.953-.397 3.805.391 5.703-.586-.01-.741-.415-1.03-.63-1.593-1.18-2.011-2.572-1.398-4.57.464-1.519 1.185-2.933 1.556-4.706.328 1.188.557 2.1-.354 2.913zm-46.392 94.968c-2.32-1.502-4.823-2.696-7.098-4.279-1.143-.796-1.195-.723-.45-2.265l8.092 6.399c-.348.097-.486.183-.544.145zm77.14-77.066c.312-1.101.453-2.29.972-3.284 1.216-2.332 2.338-4.723 3.82-6.91.147-.22.225-.617.713-.474-.384 1.519-.561 3.038-1.408 4.377-1.34 2.118-2.618 4.276-3.922 6.418l-.175-.127zM548.53 717.3c1.272-1.616 3.356-1.464 4.38.328.282.491.61.96 1.11 1.181.753.333.73.846.515 1.469-.142.413-.271.831-.435 1.235-.118.287-.217.682-.666.51-.356-.138-.383-.455-.373-.817.06-2.124-.919-3.13-3.002-3.146-.652-.005-1.292.25-1.946.092-.098-.415.226-.61.417-.852zm88.907 44.858c7.514-1.355 15.092-.702 22.632-.738-7.54.697-15.094.432-22.632.738zM595.08 614.322c.446.224.446.591.257.976-.254.517-.606.248-.967.12-2.018-.721-3.855-1.854-5.842-2.619-1.326-.51-2.061-1.323-2.423-2.966 3.298 1.271 6.065 3.026 8.975 4.49zm-13.791-17.757c-1.648-.884-2.154-2.401-2.583-4.005 3.477.783 5.401 3.147 6.52 6.361-1.31-.79-2.59-1.633-3.937-2.356zm16.356 21.68c.103.59 1.655 1.445 1.724 1.25.266-.745.66-.64 1.193-.416 1.52.645 3.044 1.277 4.567 1.913.259.109.548.236.495.566-.08.507-.364.935-.802 1.192-.379.222-.738.026-1.05-.241-.419-.359-.83-.725-1.269-1.059-.324-.244-.595-.68-1.128-.271-.365.28-.728-.055-1.068-.197-.915-.381-1.813-.8-2.73-1.175-1.689-.69-1.693-.68-1.244-2.754.657.17 1.166.358 1.312 1.192zm-3.342-2.24c.151.06.304.13.438.222.479.325.634 1.269.29 1.924-.366.694-.853.226-1.257.06-1.41-.583-2.803-1.202-4.204-1.807-.303-.132-.61-.261-.757-.587-.378-.834-.748-1.672-1.122-2.508 2.321.828 4.435 1.832 6.612 2.696zm24.682-52.218a.668.668 0 0 0-.33.318c-.06.152.028.313.21.377.155.055.312.104.466.162 1.41.531 1.41.531 1.024 2.137-.769.198-1.45-.748-2.366-.207.304.465.718.59 1.119.732.31.111.632.198.932.33.547.243.482.703.296 1.119-.192.43-.524.226-.83.09a18.004 18.004 0 0 0-1.525-.622c-.598-.203-.622-.503-.498-1.114.448-2.203.812-4.426 1.121-6.654.102-.738.222-1.442.525-2.336.966 1.93 1.285 3.778 1.364 5.652-.57.353-1.035-.2-1.508.016zm-82.262 121.319c-.4-.258-.283-.661-.247-1.047.112-1.204.486-2.327 1.017-3.555 1.982 1.72 4.094 3.132 5.797 5.055-1.972-.673-3.561-2.156-5.95-2.798 1.44 2.818 4.272 3.694 6.124 6.125-2.675-1.05-4.685-2.456-6.741-3.78zm21.345-114.296c-.16.005-.325-.045-.48-.092-.839-.254-.954-.566-.386-1.257 1.237-1.51 2.988-2.266 4.673-3.338l1.408 5.058c-1.866-.23-3.536-.415-5.215-.37zm97.83 192.746c-1.317 0-2.636.014-3.954-.002-4.615-.056-9.213.315-13.814.601-2.402.15-4.807.338-7.211.359-2.257.02-4.494.292-6.756.287-3.08-.005-6.16.304-9.242.426-1.7.068-3.408-.117-5.096.262-.312.07-.694.011-1.007-.249.372-.354.704-.383 1.032-.396 4.295-.18 8.59-.338 12.885-.54 1.979-.094 3.957-.236 5.928-.43 1.643-.162 3.268-.382 4.917-.017.523.115 1.115.091 1.641-.025 2.198-.486 4.379-.795 6.663-.67 2.896.159 5.806-.094 8.715.08 1.753.106 3.518.02 5.278.02l.022.294zm-50.822-162.413c.192-.397.546-.503.977-.38 1.954.56 3.862 1.254 5.747 2.014.513.205.647.544.4 1.042-.073.147-.12.307-.173.462-.458 1.335-.474 1.368-1.673.756-1.38-.705-2.861-1.12-4.318-1.607-.303-.102-.623-.258-.921.032-.006.555.47.518.804.642 1.543.574 3.132 1.008 4.625 1.736.8.39.677.841.443 1.455-.277.726-.708.468-1.18.246-.596-.28-1.206-.53-1.817-.771-1.622-.64-3.341-1.021-4.956-1.881.443-1.403 1.428-2.477 2.042-3.746zM560.35 558.4c.93.129 1.85.227 2.786.146 1.247-.109 1.722.416 1.306 1.59-.328.927-.796 1.809-1.254 2.684-.199.38-.49.736-.809 1.028-.523.48-.61-.792-1.162-.357-.191.632.748 1.287-.018 1.835-.919.656-1.803 1.401-3.194 1.81.47-3.016.736-5.868.463-8.71.693-.289 1.305-.106 1.882-.026zm-35.326 7.342c-1.776-.475-3.608-.582-5.392-.516-2.202.08-3.973 1.117-4.715 3.44-.403 1.263-.844 1.45-2.259 1.144-.624-.135-.945.153-1.115.684-.302.949-.923.948-1.668.624-.147-.382.049-.696.212-.95.912-1.432 1.845-2.851 2.809-4.248.552-.799 1.349-1.245 2.305-1.467 1.77-.413 3.557-.713 5.365-.838 1.535-.106 7.28 1.856 8.867 3.038-1.652-.335-3.05-.548-4.409-.911zm85.278 48.378c-.621-.392-.76-1.613-.125-1.871.87-.354 1.586.49 2.41.682.318.074.677.146.633.596-.021.216-.121.424-.157.64-.328 2.01-.86 3.97-1.484 5.902-.295.91.058 2.253-.88 2.66-.887.384-2.052.125-3.094.147-.11.002-.22-.004-.328-.017-.853-.103-.937-.238-.648-1.045.056-.156.113-.315.199-.453.367-.585.32-1.486 1.1-1.74 1.323-.432-.583-1.17.228-1.773.424-.316.654-.652 1.216-.425.244.099.566.178.622-.238.04-.298-.225-.334-.431-.374-.575-.11-.948-.35-.659-1.004.239-.539.163-1.469 1.235-1.04.208.082.433.042.656-.236-.059-.348-.325-.304-.493-.41zm-40.138-50.38c.4 1.785 1.162 3.436 1.878 5.098.808 1.877 1.205 3.887 1.923 5.778 1.286 3.384 2.313 6.865 3.843 10.166 1.08 2.33 1.742 4.85 3.194 7.016.147.219.301.467.089.804-.843.04-1.454-.65-2.22-.815-.658-.141-.823-.487-1.007-1.055-.813-2.504-1.463-5.056-2.573-7.47-1.301-2.836-1.643-6.019-2.823-8.882-1.272-3.085-1.909-6.294-2.637-9.502-.133-.59-.261-1.17-.14-1.783.368.094.42.412.473.645zm-21.523 104.857l-8.821-10.779c2.43-1.58 4.874-3.049 7.204-5.17 1.743 5.303 1.53 10.509 1.617 15.949zm60.281-83.828c.701.721.828 1.494.499 2.4-.786 2.165-1.547 4.342-2.631 6.38-.634 1.19-1.351 2.338-2.135 3.683a42.47 42.47 0 0 1-3.39-6.014c-.231-.493-.174-.955.213-1.367 1.218-1.298 1.805-2.999 2.802-4.426.765-1.095.796-2.625 2.154-3.441.818.922 1.616 1.889 2.488 2.785zm-15.45 25.343c-2.816-1.373-5.637-2.74-8.461-4.1-.992-.476-1.65-1.15-1.594-2.403 2.57 1.13 4.76 2.831 7.536 3.94-.212-.753-.577-.888-.907-1.072-2.209-1.235-4.402-2.499-6.627-3.703-.658-.357-1.19-.698-1.126-1.693 1.702.796 3.114 1.9 4.865 2.403.001-.586-.374-.661-.64-.818-1.326-.777-2.64-1.575-3.996-2.297-1.275-.678-1.575-1.8-1.745-3.329 1.332.805 2.405 1.585 3.584 2.135 2.076.969 3.22 2.754 4.29 4.607.432.745 1.019 1.273 1.664 1.792 1.842 1.479 3.66 2.99 5.503 4.465.488.391.708.806.5 1.427-.121.363-.163.754-.269 1.124-.31 1.086-.473 1.193-1.487.69-2.66-1.323-5.3-2.686-7.943-4.044-.91-.468-1.538-1.15-1.614-2.456 3.34 1.347 6.318 3.158 9.766 4.645-.267-.989-.845-1.091-1.3-1.313zm8.846-1.174c2.172.445 4.139 1.458 6.199 2.215.888.326.475.974.342 1.523-.162.665-.637.468-1.044.293-1.262-.54-2.592-.922-3.766-1.667-.802-.508-1.72-.735-2.627-.968-.454-.116-.956-.09-.982.524-.025.597.503.751.93.633.752-.207 1.433-.053 2.08.242 1.403.64 2.744 1.412 4.203 1.93.86.306.589.888.372 1.482-.241.656-.597.812-1.26.522-1.76-.77-3.548-1.474-5.316-2.224-.563-.238-1.317-.566-1.587.033-.27.595.552.959 1.015 1.306.264.198.651.247.925.004.303-.27.62-.246.919-.117 1.364.59 2.715 1.208 4.07 1.815.72.323.531.86.325 1.393-.245.634-.67.394-1.08.211-1.656-.745-3.317-1.479-4.965-2.241-.417-.193-.805-.376-1.238-.102-.208.13-.285.346-.176.567a1.6 1.6 0 0 0 1.12.897c.151.034.355.038.477-.038.582-.364 1.075.013 1.553.205a22.47 22.47 0 0 1 2.534 1.205c.462.256 1.325.22 1.115 1.118-.158.675-.56.691-1.81.283-2.357-.77-4.557-1.891-6.762-3.004-.535-.27-1.207-.459-1.529-.897-.285-.39.224-.873.578-1.221.03-.03.037-.117.017-.16-.579-1.237.444-2.176.464-3.307 1.665.382 1.623.349 2.648-.948.868-1.098 1.368-2.386 1.998-3.601.395-.763.808-1.104 1.641-.865 2.122.609 4.18 1.376 6.155 2.368.595.3.688.736.342 1.196-.342.454-.436 1.368-1.43.914-1.451-.663-3.032-.992-4.464-1.73-.753-.39-1.582-.609-2.445-.3.028.403.248.467.46.51zm-10.803-23.47c.577.508.735.948.365 1.705-.626 1.28-1.13 2.62-1.56 3.992-.774 2.47-.978 5.082-1.928 7.503-.21.537-.28 1.142-.803 1.588-1.057-.897-1.182-2.278-1.976-3.245-.131-.16-.099-.42.068-.608.635-.716.002-1.098-.44-1.452-.507-.408-1.217-.615-1.625-1.093-1.732-2.022-3.087-4.326-3.952-6.818-.577-1.659-1.245-3.274-1.857-4.915-.505-1.354-1.306-2.618-1.478-4.19 1.904.448 3.546 1.013 4.935 2.178.507.423 1.156.896 1.78.775 1.293-.252 2.21.32 3.144 1.021.737.554.935-.035 1.201-.767 1.24 1.789 2.684 3.06 4.126 4.326zm23.043-3.639c1.02.407 2.055.788 3.05 1.253.827.387 1.072 1.273.604 2.033-.439.711-.97.202-1.444.027-.721-.267-1.418-.602-2.14-.866-.272-.099-.623-.28-.868.201.125.246.39.33.633.436.91.396 1.81.81 2.733 1.174.644.253.612.696.427 1.206-.203.56-.613.557-1.072.354-.756-.333-1.52-.65-2.258-1.02-.704-.353-1.403-.659-2.297-.595.226.503.576.655.953.746 1.195.286 2.174 1.06 3.317 1.462.735.258.879.731.606 1.425-.283.725-.788.442-1.228.275-.51-.196-.972-.53-1.49-.698-.51-.164-.99-.666-1.617-.353.066.41.337.499.587.61.904.401 1.802.82 2.717 1.197.777.32.701.866.481 1.493-.248.71-.735.738-1.315.472-.548-.252-1.083-.534-1.627-.795-.397-.19-.793-.386-1.203-.543-.257-.1-.57-.143-.671.217-.075.266.183.38.366.465.85.39 1.736.712 2.555 1.156.49.266 1.482.21 1.107 1.26-.256.716-.553.772-1.774.23-1.208-.535-2.389-1.13-3.587-1.684-.371-.172-.75-.262-.911.29.338.311.775.406 1.173.586 1.255.565 2.492 1.167 3.75 1.723.634.28.562.692.365 1.212-.216.572-.617.567-1.063.39-.562-.224-1.105-.493-1.658-.736-.8-.35-1.569-.813-2.52-.895.084.69.573.784.948.961 1.045.493 2.117.932 3.162 1.425.748.354.816.835.436 1.787-.295.74-.78.655-1.334.415-.856-.37-1.692-.79-2.562-1.127-.98-.381-1.898-1.026-3.08-.775 2.002 1.134 4.22 1.834 6.217 3.059-.731.636-1.4.692-2.181.39a73.01 73.01 0 0 0-4.208-1.47c-.638-.202-.87-.518-.805-1.191.112-1.155.23-2.265.874-3.305 1.635-2.638 2.656-5.544 3.52-8.51.552-1.901.686-3.938 1.57-5.72 1.885-3.802 2.944-7.94 4.862-11.726.55-1.085.473-1.127 1.53-.707.307.122.608.26.908.4 1.19.551 1.189.553.653 1.954-.81-.175-1.578-.432-2.24-.965a.387.387 0 0 0-.578.11c-.146.246.028.426.22.525.54.274 1.096.515 1.642.778 1.152.556 1.29.875 1.02 2.05-.147.643-.434.746-1.06.563-.698-.202-1.358-.663-2.174-.559.105.74.687.732 1.11.912.405.17.853.25 1.235.454.666.353.757.838.423 1.518-.305.617-.699.318-1.104.17-.828-.3-1.658-.596-2.495-.873-.367-.122-.762-.223-.917.427 1.032.361 2.071.71 3.101 1.087 1.22.445 1.256.504 1.06 1.8-.046.308.001.667-.392.987l-2.104-.786c.215 1.073 1.087 1.065 1.64 1.44.502.339.68.774.368 1.247-.26.394-.67.145-1.027-.016-1.287-.578-2.567-1.183-4.317-1.519.468.784.95.904 1.398 1.082zm6.088 24.567c.671-2.5 1.001-5.063 1.385-7.612.565-3.737 1.171-7.476 1.49-11.237.307-3.621 1.433-7.112 1.506-10.753.972-2.121 1.252-4.412 1.675-6.673.407-2.186.597-4.41 1.21-6.755 2.224 2.792 4.99 4.957 7.392 7.637-1.935.84-3.774.715-5.565.866-.835.07-1.369.35-1.881 1.071-.549.775-.111 1.39.05 2 .135.51.186.74-.29 1.054-.665.44-.476.803.245.915 1.027.161 1.63.794 2.096 1.673.412.778.917 1.507 1.385 2.254.422.67.637 1.371.542 2.19-.22 1.91-.4 3.826-.57 5.742-.102 1.172-.482 2.272-.938 3.325-.379.875-.694 1.87-1.846 2.296.772-1.977 1.165-4.041 1.73-6.06 1.089-3.898 1.213-5.005.514-6.033-.159.066-.264.18-.273.355-.184 3.509-1.298 6.79-2.413 10.08-.411 1.214-1.152 2.409-.627 3.812.15.402-.26.698-.452 1.02-1.157 1.934-2.27 3.899-3.508 5.78-.869 1.319-1.549 2.772-2.865 4.218 0-.623-.06-.912.008-1.165zm-98.225-26.882c1.244.182 2.122.824 2.802 1.822.858 1.259.973 2.95 2.286 3.95.064.048.057.208.058.317.026 2.742-.022 5.457-2.802 7.094-.185.109-.358.26-.495.427-1.03 1.264-2.365 1.95-3.879 2.584-2.762 1.156-8.412-.761-9.677-3.997-.97-2.48-1.433-4.966-.988-7.499.405-2.309 1.773-4.767 5-4.8 1.26-.013 2.518-.196 3.678-.294 1.42-.008 2.715.204 4.017.396zm95.41-18.896c-.74 4.245-1.525 8.436-3.505 12.33-.692 1.363-.999 2.915-1.582 4.339-.872 2.132-2.101 4.121-2.546 6.426-.038.194-.146.422-.555.4-.404-.374-.944-.765-1.35-1.265-3.224-3.969-6.07-8.204-8.753-12.554-.351-.57-.391-.792.455-1.091 3.282-1.16 5.984-3.032 6.803-6.724.258-1.164.929-1.951 1.94-2.524.957-.543 1.78-1.266 2.64-1.951 1.54-1.228 2.982-2.564 4.427-3.922 1.825 1.912 2.473 3.961 2.025 6.536zm8.8 41.621c-1.557 2.209-2.936 4.523-4.23 6.897-1.628 2.992-2.996 6.126-4.85 8.995-.248.384-.363.807-.433 1.238-.096.593 0 1.143.718 1.255.77.12.793.597.713 1.21-.086.67-.446.964-1.098.97-.88.009-1.76.04-2.64.043-3.068.013-3.112-.021-2.164-2.99 1.37-4.298 1.87-8.754 2.556-13.183.316-2.04.83-4.053 1.433-6.038.2-.665.851-.829 1.138-1.28.343-.54-.528-1.038-.42-1.678.733-1.155.624-2.41.75-3.484.157-1.323 1.422-2.474.64-3.948-.136-.257.17-.612.492-.778.294-.152.331-.156.181-.62-.534-1.662-.139-3.36.528-4.933.143-.337.487-.517.2-.932-.2-.292-.237-.61-.025-.932.518-.127.946.227 1.43.276.236.023.447-.091.502-.335.102-.452-.462-.863-.982-.669-.323.12-.574.06-.716-.178-.356-.597-.312-1.242-.182-1.914.137-.71.68-.58 1.136-.687.153-.036.3-.14.282-.348-.071-.726-1.008-1.05-.879-1.885.53-.391 1.063-.076 1.579.016.423.076.866.11.894-.393.027-.512-.483-.261-.759-.307-1.573-.262-1.751-.625-1.248-2.093.276-.805.819-.267 1.222-.39.287-.088.555-.188.453-.536-.07-.237-.234-.657-.5-.508-.503.28-.88.293-.979-.294-.081-.492-.224-1.152.644-1.237.461-.045.584-.426.279-.681-.892-.746-.619-1.645-.388-2.504.49-1.823.581-3.69.72-5.553.065-.875-.227-1.634-.993-2.495-.07 1.488.62 2.773-.213 4.158-.089-.43-.148-.64-.174-.855-.344-2.88-.946-5.65-3.19-7.752-.341-.32-.65-.7-.519-1.267 1.233.376 2.906 1.363 3.517 2.18 1.487 1.994 3.201 3.777 4.935 5.547.33.338.761.658.698 1.245-.1.93.081 1.851-.014 2.796-.305 3.018-.98 5.965-1.662 8.902-1.209 5.214-1.917 10.495-2.467 15.808a120.416 120.416 0 0 1-1.044 7.68c-.552 3.258-1.243 6.49-1.832 9.741-.145.808.166 1.867-.25 2.422-.846 1.128-.86 2.482-1.415 3.633a226.603 226.603 0 0 0-3.446 7.504c-.13.299-.425.619-.078.873.334.244.632-.086.816-.331.26-.347.462-.744.647-1.14.398-.845.762-1.706 1.151-2.556 1.008-2.192 2.313-4.24 3.128-6.526.56-1.566 1.34-3.082 2.338-4.347 1.445-1.83 2.598-3.81 3.759-5.802.177-.304.372-.538.818-.598.248.76-.196 1.147-.507 1.588zm-46.85 7.659c.994 1.959 2.162 3.832 2.622 6.04.324 1.559.77 3.108 1.683 4.456.208.308.467.76.9.516.538-.302.065-.646-.109-.947-.836-1.443-1.508-2.936-1.65-4.632-.063-.774-.391-1.477-.743-2.175-.816-1.624-1.741-3.194-2.526-4.822-1.035-2.149-2.211-4.194-3.646-6.075-1.821-2.39-3.118-5.034-4.12-7.838-1.96-5.487-3.95-10.963-6.21-16.336-.575-1.368-.863-2.821-1.25-4.246-.196-.727.493-1.099.505-1.638.016-.685-1.12-.407-1.222-1.138-.228-1.427-.807-2.572-1.173-3.783-.319-1.057-.38-2.017.428-2.931.504-.572.88-1.259 1.142-2 .117-.331.277-.742.848-.638.138.333.326.676.428 1.043.719 2.602 1.43 5.205 1.97 7.853.364 1.778.755 3.55 1.213 5.311.724 2.788 2.011 5.352 2.99 8.037.927 2.544 1.687 5.14 2.102 7.802.47 3.014 1.315 5.904 2.327 8.761.128.362.297.714.49 1.045.159.275.359.579.752.273-.007-.113.02-.237-.025-.322-1.621-3.058-2.26-6.405-2.924-9.754-.49-2.473-.935-4.964-1.957-7.302-.414-.949-.991-1.878-1.249-2.827-.706-2.604-1.831-5.075-2.355-7.728-.82-4.156-1.674-8.305-2.964-12.348-.305-.955-.579-1.936-.248-2.908.484-1.424 1.08-2.81 1.628-4.21.128 1.558.596 2.97.803 4.417.623 4.353.949 8.77 2.566 12.926.459 1.18.985 2.344 1.321 3.558a167.057 167.057 0 0 0 3.545 11.172c1.286 3.63 2.42 7.31 3.981 10.84.132.297.395.75.283.907-.624.876-.08 1.277.556 1.7.344.23.36.674.567.986 1.16 1.751 1.097 4.066 2.615 5.648-.257 1.718 1.206 2.518 1.636 3.765.071.208.182.392.093.645-.373.43-.929-.414-1.298.148.215.482.742.432 1.118.62 1.282.638 1.54 1.93 2.065 3.058-.66.941-.09 1.359.686 1.787.391.215.395.755.53 1.173.424 1.31.874 2.61 1.33 3.908.09.256.244.54.593.387.291-.13.35-.414.255-.698-.087-.259-.267-.49-.33-.751-.21-.882.055-1.172.912-.96.855.21 1.689.5 2.538.73.716.195 1.369.4 1.503 1.302.07.473.525.71.814.289.48-.704.793-.274 1.176.015.388.294.988.494 1.043-.084.09-.945.494-.782 1.045-.538.583.258 1.229.418 1.67.89-.13.357-.402.321-.577.311-2.59-.16-5.154.238-7.73.337-3.14.121-6.253-.43-9.385-.569-.72-.031-1.048-.368-1.312-1-.474-1.13-.637-2.336-.957-3.5-.74-2.69-1.557-5.37-1.824-8.441.29.268.446.352.513.483zm-29.754 110.678c.006-.764-.398-1.029-1.057-.804-1.805.615-3.71.193-5.544.59-.913.2-1.748.67-2.709.677-2.975.019-5.833.99-8.802 1.094-.592.02-1.175.265-1.77.32-.521.046-1.149.196-1.394-.528-.213-.627.189-1.474.897-1.738 1.043-.389 2.118-.638 3.223-.213.67.257 1.336.518 2.005.771 1.117.424 1.133.416 1.498-.685.544-1.64 1.106-1.977 2.502-1.113 1.18.729 1.88.457 2.799-.427 1.388-1.336 2.906-1.39 4.345-.391.36.25.697.547.992.87.346.38.652.528 1.125.182.723-.529 1.581-.456 2.392-.335 1.185.178 1.73.885 1.56 2.063-.078.544.018.91.322 1.358 1.17 1.724 1.647 3.694 1.627 5.74-.016 1.658.092 3.296.2 4.945.17 2.574.38 5.17-.253 7.722-.16.646-.25 1.293-.287 1.957-.075 1.314-.355 1.552-1.476 1.007-1.982-.965-4.107-1.567-6.093-2.514-3.535-1.685-7.265-2.87-10.99-4.016-3.828-1.179-7.66-2.329-11.388-3.797-1.119-.44-2.013-1.171-2.276-2.415-.228-1.075-.449-2.162-.525-3.253-.123-1.752.447-2.756 1.934-3.103 1.498-.35 2.96-.94 4.466-1.1 2.017-.211 4.047-.427 6.064-.55 2.874-.174 5.649-.88 8.48-1.243 2.064-.264 4.105-.712 6.205-.794.76-.03 1.388.046 2.069.501-.05-.26-.144-.52-.141-.778zM575.43 627c3.985 1.456 8.033 2.694 12.173 3.632 2.2.499 4.42.94 6.578 1.582 4.971 1.48 9.68 3.631 14.381 5.797 1.31.604 2.197 1.436 2.32 2.934.042.493.17.982.176 1.473.061 5.942.806 11.858.592 17.813-.14 3.852.469 7.68.472 11.547.004 5.553.177 11.118.547 16.67.18 2.692.154 5.397.75 8.051.545 2.432.289 4.942.703 7.392.497 2.94.504 5.926.668 8.892.18 3.244.148 6.502.158 9.755.005 1.43-.087 2.862-.19 4.29-.064.872-.36 1.053-1.196.709-.913-.377-1.784-.855-2.675-1.286-.29-.14-.592-.397-.906-.117-.38.336.465.607.005 1.06-.57-.163-1.196-.348-1.827-.52-2.035-.55-3.816-1.651-5.7-2.546-2.671-1.268-5.323-2.603-8.127-3.6-2.319-.825-4.459-2.058-6.636-3.2-.777-.407-1.569-.813-2.395-1.096-2.653-.905-5.284-1.86-7.852-2.987-.485-.212-.818-.505-.89-1.078-.187-1.473-.37-2.953-1.007-4.324-.15-.325-.033-.65.038-.97.431-1.946.38-3.94.568-5.91.346-3.623.353-7.25.153-10.88-.168-3.021-.63-6.013-.884-9.023-.176-2.096-.596-4.142-.913-6.21-.039-.256-.077-.554-.637-.726 1.252 10.074 2.545 20.063 1.091 30.45-.543-1.42-.406-2.62-.492-3.789-.338-4.602-.933-9.198-.583-13.825.225-2.965-.64-5.84-.596-8.795.026-1.7-.254-3.403-.367-5.107-.226-3.4-.171-6.816-.588-10.209-.084-.674-.333-1.373-.132-2.12.64.08 1.051.467 1.497.76 1.06.695 2.095 1.426 3.147 2.132.347.233.71.497 1.257.02-1.51-1.21-2.821-2.536-4.603-3.229-1.23-.478-1.925-1.256-1.912-2.715.018-2.032-.167-4.068-.289-6.1-.104-1.757-.512-3.546-.3-5.26.303-2.454-.155-4.83-.173-7.237-.008-1.27-.894-2.684.307-3.886.069-.07.037-.365-.05-.449-1.068-1.026-.816-2.454-1.133-3.701-.471-1.861-.148-3.728.157-5.576.115-.701.351-1.392 1.096-1.749.492-.236.845-.19 1.046.357.076.207.214.424.198.627-.096 1.304.911 2.282 1.021 3.528.019.216.218.537.67.247-.063-.579-.482-1.162-.29-1.842.586-.148 1.09.167 1.574.344zm16.624 111.73c1.071 2.588 2.157 5.17 3.209 7.765.781 1.926 1.47 3.883 1.822 5.996-.913-.113-1.134-.81-1.49-1.333-.59-.867-1.151-1.744-2.154-2.2.951 1.738 1.844 3.63 3.36 4.836 1.23.98 1.633 2.124 1.915 3.434.373 1.742.615 3.513.93 5.36-.85-.054-1.532-.223-2.227-.372-3.993-.855-7.7-2.608-11.636-3.655-3.742-.995-7.1-2.967-10.651-4.452a16.354 16.354 0 0 1-1.346-.63c-.16-.085-.484-.176-.277-.464.78-1.077-.126-2.012-.306-2.97-.404-2.145-.803-4.317-1.9-6.267a2.98 2.98 0 0 1-.356-1.09c-.133-1.16-.63-2.208-.942-3.31-.025-.809-.093-1.535-.577-2.214-1.336-1.876-2.272-3.97-3.115-6.102-.627-1.59-1.718-2.923-2.41-4.475-.053-.119-.26-.17-.403-.256-.356.57.068.963.273 1.382 2.571 5.236 5.236 10.428 7.015 16.012.71 2.23 1.507 4.435 1.71 7.04-1.168-1.251-2.123-2.37-2.856-3.662-.517-.91-1.008-1.835-1.502-2.758-.468-.874-.966-1.736-1.374-2.637-.379-.836-.96-1.373-1.717-1.903-.564-.394-.788-1.325-.566-2.13.135-.487.01-.858-.268-1.226-.304-.402-.43-.882-.613-1.342-.407-1.023-.883-2.018-1.355-3.014-.09-.193-.29-.35-.542-.28-.388.105-.305.396-.209.654.135.36.297.71.452 1.063.953 2.17 1.83 4.361 2.46 6.655.717 2.605 1.495 5.188 1.505 7.924.001.276.047.6.417.569.403-.034.281-.384.279-.638-.009-1.103-.163-2.184-.389-3.266-.232-1.11-.614-2.218-.418-3.41 1.177 1.866 2.144 3.812 3.256 5.672 1.134 1.898 2.24 3.815 3.493 5.675-1.794-.643-3.496-1.398-5.22-2.098-3.363-1.368-6.671-2.851-9.833-4.647-.55-.313-.877-.749-1.12-1.354-.847-2.094-.914-4.32-.927-6.49-.027-4.617-.07-9.231-.522-13.826-.147-1.5.235-2.824.682-4.185.17-.514.508-.665 1.009-.626.441.035.866.098 1.293.238 3.762 1.24 7.518 2.505 11.3 3.682 3.784 1.178 7.43 2.755 11.25 3.816.312.086.74.147.838.47.366 1.205 1.486 2.009 1.775 3.498-.655-.613-.948-1.372-1.842-1.61.118 1.07.755 1.775 1.271 2.51 1.437 2.053 2.413 4.292 3.095 6.703.268.95.24 2.051 1.034 2.822.085-.224-.218-.594.106-.781.366.026.319.584.736.505-.099-1.033-.825-1.902-.371-2.923-.838-.398-.736-1.355-1.179-2-1.687-2.455-2.1-5.416-3.3-8.257.844.021 1.4.408 2.01.57 1.218.324 1.924 1.103 2.393 2.278 1 2.505 1.982 5.003 2.573 7.651.182.815.192 1.767.924 2.4-.392-2.77-1.149-5.447-2.039-8.09-.337-1.002-.676-2.003-.995-2.946 2.77-.21 3.822 1.533 4.502 3.65.506 1.572 1.258 3.058 1.62 4.68.047.204.067.545.618.48-.542-2.61-1.594-5.032-2.457-7.808.788.506 1.527.365 1.865 1.124.512 1.153 1.21 2.21 1.638 3.421.454 1.285.814 2.63 1.624 3.774-.517-2.436-1.545-4.7-2.473-7.246 1.924.75 3.68 1.18 5.315 1.962 1.059.505 1.824 1.29 2.023 2.437.553 3.188 1.056 6.388 1.361 9.612.034.363.238.803-.197 1.38-.48-3.306-1.315-6.318-1.517-9.449-.061-.944-.202-1.962-.95-2.699.103 1.164.47 2.284.501 3.412.059 2.116.497 4.176.978 6.19.95 3.99 1.466 8.004 1.467 12.093 0 1.055-.058 2.11-.09 3.164l-.339.014c-.468-1.413-.693-2.912-1.493-4.23l1.39 7.483c-.462.154-.689-.236-.998-.229-.941.023-1.305-.42-1.467-1.349-.13-.743-.213-1.538-.504-2.232-.936-2.237-1.352-4.613-1.9-6.948-.425-1.819-1.23-3.53-1.459-5.401-.1-.823-.215-1.653-1.238-1.931-.316-.086-.526-.44-.547-.777-.098-1.645-1.123-2.958-1.633-4.456-.305-.897-.319-2.1-1.384-2.657-.018.426.138.838.306 1.246zm-28.89-152.715c-1.303-1.255-2.68-2.513-3.975-3.849-.724-.746-1.349-1.592-1.713-2.603-.233-.647-.208-1.14.401-1.585 1.208-.884 2.204-1.99 3.147-3.147.463-.568 1.092-.933 1.74-1.23.89-.407 1.235-.272 1.424.675.64 3.221 2.133 6.13 3.308 9.15a224.782 224.782 0 0 1 4.33 12.107c-2.044-1.917-3.995-3.896-5.907-5.913-.856-.902-1.57-1.895-1.922-3.144-.162-.577-.236-1.36-1.063-1.54.106.37.178.782.23 1.079zm27.034-5.925c-.44.79-.21 1.079.64 1.13.845.05 1.679.805 1.464 1.597-.182.673.152 1.014.36 1.49.155.359.632.599.463 1.211-1.952-1.187-2.99-3.071-4.314-4.694-.253-.31.233-.78-.291-1-1.174-.497-1.063-1.364-.638-2.31-.238-.125-.59-.245-.538-.536.295-1.624.286-3.407 2.054-4.336-.36-.204-.72-.52-.344-.893.808-.802 1.588-1.614 2.79-1.941 1.977-.537 3.947.08 5.91-.141.227-.026.432.094.56.29.47.713.917 1.44 1.223 2.234-.523.268-.663-.092-.903-.299-.815-.698-1.818-1.035-2.84-1.187-.9-.134-1.262.722-1.764 1.28-.34.376-.71.538-1.088.032-.244-.326-.526-.634-.947-.314-.318.24-.264.636-.041.888.556.627.188 1.052-.18 1.58-.453.645-1.065 1.11-1.6 1.66-.559.747-1.127 1.487-1.673 2.244-.263.365-.53.81-.033 1.151.43.295.849.112 1.098-.341.146-.266.325-.429.639-.406.817-.694.817-.694 1.372.077l-1.424-.141c.275.55.403 1.038.045 1.675zm-81.647 4.602c.033.01.072.093.063.13-.18.738-.864.398-1.296.603-.913 1.583-2.246 2.576-4.06 2.894 1.329-1.01 2.552-2.17 4.11-2.855.412-.233.481-.99 1.183-.772zm29.116 89.462c.165-.14.47-.49.502.044.036.586.282.88.819 1.021.187.05.179.25.136.406-.046.162-.244.355-.33.266-.591-.61-1.677-.704-1.85-1.75-.58-.083-.9-.358-.684-.982.246-.702.515-1.396.84-2.27.268 1.267-.363 2.247-.195 3.287.253.009.502.198.762-.022zm-38.145-90.07c-.007.905-.251 1.515-.661 2.08.105.724-.372 1.483.151 2.19.1.137-.068.293-.236.322-.096.016-.24.006-.298-.054-.497-.506-.259-1.866.413-2.433-.119-.71-.117-1.389.631-2.105zm95.553 15.61c.584-.41.027-1.236.672-1.825.16.819.942 1.344.364 2.166-.334.888-.912 1.621-1.47 2.372-.357.482-.753.944-.935 1.54-.107.347-.134.666.216.863.339.193.676.106.818-.256.54-1.378 1.71-1.87 3.006-2.2.131.158.035.317-.055.431-1.05 1.338-2.467 2.329-3.48 3.715-.274.375-.876.073-.803-.335.111-.628-.02-.91-.599-1.102-.37-.123-.27-.434-.105-.674.214-.31.502-.577.517-1.015-.437.139-.74.746-1.399.271.838-.993-.276-1.593-.83-2.702 1.2.707 1.898.499 2.362-.382.235-.447.48-.652 1.035-.396.427.197.737-.052.71-.574zm-51.919 104.653c.107-.005.232-.048.318-.009.558.262 1 .08 1.242-.426.266-.558-.318-.741-.605-1.025a2.673 2.673 0 0 0-.805-.563c-2.353-.995-4.24-2.708-6.332-4.103-.276-.184-.685-.297-.605-1.038 2.038 1.539 4.297 2.286 6.296 3.53.464.287.956.536 1.456.757.318.14.674.1.886-.214.217-.322.059-.638-.157-.903-.35-.432-.806-.722-1.28-1.017-1.197-.746-2.471-1.404-3.413-2.508.55.147 1.018.42 1.507.65 1.243.585 2.37 1.4 3.682 1.845.411.139.889.36 1.189-.132.303-.496-.072-.819-.443-1.086a46.98 46.98 0 0 0-1.488-1.037c-.896-.592-1.86-1.091-2.7-1.875.676-.322 1.009.194 1.398.414.528.299 1.038.62 1.616.816.42.14.888.34 1.136-.223.19-.433-.113-.723-.455-.944-.783-.508-1.544-1.059-2.366-1.497-.575-.307-1-.699-1.542-1.374.416.102.61.09.705.18 1.238 1.177 2.933 1.448 4.37 2.226.317.172.66.16.873-.18.189-.302.186-.628-.064-.915-.328-.378-.737-.647-1.155-.921-1.228-.806-1.879-1.462-2.353-2.268.7.01 1.245.423 1.852.65.393.147.808.22.96-.271.145-.475-.022-.855-.612-.88-.58-1.325-1.894-1.853-2.914-2.703-.196-.163-.706-.154-.45-.682.758.384 1.507.713 2.205 1.128.835.498 1.5 1.135 1.157 2.259.104-.033.206-.082.313-.098 1.154-.169 1.321-.432.803-1.367-.212-.384-.508-.72-.767-1.078-.9-1.242-1.805-2.483-2.409-3.842.156-.283.322-.18.466-.124.245.094.519.335.731.05.23-.307.076-.654-.17-.892-.274-.266-.607-.471-.91-.708-1.555-1.217-3.221-2.327-4.084-4.215-.146-.32-.567-.582-.147-1.005 1.306-1.315 1.662-3.074 2.161-4.756.629-2.113 1.642-4.066 2.468-6.097.021-.053.192-.045.319-.07 1.626 1.736 2.999 3.637 3.678 5.974.108.368.301.78.784.68.453-.095.244-.519.286-.82.236-1.658-.28-3.273-.248-4.929.071-3.691-.048-7.384-.726-11.03-.19-1.027-.537-2.025-.732-3.052-.15-.792.227-1.13.905-.795 2.282 1.122 4.84 1.477 7.111 2.636.927.473 1.974.677 2.981.965 3.7 1.06 7.394 2.138 10.858 3.875.76.38 1.211.84 1.311 1.715.25 2.189.544 4.375.593 6.578.09 3.97.422 7.924.71 11.882.182 2.524.638 5.04.429 7.575-.165 1.99-.105 3.97.033 5.945.396 5.718.87 11.43 1.317 17.145.035.444-.009.87-.13 1.305-.255.924-.231.949.827.871.262-.02.428-.023.465.263.027.21.102.452-.118.6-.132.09-.3.147-.458.167-1.91.25-3.688 1.055-5.651 1.179-1.183.076-2.411.186-3.59.483-3.286.83-6.567 1.666-9.76 2.81-1.333.478-1.336.472-2.21-.724-1.594-2.18-4.029-2.379-5.89-.481-.231.235-.456.479-.697.705-.224.21-.501.275-.739.058-.762-.697-1.846-.532-2.755-1.014 1.36-2.125.567-3.92-.8-5.603-.707-.868-1.658-1.478-2.622-1.986-.865-.457-1.257-1.101-1.533-2.082.941.187 1.768.042 2.567.304.21.069.448-.06.553-.267.107-.211.036-.433-.142-.594-.496-.447-1.05-.81-1.684-1.025-.667-.227-1.19-.563-1.182-1.369-.381.137-.776.42-1.191-.221.468-.001.807.374 1.188.221 1.14 1.017 2.625 1.388 3.943 2.07.627.324 1.028-.1.84-.813-.065-.248-.244-.465-.37-.698-.892-.23-1.69-.626-2.324-1.314-.495-.15-.955-.351-1.238-.817.44.23 1.016.271 1.2.858 1.075-.093 1.794.445 2.328 1.31zm125.89-78.688c-1.91-.682-3.768-1.517-5.777-1.912a4.544 4.544 0 0 1-1.51-.6c-1.114-.701-2.321-.634-3.522-.49-.832.1-1.648.033-2.468-.01-1.36-.07-1.468-.167-1.591-1.548-.2-2.245-.645-4.477-.449-6.748.043-.495-.348-.944-.129-1.445 2.257 1.965 4.657 3.462 6.685 5.417 2.343 2.257 5.152 3.875 8.249 5.131.04-.68-.366-.912-.805-1.151a48.33 48.33 0 0 1-5.834-3.742c-.671-.503-1.218-1.114-1.833-1.663-2.088-1.869-4.15-3.768-6.27-5.602-.392-.34-.496-.683-.534-1.125-.1-1.152-.24-2.303-.29-3.457-.037-.876-.054-1.75-.247-2.814 1.1.875 1.626 1.978 2.13 2.99 1.935 3.904 4.98 6.835 8.176 9.635 1.854 1.624 3.693 3.256 5.443 5.309.182-1.047-.475-1.39-.896-1.8a358.983 358.983 0 0 0-5.854-5.556c-2.639-2.444-4.712-5.299-6.384-8.473-.46-.874-1.03-1.698-1.626-2.49-1-1.33-1.521-2.856-1.537-4.46-.02-1.93-.146-3.845-.25-5.82.9 1.209 1.83 2.41 2.56 3.69 1.787 3.14 4.132 5.846 6.381 8.623 2.92 3.602 5.53 7.419 8.151 11.234.529.77.933 1.704 1.866 2.138.324-.379.127-.64-.035-.82-1.438-1.603-2.401-3.533-3.65-5.26-2.224-3.068-4.42-6.16-6.866-9.063-1.378-1.638-2.61-3.383-3.736-5.201-1.435-2.32-2.69-4.756-4.447-6.867-.343-.412-.384-.915-.405-1.404-.144-3.352-.443-6.69-.851-10.018 1.453-.724.703-1.348.318-1.673-.687-.578-.465-1.447-.842-2.101-1.08-.384-1.136-.062-1.056.305.95 4.388 1.341 8.839 1.402 13.316.061 4.58.568 9.115 1.044 13.663.435 4.16.715 8.34.826 12.525.032 1.16.166 2.306.37 3.45.106.592.09 1.207.123 1.812.034.65-.18 1.027-.928 1.025-1.594-.004-3.188.027-4.78.09a88.683 88.683 0 0 0-4.447.273c-1.707.154-3.395.167-5.107-.038-1.36-.163-2.751-.06-4.128-.054-2.695.011-5.393-.118-8.079.21-1.662.203-3.295-.183-4.944-.244-.489-.018-.605-.235-.488-.764.547-2.49 2.014-4.579 2.928-6.906.256-.65.664-1.239 1.262-1.787-.229 1.178-.441 2.36-.691 3.532-.254 1.186-.56 2.359-.817 3.543-.113.523-.317 1.083.272 1.602.849-.974.793-2.238 1.09-3.348.807-3.035 1.435-6.117 2.25-9.149.413-1.539 1.487-2.793 2.197-4.211.455-.906.97-1.782 1.685-2.595-.07.963-.155 1.925-.205 2.888-.22 4.304-.984 8.534-1.714 12.767-.056.326-.203.651-.184.969.025.43-.398 1.168.34 1.207.59.03.573-.74.588-1.192.068-2.251.79-4.393 1.022-6.623.377-3.595 1.052-7.166 1.165-10.782.045-1.446.478-2.677 1.103-3.901.55-1.08 1.091-2.167 1.698-3.213.303-.524.322-.955-.163-1.294-.51-.355-.77.14-1.097.413-.283.236-.334.721-.941.763-.25-2.118-.167-4.054 1.663-5.593 1.602-1.347 1.987-4.067.609-5.647-1.504-1.727-1.23-3.661-1.127-5.59.033-.646.75-1.108 1.438-1.335.758-.057 1.377-.05 1.35-.595-.035-.679-.713-.532-1.181-.541-.476-.01-.954.067-1.66-.159.79 0 1.34.035 1.882-.01.594-.048 1.569.108 1.68-.348.175-.713.643-1.25.831-1.959.405-1.529-.323-2.184-1.377-3.052-2.577-2.123-5.113-4.327-6.867-7.25-2.803-1.907-4.192-4.549-6.398-6.366 3.826 3.09 7.515 5.502 11.308 7.74 2.37 1.4 4.927 2.44 7.695 2.874.936.146 1.874.264 2.794.133 1.177-.167 2.047.327 2.81 1.072 1.18 1.152 2.357 2.312 3.303 3.68 1.43 2.068 2.874 4.126 4.551 6.531-2.05-1.02-1.645 1.081-2.855 1.297.808.356 1.274-.04 1.656-.199 1.273-.532 2.022-.052 2.707.957 1.389 2.047 2.877 4.03 4.22 6.106 2.632 4.066 4.938 8.329 7.427 12.48.877 1.464 1.902 2.84 2.882 4.24 1.368 1.956 2.309 4.127 3.204 6.318.482 1.18 1.102 2.282 1.721 3.389.433.676.696.768.97.624.302-.16.284-.438.149-.708-.716-1.429-1.488-2.825-2.083-4.316-1.353-3.392-3.365-6.4-5.467-9.367-.945-1.336-1.407-2.996-2.495-4.26-.98-1.138-1.57-2.488-2.23-3.804-1.714-3.411-4.046-6.416-6.24-9.512-.665-.939-1.32-1.885-1.96-2.841-.24-.358-.532-.73-.259-1.212-1.74-.431-1.514-2.156-2.399-2.9-.879-.737-1.432-1.796-2.013-2.8-.604-1.046-1.24-2.076-2.343-2.695.173-.422-.525-.61-.375-1.104.705.302.546.713.35 1.13.447-.284.933-.028 1.453-.098.264-.484-.746-.69-.301-1.195-.67-.22-1.219-1.057-2.183-.45-.293.184-.659-.301-.977-.509-1.135-.74-2.336-1.21-3.734-1.01-1.055.15-2.077-.06-3.102-.324-3.39-.876-6.526-2.254-9.392-4.302-2.775-1.982-5.616-3.874-8.282-6.007-.472-.378-.962-.727-1.329-1.23-1 .292-1.272.117-1.453.002-.923-.59-1.85-1.177-2.82-1.794 3.707-3.427 4.371-7.353 4.629-11.43.048-.761-.177-1.528-.032-2.302-.962.43-1.044.996-.965 1.53.33 2.21-.37 4.232-.991 6.29-.764 2.529-2.44 4.4-4.277 6.159-2.542 2.433-5.096 4.864-8.134 6.69-1.232.74-1.905 1.804-2.18 3.155-.4 1.966-1.53 3.383-3.217 4.39-.755.45-1.389 1.085-2.226 1.41-.562.22-1.093.585-1.689.095-1.241.695-2.089.534-2.899.431-1.57-.2-3.196.07-4.697-.72-1.317-.694-2.699-1.301-3.821-2.273-2.171-1.878-4.636-3.39-6.755-5.298-1.828-1.649-4.063-2.59-5.989-4.043-1.475-1.113-2.74-2.31-3.53-4.03-.664-1.443-1.544-2.785-2.333-4.17-.774.664-.708.89-.577 1.058 1.163 1.493 1.852 3.247 2.734 4.896.554 1.035 1.467 1.848 2.357 2.511 1.129.842 2.199 1.858 3.58 2.321 1.205.403 1.966 1.39 2.928 2.112 2.597 1.948 5.238 3.84 7.724 5.935.92.776 2.177 1.05 3.188 2.023-.601.27-.648 1.658-1.703.5-.525 2.562-2.27 4.099-3.08 6.057-.568 1.372-.933 2.598.307 3.775.26.245.363.595.091.88-3.731-1.62-6.732-3.12-9.73-4.623-.919-.461-1.558-1.111-1.873-2.16-1.47-4.898-3.47-9.614-4.987-14.499-.514-1.652-.768-3.323-.912-5.028.21-1.762.215-1.761-.892-2.561-.247 1.694-1.504 2.886-1.936 4.485-.31 1.15-1.514 1.306-2.42 1.744-.331.16-.759.194-1.136.176-2.595-.124-5.16-.4-7.337-2.02-.747-.557-1.552-1.02-2.244-1.677-.875-.833-1.484-.718-2.374.138-.318.306-.63.62-.979.89-1.098.845-1.734 1.956-2.046 3.296-.86 3.698-1.748 7.39-2.618 11.085-.123.52-.364 1.084.398 1.505.734-1.259.838-2.694 1.16-4.041.639-2.672 1.155-5.37 1.804-8.043.454-1.868 1.69-3.017 3.06-4.143.44-.361.833-.213 1.2.052.712.514 1.402 1.063 2.094 1.607.739.581 1.475 1.166 2.436 1.337.624.11.926.433.974 1.108.155 2.148.213 4.285-.275 6.405-.098.428-.206.873-.188 1.304.035.883-.275 1.55-.85 2.233-1.186 1.406-.76 2.496 1.06 2.756 1.195.17 2.416.157 3.623.254.59.048 1.228-.013 1.817.621-2.785.947-3.855 3.842-6.26 5.209-.66.374-.584 1.027-.38 1.621.377 1.104.895 2.148 1.739 2.971 3.552 3.464 6.476 7.512 10.103 10.898 3.181 2.97 5.222 6.79 7.828 10.186 1.449 1.889 1.935 3.951 2.362 6.198.727 3.835 1.746 7.616 2.666 11.414.338 1.393.37 1.316-1.151 1.308a99.819 99.819 0 0 0-6.262.172c-.863.05-1.261-.203-1.527-1.046-1.442-4.557-2.505-9.202-3.472-13.879-.769-3.716-1.163-7.492-1.923-11.207-.163-.795-.37-1.575-1.036-2.187.298 1.55.646 3.09.884 4.649 1.154 7.578 2.834 15.04 4.917 22.413.328 1.158.308 1.161-.834 1.775-.761.409-1.395.925-1.375 1.89.016.682-.434 1.257-.304 2.049-.682-.23-.547-1.062-1.132-1.194 1.071 3.531 1.28 7.07 1.773 10.55.356 2.504.516 5.04.677 7.568.057.911.002 1.887-.827 2.559.348.312.463.734.547 1.17.686 3.582.494 7.213.713 10.791-.505.202-.859.013-1.198-.14-3.62-1.638-7.406-2.75-11.236-3.773-1.737-.463-3.36-1.344-5.053-1.989-1.028-.392-2.092-.689-3.137-1.04-.626-.21-.782-.601-.31-1.102.704-.75 1.442-1.469 2.105-2.14.824.224.295 1.154 1.051 1.355.324-.29.224-.724.091-1.006-.661-1.408.433-2.058 1.16-3.241.843 2.332.544 4.49.946 6.55.602-.15.426-.547.423-.823-.021-1.935-.246-3.854-.594-5.753-.126-.692-.035-1.234.279-1.877.576-1.179.961-2.452 1.44-3.68.895-2.296 2.472-4.266 3.016-7.029 1.081 1.555 1.129 3.022 1.409 4.379.993 4.802 2.36 9.5 3.7 14.209.226.793.346 1.614.53 2.419.082.354.097.795.766.733-.385-2.173-1.068-4.24-1.66-6.332-.883-3.118-1.731-6.249-2.367-9.43-.42-2.101-.754-4.217-1.246-6.306-.655-2.78-.198-5.592.149-8.362.207-1.662.238-3.214-.168-4.871-.863-3.535-2.027-6.953-3.643-10.196a82.248 82.248 0 0 0-4.829-8.458 22.913 22.913 0 0 1-1.387-2.437c-.28-.566-.568-1.166-1.496-1.29.368 1.192 1.04 2.056 1.554 2.987 1.997 3.612 4.252 7.083 5.988 10.834 1.437 3.103 2.493 6.351 3.231 9.695.166.753.168 1.517.042 2.296-.283 1.738-.55 3.48-.486 5.256.021.593.03 1.215-.402 1.73-.384.46-.48.981-.199 1.539.166.328.094.651-.043.957-.783 1.753-1.188 3.669-2.36 5.26a5.565 5.565 0 0 0-.903 1.938c-.496 2.033-1.674 3.736-2.589 5.562-.952 1.905-2.577 3.309-4.117 4.704-3.133 2.84-6.33 5.62-10.102 7.623-2.01 1.067-4.105 1.178-6.238.485-1.78-.58-3.534-1.234-5.3-1.854-3.13-2.204-6.339-3.746-8.713-6.464-1.407-1.61-2.998-3.088-4.65-4.453-3.096-2.558-5.15-5.956-7.659-8.992-1.79-2.166-2.12-4.803-3.216-7.174-.484-1.048-.346-2.377-.465-3.57-.376-3.766-1.01-7.514-.788-11.335.082-1.409-.217-2.848-.416-4.263-.094-.668-.01-1.065.741-1.152.66-.076 1.032-.536 1.35-1.066-.415-.472-.847-.338-1.252-.21-.544.173-1.06.324-1.54-.148-1.37.803-1.939.181-2.558-.097-1.681-.754-2.986-2.023-4.369-3.18-.476-.399-.708-1.005-.695-1.63.055-2.852-.035-5.715.637-8.526.404-1.695 1.378-2.849 2.995-3.464 1.29-.49 3.04.027 3.926 1.101.822.998 1.583 2.03 2.026 3.44.788-1.14.062-1.84-.298-2.564-.633-1.275-.588-1.419.925-2.063-.294.59-.935.947-.345 1.425.476.385.923-.136 1.25-.482.602-.64 1.18-1.306 1.715-2.002.282-.365.575-.63 1.025-.77 1.2-.374 1.24-.3 1.63.952.616 1.983.992 4.14 2.74 5.53 2.817 2.24 5.89 3.296 9.522 2.017 1.46-.513 2.67-1.225 3.645-2.406.272-.332.65-.6 1.024-.818 1.56-.913 2.198-2.402 2.556-4.054.257-1.186.352-2.393.375-3.61.012-.669.163-1.287.896-1.628 1.407-.656 3.923-.21 5.141.976-.336.433-.804.154-1.203.221-.466.619-.253.737-.034.78.973.195 1.954.37 2.858.803 1.911.918 3.441 2.368 5.028 3.723.395.336.608.913.832 1.413a129.72 129.72 0 0 1 1.61 3.802c.622 1.518-.189 4.121-1.6 5.372-1.067.945-2.313 1.364-3.683 1.706-2.636.662-5.297 1.222-7.974.734-2.733-.5-5.563-.88-7.871-2.714-.35-.278-.677-.535-.93-.91-1.31.004-.938.375-.734.676.64.939 1.57 1.589 2.562 2.025 2.992 1.316 6.13 2.207 9.422 2.1 2.689-.088 5.391-.494 7.877-1.547 1.797-.762 3.048-2.165 3.766-4.15.588-1.624.443-2.981-.323-4.397-.755-1.394-.88-3.069-2.058-4.288-1.573-1.628-3.147-3.238-5.253-4.175-.587-.262-1.015-.55-1.205-1.218-.27-.95-1.27-1.274-2.071-2.069.982.079 1.501.555 2.029 1.018 1.01-.454 1.223-.776 1.406-1.115.45-.834 1.21-1.174 2.054-1.528 2.5-1.047 5.008-.991 7.59-.403a9.122 9.122 0 0 1 4.059 2.1c1.15 1.043 1.67 2.712 1.753 4.355.085 1.676-.326 3.31-.925 4.84-.512 1.304-1.889 1.948-2.864 2.9-.416.407-1.06-.045-1.596-.028-.504.016-1.321-.331-1.394.41-.074.75.78.504 1.266.65 1.543.471 2.404-.368 3.558-1.302 2.047-1.658 2.429-3.84 2.761-6.11.329-2.23-.588-4.204-1.603-6.114-3.067-2.01-5.642-3.13-8.631-3.134-2.131-.002-3.943.919-5.842 1.602-.695.25-.869 1.098-1.353 1.764-1.32-.756-2.758-1.206-4.307-1.253-.84-.026-1.653.027-2.393.48-.925.591-1.5.312-2.04.457-.602.163-.623-.658-.836-1.029-1.118-1.944-2.79-2.73-4.974-2.996-2.717-.333-5.378-.16-8.06.198-1.84.247-2.935 1.378-3.705 2.94-.195.394-.355.807-.542 1.206-2.266 1.012-3.43 2.74-5.376 3.603.493-2.185 2.051-3.847 2.31-6.118-1.149.296-1.06 1.311-1.478 1.93-.448.668-.609 1.52-1.338 2.206-.207-1.089.21-1.925.462-2.774.532-1.795 1.116-3.573 1.653-5.366.099-.33.218-.618.47-.848 1.355-1.232 2.848-2.256 4.516-3.015.45-.205.846-.236 1.042.367 1.182-.745 1.895.343 2.233-.313a8.32 8.32 0 0 1 .907-1.37c3.325-.566 6.047-1.1 8.78-1.177 2.52-.072 5.028.507 7.489 1.139 2.416.621 4.63 1.742 6.9 2.728.342.149.803.682 1.135.122.274-.459-.232-.788-.541-1.086-.75-.723-1.458-1.494-2.4-1.99-.236-.124-.412-.359-.725-.64.623-.127 1.342 1.003 1.689-.206 1.05.29 1.481.537 1.933.74 1.305-.232.703-.565.348-.742-.932-.465-1.883-.94-2.88-1.207a8.326 8.326 0 0 1-2.661-1.253c-2.1-1.49-4.504-2.278-6.864-3.172-1.077-.41-2.205-.668-3.262-1.163-.746-.348-1.59-.496-2.417-.497-2.555-.006-5.04.495-7.42 1.383-1.291.482-1.965 1.747-2.618 2.88-.792 1.378-2.003 2.515-2.388 4.129-2.873.267-4.236 2.003-5.717 3.402-1.542 1.458-2.397 3.402-3.138 5.374-.396 1.055-.595 2.199-1.424 3.082-.017-2.033.804-3.85 1.48-5.683.686-1.858 1.737-3.534 3.085-5.093-.566-.38-.862-.185-1.186.169-1.214 1.322-2.023 2.898-2.666 4.533-.684 1.739-1.18 3.552-1.745 5.337-.172.541-.317 1.286.273 1.478 1.079.35.618.873.405 1.487-.309.883-.66 1.77-.692 2.716-.022.656-.316.99-.901 1.206-2.011.741-2.932 2.284-3.37 4.323-.623 2.887-.832 5.774-.548 8.706.047.5.076 1.026.398 1.414 1.458 1.766 2.687 3.811 5.156 4.395 2.602.8 2.825 1.063 2.873 3.018.054 2.197.134 4.39.076 6.595-.046 1.732.433 3.478.58 5.232.138 1.642.196 3.327.632 4.897.787 2.824 1.196 5.801 3.256 8.175.85.978 1.613 2.092 2.325 3.187 1.953 3.003 4.722 5.203 7.204 7.685 1.247 1.245 2.606 2.387 3.775 3.698 1.42 1.594 3.296 2.56 4.91 3.877 2.266 1.848 4.919 2.82 7.623 3.736 1.206.409 2.45.628 3.684.906 1.124.254 2.188-.167 3.25-.417.645-.151 1.07-.079 1.35.531.323.701 1.135 1.07 1.277 1.893 1.334.746 2.234 1.923 3.11 3.125.29.4.386.816-.03 1.172-.546.467-.106 1.806-1.486 1.592-.32-.05-.28.64-.32 1.012a12.744 12.744 0 0 1-1.74 5.22c-.29-.855-.135-1.447-.015-2.023.404-1.933.9-3.85 1.23-5.795.111-.651.725-1.649-.618-1.962-.262-.062-.198-.483-.188-.75.018-.544.064-1.087.097-1.63-.824-.034-.989.544-1.088 1.179-.195 1.252-.381 2.505-.58 3.757-.04.246.052.566-.316.667-.421-.19-.284-.559-.243-.854.215-1.581.464-3.158.684-4.74.07-.496.588-1.254-.191-1.405-.875-.17-.697.769-.827 1.308-.272 1.119-.528 2.241-.939 3.352.065-.929.215-1.842.104-2.769-.049-.406.259-.91-.358-1.106-.575-.18-1.388.237-1.581.851-.18.572-.267 1.173-.412 1.84-.511-.344-.366-.76-.297-1.183.098-.597.187-1.206-.2-1.756-1.525 1.198-2.126 2.336-2.277 3.616-.387 3.29-1.134 6.502-1.936 9.71-.217.871-.757 1.575-.952 2.448-2.096-.36-3.19-.86-4.077-1.524-2.059-1.542-4.345-2.805-6.086-4.767-1.384-1.56-2.792-3.089-4.35-4.5-.979-.887-1.679-2.15-2.528-3.23-2.861-3.631-5.163-7.614-7.21-11.752-1.021-2.066-2.295-4.02-2.752-6.327-.524-2.65-1.003-5.304-.818-8.03.03-.445-.045-.983.241-1.275 1.03-1.052.437-2.114.156-3.195-1.275.863-1.499 1.854-1.475 2.831.043 1.862-.914 3.123-2.232 4.21-.594.49-1.207.985-1.882 1.343-1.786.948-3.085 2.463-4.587 3.747-1.797 1.535-3.695 2.951-5.554 4.414-.69.544-1.445 1.019-2.078 1.622-1.914 1.824-4.42 2.65-6.625 3.98-.66.398-1.326.76-1.928 1.252-1.45 1.186-2.97 2.298-4.717 2.983-1.61.63-2.547 1.855-3.327 3.266a6.992 6.992 0 0 1-1.54 1.929c-2.39 2.063-3.218 4.844-3.365 7.803-.122 2.465.038 4.953.208 7.43.086 1.248-.198 2.51-.182 3.78.038 2.982.18 5.923 1.135 8.808.61 1.838.348 3.836.368 5.755.035 3.36.044 6.723.018 10.084-.027 3.514.182 7.05.608 10.559.199 1.64.306 3.293.42 4.942.279 4.006.54 8.013.8 12.02.028.413.078.817.605.773.437-.036.448-.437.427-.76-.11-1.755-.243-3.509-.365-5.262-.126-1.811-.295-3.622-.356-5.436a41.676 41.676 0 0 0-.296-3.95c-.746-5.8-.76-11.632-.742-17.467.011-3.36 0-6.724-.319-10.075-.052-.547-.08-1.116-.252-1.63-1.21-3.586-.78-7.28-.796-10.951-.011-2.634-.139-5.268-.247-7.9-.095-2.342.693-4.428 1.785-6.433.13-.239.267-.509.476-.662 1.224-.9 2.064-2.09 2.854-3.372 1.043-1.692 1.652-2.075 3.972-3.068.459-.196.883-.398 1.275-.725 2.379-1.98 5.04-3.516 7.827-4.839 1.364-.647 2.36-1.786 3.579-2.63 1.848-1.283 3.539-2.776 5.412-4.032 1.089-.729 1.925-1.79 2.875-2.694 1.128-1.076 2.35-1.973 3.663-2.787 1.018-.633 2.032-1.284 2.912-2.37.51 1.55.573 2.928.778 4.272a21.37 21.37 0 0 0 2.429 7.14c.974 1.776 2.185 3.455 2.772 5.435.163.545.514.969.86 1.4.274.344.588.668.803 1.047 1.44 2.543 3.193 4.858 5.04 7.116 2.508 3.065 5.204 5.953 8.29 8.43 2.188 1.758 4.62 3.183 7.078 4.545 1.483.562 1.66.46 1.92-.386 1.315-4.307 2.411-8.662 2.96-13.142.608.344.714 1.044.526 2.052-.182.98-.256 1.966-.309 2.957-.035.666-.017 1.318-.923 1.473.213 1.16.54 1.684.967 2.104.988.975 1.614 2.268 2.537 3.214 1.213 1.244.89 2.359.571 3.68-1.162 4.813-2.336 9.624-3.403 14.459-.45 2.042-.684 4.129-1.478 6.089-.286.705-.014 1.15.615 1.65 1.937 1.546 4.056 2.808 6.422 4.306-1.032.06-1.763.093-2.49.148-.356.027-.888-.098-.842.49.04.51.562.526.914.47 1.003-.161 1.541.314 1.922 1.176-.67.329-1.358.105-1.98.287-.29.474-.115.67.01.694.43.08.874.095 1.31.148 2.44.29 4.126 1.645 5.269 3.754.266.493.363 1.033.357 1.597-.01.963-.412 1.465-1.356 1.463-1.436-.002-2.877-.058-4.101-.991-.91.324-.67.535-.449.706.525.403 1.043.786 1.741.887.862.123 1.711.338 2.56.513.004.471-.42.523-.606.774-.606.819-1.302 1.091-2.254.506-.418-.257-.95-.297-1.45-.251-.786.07-.908-.343-.862-1.012.236-3.42-1.083-6.278-3.001-9.036-1.567-2.253-3.769-3.85-5.48-5.932-.273-.332-.68-.557-1.035-.819-.486.991-.997.66-1.48.588-1.162-.172-2.22-.61-3.277-1.094-1.568-.72-2.26-.417-2.626 1.26-.43 1.974-2.073 3.147-4.232 1.985-.968-.52-1.897-1.125-2.965-1.44-1.229-.361-1.392-.263-1.85.889-.672 1.685-1.462 3.326-1.74 5.143-.186 1.208-1.156 1.566-2.133 1.77-.682.14-1.358.266-1.658.91-.481 1.028-1.402 1.272-2.318 1.273-1.731 0-3.092.664-4.238 1.891-2.69 1.667-4.364 4.06-5.9 6.52-1.306 2.091-2.01 4.405-1.49 6.933.248.521.371.544.587.653.118-2.694.355-5.326 2.312-7.622.262.825-.058 1.36-.216 1.892-.39 1.32-.855 2.62-1.26 3.937-.784 2.547-.329 5.014.544 7.442.189.523.451 1.043 1.228.786.186-.483-.255-.778-.393-1.155-.888-2.442-1.256-4.872-.234-7.395.494-1.22.812-2.516 1.153-3.791.43-1.608.991-3.122 2.565-4.097-.94-.699-1.346.34-2.038.383.059-.776.627-1.13 1.127-1.516 1.129-.877 2.305-1.691 3.286-2.75.945-1.022 2.234-1.096 3.511-1.162.5 1.524.552 2.478.021 3.315-.885 1.397-1.202 2.954-1.214 4.577-.008 1.116-.179 2.18-.57 3.234-.365.98-.598 1.998-.539 3.074.092 1.67.746 2.619 2.33 3.23.847.328.847.328 1.01 1.384-1.71-.023-2.923-1.468-4.615-1.644.089.59.53.727.857.98 1.102.85 2.403 1.32 3.639 1.909.657.312 1.375.35 2.105.233 1.078-.172 1.946-.668 2.077-1.798.114-.983.7-1.501 1.378-2.031-1.016-.413-2.097.557-3.478.225 1.63-.492 2.777-1.212 4.005-1.647.625-.22 1.188-.463 1.879-.474 1.148-.019 2.104-.586 2.936-1.355.208-.193.35-.423.142-.878-1.82 1.684-4.234 1.506-6.413 2.012-1.299.302-2.905.251-3.685-1.42-.239-.511-1.01-.622-.99-1.41.022-.845-.54-1.687.027-2.682.473.59.138 1.194.226 1.724 1.018-.901 1.153-1.885.906-2.756-.511-1.807-.194-3.447.517-5.097.173-.403.491-.57.808-.777.275-.18.647-.36.443-.75-.215-.408-.636-.677-1.103-.522-.34.112-.617.414-.925.632-.394-.396-.15-.782.02-1.07.315-.533 1.2-.73.828-1.672-.09-.231.398-.484.731-.544.38-.068.74-.184 1.109-.287 1.284-.36 1.894-1.24 2.08-2.485.222-1.487.71-2.882 1.388-4.218.592-1.168.687-1.225 1.873-.667.799.375 1.55.848 2.353 1.211 2.129.962 4.105.097 4.911-2.114.6-1.79.612-1.815 2.195-1.034 1.418.7 2.931.945 4.476 1.027.463.025.87.067 1.213.39 2.539 2.388 4.94 4.903 6.376 8.137.71 1.603 1.287 3.29 1.13 5.107-.171 1.986-.793 1.938-2.187 1.66-1.533-.306-2.41-1.075-2.612-2.537-.397-2.868-1.985-5.1-3.728-7.252-1.101-1.36-2.295-2.643-3.427-3.977-.528-.622-1.11-1.144-2.05-1.278.724.908 1.432 1.832 2.18 2.722 1.378 1.646 2.884 3.183 4.12 4.951.864 1.239 1.428 2.6 1.797 4.053-.81.82-1.54-.487-1.972.414-.299.623.86.797 1.325 1.22.3.273.944.34.702.932-.178.436-.665.59-1.122.534-1.127-.136-2.325-.014-3.243-.95-.297-.302-.747-.454-1.132-.668-1.416-.789-2.603-1.798-3.513-3.179-1.274-1.935-2.722-3.74-4.45-5.308-.444-.402-.777-.925-1.173-1.382-.584-.673-1.248-1.244-2.1-1.552-.847.566-.54.632-.322.805 2.061 1.63 4.022 3.361 5.204 5.781.18.368.505.571.752.86.82.962 1.73 1.859 2.277 3.03.478 1.025.57 2.027-.218 2.937-.749.865-1.653.795-2.716.576-1.905-.392-3.704-.987-5.426-1.886-.83-.433-1.718-.742-2.376-1.457-1.16.35-1.033.695-.64.924.521.306 1.067.569 1.601.854 2.044 1.098 4.182 1.891 6.43 2.528 2.684.76 4.457-.259 4.893-3.292.677.061 1.18.487 1.738.794 1.29.709 2.492 1.611 4.101 1.558.627-.02 1.329-.02 1.733-.374.7-.612 1.13-.317 1.714.085.755.519 1.726.302 2.546.623.292.114.96-.118.771.515-2.107-.45-3.35-.813-4.712-.601-2.406.375-2.875.885-2.86 3.5-1.03-.271-1.896.202-2.801.58-1.112.463-2.366.353-3.485.956-.68.367-.919.743-1.087 1.447-.564 2.356.013 4.562.675 6.784.171.575.859.687 1.007 1.38-1.743 0-3.476.138-5.178-.033-2.436-.245-4.835-.301-7.211.34-1.566.422-3.17.47-4.761.416-2.225-.074-4.375.357-6.524.773-1.323.256-2.65.354-3.94.145-6.036-.978-12.092-.287-18.139-.388-3.454-.058-6.775.681-10.152 1.115-1.42.183-2.853.253-4.28.38-.608.972-.19.919.123.884 2.789-.304 5.608-.366 8.35-1.058 1.726-.437 3.486-.338 5.246-.412 2.92-.123 5.84-.027 8.755-.198 3.256-.19 6.496.08 9.722.472 1.553.19 3.073.067 4.608-.087 2.188-.22 4.364-.602 6.58-.435 1.84.137 3.609-.336 5.385-.713 1.667-.354 3.338-.621 5.222-.378-.532.888-1.619.815-2.089 1.484 2.983-.712 5.419-.5 7.83-.543.913-.016 1.894.23 2.57-.715 4.93 1.838 9.336 2.538 13.422 4.202 1.783.726 3.652 1.24 5.44 1.956 2.91 1.166 5.79 2.415 8.679 3.636 1.41.597 1.938.563 3.247-.295.534.668.401 1.743 1.28 2.2.731.382 1.464.766 2.18 1.175 3.6 2.059 7.51 3.426 11.298 5.069 2.93 1.27 5.82 2.637 8.712 3.997 3.095 1.454 6.237 2.755 9.577 3.564 1.385.335 2.731.854 4.069 1.36 2.84 1.078 5.79 1.766 8.729 2.487.699.172 1.357.233 1.881.834.397.457 1.127.237 1.984.585-1.778.48-3.433.267-4.924 1.293.852.677 1.712.7 2.418.346 1.809-.905 3.753-.795 5.656-.917 2.855-.182 5.718-.307 8.579-.314 6.447-.016 12.871-.51 19.299-.878a582.662 582.662 0 0 1 27.083-.944c.878-.01 1.756-.124 2.633-.196 1.26-1.372 2.512-.88 3.59-.896 4.403-.063 8.803.054 13.199.334 3.773-.454 6.578-.453 9.386-.386 1.187.028 2.246-.516 3.362-.79 2.256-.555 4.498-.962 6.844-.67 1.584.196 3.192.186 4.784-.012 2.373-.295 4.724.065 7.08.207 1.043.062-9.896-.94-10.292-.964-1.428-.089-2.915.02-4.27-.347-2.36-.641-4.733.098-7.092-.398-2.367-.499-4.837-.193-7.233-.487-2.576-.316-5.167-.2-7.738-.494-.65-.074-1.339-.072-1.978.053-3.219.63-6.477.368-9.717.452-1.7.045-3.4.095-5.105.058-4.617-.1-9.236-.16-13.851.205-2.687.214-5.395.165-8.08.387-1.918.158-3.825.318-5.756.35-2.913.049-5.82.347-8.733.495-1.042.053-2.095-.095-3.135-.032-3.516.217-7.035.069-10.551.145-1.536.034-3.074-.145-4.614-.182-.549-.014-.847-.248-.882-.754-.113-1.683-.534-3.363-.189-5.053.282-1.385-.224-2.72-.127-4.105.22-3.145-.373-6.26-.614-9.385-.152-1.959-.651-3.897-1.087-5.824-.192-.847-.068-1.367.789-1.662.467-.16.902-.441 1.418-.387 3.76.402 7.45-.263 11.17-.608 2.025-.187 4.077-.19 6.068-.618 2.88-.618 5.794-.678 8.713-.754 1.657-.044 3.298-.238 4.931-.498 2.126-.34 4.269-.54 6.412-.37 2.94.234 5.828-.266 8.74-.421 3.464-.185 6.933-.166 10.394-.55 1.897-.21 3.85.166 5.775.12a73.992 73.992 0 0 0 6.757-.45c4.112-.478 8.26-.378 12.367-.848 2.71-.309 5.39.144 8.084.217 4.152-.523 7.567.33 11.006.671 2.792.28 5.498-.292 8.211-.698 1.582-.237 3.145-.54 4.748-.524 1.717.016 3.407-.186 5.09-.51 1.594-.305 3.188-.061 4.774.097.885.089 1.8.25 2.628-.03 1.954-.665 3.931-.215 5.895-.306.749-.035 1.093.294 1.22 1.016.105.593.298 1.175.507 1.741.97 2.612 1.048 5.379 1.516 8.081.68 3.938.31 7.928.935 11.85.079.769.278.891.412.9.726-.584.62-1.049.54-1.47-.45-2.34-.243-4.739-.544-7.067-.534-4.125-.51-8.36-2.058-12.325-.298-.763-.454-1.593-.586-2.406-.129-.79-.533-1.246-1.314-1.164-2.122.222-4.265-.45-6.386.238-.938.304-1.965.2-2.958.09-2.146-.24-4.286-.265-6.413.203-.481.105-.985.193-1.474.171-3.609-.165-7.12.607-10.655 1.102-2.766.388-5.476.327-8.19-.382a9.697 9.697 0 0 0-3.913-.224c-1.85.27-3.742.151-5.605-.083-1.427-.179-2.848-.244-4.286-.13-5.1.402-10.212.598-15.311 1.09-3.094.297-6.244.654-9.375-.01-1.02-.216-2.117-.102-3.124.151-1.849.466-3.719.384-5.582.377-1.988-.009-3.946.225-5.909.469-1.483.183-2.987.26-4.456.114-3.333-.332-6.585.166-9.862.608-2.015.27-4.056.406-6.09.47-1.764.055-3.504.16-5.222.599-1.34.342-2.717.447-4.097.468-2.43.04-4.842.257-7.23.705-1.592.3-3.183.303-4.77.053-1.36-.215-2.638-.112-3.802.684-.554.38-1.029.308-1.668.035a110.363 110.363 0 0 0-12.082-4.382c-2.677-.792-5.27-1.858-7.908-2.783-3.579-1.253-7.158-2.509-10.75-3.724-3.591-1.217-7.203-2.373-10.794-3.594-.501-.17-1.103-.082-1.615-.591.47-.513 1.037-.922 1.647-.995 2.43-.293 4.622-1.505 7.031-1.807 2.952-.369 5.868-.924 8.786-1.483a3.893 3.893 0 0 1 1.96.113c5.032 1.643 9.974 3.5 14.625 6.066.912.504 1.904.873 2.878 1.255 3.184 1.25 6.223 2.789 9.24 4.398 2.441 1.302 5.152 1.94 7.841 2.506.803.169 1.687-.028 2.556.225.711.206 1.263-.305 1.462-1.028.132-.474.232-.976.232-1.466-.007-2.81-.047-5.62-.08-8.43-.012-.99-.029-1.982-.057-2.973-.134-4.514-.47-9.01-.906-13.508-.293-3.02-.739-6.01-1.1-9.013-.163-1.362-.057-2.753-.136-4.126-.161-2.79-.61-5.587-.49-8.362.163-3.864-.408-7.7-.17-11.553.129-2.102-.294-4.172-.482-6.254-.173-1.923.159-3.826.105-5.746-.022-.758.078-1.562-.054-2.294-.46-2.563-.411-5.137-.448-7.718-.028-1.913-.237-3.827-.433-5.733-.133-1.294-.856-2.227-2.023-2.826-3.433-1.758-6.928-3.394-10.559-4.68-2.318-.821-4.638-1.66-7.1-2.1-2.428-.432-4.758-1.39-7.181-1.86-3.535-.686-6.761-2.302-10.231-3.14-1.216-.293-1.384-1.302-1.779-2.178.881-.684 1.378-.774 1.87-.774 4.401-.01 8.796-.069 13.198.37 2.604.259 5.243.395 7.904.052 3.277-.422 6.59-.19 9.894.018 2.408.15 4.824.43 7.247.123.93-.117 1.859-.051 2.794.09 1.306.196 2.624.279 3.931-.076 4.236.242 7.48.014 10.729-.05 3.134-.062 6.275.108 9.412.24 1.99.084 3.962.012 5.933-.262 2.251-.313 4.522.088 6.772-.132.797-.078.854.988 1.437.84.498-.126.658-.82 1.445-.833 4.549-.074 5.875.082 10.145 1.693 3.187 1.204 43.676 11.76 42.927 11.8-.613.032 1.213 1.348-1.01 1.598-11.325 1.276-43.314 1.48-46.416 1.888-2.361.31-4.699.524-7.066.267-1.474-.159-2.928-.602-4.422-.46-3.505.332-6.898-.491-10.324-.957a32.16 32.16 0 0 0-3.111-.289c-2.136-.081-4.284-.279-6.408-.14-2.424.16-4.833-.01-7.247.04-.832.018-1.684.083-2.456-.138-1.63-.467-3.14-.103-4.668.355 2.655-.062 4.822.623 7.015.547 3.079-.107 6.164-.114 9.246-.09 2.754.023 5.505.17 8.242.534 2.238.298 4.483.783 6.723.772 3.592-.016 7.139.486 10.713.591a8.103 8.103 0 0 0 1.813-.133c3.677-.733 48.717-1.438 48.762-.7.169 2.742 1.522 15.882 1.822 18.612.149 1.356-.763 2.984-.3 2.948.356.382.24.836.256 1.266.204 5.45.352 10.904.279 16.358-.045 3.302-.312 6.602-.356 9.904-.034 2.533.165 5.066.188 7.6.054 6.003.315 12.007.042 18.012-.067 1.484.037 2.971-.14 4.455-.16 1.341-.45 1.671-1.79 1.94-3.634.725-7.304.93-11 .793-1.878-.068-3.74.16-5.608.294-2.911.209-5.836.211-8.728.698-1.144.192-2.31-.041-3.46-.163-1.867-.2-3.728-.148-5.606-.056-3.576.176-7.16.243-10.74.232-4.954-.014-9.891-.334-14.862.016-4.156.293-8.358-.084-12.54-.113-2.965-.021-5.93.039-8.895.073a2.863 2.863 0 0 0-1.609.508c.19.614.713.631 1.177.603 2.302-.14 4.607-.098 6.908-.146 4.931-.103 9.855-.026 14.782.084 1.751.04 3.513-.178 5.264-.34 1.653-.154 3.315-.095 4.94.074 2.53.263 5.068.054 7.592.365.97.12 1.98-.15 2.966-.115 3.251.115 6.508-.554 9.729-.175 2.877.34 5.664.03 8.507-.17 2.63-.186 5.253-.404 7.88-.624 2.24-.188 4.512-.025 6.77.002 2.612.032 5.114-.645 7.634-1.179.945-.2 1.33-.913 1.455-1.941.406-3.291.301-6.591.345-9.888.09-6.778-.178-13.55-.345-20.323-.066-2.696.058-5.393.236-8.086.242-3.688.098-7.38.053-11.07-.026-2.039-.165-4.077-.165-6.115 0-.868-.269-1.684-.175-2.596.11-1.06.473-1.942 1.067-2.702.694-.89 2.552-5.991 1.08-2.957-.496 1.02-1.001 2.04-1.93 3.086-.209-2.565-.428-4.894-.58-7.228-.078-1.214-.553-15.256-1.04-16.4-.455-1.068-37.97-9.883-39.81-10.54zM620.308 503.909c1.48.081 1.874-.183 2.149-1.542.132-.655.174-1.329.257-1.993.415.84.66 1.68.825 2.535.069.358.084.927-.36.986-.991.134-1.621.82-2.285 1.372-.308-.19-.31-.41-.334-.622-.03-.264.026-.558-.249-.74-.094-1.699.423-3.323.638-4.984.514 1.753.749 3.47-.641 4.988m-26.031-28.826c-.9-.431-.513-1.367-.754-2.049-.246-.696-.513-.907-1.334-.536.512.414 1.19.764.751 1.511-.318.541-.658.985-1.425.976-2.53-.03-4.621 1.235-6.736 2.402-.737.408-1.307 1.004-1.727 1.727-.178.307-.129.69.175.889.385.25.609-.06.731-.382.259-.673.794-1.105 1.41-1.31 1.21-.402 2.3-1.042 3.452-1.556 1.751-.781 3.569-.518 5.363-.295 2.843.354 5.598 1.068 8.2 2.3.242.114.197.1.06.78-.058.294.123.634.195.954l-.002-.015c.26-.259.568-.35.901-.19.445.214.888.44 1.307.697 3.476 2.13 6.629 4.595 8.646 8.26.37.672.834 1.298 1.293 1.916.331.445.697.845.682 1.457-.01.41.257.733.513 1.013 1.575 1.715 2.259 3.875 3.051 5.99.53 1.414.387 2.692-.552 3.881-.13.165-.204.375-.318.591.595.493.84-.447 1.42-.2.187.494.307 1.12.19 1.673-.371 1.769-.058 3.602-.567 5.35-.062.209-.126.42-.155.637-.03.23.045.452.271.545.337.139.548-.094.62-.356.288-1.063.58-2.134.543-3.247-.028-.893.41-1.579.87-2.271.19-.287.455-.45.765-.596 1.101-.513 3.975.062 4.761.971.193.223.321.466.23.75-.202.628-.43 1.25-.65 1.871-.161.453-.579.46-.952.52-.864.135-1.554.513-1.955 1.328-.046.095-.148.163-.221.244-2.221 2.445-2.215 2.012-1.017 5.358.26.725.595 1.424.655 2.212.054.72.176 1.443-.608 1.9-.687.402-1.583.322-2.328-.189-.5-.341-.754-1.397-1.528-.896-.594.385.047 1.11.106 1.684.307 2.972 1.473 5.764 1.825 8.728.118.985.29 1.964.456 2.942.052.312.074.717.56.62.418-.081.455-.433.422-.776a20.768 20.768 0 0 0-.61-3.402c-.578-2.108-.684-4.31-1.42-6.381-.357-1.01-.07-1.253 1.103-1.197 2.318.113 3.405-1.171 2.84-3.421-.269-1.067-.58-2.133-.994-3.15-.36-.884-.22-1.564.36-2.285.478-.597 1.093-1.1 1.392-1.837.174-.43.54-.502.946-.51 1.035-.023 1.556-.648 1.907-1.55.94-2.411.726-3.051-1.736-3.969-.98-.365-1.299-.867-1.131-1.838.132-.773.02-1.546-.234-2.283-.626-1.81-1.307-3.61-1.9-5.419-.573-1.754-1.204-3.43-2.192-4.969-1.465-2.28-3.076-4.426-5.692-5.527-.34-.144-.672-.413-1.177.025 2.269 1.23 4.035 2.944 5.432 5.066-.555.305-1.254-.58-1.535.076-.304.71.627.74 1.012 1.034 1.504 1.152 2.195 2.799 2.968 4.321-.163.25-.246.243-.37.17-.355-.21-.684-.783-1.128-.409-.58.488.233.678.364 1.025.097.255.31.572.035.73-.374.212-.99.333-1.125-.193-.488-1.892-2.362-3.04-2.633-5.033-.028-.205-.158-.42-.297-.583-1.872-2.205-3.044-4.907-5.325-6.87-1.29-1.11-2.613-2.308-3.703-3.68l.038.041c-.928-.294-1.793-.778-1.947-1.779-.085-.554-.25-.655-.695-.863-2.806-1.304-5.82-1.907-8.783-2.673-.318-.082-.658-.085-.906-.345l-.46-.135M570.808 492.726c.576-.296 1.073-.16 1.54-.33 1.013-.368 1.41-.014 1.198 1.056-.146.739-.427 1.451-.68 2.276-.944-.907-1.042-2.234-2.058-3.002zm5.85-5.243c-.31-.101-.647-.154-.924-.31-1.166-.653-1.159-.665-2.016.397-.167.137-.312.306-.494.41-.156.09-.401.276-.486-.066-.023-.09.136-.275.254-.338.248-.133.517-.092.768.036-.748-.962-.755-1.072.016-1.667.623-.479 1.294-.815 2.13-.75.489.04.987-.04 1.48-.072.2-.013.358.007.469-.28.514-1.324 1.344-1.95 2.607-2.108.513-.065 1.089.178 1.693-.327-1.238-.804-2.389-.426-3.51-.125-.412.11-.789.387-1.157.627-.905.59-1.723 1.2-2.942 1.248-1.248.048-3.17 2.561-3.254 3.842-.032.478.164.903.521 1.158.632.45.318.88.002 1.24-.396.449-.89.813-1.359 1.229-.557-.18-.895-.604-1.242-1.028-1.34-1.64-4.091-2.014-5.805-.812-.53.37-.817.89-.98 1.485-.385 1.397-.369 2.834-.39 4.266-.009.52.196.97.51 1.368.41.517.813 1.04 1.26 1.524 1.542 1.669 1.515 2.398-.218 3.983-.487.446-.992.842-1.207 1.527-.686 2.183-.11 3.353 2.351 4.545-1.006 1.994-2.107 3.943-2.844 6.066-.273.79-.562 1.56-.504 2.403.097 1.387-.418 2.693-.433 4.09-.042 4.15.067 8.229 1.614 12.185.697 1.78 1.01 3.72 1.405 5.606.32 1.524.992 2.922 1.394 4.412.098.358.285.617.692.523.524-.122.293-.501.2-.784-.693-2.085-1.47-4.15-1.8-6.333-.431-2.845-1.838-5.434-2.206-8.279-.424-3.277-.528-6.564.007-9.862.227-1.402.191-2.819.793-4.177.91-2.054 1.66-4.176 3.246-5.853.473-.501.33-.956-.35-.968-.454-.009-.86-.101-1.28-.219-1.76-.494-2.039-2.263-.997-3.525.279-.337.629-.614.948-.917.566-.537 1.062-1.125 1.266-1.897.261-.98.125-1.84-.74-2.515-2.602-2.035-2.46-3.656-1.737-6.973.287-1.314 2.3-1.887 3.616-1.122.615.357 1.178.81 1.62 1.396.43.572.846 1.168 1.355 1.666 1.534 1.5 2.168 3.412 2.566 5.432.108.545.06 1.217.708 1.356.752.16 1.527 0 2.214-.4.063-.035.09-.195.075-.288-.03-.183-.177-.26-.356-.256-.47.009-.996.428-1.394-.056-.4-.487-.26-1.162-.417-1.742-.038-.144-.014-.364.075-.475 1.152-1.446 1.157-3.287 1.721-4.934.03-.089.15-.147.258-.249.123.662.248 1.3.358 1.941.067.387.132.893-.14 1.115-.967.785-.602 2.15-1.398 2.998-.196.208-.436.595-.054.855.277.189.505-.082.69-.279.343-.365.737-.593 1.215-.792.981-.406 1.096-1.557 1.694-2.31.038-.049-.022-.229-.089-.298-.964-.994-.722-2.168-.507-3.34l.037.05c-.963-.728-.963-1.9-1.32-2.904-.234-.658.613-.846.676-1.392z"/><path d="M480.166 721.703c-.207.711-.524 1.327-1.03 1.83-.193.191-.402.387-.525.621-.205.39-.43.854.094 1.158.448.261.783-.123.94-.433.64-1.258 1.846-2.022 2.643-3.145.645-.908 1.39-1.803 2.732-1.053.192.108.53.075.484-.217-.125-.816.477-.813.973-1.03 1.304-.573 2.613-1.068 4.024-1.353 2.058-.415 3.51-1.657 4.398-3.715-.993-.168-1.409.48-1.793 1.02-.693.976-1.686 1.388-2.767 1.662-1.023.26-1.165.149-1.179-.884-.026-1.92.04-3.843-.057-5.76-.181-3.57-.562-7.132-.655-10.703-.085-3.272-.678-6.464-1.268-9.647-.675-3.632-1.016-7.3-1.562-10.943-.493-3.291-2.146-6.077-4.134-8.677-.342-.447-.491-.49-1.645-.938-.118.169-.032.275.095.397 3.151 3.051 4.803 6.814 5.098 11.15.214 3.144.955 6.203 1.313 9.316.395 3.438 1.272 6.806 1.268 10.307-.004 2.915.234 5.833.464 8.742.184 2.318.019 4.627.059 6.939.014.825-.235 1.354-1.036 1.65-.668.246-1.292.61-1.947.898-.672.297-1.367.411-2.084.144-2.408-.9-4.757-.604-7.066.36a6.187 6.187 0 0 0-2.373 1.74c-1.114 1.31-1.936 2.804-2.853 4.24-.234.367-.254.77.2.97.379.167.597-.115.734-.45.482-1.18 1.22-2.211 1.935-3.25 1.36-1.972 3.204-3.113 5.65-3.135.77-.007 1.543.007 2.31.061.29.02.68.012.766.643-1.916-.748-2.779.596-3.927 1.697-1.686 1.615-2.767 3.535-3.659 5.624a7.004 7.004 0 0 0-.543 2.236c-.026.339.006.664.225.94.205.26.448.258.723.1.246-.14.304-.362.119-.527-.557-.499-.283-.936-.024-1.462.703-1.428 1.206-2.945 2.11-4.29.754-1.12 1.969-1.77 2.77-2.833M528.746 623.234c1.241-.154 2.233.124 3.312-.133 1.85-.442 2.733-1.957 4-3.03.56-.475.04-2.308-.62-3.224-1.222-1.693-2.942-1.758-4.73-1.482-.76.118-1.499.254-2.275.287-3.062.125-4.934 3.945-3.25 6.553.248.385.594.792 1.022.76.945-.073 1.807.622 2.541.269M592.026 542.2c1.24-.155 2.232.124 3.312-.133 1.85-.442 2.732-1.958 3.999-3.03.56-.476.041-2.308-.62-3.224-1.221-1.693-2.942-1.759-4.73-1.482-.759.117-1.498.254-2.275.286-3.062.126-4.934 3.946-3.25 6.554.248.385.595.792 1.022.76.946-.073 1.807.622 2.542.268M576.7 518.535c.258-1.995 1.21-3.7 1.553-5.595.198-1.096.708-2.152 1.462-2.93 1.078-1.115 2.6-1.323 4.099-1.375.972-.035 1.95.2 2.991-.198.261 1.099-.05 2.082-.031 3.05.032 1.672.554 3.21 1.306 4.56 1.084 1.948 1.987 4.13 3.88 5.488 2.453 1.761 4.952 3.45 8.22 3.38 1.354-.03 2.684.3 4.084.001 1.926-.411 3.529-1.253 4.692-2.815.564-.757 1.278-1.346 1.938-2.285.797 2.04 1.906 3.751 1.326 5.933a12.39 12.39 0 0 0-.398 3.608c.017.473-.115.998.339 1.366.337-.059.484-.292.471-.585a15.45 15.45 0 0 1 .593-4.885c.058-.208.11-.449.064-.652-.457-2.057-.531-4.274-2.286-5.815-.358-.316-.615-.666-.533-1.139.507-2.92-1.084-5.106-2.726-7.138-1.567-1.94-3.414-3.69-6.112-4.066-.244.592.254.602.475.694 2.422 1.007 4.228 2.714 5.639 4.885.45.692.977 1.342 1.35 2.073.535 1.048.842 2.175.162 3.283-.228.372-.122.557.084.85.544.773.54 1.462-.223 2.175-.552.516-.92 1.214-1.5 1.743-1.922 1.755-4.092 2.494-6.663 1.809-.16-.043-.334-.122-.483-.092-2.717.544-4.685-1.29-6.928-2.216-.528-.218-.978-.73-1.347-1.199-2.115-2.684-4.182-5.404-4.397-9.013-.032-.544-.013-1.114.117-1.639.196-.792-.17-1.394-.525-2.003-.245-.42-.696-.653-1.13-.386-.687.424-1.384.238-2.088.209-1.53-.062-2.93.46-4.314 1.005-.628.247-1.051.815-1.36 1.4-1.294 2.46-2.083 5.072-2.25 7.858-.012.2-.045.438.449.656M637.85 573.39c-.11 1.601-.245 3.02-.298 4.443-.237 6.493-.58 12.987-.634 19.484-.043 5.131-.59 10.208-1.106 15.293-.254 2.517-.712 5.014-1.052 7.523-.07.513-.354 1.37.275 1.443.797.092.452-.799.517-1.28.341-2.554.515-5.128.992-7.669.55-2.93.628-5.902.66-8.877.016-1.422.494-2.792.494-4.232 0-1.754.24-3.512.302-5.252.147-4.091.579-8.167.516-12.275-.04-2.576-.065-5.15-.216-7.724-.016-.268.006-.555-.45-.877M594.277 475.083l.46.135c.483-.09.978-.144 1.45-.276 3.914-1.096 6.906.416 9.53 3.218.758.811.602 1.968 1.35 2.718l-.038-.04c.376.085.67.01.694-.433.008-.15-.086-.315-.162-.456-1.138-2.095-2.253-4.202-3.436-6.27-.391-.683-1.121-1.05-1.84-1.346-.517-.213-1.165-.396-1.346-.89-.646-1.762-2.281-1.955-3.699-2.4-1.738-.545-3.58-.471-5.384-.634-1.72-.156-3.394-.087-5.085.103-1.048.117-1.744.732-2.247 1.638 1.443-1.327 3.274-1.251 4.976-1.226 2.97.045 5.927.405 8.74 1.48.248.094.472.254 1.08.59-1.13.18-1.89.171-2.66.184-.524.01-1.36-.015-1.334.604.036.858.845.56 1.434.51 2.138-.186 4.164.097 5.95 1.428.496.37.907.78 1.313 1.487-.843-.09-1.42-.45-1.997-.744-2.434-1.24-4.903-.992-7.388-.22-.39.121-.726.352-.36.84M640.51 621.572c.49-.409.613-.775.606-1.166-.055-3.024.567-6 .597-9.023.051-5.05.302-10.096.094-15.148-.03-.707.153-1.42.142-2.13-.05-3.064.422-6.098.538-9.146.156-4.104.04-8.218.04-12.426-.505.166-.458.442-.448.66.178 3.861-.312 7.686-.728 11.507-.234 2.15-.078 4.285-.115 6.427-.112 6.488.172 12.98-.311 19.467-.2 2.686-.266 5.378-.615 8.056-.116.897-.165 1.85.2 2.922M647.94 620.199c.234-.122.294-.323.294-.55-.002-1.914.04-3.83-.019-5.741-.075-2.475.054-4.94.148-7.41.084-2.2.17-4.412.051-6.607a168.737 168.737 0 0 1-.236-11.362c.037-2.908.526-5.804.225-8.717a56.347 56.347 0 0 0-.326-2.451c-.023-.157-.112-.31-.31-.334-.275-.033-.408.135-.454.36-.045.213-.06.439-.047.657.324 5.008-.058 10.032.263 15.033.314 4.906.101 9.8.043 14.698-.046 3.85-.073 7.7-.106 11.55-.004.38-.068.8.475.874M536.1 644.981c.386 0 .788-.072 1.154.012 2.336.54 4.588-.254 6.871-.453 1.377-.12 2.34-1.19 3.18-2.208.838-1.013 1.548-2.133 2.283-3.227.21-.312.351-.686.456-1.051.095-.34.002-.716-.372-.808-.358-.087-.345.308-.472.532-1.108 1.965-2.234 3.92-4.138 5.266a3.796 3.796 0 0 1-1.639.687c-3.452.573-6.9.351-10.355.092-1.767-.133-3.485-.429-5.08-1.253-.292-.15-.659-.288-.85.108-.132.277.107.518.319.698.424.363.899.614 1.455.736 2.369.521 4.766.779 7.188.87M569.358 484.824c.216-.971.558-1.39.935-1.795.298-.322.576-.664.839-1.015.19-.254.496-.567.19-.865-.337-.33-.591.042-.799.27-.743.818-1.437 1.685-1.938 2.67-.603 1.183-1.018 2.438-1.08 3.789-.016.335-.053.66.177.94.109.135.241.21.423.188.21-.025.265-.186.27-.344.012-.44-.123-.929.03-1.304.128-.316-.127-1.481.949-.701.205.148.454-.253.612-.46.536-.699 1.025-1.435 1.568-2.13.755-.967 1.692-1.712 2.87-2.105.4-.133.927-.364.627.51-.103.299.284.46.567.379 1.43-.414 2.83-.9 4.057-1.787.791-.571-.14-1.034-.142-1.571-.003-.538-.59-.244-.906-.067-.286.16-.562.36-.789.595-.686.708-1.477 1.017-2.48.939-1.468-.116-2.403.977-3.463 1.72-.802.561-1.501 1.268-2.517 2.144M597.935 484.293c-1.065-1.028-1.927-2.145-3.574-2.257-2.2-.151-3.905.771-5.451 2.157-.496.445-.102.92.072 1.356.178.448.549.473.961.354 2.469-.71 4.945-1.385 7.552-1.308.12.004.246-.164.44-.302M584.272 474.072c-.107.118-.193.244-.309.326-.049.034-.162-.025-.246-.04.095-.113.177-.24.29-.329.043-.034.157.023.265.043m1.533-.94c.742-.775.742-.775 1.553-1.077-.754-.017-1.294-.167-1.91.033-1.14.37-1.158.317-1.547-.872-.258.07-.333.282-.34.503-.015.51-.596 1.354-1.09 1.622-.435.236-.827.522-1.112.958-.641.981-.95 2.098-1.347 3.179-.24.66.246 1.11.687 1.348.51.275.957-.375.844-.654-.426-1.052.376-1.313.964-1.533a7.879 7.879 0 0 0 2.748-1.745c.47-.453 1.033-.619 1.663-.526.388.058.672-.013.7-.445.029-.435-.154-.758-.639-.787-.325-.02-.653-.004-1.174-.004M654.99 588.13c-.03 1.416.83 2.375 1.646 3.268 1.762 1.928 3.137 4.12 4.441 6.343 2.481 4.23 5.2 8.297 7.99 12.324.719 1.037 1.265 2.191 1.928 3.269.524.85 1.06 1.708 2.075 2.124-6.075-9.082-11.523-18.565-18.08-27.327M586.35 502.472c-.332-.741-.692-1.47-.994-2.224-1.42-3.554-.355-6.837 2.896-8.797.483-.291.754-.833 1.284-1.006 1.2-.39 2.399-.49 3.412.457.63.589 1.199 1.244 1.873 1.952-.282-2.85-3.884-4.567-6.023-2.975-.487.363-.994.67-1.499.995-3.158 2.033-4.479 5.904-2.826 9.534.383.841.575 1.899 1.877 2.064M474.821 661.097c.019.623.554.62.947.664 3.628.409 6.124 2.45 8.046 5.414.682 1.052 1.514 2.013 2.334 2.966.98 1.138 1.78 2.365 2.246 3.803.116.36.276.715.464 1.044.154.265.438.34.711.185.239-.136.163-.352.07-.565-.745-1.703-1.353-3.485-2.703-4.846-1.324-1.335-2.328-2.914-3.424-4.423-2.004-2.76-4.807-4.065-8.11-4.46-.216-.027-.43-.005-.581.218M613.299 491.898c.076-.295.066-.559-.018-.832-.75-2.434-4.281-4.91-6.918-4.837-.318.01-.722-.05-.79.385-.046.295.235.457.462.623.405.294.834.518 1.315.663 1.965.593 3.284 1.928 4.208 3.706.1.194.163.412.277.597.258.417.503.982 1.07.893.757-.12.157-.842.394-1.198M577.993 621.048c-.395-.94-.78-1.884-1.185-2.818-1.254-2.89-2.086-5.91-2.765-8.973-.31-1.4-.922-2.706-1.14-4.137-.237-1.558-.613-3.095-.9-4.647-.233-1.251-.737-2.39-1.438-3.477.283 2.055 1.075 3.998 1.342 6.049.279 2.142 1.008 4.176 1.52 6.26.511 2.083 1.2 4.123 1.834 6.174.619 2 .892 4.154 2.28 5.818l.452-.25M604.414 495.063c1.858-1.653 1.71-1.69 4.025-.67 3.302 1.453 4.396 4.826 2.815 8.141-.236.496-.473.995-.663 1.51-.105.282.008.552.321.655.235.076.44-.029.546-.246 1.072-2.224 1.774-4.502 1.001-6.992-.646-2.08-3.603-4.433-5.814-4.619-1.17-.099-2.077.725-2.231 2.221M577.22 491.687c.315.314.586.643.642 1.116.204 1.703.995 3.384.154 5.122a.318.318 0 0 0 .152.42c.231.11.413.043.524-.197.616-1.351.685-2.772.45-4.205-.152-.918-.401-1.823-.645-2.724-.384-1.43-.096-2.587 1.193-3.453.446-.3.805-.741 1.17-1.148.149-.165.14-.41-.015-.606-.186-.233-.43-.15-.57-.002-.793.84-1.88 1.299-2.644 2.214-.686.822-.934 1.558-.522 2.544.124.293.103.646.149.97l-.039-.051M560.631 591.627c1.348 7.73 2.677 15.468 4.616 23.084-1.415-7.717-2.517-15.497-4.616-23.084"/><path d="M484.12 718.028c-.038-.708-.523-.88-.968-1.065-3.788-1.578-7.424-.65-10.034 2.58-.327.405-1.398.686-.731 1.302.484.445.951-.517 1.36-.891 1.663-1.526 3.466-2.668 5.804-2.856.82-.065 1.509.143 2.242.368.75.23 1.45.724 2.328.562M499.345 599.032c.128.302.205.575.35.802.123.19.359.289.57.141.112-.079.231-.27.215-.392-.332-2.358-.793-4.672-2.517-6.485-.181-.191-.433-.346-.97-.263.593 1.667 2.277 2.856 2.086 4.907-.94-.765-.856-2.208-2.072-2.727-.209.651.115 1.17.409 1.646.416.677.66 1.39.715 2.173.025.362-.19.85.34.967.517.114.357-.613.874-.769M569.453 646.327c.597-1.48-.25-2.792-.536-4.152-.441-2.093-1.07-4.142-1.549-6.23a57.913 57.913 0 0 0-1.689-5.83c-.35-1.017-.232-2.204-1.296-3.338.482 1.952.843 3.6 1.299 5.222 1.22 4.336 2.185 8.74 3.527 13.041.129.414.167.856.246 1.285l-.002.002M604.698 504.075c-.024 1.361 1.47 2.402 2.67 1.935.872-.34 1.113-1.045.598-1.848-.237-.369-.588-.666-.808-1.043-.346-.596-.815-.917-1.49-.743-.623.162-.745.76-.913 1.281-.05.155-.045.326-.057.418M552.664 573.279c0-.898.017-1.797-.004-2.694-.043-1.879.136-3.72.682-5.531.526-1.742.566-3.53.277-5.33-.556 4.502-2.333 8.904-.955 13.555M557.947 638.951c-.088 2.909 1.489 12.17 2.202 13.282.075-.056.222-.132.213-.161-.9-2.964-.783-6.078-1.342-9.091-.139-.755-.23-1.52-.337-2.281-.074-.532-.148-1.06-.736-1.749M593.012 499.44c-.827.04-1.53.854-1.459 1.69.077.905.784 1.545 1.653 1.494.787-.046 1.374-.714 1.379-1.57.004-.8-.823-1.648-1.573-1.613M558.022 599.648c-.213-3.916-2.257-12.458-3.256-14.122l3.256 14.122M543.153 576.882c-.087-.228-.1-.419-.203-.511-1.306-1.176-4.457-1.33-5.792-.296-.326.252-.59.545-.28.96.236.316.594.326.857.061 1.29-1.3 2.762-.507 4.174-.394.366.03.67.384 1.244.18M545.627 590.419c-.033.598.829 1.385 1.554 1.416.721.032 1.425-.602 1.423-1.283-.002-.522-1.132-1.66-1.632-1.642-.45.017-1.316.987-1.345 1.509M527.24 575.237c.09-.723-.212-1.118-.653-1.311-.998-.437-2.032-.792-3.052-1.174a.663.663 0 0 0-.32-.056c-.455.077-1.129-.044-1.163.587-.035.61.602.492 1.006.514 1.483.08 2.786.722 4.182 1.44M590.597 471.727c-.367-.198-.895-.088-1.164-.67.588-.377 1.596.4 1.954-.735-.933-.11-1.84-.153-2.649.333-.502.3-.94.794-.002 1.15.341.13.372.323.346.619-.053.596.13.58.46.168.11-.136.253-.158.432-.117.84.192.84.186.61-.751zM562.102 617.097c.415 3.044 1.216 5.992 2.2 8.894-.157-3.107-1.74-5.862-2.2-8.894M565.601 617.025l1.304 5.634c.226-1.68-.315-4.217-1.304-5.634M559.424 587.47c-.066 1.31.54 2.348.79 3.753.53-1.331.185-2.722-.79-3.753M560.197 609.453c.304 1.585.435 3.169 1.111 4.623-.216-1.59-.31-3.207-1.111-4.623M607.562 542.96c.598.024.827-.32.962-.758.14-.448.426-1.087-.144-1.258-.741-.224-.564.571-.69.978-.093.294-.313.575-.128 1.038M560.063 608.53c.072-1.34-.355-2.172-.657-3.035-.076.96.15 1.842.657 3.035M654.053 570.98c.395.632.748 1.32 1.613 1.835-.193-1.1-1.163-1.256-1.613-1.836M576.612 487.44c.518.27.916.102 1.366-.447l-1.565-.299c-.056.344.071.574.244.789l-.045-.043M558.56 601.936c-.063.58-.006 1.078.396 1.605.267-.7-.015-1.14-.396-1.605M649.01 577.731c-.219.135-.2.346-.107.535.061.123.206.301.3.293.26-.02.278-.253.235-.46-.044-.218-.17-.374-.428-.368M567.216 623.227c-.162.527.052.927.342 1.427.295-.648-.04-1.043-.342-1.427"/><path d="M590.584 471.724c.448.173.9.306 1.436.024-.503-.44-.966.121-1.416-.016a.08.08 0 0 0-.02-.008M650.987 567.88c.055.001.11.006.166.001.26-.018.546.121.77-.1.023-.022-.054-.217-.122-.25-.414-.194-.595.101-.771.395 0-.002-.043-.045-.043-.045M652.775 569.306c-.01.168.051.313.215.35.185.044.293-.075.278-.255a.295.295 0 0 0-.308-.28c-.063 0-.124.12-.185.185M656.243 575.467c.187-.028.307-.13.29-.325-.018-.186-.16-.29-.332-.299-.191-.01-.313.104-.282.304.027.172.135.296.324.32M602.638 480.494c-.29-.196-.525-.575-1.02-.281.262.483.724.049 1.013.26a.055.055 0 0 1 .007.02M648.718 571.077l.06-.115c-.034.155-.029.332.176.278.154-.04.204-.261.068-.36-.175-.127-.25.054-.304.197M570.006 739.379c2.375 4.084 4.571 8.275 7.21 12.204.264.396.498 1.098.977.898.602-.252.071-.822-.027-1.27-.39-1.772-1.435-3.32-1.713-5.134-.06-.39-.39-.732-1.03-1.09.683 1.46.92 2.77 1.226 4.085-1.262-1.182-2.07-2.662-2.907-4.11-.988-1.711-1.902-3.464-2.86-5.193-.156-.282-.34-.57-.705-.634-.04-.007-.104.015-.129.047-.031.04-.033.103-.047.157l.005.04M596.155 600.054c-.244-.464-.549-.751-1.08-.358l.024-.104c.248.391.67.384 1.056.462M561.677 714.917c-.309-1.678-.452-1.805-1.735-1.71-1.336.096-2.55.615-3.706 1.219-.884.462-1.456 1.22-1.12 2.707.895-1.625 2.066-2.422 3.526-2.834.923-.261 1.814-.532 2.458.519.054.088.3.057.577.1M552.058 706.662c-.205.09-.25.281-.194.497.043.165.198.287.34.193.1-.066.143-.266.15-.408.006-.152-.06-.306-.296-.282M550.144 705.29c.136-.41.115-.73-.293-.964-.176.427-.083.723.293.963M550.45 710.67c.142.126.296.121.41-.014.052-.06.071-.224.028-.278-.118-.148-.29-.114-.402.012-.052.058-.026.185-.035.28M547.826 713.405c.066.093.128.265.248.331.15.083.34.005.393-.171.06-.196-.118-.266-.262-.33-.153-.07-.307-.12-.379.17M544.893 710.02c-.06.074-.172.15-.17.222.01.207.165.225.305.135.066-.043.08-.167.117-.255zM550.459 707.668l.088-.228c-.077-.019-.153-.045-.23-.05-.014-.001-.06.1-.045.116.052.062.123.11.187.162M582.595 746.3c-.87-2.343-2.5-4.248-3.709-6.397-.234-.417-.618-.718-.658-1.268-.022-.3-.26-.596-.445-.865-.188-.27-.45-.567-.803-.302-.304.226-.004.478.095.715 1.742 4.15 3.6 8.256 4.711 12.745-1.096-.122-1.1-1.135-1.573-1.695-.495-.585-.982-1.194-1.358-1.859-.396-.699-.723-1.43-1.486-2.316.106.97.477 1.438.741 1.94.979 1.853 2.279 3.498 3.445 5.23.15.222.38.395.593.566.125.1.286.163.459.07.225-.123.255-.334.261-.556.012-.42-.367-.684-.455-1.037-.661-2.66-1.581-5.237-2.5-7.813-.078-.22-.062-.422.146-.657.598.59.85 1.389 1.297 2.058.352.527.496 1.264 1.282 1.399zM575.705 726.213c2.492 5.591 5.91 10.425 7.964 15.924.652-.242.461-.64.357-.89-.712-1.72-1.249-3.563-2.25-5.102-1.793-2.759-2.872-5.854-4.48-8.688-.287-.505-.594-1.027-1.591-1.244M571.541 735.323c.175-1.392-.338-2.318-.827-3.22-1.248-2.303-2.547-4.577-3.82-6.866-.16-.288-.27-.604-.44-.885-.166-.277-.389-.648-.755-.417-.356.224-.14.584.033.868 1.783 2.969 3.316 6.07 4.903 9.144.199.385.478.73.906 1.376M569.436 724.255c2.465 4.296 4.952 8.342 6.978 12.874.73-.83.251-1.33-.002-1.781-1.175-2.087-2.388-4.149-3.425-6.315-.753-1.574-1.7-3.057-2.568-4.576-.118-.205-.332-.272-.983-.202M593.501 749.026c.005-.627-.244-1.165-.591-1.665-.732-1.05-1.062-2.266-1.329-3.48-.224-1.026-.571-1.975-1.097-2.871.018.628.036 1.25.272 1.855.255.654-.35.415-.608.534l.03-.029c-.08.354.07.664.265.916 1.287 1.651 1.745 3.62 2.157 5.602.244 1.171.585 2.31 1.259 3.38-.294-1.32-.582-2.641-.884-3.959-.176-.767.367-.161.526-.283M591.121 754.01c.699 1.748 1.363 3.265 2.347 4.625.359.497.993.336 1.638.71.126-1.891-.92-3.329-.866-4.979-.61.634-.047 1.285-.285 2.083-.784-.785-.57-1.966-1.431-2.5-.437.85.613 1.432.387 2.38-.794-.6-.802-1.682-1.79-2.318"/><path d="M582.638 746.258a.626.626 0 0 0 .058.622c1.1 1.644 2.193 3.294 3.304 4.931.208.305.441.77.862.639.557-.174.383-.768.297-1.138-.246-1.054-.195-2.187-.866-3.142a2.36 2.36 0 0 1-.408-1.566c.042-.495-.055-.962-.687-1.275-.152 1.814 1.253 3.299.92 5.213-1.404-1.367-2.082-3.126-3.525-4.24l.045-.044M591.821 752.49c-.458-3.416-2.292-6.333-3.404-9.512.8 3.293 2.146 6.387 3.404 9.513M587.36 745.803c.38 2.954.838 5.9.951 8.883.617-3.065-.05-5.988-.95-8.883M573.337 739.31c.123-1.173-.48-2.073-1.207-2.922.203 1.042.473 2.058 1.241 2.876zM573.89 740.804c.14 1.154.96 2.046 1.191 3.163-.083-1.17-.04-2.394-1.234-3.117l.042-.046M590.148 743.399c-.153-.722-.347-1.417-1.365-1.879.402.872.65 1.532 1.395 1.85l-.03.029M577.113 744.284l-.874-1.711c.135.806.082 1.464.874 1.71M587.617 739.183c-.03.813.376 1.135.644 1.564 0-.674 0-.674-.644-1.564M586.635 741.615c-.225.397-.21.793.043 1.292.348-.502.248-.883-.084-1.257l.041-.035"/><path d="M573.371 739.264c-.11.609.11 1.105.522 1.536a1.598 1.598 0 0 0-.046.05c.283-.661-.11-1.1-.514-1.537.004-.003.038-.049.038-.049M773.246 746.167c.035.085.048.213.11.245.163.085.295.006.296-.177 0-.069-.108-.176-.184-.195-.06-.014-.147.08-.222.127M522.445 587.595c-.055.002-.118-.01-.164.01-.535.245-1.317.187-1.535.82-.264.766.562.961.992 1.32.374.311.826.54 1.263.77.788.413 1.578-.063 1.583-.937.006-1.224-.847-2.016-2.14-1.983M591.749 737.486c.367-.82-.2-1.492-.382-2.216-.277-1.1-.656-2.174-1.066-3.496-.32 1.325.32 3.538 1.484 5.68l-.036.032M597.688 741.793c.49 2.036.705 4.171 1.626 6.116-.065-2.152-1.078-4.066-1.626-6.116M601.1 754.684c-.077-.934.139-1.948-.716-2.663.107.925.454 1.782.715 2.663M595.278 743.514c-.025-.84-.074-1.685-.567-2.52-.186 1.109-.153 1.274.567 2.52M562.935 584.938c.121-1.425-.802-2.521-1.159-4.11-.116 1.369.04 1.84 1.196 4.064-.004.003-.037.046-.037.046M560.83 579.734c.088.063.21.22.33.218.18-.002.141-.2.115-.325-.032-.156-.135-.28-.307-.24-.051.013-.069.165-.138.347M587.833 577.557c.357-.409.727-.807 1.067-1.23.347-.432.777-.565 1.303-.447-.282-.165-.549-.363-.848-.49-.486-.207-.857-.037-1.042.458-.207.556-.512 1.086-.48 1.71M589.4 572.643l-.473 1.039c.503-.287.309-.726.472-1.032v-.007M593.967 601.628c-.293.023-.493.256-.574.571-.05.189.115.288.286.235.25-.077.493-.203.572-.48.046-.158-.027-.295-.284-.326"/></g><path d="M500.8 511.992c.336 0 .568.24.696.72-.096 1.616-.2 2.764-.312 3.444a78.079 78.079 0 0 0-.42 2.844c-.024.192-.092.584-.204 1.176s-.228 1.18-.348 1.764l-.216 1.044-.444 2.148c-.272 1.32-.476 2.128-.612 2.424s-.368.444-.696.444-.588-.096-.78-.288c-.736-1.008-1.432-2.256-2.088-3.744-.16-.384-.34-.8-.54-1.248s-.348-.784-.444-1.008l-.216-.504c-.336.576-.8 1.552-1.392 2.928s-1.112 2.48-1.56 3.312c-.288.368-.608.552-.96.552-.736 0-1.296-1.96-1.68-5.88a20.033 20.033 0 0 1-.132-1.104c-.04-.4-.088-.844-.144-1.332s-.26-2.508-.612-6.06c0-.32.12-.612.36-.876s.504-.396.792-.396c.352 0 .592.232.72.696.432 5.2.864 9.04 1.296 11.52.128-.224.456-.964.984-2.22s1.008-2.256 1.44-3 .848-1.116 1.248-1.116c.272 0 .504.144.696.432 1.008 2.864 1.872 4.88 2.592 6.048.016-.176.112-.656.288-1.44l.312-1.536c0-.096.02-.232.06-.408s.072-.348.096-.516.052-.324.084-.468l.264-1.512c.384-2.368.624-4.312.72-5.832.064-.272.212-.508.444-.708s.468-.3.708-.3zm8.928.048c1.12 0 2.072.36 2.856 1.08 1.536 1.376 2.304 3.548 2.304 6.516s-.848 5.3-2.544 6.996c-.88.848-1.896 1.312-3.048 1.392-1.52 0-2.704-.52-3.552-1.56s-1.452-2.204-1.812-3.492-.54-2.532-.54-3.732c0-2.048.488-3.736 1.464-5.064 1.024-1.424 2.648-2.136 4.872-2.136zm-.168 1.992c-2.144 0-3.48 1.016-4.008 3.048-.16.544-.24 1.24-.24 2.088s.16 1.832.48 2.952c.432 1.504 1.072 2.56 1.92 3.168.496.384 1.096.576 1.8.576s1.336-.316 1.896-.948.944-1.436 1.152-2.412.312-1.96.312-2.952c0-1.76-.252-3.12-.756-4.08s-1.356-1.44-2.556-1.44zm20.568-2.04c.336 0 .568.24.696.72-.096 1.616-.2 2.764-.312 3.444a78.079 78.079 0 0 0-.42 2.844c-.024.192-.092.584-.204 1.176s-.228 1.18-.348 1.764l-.216 1.044-.444 2.148c-.272 1.32-.476 2.128-.612 2.424s-.368.444-.696.444-.588-.096-.78-.288c-.736-1.008-1.432-2.256-2.088-3.744-.16-.384-.34-.8-.54-1.248s-.348-.784-.444-1.008l-.216-.504c-.336.576-.8 1.552-1.392 2.928s-1.112 2.48-1.56 3.312c-.288.368-.608.552-.96.552-.736 0-1.296-1.96-1.68-5.88a20.033 20.033 0 0 1-.132-1.104c-.04-.4-.088-.844-.144-1.332s-.26-2.508-.612-6.06c0-.32.12-.612.36-.876s.504-.396.792-.396c.352 0 .592.232.72.696.432 5.2.864 9.04 1.296 11.52.128-.224.456-.964.984-2.22s1.008-2.256 1.44-3 .848-1.116 1.248-1.116c.272 0 .504.144.696.432 1.008 2.864 1.872 4.88 2.592 6.048.016-.176.112-.656.288-1.44l.312-1.536c0-.096.02-.232.06-.408s.072-.348.096-.516.052-.324.084-.468l.264-1.512c.384-2.368.624-4.312.72-5.832.064-.272.212-.508.444-.708s.468-.3.708-.3zm5.52-.504l-.216 8.184c0 .88.008 1.456.024 1.728-.064.208-.188.392-.372.552s-.388.24-.612.24-.408-.176-.552-.528c-.24-4.032-.36-7.424-.36-10.176.144-.4.512-.6 1.104-.6s.92.2.984.6zm-2.016 14.496c0-.288.112-.552.336-.792s.524-.36.9-.36.648.072.816.216.252.456.252.936c0 .848-.352 1.272-1.056 1.272-.352 0-.648-.14-.888-.42s-.36-.564-.36-.852z" fill="#171c34"/></g></svg>