<svg width="210" height="140" xmlns="http://www.w3.org/2000/svg"><g transform="translate(45.5 16)" fill="none" fill-rule="evenodd"><ellipse fill="#EAF6F9" fill-rule="nonzero" cx="50.01" cy="57" rx="50.01" ry="50"/><g fill="#1A1919"><path d="M65.955 95.657c-.689-.332-1.58-.777-2.208-.59-1.252.375-1.97-.314-2.803-.854.366-.028.783-.17 1.131-.07 4.142 1.197 8.28.197 12.4-.08 4.427-.295 8.592-1.811 12.655-3.52 2.628-1.105 5.22-2.294 7.64-3.865 2.918-1.893 5.183-4.373 7.345-7.054 1.662-2.065 3.226-4.18 4.895-6.291-.614 1.302-1.162 2.641-1.856 3.899-1.471 2.665-3.062 5.259-5.38 7.298-.642.566-1.256 1.219-2 1.608-4.054 2.122-7.842 4.768-12.262 6.185-1.467.47-2.816 1.307-4.22 1.979-.211.1-.561.164-.607.317-.672 2.277-2.687 1.669-4.213 1.9-2.441.372-4.92.314-7.37-.04-1.07-.155-2.138-.337-3.147-.822zM54.492 90.11c-.877-.307-.9-.964-.468-1.698.978-1.66 1.882-3.367 2.966-4.953.357-.523.582-.867.27-1.418-.193-.342-.41-.687-.862-.685-.486.002-.667.405-.754.768-.506 2.107-1.902 3.732-2.926 5.56-.61 1.09-1.256 1.077-2.267.484-2.89-1.697-5.851-3.264-8.435-5.444-1.372-1.159-2.594-2.406-3.39-4.194 2.278-.95 4.419-1.933 6.397-3.563-1.2-.388-2.14.066-2.937.498-1.191.648-2.508.805-3.721 1.296-.774.315-1.263.072-1.513-.575-1.117-2.895-2.789-5.594-3.139-8.767-.184-1.672-.158-1.835 1.388-1.995 2.163-.224 4.19-1.301 6.431-.988.938.132.96-.687 1.055-1.228.15-.836-.58-.797-1.092-.788-.943.018-1.824.361-2.722.628-1.68.5-3.36 1.058-5.33.537.603-4.818-.114-9.732 1.1-14.52.26-1.028.356-2.077.662-3.119.436-1.486 1.052-1.356 2.177-1.09 1.954.464 3.854 1.287 6.087 1.037-.055-1.04-.707-1.591-1.572-1.946a6.487 6.487 0 0 0-2.264-.467c-2.818-.088-3.341-.767-2.915-3.393.642-3.955 2.833-7.2 4.705-10.588.554-1.006 1.232-1.006 2.338-.242 1.522 1.05 2.816 2.442 4.662 3.246.633-1.335.241-2.156-.897-2.813-.669-.387-1.26-.91-1.873-1.39-2.146-1.678-2.127-1.667-.352-3.872 1.947-2.42 4.399-4.205 7.147-5.534.895-.432 1.658-1.202 2.841-1.285 1.652 2.1 1.584 5.149 3.531 7.227.388-1.312.222-2.626-.57-4.314-.16-.342-.388-.627-.497-1.023-.85-3.084-.862-3.07 2.18-4.21 3.858-1.447 7.892-1.943 11.959-2.272 2.477-.2 4.937-.461 7.426.095 2.735.613 2.936.992 1.818 3.518-.75 1.697-1.738 3.314-1.991 5.218-.052.394.026.711.125 1.048 1.44-.962 1.592-2.722 2.444-4.052.412-.641.576-1.438.884-2.152.976-2.255 1.203-2.3 3.423-1.334 2.27.987 4.71 1.545 6.744 3.118.827.641 1.123 1.117.727 2.075-.296.718-.404 1.517-.717 2.225-.32.723-.434 1.42-.32 2.504.802-1.42 1.444-2.546 2.076-3.676.655-1.168.966-1.245 2.188-.58 1.187.646 2.124 1.584 3.03 2.556 3.164 3.398 5.546 7.351 7.657 11.44.798 1.547 1.356 3.318 1.644 5.257-2.725.148-5.159 1.568-7.904 1.551-.715-.004-1.508.022-1.493 1.028.011.796 1.103 1.498 1.956 1.111 1.223-.555 2.544-.711 3.774-1.19.363-.14.722-.299 1.097-.395 2.212-.565 3.235.07 3.611 2.315.26 1.554.182 3.137.027 4.687-.186 1.849-.287 3.674.257 5.657-1.654-.24-3.106-.402-4.536-.674-.69-.13-1.308-.226-1.43.631-.109.778.5 1.103 1.15 1.223.61.111 1.242.102 1.86.175 2.312.271 2.669.652 2.078 2.795-.6 2.177-.939 4.44-1.977 6.486-.389.765-.522 1.61-.7 2.452-.155.738-.667 1.255-1.532.548-1.167-.95-2.611-1.37-3.957-1.978-.51-.231-1.013-.405-1.571-.364-.816.058-.854.52-.554 1.132.26.533.77.78 1.27.978.503.198 1.048.29 1.577.413 2.808.65 3.421 1.892 2.166 4.355-.716 1.403-1.67 2.64-2.65 3.854-.93 1.15-1.913 2.25-2.724 3.505-.941 1.454-2.308 2.524-3.751 3.45-1.24.795-1.52.676-2.478-.484-.753-.913-1.391-1.885-1.85-2.977a7.423 7.423 0 0 0-.52-1.042c-.443-.712-1.194-1.367-1.887-.834-.796.612.061 1.212.552 1.67 1.297 1.214 1.606 3.006 2.589 4.412.435.622.275 1.262-.51 1.747-1.467.908-2.986 1.697-4.594 2.287-2.262.83-4.55 1.59-6.842 2.333-2.114.686-3.318-.222-3.364-2.511-.008-.462.18-.923.209-1.388.052-.851-.419-1.49-1.015-2-.187-.16-.615-.155-.884-.07-.323.1-.394.48-.327.787.213.99.514 1.963.696 2.958.446 2.453.188 2.665-2.135 3.393-1.754.549-3.553.372-5.317.606-.837.11-2.44.671-2.73-1.163-.04-.263-.338-.147-.561-.099-3.405.732-6.517-.445-9.634-1.537zm-12.337-3.75c-1.267-1.39-2.96-2.297-4.054-3.867-.238-.341-.851-.718-1.187-.637-1.566.379-1.91-.802-2.555-1.74-2.63-3.83-4.163-7.995-4.288-12.692-.06-2.253-.817-4.415-.85-6.722-.07-5.122.71-10.092 1.948-15.018 1-3.98 2.143-7.928 3.667-11.732 1.322-3.3 3.006-6.444 5.136-9.317.788-1.061 1.507-2.184 2.37-3.18 2.237-2.578 4.638-4.862 7.974-6.13 1.996-.758 3.888-1.872 5.895-2.713 5.494-2.297 11.19-3.117 17.094-2.823 1.247.062 2.378.778 3.733.757-1.056.171-2.11.367-3.172.502-.614.08-1.266-.042-1.856.108-.925.236-.386-.808-.694-.783-.652.052-1.438-.404-1.951.335-.367.529-.895.692-1.43.566-2.176-.517-4.176.27-6.122.946-4.112 1.432-7.988 3.349-11.692 5.708-2.942 1.874-5.58 3.98-7.657 6.75-2.004 2.676-4.052 5.365-5.538 8.356-1.554 3.126-2.487 6.508-3.105 9.982-.473 2.669-1.46 5.25-1.877 7.924-.378 2.429-.675 4.907-.39 7.403.256 2.243-.068 4.496-.006 6.754.108 3.938 1.287 7.52 2.95 10.97.808 1.676 1.904 3.233 3.016 4.736 3.064 4.143 7.537 6.453 11.844 8.963.657.383 1.444.552 2.118 1.463-3.646-.974-6.886-2.197-9.32-4.87zm36.56-81.043c2.301-.71 4.732-.41 6.913.83 1.627.926 2.686 2.292 2.997 4.359-2.546.435-4.745-.963-7.053-1.445-2.337-.487-4.775-.282-7.389-1.176 1.265-1.689 3.03-2.105 4.533-2.568zm11.473 1.983c-1.087-.117-1.422-1.192-2.071-1.817-1.533-1.475-3.379-1.973-5.368-2.202-.811-.093-1.632-.111-2.662-.178 4.883-2.44 8.857-.698 10.101 4.197zm15.965 20.8c2.85 2.895 4.41 6.435 5.645 10.289 1.458 4.55 2.133 9.097 1.686 13.836-.18 1.934-.797 3.743-1.58 5.53.085-2.613.178-5.225.256-7.838.216-7.214-1.425-13.924-5.394-20.002-.36-.55-.956-1.039-.613-1.816zM92.992 14.037c1.902.412 3.507 1.149 4.905 2.485 2.148 2.051 4.87 3.338 7.095 5.296 3.702 3.256 7.351 6.622 8.949 11.455 1.388 4.199 3.154 8.335 3.075 12.917-.027 1.56-.1 3.15-.35 4.637-.594 3.528-.751 7.105-1.555 10.627-.63 2.752-1.76 5.296-2.458 7.997-.695 2.698-2.518 4.82-3.845 7.193-.454.812-1.033 1.53-1.361 2.439-.198.55-.45 1.372-1.362 1.272.487-1.728 1.442-3.235 2.245-4.815 1.24-2.445 1.906-5.109 2.82-7.677 1.14-3.208 2.303-6.414 3.276-9.676 1.027-3.442 1.345-6.971 1.143-10.597-.269-4.81-1.654-9.296-3.276-13.758a16.923 16.923 0 0 0-2.45-4.514c-.994-1.302-2.034-2.554-2.831-4.003-.477-.867-1.333-2.066-2.213-1.558-.995.575.095 1.652.455 2.441.28.61.823 1.097.873 1.823-1.048-.187-1.185-1.231-1.688-1.914-1.713-2.32-3.352-4.72-5.833-6.3-4.126-2.627-8.216-5.33-12.89-6.95-1.404-.486-2.855-.734-4.29-1.07-.528-.122-1.095-.093-1.42-.632.005-.333.281-.37.45-.314 2.917.96 6.136.882 8.83 2.632 1.114.724 2.465.296 3.706.564zm9.552 72.176c-4.208 3.913-8.98 6.93-14.756 8.02-1.425.269-2.679 1.218-4.297.99.898-.716 1.852-1.317 2.966-1.665a50.438 50.438 0 0 0 12.38-5.816c1.983-1.28 3.754-2.754 4.998-4.796a9.57 9.57 0 0 1 2.176-2.503c-.32 2.424-1.831 4.248-3.467 5.77zM77.295 99.228c2.312-.256 4.694-.295 6.907-.922 3.127-.886 6.199-2.015 9.153-3.456 3.732-1.818 7.169-4.09 10.441-6.604 1.177-.904 2.466-1.846 2.853-3.523.168-.724.712-1.357 1.072-2.037 2.498-4.717 5.93-8.908 7.522-14.143.953-3.132 1.952-6.248 2.392-9.48.26-1.918.688-3.806.877-5.733.357-3.633.876-7.224.277-10.923-.43-2.655-1.353-5.123-2.113-7.648-1.666-5.524-4.908-9.985-9.413-13.599-2.538-2.036-5.017-4.16-7.496-6.274-2.232-1.906-4.77-3.471-7.872-3.638-.471-.024-1.157-.077-1.143-.562.031-1.13-.999-2.095-.512-3.262.59.818.427 2.167 1.768 2.493.723-.512.651-1.353.343-1.889-.79-1.371-.81-2.97-1.66-4.365-1.606-2.637-4.7-4.26-7.584-3.456-.694.192-1.396.138-2.067.278-1.882.39-3.877.655-4.656 2.888-.3.857-.974 1.365-1.759 1.791-.74.404-1.804.833-1.888 1.606-.16 1.496-1.078 1.204-1.965 1.222-3.963.083-7.883.345-11.668 1.77-1.147.431-2.282.96-3.485 1.248-3.456.831-6.367 2.846-9.44 4.471-4.569 2.417-7.168 6.824-9.86 10.94-2.676 4.091-4.545 8.703-5.734 13.464-.992 3.972-2.358 7.85-2.832 11.977-.275 2.394-.828 4.797-.744 7.192.192 5.378.853 10.724 2.275 15.932.444 1.625.973 3.36 1.956 4.674 1.201 1.608 2.348 3.31 3.872 4.679 4.585 4.12 9.535 7.658 15.193 10.185 1.702.759 3.487 1.267 5.169 2.101 2.934 1.456 6.097 2.436 9.36 2.733 4.144.378 8.314.33 12.461-.13z"/><path d="M77.24 24.072c-1.58 2.126-3.348 4.084-6.272 4.269-.33.021-.633.15-.718.485-.117.458.219.766.554.915.922.41 1.898.699 2.815 1.118 1.416.65 1.533.845 1.036 2.297-.91 2.658-1.773 5.346-2.908 7.91-.795 1.797-1.155 3.716-1.918 5.5-.412.966-.691 2.194-2.097 2.216-1.947.031-2.872 1.496-3.7 2.846-1.404 2.283.138 5.037 2.826 5.282.935.086 1.893.06 2.778-.26.933-.336 1.69-.228 2.648.138 3.328 1.27 6.587 2.738 10.106 3.515 1.792.394 3.527 1.136 5.208 1.983.905.457.893.95.633 1.649-.13.353-.426.643-.646.963-.331.482-.51 1.035-.165 1.53.337.487 1 .265 1.502.417.294.089.75-.172 1.067-.377.847-.546 1.704-.722 2.652-.31.374.164.712.102 1.101-.09.979-.482 1.947-.827 3.026-.051.628.452 1.185-.14 1.58-.619.534-.65-.127-1.016-.49-1.318-.834-.695-1.955-1.139-2.583-1.972-1.384-1.836-3.467-2.891-4.876-4.675-.27-.342-.669-.73-1.203-.477-.623.294-.592.88-.468 1.422.084.37.388.694.449 1.06.123.736-.413 1.183-1.1.893-3.294-1.384-6.796-2.115-10.147-3.339-3.052-1.112-5.727-2.367-6.544-5.873-.05-.217-.204-.433-.364-.595-.67-.677-.468-1.344-.172-2.144 1.705-4.603 4.167-8.904 5.313-13.737.427-1.796.616-1.75 2.345-1.058 1.53.612 2.262.062 2.027-1.546-.392-2.693-1.014-5.363-.758-8.118.038-.398-.241-.683-.502-.953-1-.233-1.467.34-2.035 1.104"/></g></g></svg>