<svg width="210" height="140" xmlns="http://www.w3.org/2000/svg"><g transform="translate(51.5 20)" fill="none" fill-rule="evenodd"><ellipse fill="#EAF6F9" fill-rule="nonzero" cx="57.01" cy="50" rx="50.01" ry="50"/><path d="M76.851 53.348c-.124-.069-.202-.223-.38-.43.994-.715 2.118.05 3.154-.345.952-.365 2.092-.26 3.153-.314 3.736-.187 7.243-1.08 10.348-3.259.187-.13.391-.256.606-.327 3.29-1.079 4.802-3.82 6.103-6.677 1.264-2.776 2.376-5.601 3.12-8.598.713-2.869.802-5.726.794-8.625-.003-.96-.001-1.92-.001-2.88.97 1.308 1.065 2.728 1.035 4.174-.038 1.838-.121 3.677-.09 5.513.059 3.576-.835 6.863-2.31 10.133-.9 1.997-2.117 3.726-3.506 5.243-1.4 1.526-3.346 2.576-5.125 3.723-1.022.66-2.16 1.16-3.29 1.63-4.187 1.738-8.505 2.274-12.966 1.268a2.49 2.49 0 0 1-.645-.23zm-2.541-2.609c-2.727-.202-5.06-1.355-7.695-2.384.402-.244.581-.368.774-.467.277-.143.599-.284.558-.643-.038-.33-.322-.505-.647-.527-.457-.031-.983-.182-1.363-.015-1.843.808-2.947-.384-3.925-1.513-2.84-3.286-4.79-7.039-5.48-11.376-.108-.678-.234-1.363-.251-2.046-.063-2.449-.015-2.382 2.228-3.422 3.468-1.608 7.186-1.931 10.9-2.331.708-.077 1.197.154 1.433.84.173.501.334 1.008.565 1.706a35.938 35.938 0 0 0-8.598.91c-.297.067-.623.037-.907.135-.61.211-1.057-.937-1.258-.477-.315.718-.75 1.407-.837 2.305-.363 3.695 1.917 5.84 4.45 7.726 3.987 2.968 8.818 3.521 13.526 3.664 3.023.091 6.034-.707 8.921-2.367 4.354-2.504 7.052-6.138 8.493-10.617 1.253-3.883 1.132-7.892-.916-11.77-2.845-5.392-7.43-7.929-13.183-8.613-1.296-.154-2.876.144-4.002 1.282-.464.47-.948 1.022-1.774.862-4.894-.943-9.653.515-14.753.868.624-1.444 1.52-2.344 2.855-2.789 3.879-1.293 7.926-1.64 11.956-2.054.588-.06 1.174.238 1.714.574.423.263.9.141 1.218-.278.299-.396.296-.842.16-1.311-.173-.598-.623-.585-1.092-.541-3.565.342-7.134.657-10.618 1.54-.527.133-1.035.264-1.58.18 1.104-1.47 1.165-1.359 2.679-1.82 3.18-.969 6.377-1.604 9.72-1.364.687.048 1.356.044 2.03.279.623.217 1.075-.161 1.121-.786.053-.708-.305-1.243-1.094-1.1-1.745.314-3.501.16-5.214.331-.11-.373.003-.548.23-.606 5.721-1.454 11.19-1.323 16.188 2.363 1.53 1.129 3.156 2.118 4.66 3.305 2.136 1.685 3.491 3.908 4.44 6.316 1.003 2.543 1.769 5.184 1.69 8.03-.113 4.121-.25 8.21-1.24 12.25-.74 3.018-2.57 5.52-3.64 8.37-.076.202-.265.398-.453.513-2.72 1.68-4.887 4.173-7.963 5.34-1.658.63-3.285 1.157-5.117 1.063-2.975-.156-5.899.692-8.91.465zm-13.825-1.196c-.687-.592-.677-2.426-2.335-1.498-.082.045-.337-.039-.372-.121-.355-.835-.759-1.66-.99-2.532-.182-.679.028-1.36.746-1.962 1.192 1.347 2.409 2.688 3.586 4.062.895 1.04.872 1.058-.635 2.05zm-3.752-25.458c.445-.4.99-.833 1.55-.937 3.745-.702 7.426-1.784 11.263-1.953.22-.01.444.07.818.135-.092 1.21.159 2.465-.335 3.25-.599.95-2 .25-3.028.483-2.966.674-6.05.73-8.962 1.729-.46.158-1.338.704-1.588-.13-.242-.81-.54-1.842.282-2.577zm.67-3.823c.32-.202.682-.342 1.031-.495 3.033-1.33 9.521-2.34 13.012-2.03.202.662-.347 1.135-.45 1.727-.104.588-.506.87-1.155.87-3.986-.002-7.83 1.031-11.726 1.673-.439.072-1.035.358-1.233-.129-.226-.554-.087-1.231.522-1.616zm17.518 9.707c-.218-.3-.594-.48-.851-.76-.36-.388-.718-.792-1.004-1.235-.599-.936.637-2.055-.486-3.12-.96-.91-.233-2.333-.035-3.508.191-1.13.54-2.233 1.141-3.228.748-1.241 1.432-2.536 2.304-3.685 1.67-2.2 3.848-3.424 6.718-2.923 2.45.428 4.641 1.3 6.467 3.146 1.283 1.299 2.584 2.415 3.387 4.193 2.243 4.97 1.695 9.599-1.001 14.166-2.66 4.505-6.648 6.978-11.726 7.864-2.715.474-5.313-.383-7.963-.64-2.495-.24-4.758-1.004-6.742-2.62-1.142-.93-1.994-2.107-2.953-3.177-1.473-1.644-.926-3.11 1.204-3.748.805-.241 1.627-.464 2.457-.573 1.062-.14 2.14-.158 2.925-.21 1.71.082 3.218-.316 4.435.855.356.342.882.211 1.33.16.653-.075.725-.495.393-.957zM58.127 16.854c.749-1.903 2.343-3.001 4.137-3.245 3.012-.409 6.008-1.06 9.075-1.076.997-.005 1.9.235 2.795.51-.014.657-.55.848-.724 1.26-.695 1.659-2.024 1.824-3.668 2.038-3.525.46-7.105.728-10.537 1.757-.511.153-.9.162-1.22-.211-.305-.355.003-.68.142-1.033zM55.424 51.52c-1.334 2.093-3.41 3.51-4.826 5.518-.25.355-.719.375-.99.031-.357-.45-1.006-.812-.719-1.562.082-.21.165-.472.332-.59 2.398-1.689 3.741-4.327 5.829-6.526 1.146 1.061 1.102 1.988.374 3.13zm-4.782 12.275c-1.554 2.215-3.824 3.666-5.774 5.451-1.398 1.281-2.956 2.387-4.347 3.7-2.833 2.676-5.639 5.403-8.678 7.833-4.421 3.534-8.11 7.85-12.534 11.382-1.264 1.009-2.412 2.214-3.768 3.5.258-2.619.127-4.994-.868-7.129-1.083-2.327-3.525-2.994-5.836-3.834 1.011-2.014 2.841-3.092 4.297-4.496 3.007-2.902 6.466-5.297 9.43-8.254 1.2-1.196 2.529-2.202 3.97-3.096 2.467-1.531 4.785-3.243 6.762-5.421 2.657-2.927 5.898-5.242 8.707-8.013.88-.867 1.594-.893 2.525-.064.793.706 1.77 1.203 2.617 1.854.477.367 1.194.838 1.22 1.296.078 1.341.193 2.19 1.937 2.265.91.04 1.012 2.068.34 3.026zM8.149 97.263c-2.846-1.064-4.536-3.29-5.82-5.836-.918-1.817-.214-3.156 1.67-3.807.288-.1.561-.241.835-.375 3.702-1.792 7.259-.102 8.194 3.86.175.74.537 1.433.488 2.139.114 2.883-2.793 4.982-5.367 4.02zm74.987-41.582c.558-.265 1.192-.197 1.812-.15 2.014.153 3.923-.212 5.7-1.214.73-.413 1.455-.89 2.245-1.133 3.71-1.137 6.513-3.581 8.961-6.398 2.29-2.635 3.37-5.936 4.355-9.25 1.043-3.507.083-7.138.81-10.464-.206-2.253-.105-4.396-.94-6.297-1.13-2.571-2.079-5.236-3.727-7.578-2.177-3.098-4.17-6.246-7.683-8.181-2.667-1.47-5.25-3.072-8.107-4.166-1.15-.441-2.33-.728-3.568-.808-2.532-.163-5.04.182-7.542.43-1.651.163-3.238.777-4.928.93-1.463.13-2.49 1.339-3.714 2.06-2.642 1.554-5.097 3.523-7.007 5.791-2.287 2.717-3.458 6.257-4.528 9.688-.294.943-.622 1.886-.86 2.847-.198.794-.992 1.118-1.28 1.787-.406.938.933 1.136.928 1.94-.001.307 0 .613-.007.92-.026 1.148-.09 2.296-.077 3.443.028 2.765.264 5.529 1.196 8.133.526 1.473 1.68 2.77.236 4.3-.714 4.562-3.942 7.476-6.99 10.456-1.582 1.547-1.702 1.424-3.695.216-1.744-1.058-2.066-1.037-3.578.43-1.364 1.323-2.376 3.012-3.977 4.076-1.543 1.025-2.855 2.232-4.12 3.596-2.386 2.572-4.963 4.959-8.074 6.715-1.389.784-2.697 1.786-3.86 2.88-2.064 1.942-4.224 3.758-6.38 5.59-1.863 1.58-3.96 2.913-5.542 4.812-1.412 1.695-3.1 2.84-5.266 3.486-3.668 1.093-5.075 5.593-2.83 8.708.404.561.713 1.183 1.122 1.714 2.448 3.182 5.44 5.283 9.743 4.59.36-.058.837-.052 1.11.138.958.67 1.315.018 1.77-.64.344-.497.758-.96 1.205-1.37 2.752-2.527 5.505-5.055 8.293-7.544 1.94-1.73 3.586-3.81 5.603-5.39 5.292-4.144 9.773-9.173 15.017-13.371 2.023-1.618 3.998-3.34 6-4.999 2.964-2.456 3.034-2.371 1.539-5.948-.06-.142-.106-.295-.195-.416-.837-1.141-.479-2.132.366-3.074 1.432-1.6 2.873-3.191 4.28-4.813.498-.572.948-.83 1.779-.597 1.515.428 3.117-.102 4.088-1.04 1.286-1.242 2.211-.928 3.371-.167.823.541 1.685.976 2.28 1.866.605.906 1.66 1.216 2.714 1.56 2.328.761 4.791.941 7.092 1.702 1.661.55 3.185 1 4.86.204z" fill="#1A1919"/></g></svg>